<svg width="34" height="34" viewBox="0 0 34 34" fill="none" xmlns="http://www.w3.org/2000/svg">
<path fill-rule="evenodd" clip-rule="evenodd" d="M17.3502 29.7061C18.9796 28.2276 20.4875 26.6207 21.8595 24.9008C24.7495 21.2698 26.5076 17.6899 26.6266 14.5067C26.6737 13.213 26.4595 11.923 25.9969 10.7139C25.5343 9.50486 24.8328 8.4014 23.9342 7.46951C23.0356 6.53762 21.9584 5.7964 20.7669 5.29013C19.5755 4.78386 18.2942 4.52294 16.9996 4.52294C15.7051 4.52294 14.4238 4.78386 13.2323 5.29013C12.0408 5.7964 10.9636 6.53762 10.065 7.46951C9.16645 8.4014 8.4649 9.50486 8.00231 10.7139C7.53972 11.923 7.32557 13.213 7.37266 14.5067C7.49308 17.6899 9.25257 21.2698 12.1412 24.9008C13.5131 26.6207 15.0211 28.2276 16.6504 29.7061C16.8072 29.8478 16.9238 29.9507 17.0003 30.0149L17.3502 29.7061ZM15.9548 31.3565C15.9548 31.3565 5.66699 22.6922 5.66699 14.1667C5.66699 11.1609 6.86104 8.27821 8.98645 6.1528C11.1119 4.02739 13.9945 2.83334 17.0003 2.83334C20.0061 2.83334 22.8888 4.02739 25.0142 6.1528C27.1396 8.27821 28.3337 11.1609 28.3337 14.1667C28.3337 22.6922 18.0458 31.3565 18.0458 31.3565C17.4735 31.8835 16.5314 31.8778 15.9548 31.3565ZM17.0003 18.1333C18.0524 18.1333 19.0613 17.7154 19.8052 16.9715C20.5491 16.2276 20.967 15.2187 20.967 14.1667C20.967 13.1147 20.5491 12.1057 19.8052 11.3618C19.0613 10.6179 18.0524 10.2 17.0003 10.2C15.9483 10.2 14.9394 10.6179 14.1955 11.3618C13.4516 12.1057 13.0337 13.1147 13.0337 14.1667C13.0337 15.2187 13.4516 16.2276 14.1955 16.9715C14.9394 17.7154 15.9483 18.1333 17.0003 18.1333ZM17.0003 19.8333C15.4974 19.8333 14.0561 19.2363 12.9934 18.1736C11.9307 17.1109 11.3337 15.6696 11.3337 14.1667C11.3337 12.6638 11.9307 11.2224 12.9934 10.1597C14.0561 9.09703 15.4974 8.50001 17.0003 8.50001C18.5032 8.50001 19.9446 9.09703 21.0073 10.1597C22.07 11.2224 22.667 12.6638 22.667 14.1667C22.667 15.6696 22.07 17.1109 21.0073 18.1736C19.9446 19.2363 18.5032 19.8333 17.0003 19.8333Z" fill="#3107CA"/>
</svg>
