<svg width="25" height="22" viewBox="0 0 25 22" fill="none" xmlns="http://www.w3.org/2000/svg">
<path d="M22.6556 20.4286H2.34455C1.04777 20.4286 0.000976562 19.3757 0.000976562 18.0714V3.92858C0.000976562 2.6243 1.04777 1.57144 2.34455 1.57144H22.6556C23.9523 1.57144 24.9991 2.6243 24.9991 3.92858V18.0714C24.9991 19.3757 23.9523 20.4286 22.6556 20.4286ZM2.34455 3.14287C1.90709 3.14287 1.56336 3.48858 1.56336 3.92858V18.0714C1.56336 18.5114 1.90709 18.8572 2.34455 18.8572H22.6556C23.093 18.8572 23.4368 18.5114 23.4368 18.0714V3.92858C23.4368 3.48858 23.093 3.14287 22.6556 3.14287H2.34455Z" fill="#3107CA"/>
<path d="M12.5005 14.08C11.4068 14.08 10.4069 13.64 9.65695 12.8386L1.45442 4.07C1.15757 3.75571 1.17319 3.25286 1.48567 2.95428C1.79815 2.65571 2.29811 2.67143 2.59496 2.98571L10.7975 11.7543C11.688 12.7129 13.3129 12.7129 14.2035 11.7543L22.406 3.00143C22.7029 2.68714 23.2028 2.67143 23.5153 2.97C23.8278 3.26857 23.8434 3.77143 23.5465 4.08571L15.344 12.8543C14.5941 13.6557 13.5942 14.0957 12.5005 14.0957V14.08Z" fill="#3107CA"/>
</svg>
