<svg width="49" height="46" viewBox="0 0 49 46" fill="none" xmlns="http://www.w3.org/2000/svg">
<path d="M7.50976 33.3109C7.71964 32.2639 7.99948 31.2594 8.34114 30.3253C8.67642 29.4096 8.93316 28.3886 9.12104 27.2514C8.04436 27.5827 6.8315 27.7024 5.6556 27.7024C3.60806 27.7024 1.6802 27.3495 0.797777 27.1614C0.772477 28.5455 0.833197 29.9594 0.992697 31.5012L1.183 33.1021C1.2237 33.446 1.24438 33.7958 1.24438 34.1418L1.2974 44.5494L7.63604 44.4735L7.38458 34.7616C7.37204 34.2756 7.41406 33.7874 7.50976 33.3109Z" fill="#FBCE9C"/>
<path d="M14.4978 20.7447C18.1815 20.2319 23.4553 19.7635 29.1439 20.0996C29.1516 20.0992 29.159 20.0974 29.1667 20.0974C29.3214 20.0974 29.4721 20.1102 29.6206 20.1285C30.8119 20.2081 32.0197 20.3258 33.2337 20.4844V5.19662C32.6269 4.86772 32.0556 4.54938 31.5511 4.25634C31.2429 4.07726 30.9586 3.88542 30.6993 3.6817C30.2467 5.73298 27.9979 6.85256 24.2447 6.85256C22.6325 6.85256 17.9692 6.85036 17.2986 3.96396C17.1508 4.0645 16.9981 4.16262 16.8368 4.25612C16.1537 4.653 15.3488 5.09586 14.4978 5.54906V20.7447Z" fill="#8B6DED"/>
<path d="M18.02 3.40077C18.141 5.18739 20.1767 6.05947 24.2449 6.05947C26.3521 6.05947 29.8576 5.65973 29.9893 3.02875C29.3808 2.36809 28.9892 1.61436 28.8286 0.791565H19.5598C19.3682 1.77342 18.8452 2.65607 18.02 3.40077Z" fill="#FBCE9C"/>
<path d="M47.1439 34.141C47.1439 33.7958 47.1645 33.4458 47.2057 33.1024L47.3964 31.4955C47.5531 29.9814 47.6149 28.5897 47.5929 27.2286C46.4971 27.5784 45.2536 27.7027 44.0496 27.7027C42.0493 27.7027 40.1637 27.3658 39.2549 27.1751C39.4434 28.3431 39.7046 29.3892 40.0471 30.3255C40.3885 31.2585 40.6684 32.263 40.8787 33.3111C40.9744 33.7883 41.0164 34.2765 41.0039 34.7622L40.7524 44.4695H47.1104L47.1439 34.141Z" fill="#FBCE9C"/>
<path d="M36.744 21.0683C37.2978 21.1812 37.8508 21.3009 38.4019 21.4351C38.6153 21.487 38.8074 21.5952 38.9698 21.7376C39.2984 20.6017 39.63 19.265 39.956 17.6135C39.9985 17.3985 40.2064 17.259 40.422 17.3011C40.6369 17.3435 40.7766 17.5521 40.7344 17.767C40.2037 20.4543 39.6592 22.3283 39.1356 23.8401C39.0595 24.1021 39.0116 24.3653 39.0391 24.6493L39.1653 26.3426C40.3008 26.5917 44.6766 27.4373 47.5689 26.4003C47.4578 23.7158 47.0237 21.0782 46.3461 17.7697C46.3428 17.7536 46.3406 17.7371 46.3393 17.7208C45.9772 13.0383 44.3826 10.445 41.0083 9.04931C40.2004 8.71513 38.55 7.93171 36.7445 7.02399V21.0683H36.744Z" fill="#8B6DED"/>
<path d="M35.4363 38.141C35.4357 38.1313 35.4355 38.1214 35.4355 38.1117C35.4434 37.3543 35.4612 36.6547 35.4869 36.0008C25.8639 35.3351 16.524 35.7821 12.9242 36.0074C12.9497 36.6595 12.9675 37.3567 12.9754 38.1117C12.9757 38.1216 12.9752 38.1313 12.9746 38.141L12.568 44.5531L35.8376 44.4706L35.4363 38.141Z" fill="#8B6DED"/>
<path d="M9.24883 26.3723C9.26423 26.2498 9.28139 26.1299 9.29525 26.0047C9.29635 25.9752 9.29525 25.9459 9.29789 25.9165L9.41053 24.6814C9.41823 24.5674 9.42769 24.457 9.43429 24.341C9.42901 24.3028 9.41735 24.2537 9.40173 24.1994C8.83985 22.6259 8.25025 20.6706 7.67693 17.7672C7.63469 17.5523 7.77417 17.3437 7.98933 17.3013C8.20493 17.259 8.41283 17.3985 8.45529 17.6137C8.79629 19.3404 9.14301 20.7232 9.48643 21.8918C9.69807 21.6729 9.97219 21.5191 10.2753 21.4575C10.4824 21.4155 10.7228 21.3682 10.9879 21.318V7.35199C9.44639 8.11715 8.08921 8.75625 7.38059 9.04929C4.00601 10.445 2.41167 13.0383 2.04933 17.7208C2.04801 17.7373 2.04581 17.7536 2.04251 17.7696C1.36887 21.0586 0.936348 23.6843 0.822388 26.3536C2.04009 26.6176 6.39741 27.4369 9.24883 26.3723Z" fill="#8B6DED"/>
<path d="M0.808228 45.335C0.787988 45.3299 0.767968 45.3246 0.749268 45.3167C0.767968 45.3249 0.787988 45.3301 0.808228 45.335Z" fill="#FF0000"/>
<path d="M0.506226 44.9559C0.506446 44.9713 0.509305 44.9856 0.511285 45.0006C0.509305 44.9852 0.506445 44.9702 0.506445 44.9544C0.506445 44.9548 0.506226 44.9555 0.506226 44.9559Z" fill="#FF0000"/>
<path d="M8.13033 45.2523C8.11735 45.2551 8.10326 45.2558 8.08984 45.2573C8.10326 45.256 8.11713 45.2553 8.13033 45.2523Z" fill="#FF0000"/>
<path d="M0.529314 45.0796C0.524034 45.0644 0.518315 45.0497 0.515015 45.0338C0.518315 45.0497 0.524254 45.0644 0.529314 45.0796Z" fill="#FF0000"/>
<path d="M8.37429 45.0811C8.36832 45.0902 8.36091 45.0982 8.35413 45.1068C8.36091 45.0982 8.36832 45.0904 8.37429 45.0811Z" fill="#FF0000"/>
<path d="M8.4328 44.9381C8.43038 44.9509 8.42598 44.963 8.42224 44.9753C8.42576 44.963 8.43038 44.9511 8.4328 44.9381Z" fill="#FF0000"/>
<path d="M0.606093 45.212C0.595313 45.1999 0.584093 45.188 0.575073 45.1746C0.584313 45.1878 0.595533 45.1997 0.606093 45.212Z" fill="#FF0000"/>
<path d="M8.26858 45.1902C8.25973 45.1964 8.25006 45.2009 8.2406 45.2063C8.25006 45.2009 8.25994 45.1964 8.26858 45.1902Z" fill="#FF0000"/>
<path d="M8.20405 45.2278C8.19283 45.2327 8.18073 45.2358 8.16907 45.2397C8.18073 45.2358 8.19283 45.2329 8.20405 45.2278Z" fill="#FF0000"/>
<path d="M8.4397 44.8609C8.4397 44.86 8.43948 44.8589 8.43948 44.858C8.4397 44.8721 8.4375 44.8855 8.4364 44.8992C8.43728 44.8864 8.43992 44.8739 8.4397 44.8609Z" fill="#FF0000"/>
<path d="M0.661278 45.2637C0.648518 45.2538 0.635097 45.2441 0.623657 45.2327C0.635097 45.2441 0.648298 45.2536 0.661278 45.2637Z" fill="#FF0000"/>
<path d="M36.4267 45.2248C36.4148 45.2303 36.4021 45.2347 36.3895 45.2389C36.4021 45.2345 36.4146 45.2303 36.4267 45.2248Z" fill="#FF0000"/>
<path d="M11.8834 45.2464C11.8744 45.2386 11.8655 45.2306 11.8573 45.2219C11.8655 45.2308 11.8744 45.2386 11.8834 45.2464Z" fill="#FF0000"/>
<path d="M36.6298 45.0074C36.6252 45.0195 36.6195 45.0309 36.6135 45.0424C36.6192 45.0309 36.6252 45.0195 36.6298 45.0074Z" fill="#FF0000"/>
<path d="M11.9448 45.2912C11.9345 45.2853 11.924 45.2791 11.9143 45.2721C11.924 45.2791 11.9343 45.2851 11.9448 45.2912Z" fill="#FF0000"/>
<path d="M36.6568 44.8642C36.6568 44.8602 36.6557 44.8565 36.6555 44.8525C36.6559 44.866 36.6548 44.8789 36.6539 44.8919C36.6548 44.8827 36.6568 44.8737 36.6568 44.8642Z" fill="#FF0000"/>
<path d="M11.7489 44.9527C11.7489 44.9617 11.7511 44.9703 11.7515 44.9791C11.7507 44.9661 11.7496 44.9529 11.75 44.9395C11.7502 44.9439 11.7489 44.948 11.7489 44.9527Z" fill="#FF0000"/>
<path d="M11.765 45.0569C11.7615 45.0446 11.7582 45.0325 11.756 45.0197C11.7582 45.0323 11.7617 45.0446 11.765 45.0569Z" fill="#FF0000"/>
<path d="M47.8613 45.0378C47.8529 45.0549 47.8445 45.0721 47.834 45.0879C47.8445 45.0723 47.8529 45.0552 47.8613 45.0378Z" fill="#FF0000"/>
<path d="M47.7807 45.1504C47.7457 45.1841 47.705 45.212 47.6597 45.2311C47.705 45.212 47.7457 45.1843 47.7807 45.1504Z" fill="#FF0000"/>
<path d="M40.0364 45.1119C40.0286 45.1022 40.0203 45.0932 40.0135 45.0829C40.0205 45.093 40.0286 45.1022 40.0364 45.1119Z" fill="#FF0000"/>
<path d="M39.9485 44.8657C39.9485 44.8776 39.9509 44.8888 39.952 44.9005C39.9509 44.8873 39.9489 44.8743 39.9491 44.8607C39.9491 44.8622 39.9485 44.864 39.9485 44.8657Z" fill="#FF0000"/>
<path d="M40.2232 45.2413C40.2109 45.2373 40.1982 45.234 40.1863 45.2288C40.1982 45.2338 40.2107 45.2371 40.2232 45.2413Z" fill="#FF0000"/>
<path d="M47.6397 45.2373C47.6218 45.2437 47.6042 45.2503 47.5853 45.254C47.604 45.2503 47.6218 45.2439 47.6397 45.2373Z" fill="#FF0000"/>
<path d="M18.8512 0.256085C18.8556 0.244425 18.8607 0.233205 18.8662 0.221985C18.8607 0.232985 18.8556 0.244205 18.8512 0.256085Z" fill="#FF0000"/>
<path d="M18.9884 0.0740651C18.997 0.0678937 19.0059 0.0621339 19.0151 0.0565796C19.0059 0.0621339 18.997 0.067688 18.9884 0.0740651Z" fill="#FF0000"/>
<path d="M29.4827 0.156921C29.4895 0.165767 29.496 0.175024 29.502 0.184487C29.4958 0.175024 29.4895 0.165973 29.4827 0.156921Z" fill="#FF0000"/>
<path d="M18.8855 0.184069C18.8913 0.174812 18.8974 0.166172 18.904 0.157532C18.8974 0.166377 18.8913 0.175018 18.8855 0.184069Z" fill="#FF0000"/>
<path d="M29.3696 0.055481C29.3797 0.0614467 29.3896 0.0678235 29.399 0.0746121C29.3896 0.0678235 29.3797 0.0616524 29.3696 0.055481Z" fill="#FF0000"/>
<path d="M19.1263 0.0110553C19.1378 0.0081953 19.1497 0.00621557 19.1613 0.00445557C19.1494 0.00621557 19.1378 0.0081953 19.1263 0.0110553Z" fill="#FF0000"/>
<path d="M29.3003 0.0228882C29.3124 0.0272882 29.3243 0.0319086 29.3359 0.0374086C29.3245 0.0319086 29.3126 0.0272882 29.3003 0.0228882Z" fill="#FF0000"/>
<path d="M29.5222 0.221558C29.5277 0.232778 29.533 0.244438 29.5374 0.256318C29.5328 0.244218 29.5277 0.232998 29.5222 0.221558Z" fill="#FF0000"/>
<path d="M19.0537 0.0356963C19.0634 0.0311706 19.0735 0.0272624 19.0837 0.0235596C19.0735 0.0272624 19.0636 0.0311706 19.0537 0.0356963Z" fill="#FF0000"/>
<path d="M1.29958 44.9491L1.2976 44.5498L1.24458 34.1423C1.24458 33.7962 1.2239 33.4464 1.1832 33.1025L0.992897 31.5016C0.833397 29.9601 0.772677 28.5459 0.797977 27.1619C1.6804 27.35 3.60826 27.7029 5.6558 27.7029C6.8317 27.7029 8.04456 27.5832 9.12124 27.2519C8.93358 28.3888 8.67662 29.4101 8.34134 30.3257C7.99968 31.2598 7.71984 32.2641 7.50996 33.3113C7.41426 33.7878 7.37224 34.276 7.38478 34.7624L7.63624 44.4743L7.64658 44.8765C7.65208 45.0919 7.82852 45.2628 8.04302 45.2628H8.04852H8.05358C8.06612 45.2626 8.07778 45.2597 8.08988 45.2582C8.10352 45.2567 8.11738 45.256 8.13036 45.2531C8.14378 45.2501 8.15632 45.245 8.1693 45.2406C8.18096 45.2366 8.19306 45.2338 8.20428 45.2287C8.21726 45.223 8.22892 45.2153 8.24102 45.2083C8.25092 45.2025 8.26148 45.1977 8.27094 45.1911C8.28238 45.183 8.2925 45.1733 8.30306 45.164C8.31164 45.1566 8.32088 45.15 8.3288 45.1416C8.33826 45.1317 8.34618 45.1203 8.35476 45.1095C8.36202 45.1002 8.36994 45.0919 8.37632 45.082C8.38358 45.0708 8.38886 45.0584 8.39502 45.0466C8.40052 45.0358 8.40712 45.0254 8.41152 45.014C8.41636 45.0019 8.419 44.9889 8.42274 44.9762C8.42626 44.9638 8.43088 44.9517 8.4333 44.939C8.43572 44.9262 8.43572 44.913 8.43682 44.9C8.43792 44.8864 8.44012 44.873 8.4399 44.8589C8.4399 44.858 8.44012 44.8571 8.44012 44.8563L8.1781 34.7422C8.1671 34.3152 8.20384 33.8864 8.28788 33.4677C8.48984 32.4601 8.75868 31.495 9.08648 30.5989C9.3925 29.7629 9.63692 28.8484 9.82458 27.845C10.2386 29.3531 10.5275 31.4085 10.7105 33.0451C10.711 33.057 10.7099 33.0687 10.7114 33.0808C10.7121 33.0858 10.7151 33.09 10.716 33.0948C10.7627 33.5139 10.8027 33.9075 10.8355 34.2527C10.9096 35.035 11.4304 35.6607 12.1264 35.9034C12.1548 36.5816 12.174 37.3116 12.1825 38.1062L11.75 44.9269C11.7498 44.9315 11.7507 44.9357 11.7505 44.9403C11.75 44.9537 11.7509 44.9667 11.752 44.9799C11.7529 44.9935 11.754 45.0072 11.7562 45.0206C11.7584 45.0334 11.7617 45.0455 11.7652 45.0578C11.7687 45.0703 11.7722 45.0829 11.7769 45.0952C11.7815 45.1073 11.7872 45.1187 11.7931 45.1302C11.7989 45.1414 11.8044 45.1526 11.8112 45.1632C11.818 45.1742 11.8259 45.1843 11.8338 45.1944C11.8415 45.2043 11.849 45.214 11.8576 45.223C11.8664 45.2322 11.8759 45.2408 11.8855 45.2492C11.895 45.2575 11.9045 45.2657 11.9146 45.2732C11.9249 45.2806 11.9359 45.287 11.9471 45.2936C11.9581 45.3 11.9689 45.3064 11.9804 45.3117C11.9922 45.3172 12.0048 45.3213 12.0173 45.3257C12.0294 45.3299 12.0411 45.3341 12.0536 45.337C12.0666 45.34 12.0802 45.3418 12.0939 45.3436C12.1029 45.3449 12.1115 45.3475 12.1207 45.348C12.1291 45.3484 12.1374 45.3486 12.1456 45.3486H12.146C12.3537 45.3486 12.5284 45.1871 12.5416 44.977L12.5684 44.554L12.975 38.1419C12.9756 38.1322 12.9759 38.1223 12.9759 38.1126C12.9679 37.3576 12.9501 36.6604 12.9246 36.0083C16.5245 35.783 25.8643 35.336 35.4874 36.0017C35.4616 36.6558 35.4438 37.3551 35.4359 38.1126C35.4357 38.1225 35.4361 38.1322 35.4368 38.1419L35.8383 44.4715L35.8649 44.8917C35.8781 45.1018 36.0528 45.2633 36.2604 45.2633H36.2631C36.2706 45.2633 36.2783 45.263 36.286 45.2626C36.2954 45.2619 36.3042 45.2593 36.3137 45.258C36.3273 45.2562 36.341 45.2545 36.3539 45.2514C36.3665 45.2483 36.3781 45.2441 36.3902 45.2399C36.4028 45.2355 36.4155 45.2314 36.4274 45.2259C36.4389 45.2206 36.4496 45.2142 36.4604 45.2078C36.4716 45.2012 36.4829 45.1948 36.4932 45.1871C36.5033 45.1797 36.5126 45.1715 36.522 45.1632C36.5317 45.1546 36.5414 45.1462 36.5502 45.1368C36.5588 45.1277 36.566 45.1178 36.5737 45.1079C36.5816 45.0976 36.5896 45.0875 36.5964 45.0765C36.603 45.0659 36.6085 45.0545 36.6142 45.0433C36.6199 45.0318 36.6259 45.0204 36.6305 45.0083C36.6351 44.9962 36.6384 44.9834 36.6419 44.9707C36.6452 44.9583 36.6487 44.9462 36.6509 44.9335C36.6531 44.9201 36.654 44.9064 36.6549 44.8926C36.6558 44.8796 36.6569 44.8666 36.6564 44.8532C36.6562 44.8492 36.6571 44.8453 36.6569 44.8413L36.2296 38.1062C36.2382 37.3094 36.2576 36.5779 36.2862 35.8981C36.9809 35.6554 37.5008 35.0282 37.5776 34.2419C37.8106 31.854 38.1837 29.8503 38.6686 28.3554C38.8404 29.1599 39.05 29.907 39.3033 30.5987C39.6308 31.4939 39.8997 32.459 40.1021 33.4675C40.1861 33.8866 40.2231 34.3154 40.2119 34.742L39.9498 44.856C39.9498 44.8578 39.9503 44.8596 39.9503 44.8613C39.9501 44.875 39.952 44.8879 39.9531 44.9011C39.9542 44.9146 39.9547 44.9282 39.9571 44.9414C39.9595 44.9544 39.9641 44.9667 39.9679 44.9792C39.9716 44.9916 39.9745 45.0041 39.9793 45.016C39.9844 45.0283 39.991 45.0395 39.9974 45.0512C40.0031 45.0622 40.0081 45.0734 40.015 45.0835C40.0222 45.0945 40.031 45.1044 40.0394 45.1145C40.0471 45.124 40.0541 45.1339 40.0627 45.1427C40.0717 45.1519 40.0821 45.1599 40.092 45.1682C40.1014 45.1761 40.1104 45.1847 40.1206 45.192C40.1311 45.1992 40.1426 45.205 40.1538 45.2111C40.165 45.2173 40.1756 45.2241 40.1874 45.2294C40.1993 45.2347 40.2121 45.238 40.2244 45.2419C40.2367 45.2459 40.2486 45.2505 40.2614 45.2534C40.2743 45.2562 40.2882 45.2569 40.3016 45.2584C40.3131 45.2597 40.3243 45.2624 40.3362 45.2628C40.3397 45.263 40.343 45.263 40.3465 45.263C40.5608 45.263 40.7374 45.0923 40.7429 44.8767L40.7535 44.4697L41.005 34.7624C41.0177 34.2767 40.9755 33.7885 40.8798 33.3113C40.6695 32.2632 40.3896 31.2587 40.0482 30.3257C39.7054 29.3894 39.4445 28.3433 39.256 27.1753C40.1648 27.3663 42.0504 27.7029 44.0506 27.7029C45.2547 27.7029 46.4981 27.5786 47.594 27.2288C47.616 28.5899 47.5541 29.9816 47.3975 31.4957L47.2068 33.1025C47.1658 33.4462 47.1449 33.796 47.1449 34.1412L47.1113 44.4693L47.11 44.8646C47.1091 45.0837 47.2862 45.2617 47.5053 45.2626H47.5066C47.5339 45.2626 47.5605 45.2597 47.5865 45.2545C47.6054 45.2505 47.623 45.2441 47.6408 45.2377C47.6474 45.2353 47.6545 45.2342 47.6608 45.2316C47.7062 45.2124 47.7471 45.1847 47.7818 45.1508C47.7834 45.1493 47.7851 45.1484 47.7867 45.1469C47.8019 45.1317 47.8151 45.115 47.8276 45.0976C47.83 45.0943 47.8331 45.0917 47.8353 45.0884C47.8459 45.0727 47.8542 45.0554 47.8626 45.0382C47.8654 45.0323 47.8694 45.027 47.8718 45.021C47.8784 45.0056 47.8824 44.9889 47.887 44.9724C47.8894 44.9638 47.8932 44.9555 47.8949 44.9467C47.8978 44.933 47.898 44.9185 47.8993 44.9044C47.9006 44.8921 47.9031 44.88 47.9033 44.8673L47.9383 34.1425C47.9383 33.8272 47.9572 33.5089 47.9944 33.196L48.186 31.5832C48.364 29.8611 48.4207 28.2973 48.3752 26.761C48.3926 26.6928 48.391 26.62 48.3695 26.549C48.2694 23.7629 47.828 21.0498 47.1291 17.6352C46.7417 12.6942 44.9471 9.81995 41.3121 8.31669C40.429 7.95149 38.5247 7.04135 36.5198 6.02253L33.8239 4.61409C33.1461 4.24889 32.5077 3.89447 31.9509 3.57107C30.9617 2.99643 29.7443 1.97123 29.5623 0.351149C29.5617 0.344989 29.5595 0.339489 29.5586 0.333549C29.5564 0.319909 29.5535 0.306708 29.55 0.293728C29.5467 0.281188 29.543 0.268869 29.5386 0.256769C29.5342 0.244889 29.5289 0.233449 29.5234 0.222009C29.5174 0.209909 29.5113 0.198249 29.5045 0.187029C29.4981 0.176689 29.491 0.167009 29.4838 0.157549C29.4756 0.146769 29.4675 0.136429 29.4583 0.126749C29.4501 0.117949 29.4413 0.109589 29.4323 0.101669C29.4226 0.0928691 29.4127 0.0845085 29.4022 0.0768085C29.392 0.0693285 29.3815 0.0627288 29.3707 0.0563488C29.3597 0.0497488 29.3487 0.0435888 29.3373 0.0380888C29.3256 0.0325888 29.3137 0.0279692 29.3016 0.0235692C29.2895 0.0191692 29.2774 0.0152088 29.2647 0.0121288C29.2521 0.00904876 29.2394 0.00684855 29.2266 0.00486855C29.2132 0.00288855 29.2 0.00134905 29.1861 0.00090905C29.1657 2.90503e-05 29.145 -0.000851312 29.1239 0.00156869C28.9063 0.0259887 28.7496 0.222449 28.7741 0.440029C28.7875 0.559049 28.8071 0.676089 28.8297 0.792249C28.9903 1.61505 29.3819 2.36877 29.9904 3.02943C29.8587 5.66041 26.3532 6.06015 24.246 6.06015C20.1778 6.06015 18.1423 5.18807 18.0211 3.40145C18.8463 2.65675 19.3693 1.77411 19.5609 0.792249C19.5836 0.676089 19.6034 0.558829 19.6166 0.440029C19.641 0.222449 19.4843 0.0262087 19.2668 0.00156869C19.2459 -0.000851312 19.2256 2.90503e-05 19.2052 0.00090905C19.1906 0.00156905 19.1766 0.00310915 19.1625 0.00530915C19.1506 0.00706915 19.1389 0.00926888 19.1275 0.0119089C19.1136 0.0154289 19.1002 0.0196087 19.087 0.0244487C19.076 0.0284087 19.0655 0.0325891 19.0549 0.0374291C19.0421 0.0433691 19.03 0.050189 19.0182 0.057449C19.0085 0.063389 18.9988 0.0693288 18.9896 0.0761488C18.9781 0.0845088 18.9676 0.0935292 18.957 0.102989C18.9486 0.110469 18.9405 0.118169 18.9328 0.126309C18.9233 0.136649 18.9145 0.147429 18.9062 0.158649C18.8994 0.167889 18.8925 0.177129 18.8864 0.187029C18.8791 0.198689 18.873 0.210569 18.8668 0.222889C18.8613 0.234109 18.8562 0.245329 18.8518 0.256989C18.8472 0.269089 18.8437 0.281629 18.8402 0.294169C18.8367 0.307149 18.8338 0.320349 18.8316 0.333989C18.8307 0.339929 18.8285 0.345429 18.8279 0.351589C18.6459 1.97167 17.4284 2.99665 16.4393 3.57151C15.7056 3.99765 14.8307 4.47725 13.9098 4.96543L11.3562 6.28301C9.54562 7.19425 7.88528 7.98339 7.07788 8.31735C3.44282 9.82061 1.64828 12.6949 1.26086 17.6359C0.562357 21.049 0.121037 23.7609 0.0209367 26.5472C0.0187367 26.5545 0.0152168 26.5611 0.0132368 26.5685C-0.00326323 26.6343 -0.000402514 26.6999 0.0149975 26.7613C-0.0305425 28.2993 0.0262174 29.865 0.204637 31.5898L0.395597 33.1967C0.432777 33.5098 0.451697 33.8281 0.451697 34.1451L0.506917 44.9542C0.506917 44.9546 0.507137 44.955 0.507137 44.9555C0.507357 44.9713 0.509997 44.9863 0.511977 45.0017C0.513297 45.0127 0.513517 45.0241 0.515717 45.0349C0.519017 45.0507 0.524957 45.0655 0.530017 45.0807C0.533317 45.0899 0.535077 45.0998 0.539037 45.1088C0.545637 45.1242 0.554657 45.1385 0.563237 45.1528C0.567637 45.1603 0.570937 45.1684 0.575777 45.1755C0.585017 45.1889 0.596237 45.2008 0.606797 45.2129C0.612737 45.2197 0.617797 45.2274 0.624177 45.2338C0.635617 45.2452 0.649037 45.2547 0.661797 45.2648C0.668837 45.2703 0.675217 45.2769 0.682697 45.2817C0.696997 45.2914 0.712837 45.2987 0.728237 45.3064C0.735497 45.3101 0.742097 45.3147 0.749797 45.318C0.768497 45.326 0.788517 45.3312 0.808757 45.3363C0.813817 45.3376 0.818657 45.3398 0.823937 45.3409C0.849677 45.3462 0.876297 45.3488 0.903357 45.3488H0.905337C1.1238 45.3466 1.30068 45.1682 1.29958 44.9491ZM35.5604 35.2106C34.1339 35.1118 32.7143 35.0379 31.3177 34.9833C31.7456 34.6491 32.0833 34.2149 32.2965 33.7139C33.9837 33.8442 35.428 33.9894 36.7871 34.1649C36.7255 34.7946 36.1872 35.2563 35.5604 35.2106ZM12.8461 35.2174C12.2182 35.2572 11.6838 34.7998 11.6248 34.177C11.6015 33.9306 11.5742 33.6596 11.5439 33.3736L12.4646 33.2565C15.2881 32.9173 18.1494 32.7131 20.9689 32.6491C22.838 32.6071 24.6972 32.5946 26.4964 32.6124C28.2265 32.6295 29.9838 32.7026 31.7271 32.8249C31.5447 34.0213 30.4876 34.9136 29.1672 34.9136C29.1663 34.9136 29.1652 34.9138 29.1643 34.9138C21.9437 34.7297 15.6401 35.0418 12.8461 35.2174ZM9.9524 22.5771C10.0582 22.3978 10.2287 22.2763 10.4331 22.2348C10.7242 22.1756 11.0764 22.1069 11.4816 22.0326L13.998 21.6174C16.8465 21.1975 20.8052 20.7764 25.2259 20.7764C26.6258 20.7764 28.0727 20.8199 29.5443 20.9181C30.8115 21.085 31.7577 22.0792 31.7577 23.3216V23.5398C24.2491 22.5901 17.0716 23.5809 14.2853 24.0621L10.1869 24.9001L10.2263 24.4693C10.2553 24.1969 10.1427 23.8889 10.0122 23.5321C9.96824 23.4115 9.92292 23.2883 9.88508 23.1678C9.82216 22.9671 9.84592 22.7573 9.9524 22.5771ZM11.781 6.95511L13.7047 5.96247V20.862L11.781 21.1792V6.95511ZM34.1845 21.417L36.1656 21.7602C36.8503 21.8933 37.5338 22.0401 38.2143 22.2057C38.3658 22.2427 38.4912 22.3371 38.5676 22.4715C38.6424 22.6033 38.6587 22.7553 38.6158 22.8939C38.5885 22.9777 38.5588 23.0622 38.5286 23.1475C38.4618 23.3383 38.392 23.5407 38.337 23.7554L34.812 22.9192C34.0488 22.7636 33.2519 22.6297 32.4439 22.5146C32.3011 21.9692 32.0177 21.4832 31.6288 21.0927C32.4769 21.1796 33.33 21.2874 34.1845 21.417ZM34.0272 20.5848V5.61531L35.9509 6.62027V20.9183L34.0272 20.5848ZM10.0879 25.9884L10.1119 25.7248L14.4323 24.8413C16.5797 24.4708 24.1015 23.3557 31.7579 24.3397V32.032C30.0069 31.9095 28.2421 31.8364 26.5041 31.8191C24.6966 31.8008 22.8286 31.8136 20.9511 31.856C18.106 31.9205 15.219 32.1266 12.3673 32.4692L11.4557 32.5851C11.2044 30.4509 10.7814 27.7572 10.1407 26.3342C10.0947 26.2324 10.0765 26.1127 10.0879 25.9884ZM36.8712 33.3758C35.545 33.2048 34.1396 33.0627 32.5121 32.9351C32.5336 32.7888 32.5482 32.6401 32.5495 32.4876C32.5495 32.487 32.5497 32.4861 32.5499 32.4854C32.5499 32.4841 32.5497 32.483 32.5499 32.4817C32.5499 32.4733 32.5512 32.4654 32.5512 32.4571V23.3295C33.2684 23.4355 33.9727 23.5574 34.6417 23.6934L38.2402 24.5474C38.2418 24.6033 38.2433 24.6594 38.2488 24.7168L38.3962 26.6931C38.4028 26.7811 38.3863 26.8726 38.3485 26.9575C37.5459 28.7593 37.1079 31.3139 36.8712 33.3758ZM46.3391 17.7208C46.3404 17.7373 46.3426 17.7536 46.3459 17.7696C47.0235 21.0784 47.4578 23.716 47.5687 26.4002C44.6765 27.4373 40.3005 26.5916 39.1651 26.3426L39.0388 24.6493C39.0113 24.3652 39.0593 24.1021 39.1354 23.8401C39.659 22.3283 40.2035 20.4541 40.7341 17.767C40.7764 17.5521 40.6369 17.3435 40.4217 17.301C40.2064 17.2588 39.9982 17.3983 39.9558 17.6134C39.6297 19.265 39.2982 20.6017 38.9695 21.7376C38.8069 21.5952 38.6151 21.487 38.4017 21.4351C37.8508 21.3009 37.2975 21.1812 36.7438 21.0683V7.02419C38.5493 7.93169 40.1998 8.71533 41.0076 9.04951C44.3824 10.445 45.977 13.0383 46.3391 17.7208ZM16.8371 4.25637C16.9983 4.16265 17.1508 4.06453 17.2989 3.96421C17.9696 6.85061 22.633 6.85281 24.2449 6.85281C27.9981 6.85281 30.247 5.73323 30.6995 3.68195C30.9591 3.88567 31.2431 4.07751 31.5513 4.25659C32.0558 4.54963 32.6274 4.86797 33.2339 5.19687V20.4844C32.0199 20.3258 30.8121 20.2081 29.6208 20.1285C29.4723 20.1102 29.3216 20.0975 29.167 20.0975C29.1591 20.0975 29.1518 20.0992 29.1441 20.0997C23.4556 19.7635 18.1815 20.2319 14.498 20.7447V5.54931C15.3488 5.09611 16.154 4.65325 16.8371 4.25637ZM2.04252 17.7699C2.04582 17.7538 2.04802 17.7373 2.04934 17.721C2.41146 13.0385 4.00602 10.4452 7.3806 9.04951C8.08922 8.75647 9.4464 8.11737 10.9879 7.35221V21.318C10.7228 21.3682 10.4826 21.4155 10.2754 21.4575C9.9722 21.5191 9.69808 21.6729 9.48644 21.8918C9.14324 20.7234 8.7963 19.3407 8.4553 17.6137C8.41284 17.3987 8.20494 17.2592 7.98934 17.3013C7.7744 17.3437 7.6347 17.5523 7.67694 17.7672C8.25026 20.6706 8.83986 22.6259 9.40174 24.1994C9.41736 24.2537 9.42924 24.3028 9.4343 24.341C9.4277 24.457 9.41824 24.5674 9.41054 24.6814L9.2979 25.9165C9.29526 25.9459 9.29636 25.9752 9.29526 26.0047C9.28118 26.1299 9.26424 26.2498 9.24884 26.3723C6.39742 27.4369 2.0401 26.6178 0.822397 26.3538C0.936357 23.6846 1.36888 21.0586 2.04252 17.7699Z" fill="#1A1861"/>
<path d="M11.4554 32.5853L12.3671 32.4694C15.2187 32.1269 18.1058 31.9207 20.9508 31.8563C22.8283 31.8138 24.6963 31.8008 26.5038 31.8193C28.2418 31.8367 30.0067 31.9097 31.7577 32.0323V24.34C24.1014 23.3559 16.5796 24.4711 14.432 24.8416L10.1116 25.7251L10.0877 25.9886C10.0762 26.1129 10.0945 26.2326 10.1405 26.3345C10.7811 27.7572 11.2042 30.4511 11.4554 32.5853Z" fill="#FFE200"/>
<path d="M29.1642 34.9138C29.165 34.9138 29.1661 34.9136 29.167 34.9136C30.4875 34.9136 31.5446 34.0212 31.7269 32.8249C29.9837 32.7023 28.2263 32.6295 26.4962 32.6124C24.6971 32.5945 22.8378 32.6071 20.9687 32.6491C18.1492 32.7129 15.2879 32.9173 12.4644 33.2565L11.5437 33.3736C11.5741 33.6596 11.6013 33.9308 11.6247 34.177C11.6836 34.7996 12.218 35.2572 12.8459 35.2174C15.6401 35.0418 21.9438 34.7296 29.1642 34.9138Z" fill="#FFE200"/>
<path d="M32.4442 22.5146C33.2522 22.6297 34.0491 22.7637 34.8122 22.9192L38.3373 23.7554C38.3923 23.5409 38.462 23.3385 38.5289 23.1475C38.5588 23.0622 38.5885 22.9777 38.616 22.8939C38.6589 22.7555 38.6424 22.6035 38.5679 22.4715C38.4915 22.3371 38.3661 22.2427 38.2145 22.2057C37.5341 22.0401 36.8505 21.8933 36.1659 21.7602L34.1848 21.417C33.3303 21.2875 32.4774 21.1796 31.6293 21.0925C32.018 21.4832 32.3014 21.969 32.4442 22.5146Z" fill="#FFE200"/>
<path d="M36.7872 34.1649C35.428 33.9894 33.9837 33.8442 32.2965 33.7139C32.0836 34.2146 31.7459 34.6489 31.3177 34.9833C32.7143 35.0379 34.134 35.1118 35.5604 35.2106C36.1872 35.2563 36.7256 34.7946 36.7872 34.1649Z" fill="#FFE200"/>
<path d="M10.0122 23.5319C10.1427 23.8887 10.2553 24.1967 10.2263 24.4691L10.1869 24.8999L14.2853 24.0619C17.0713 23.5807 24.2491 22.5899 31.7577 23.5396V23.3214C31.7577 22.079 30.8114 21.0848 29.5442 20.9179C28.0727 20.82 26.6257 20.7762 25.2259 20.7762C20.8052 20.7762 16.8465 21.1975 13.9979 21.6172L11.4816 22.0324C11.0763 22.107 10.7243 22.1756 10.4331 22.2346C10.2289 22.2759 10.0582 22.3976 9.95235 22.5769C9.84587 22.7573 9.82211 22.9669 9.88503 23.1674C9.92309 23.2881 9.96819 23.4113 10.0122 23.5319Z" fill="#FFE200"/>
<path d="M38.3957 26.6933L38.2483 24.717C38.2428 24.6594 38.2413 24.6035 38.2397 24.5476L34.6412 23.6936C33.9722 23.5576 33.268 23.4355 32.5508 23.3297V32.4573C32.5508 32.4657 32.5497 32.4736 32.5494 32.4819C32.5494 32.4833 32.5497 32.4844 32.5494 32.4857C32.5494 32.4863 32.5492 32.4872 32.549 32.4879C32.5477 32.6403 32.5332 32.7891 32.5116 32.9354C34.1392 33.063 35.5445 33.2051 36.8707 33.376C37.1074 31.3142 37.5454 28.7595 38.3478 26.958C38.3858 26.8728 38.4023 26.7813 38.3957 26.6933Z" fill="#FFE200"/>
<path d="M13.7047 5.96246L11.781 6.9551V21.1792L13.7047 20.8617V5.96246Z" fill="#FFE200"/>
<path d="M35.9509 6.62026L34.0272 5.6153V20.5848L35.9509 20.9181V6.62026Z" fill="#FFE200"/>
</svg>
