<svg width="84" height="47" viewBox="0 0 84 47" fill="none" xmlns="http://www.w3.org/2000/svg">
<path d="M78.7252 46.0614H5.18612C4.84469 46.0614 4.56787 45.7846 4.56787 45.4431C4.56787 45.1017 4.84469 44.8249 5.18612 44.8249H78.7252C79.0666 44.8249 79.3434 45.1017 79.3434 45.4431C79.3434 45.7846 79.0666 46.0614 78.7252 46.0614Z" fill="#3F3291"/>
<path d="M30.4486 30.2908L18.4201 25.3085L12.9518 23.0435C11.9586 22.6324 11.0967 21.9668 10.4495 21.1135L8.7532 18.7341L6.67328 15.8152L2.89831 10.5048C2.01305 9.2662 3.3074 7.63798 4.72031 8.22307L8.65532 9.85342L17.2135 13.397L32.5704 19.757C32.5704 19.757 47.6645 26.0094 52.8418 28.1537C58.0196 30.299 59.8196 31.6611 60.8692 33.8438C61.9184 36.0265 63.8004 37.9368 63.0008 39.8672C62.2011 41.7981 57.2314 41.3843 51.5277 39.0221L43.7771 35.8113L30.4486 30.2908Z" fill="white"/>
<path d="M59.9681 41.7077C59.6854 41.7077 59.3821 41.696 59.056 41.671C56.8819 41.5045 54.1242 40.7667 51.2911 39.5933L43.5406 36.3824C43.2251 36.2518 43.0753 35.8901 43.206 35.5747C43.3366 35.2591 43.6983 35.1093 44.0137 35.2401L51.7643 38.451C54.4799 39.5756 57.103 40.2814 59.1504 40.4381C60.9371 40.5749 62.1634 40.2731 62.4295 39.6306C62.8935 38.5105 62.1568 37.291 61.3036 35.879C60.9617 35.3132 60.6082 34.7281 60.312 34.1117C59.3023 32.0122 57.5017 30.7537 52.6052 28.7249L4.48368 8.79422C4.01969 8.60196 3.6349 8.80871 3.43004 9.06656C3.22647 9.32271 3.11207 9.74066 3.40127 10.1453L10.953 20.7546C11.5225 21.5052 12.2992 22.1043 13.1883 22.4723L30.6852 29.7196C31.0007 29.8503 31.1505 30.2119 31.0198 30.5274C30.8891 30.8429 30.5272 30.9925 30.2121 30.862L12.7152 23.6147C11.6236 23.1629 10.6698 22.4272 9.95699 21.4871L2.39439 10.863C1.82776 10.0702 1.85384 9.0626 2.4619 8.2974C3.0715 7.53012 4.05067 7.27661 4.95691 7.65187L53.0784 27.5825C58.2456 29.7235 60.274 31.1798 61.4263 33.5759C61.6971 34.1392 62.0351 34.6986 62.3619 35.2396C63.3025 36.7964 64.2751 38.4062 63.5718 40.1038C63.2585 40.8606 62.3702 41.7076 59.9681 41.7077Z" fill="#3F3291"/>
<path d="M1.20605 15.6085L13.2085 20.5801C13.6939 20.7812 14.2498 20.5513 14.4508 20.0656C14.6519 19.5809 14.4213 19.0242 13.9363 18.824L1.93382 13.8525C1.44846 13.6514 0.892561 13.8813 0.691522 14.3669C0.490526 14.8517 0.721082 15.4083 1.20605 15.6085Z" fill="#9897F1"/>
<path d="M13.5729 21.2717C13.3692 21.2717 13.1657 21.2315 12.9719 21.1512L0.969441 16.1797C0.582426 16.0198 0.281062 15.7186 0.12057 15.3316C-0.0401174 14.944 -0.0402265 14.5174 0.120461 14.1301C0.280757 13.7429 0.582338 13.4413 0.969528 13.2809C1.35654 13.1207 1.78297 13.1208 2.17038 13.2812L14.1729 18.2528C14.5595 18.4125 14.8613 18.7138 15.0217 19.1011C15.1824 19.4886 15.1824 19.9153 15.0219 20.3025C14.8616 20.6896 14.56 20.9913 14.1727 21.1516C13.9793 21.2316 13.776 21.2717 13.5729 21.2717ZM1.56949 14.398C1.52641 14.398 1.48344 14.4065 1.4425 14.4234C1.3606 14.4573 1.29679 14.5213 1.26278 14.6034C1.22866 14.6856 1.22866 14.7759 1.26267 14.8579C1.29668 14.9397 1.36027 15.0034 1.44189 15.0371C1.4422 15.0371 1.44239 15.0373 1.44259 15.0373L13.4451 20.0089C13.5274 20.043 13.6178 20.043 13.6999 20.0091C13.7818 19.9752 13.8456 19.9113 13.8796 19.8292C13.9137 19.747 13.9137 19.6567 13.8797 19.5747C13.8457 19.4928 13.7821 19.4292 13.7004 19.3955L1.6973 14.4236C1.65603 14.4065 1.61276 14.398 1.56949 14.398Z" fill="#3F3291"/>
<path d="M7.57239 1.17853L9.44815 1.95561C10.7328 2.48773 11.7961 3.44433 12.461 4.66526L17.2132 13.397L7.73595 9.47153L7.57239 1.17853Z" fill="#9897F1"/>
<path d="M17.213 14.0153C17.1335 14.0153 17.0532 13.9999 16.9766 13.9682L7.49931 10.0428C7.27239 9.94879 7.12256 9.72933 7.11775 9.48375L6.95422 1.19073C6.9501 0.982123 7.05154 0.785508 7.22389 0.667919C7.39606 0.550286 7.61622 0.527505 7.80891 0.607402L9.68476 1.38448C11.0949 1.96857 12.2738 3.02875 13.0039 4.36969L17.7562 13.1014C17.8814 13.3316 17.848 13.6156 17.6728 13.8104C17.5531 13.9435 17.3848 14.0153 17.213 14.0153ZM8.34607 9.05512L15.8342 12.1566L11.9179 4.96084C11.3226 3.86755 10.3614 3.00307 9.21155 2.52683L8.20912 2.11154L8.34607 9.05512Z" fill="#3F3291"/>
<path d="M7.57193 1.79737C7.49295 1.79737 7.41275 1.78218 7.33527 1.75002L5.98407 1.18948C5.6686 1.05866 5.51907 0.696908 5.64989 0.381549C5.78071 0.0660378 6.14244 -0.083488 6.45782 0.0473774L7.80901 0.607921C8.12448 0.738743 8.274 1.10047 8.14318 1.41589C8.04447 1.65378 7.81435 1.79737 7.57193 1.79737Z" fill="#3F3291"/>
<path d="M45.0489 32.74L43.7841 35.7936C43.3217 36.9108 42.0045 37.4257 40.8401 36.9431L36.0887 34.9748C35.4711 34.7191 34.898 34.3669 34.3906 33.9312L30.37 30.4807L31.2892 28.2614L31.8319 28.2932L45.0489 32.74Z" fill="#FFDB80"/>
<path d="M41.7438 37.7433C41.3585 37.7433 40.9718 37.6669 40.6034 37.5143L35.8522 35.5459C35.1731 35.2648 34.5458 34.8793 33.9879 34.4003L29.9675 30.9498C29.7646 30.7757 29.6966 30.491 29.7989 30.2441L30.7181 28.0248C30.8187 27.7815 31.0622 27.6284 31.3254 27.6442L31.8681 27.676C32.2089 27.696 32.469 27.9886 32.449 28.3294C32.4291 28.6704 32.1343 28.9299 31.7956 28.9104L31.6921 28.9043L31.1127 30.3033L34.7931 33.4621C35.2517 33.8558 35.7672 34.1725 36.3252 34.4036L41.0767 36.372C41.4917 36.5439 41.944 36.5512 42.3504 36.3924C42.7479 36.2372 43.0542 35.9405 43.2129 35.5571L44.4778 32.5034C44.6085 32.1879 44.9701 32.0382 45.2856 32.1688C45.601 32.2995 45.7509 32.6611 45.6201 32.9766L44.3553 36.0302C44.0667 36.7275 43.5144 37.2652 42.8002 37.5442C42.4601 37.677 42.1025 37.7433 41.7438 37.7433Z" fill="#3F3291"/>
<path d="M43.6569 33.1925L18.4708 22.7602C17.9855 22.5592 17.7549 22.003 17.9559 21.5182C18.157 21.033 18.7133 20.8027 19.1982 21.0033L44.5342 31.4975C45.0195 31.6986 45.2496 32.2548 45.049 32.7404C44.848 33.2252 44.1418 33.3935 43.6569 33.1925Z" fill="#FFDB80"/>
<path d="M44.1023 33.8943C43.8645 33.8943 43.6298 33.8504 43.4204 33.7637L18.2343 23.3314C17.8471 23.171 17.5454 22.8695 17.3849 22.4824C17.2244 22.0951 17.2244 21.6686 17.3848 21.2815C17.7159 20.4824 18.636 20.1014 19.4346 20.4321L44.7708 30.9263C45.5696 31.2572 45.9508 32.1769 45.6204 32.9765C45.3642 33.5946 44.7234 33.8943 44.1023 33.8943ZM18.8351 21.5493C18.7045 21.5493 18.5802 21.6267 18.5271 21.7549C18.4932 21.8368 18.4932 21.9269 18.5272 22.0089C18.5612 22.091 18.6252 22.1551 18.7074 22.1891L43.8935 32.6213C43.8936 32.6213 43.8936 32.6213 43.8937 32.6214C44.1203 32.7154 44.4323 32.6137 44.4781 32.5036C44.548 32.3343 44.4672 32.1389 44.2976 32.0688L18.9617 21.5745C18.9203 21.5574 18.8774 21.5493 18.8351 21.5493Z" fill="#3F3291"/>
<path d="M41.6618 27.4677C41.5829 27.4677 41.5028 27.4525 41.4254 27.4205L25.4746 20.8138C25.1591 20.6831 25.0093 20.3215 25.14 20.006C25.2706 19.6905 25.6325 19.5408 25.9477 19.6714L41.8986 26.2781C42.214 26.4087 42.3638 26.7704 42.2331 27.0858C42.1345 27.3239 41.9043 27.4677 41.6618 27.4677Z" fill="#3F3291"/>
<path d="M22.2971 19.4471C22.2182 19.4471 22.138 19.432 22.0607 19.3999L19.3112 18.2604C18.9957 18.1296 18.846 17.768 18.9767 17.4525C19.1074 17.1371 19.4691 16.9875 19.7845 17.1181L22.534 18.2576C22.8495 18.3884 22.9992 18.75 22.8685 19.0655C22.7699 19.3035 22.5396 19.4471 22.2971 19.4471Z" fill="#3F3291"/>
<path d="M47.629 29.9392C47.5501 29.9392 47.47 29.9241 47.3927 29.892L44.6431 28.7533C44.3276 28.6226 44.1778 28.261 44.3085 27.9456C44.439 27.63 44.8006 27.4802 45.1162 27.6109L47.8658 28.7497C48.1812 28.8803 48.3311 29.242 48.2004 29.5574C48.1019 29.7955 47.8716 29.9392 47.629 29.9392Z" fill="#3F3291"/>
<path d="M61.5503 35.706C61.4714 35.706 61.3913 35.6908 61.3139 35.6588L52.0734 31.8311C51.7579 31.7004 51.6081 31.3387 51.7388 31.0233C51.8695 30.7078 52.231 30.5581 52.5465 30.6887L61.787 34.5164C62.1025 34.6471 62.2523 35.0087 62.1216 35.3242C62.023 35.5622 61.7928 35.706 61.5503 35.706Z" fill="#3F3291"/>
<path d="M68.1474 40.2258C67.8151 40.2258 67.5405 39.9618 67.5299 39.6272C67.519 39.2859 67.7869 39.0005 68.1282 38.9896L83.273 38.5083C83.614 38.4991 83.8997 38.7653 83.9106 39.1066C83.9214 39.4479 83.6536 39.7333 83.3122 39.7442L68.1674 40.2255C68.1608 40.2257 68.154 40.2258 68.1474 40.2258Z" fill="#3F3291"/>
<path d="M67.2999 38.6033C67.0702 38.6033 66.8497 38.4748 66.7429 38.2542C66.5942 37.9468 66.7228 37.5771 67.0302 37.4284L78.0399 32.1013C78.3471 31.9525 78.7169 32.081 78.8657 32.3885C79.0144 32.6958 78.8858 33.0656 78.5784 33.2143L67.5687 38.5414C67.482 38.5834 67.3902 38.6033 67.2999 38.6033Z" fill="#3F3291"/>
<path d="M67.2997 35.4072C67.2375 35.4072 67.1744 35.3978 67.112 35.378C66.7867 35.2744 66.6068 34.9267 66.7103 34.6013L69.1962 26.7879C69.2998 26.4624 69.6479 26.2829 69.9729 26.3862C70.2982 26.4897 70.4781 26.8374 70.3746 27.1628L67.8886 34.9763C67.8049 35.2393 67.5616 35.4072 67.2997 35.4072Z" fill="#3F3291"/>
</svg>
