<svg width="49" height="49" viewBox="0 0 49 49" fill="none" xmlns="http://www.w3.org/2000/svg">
<path d="M39.8125 6.125H36.75V3.0625C36.75 2.65639 36.5887 2.26691 36.3015 1.97974C36.0143 1.69258 35.6249 1.53125 35.2188 1.53125C34.8126 1.53125 34.4232 1.69258 34.136 1.97974C33.8488 2.26691 33.6875 2.65639 33.6875 3.0625V6.125H27.5625V3.0625C27.5625 2.65639 27.4012 2.26691 27.114 1.97974C26.8268 1.69258 26.4374 1.53125 26.0312 1.53125C25.6251 1.53125 25.2357 1.69258 24.9485 1.97974C24.6613 2.26691 24.5 2.65639 24.5 3.0625V6.125H18.375V3.0625C18.375 2.65639 18.2137 2.26691 17.9265 1.97974C17.6393 1.69258 17.2499 1.53125 16.8438 1.53125C16.4376 1.53125 16.0482 1.69258 15.761 1.97974C15.4738 2.26691 15.3125 2.65639 15.3125 3.0625V6.125H9.1875V3.0625C9.1875 2.65639 9.02617 2.26691 8.73901 1.97974C8.45184 1.69258 8.06236 1.53125 7.65625 1.53125C7.25014 1.53125 6.86066 1.69258 6.57349 1.97974C6.28633 2.26691 6.125 2.65639 6.125 3.0625V6.125H3.0625C2.65639 6.125 2.26691 6.28633 1.97974 6.57349C1.69258 6.86066 1.53125 7.25014 1.53125 7.65625V41.3438C1.53125 41.7499 1.69258 42.1393 1.97974 42.4265C2.26691 42.7137 2.65639 42.875 3.0625 42.875H20.6872C21.0933 42.875 21.4828 42.7137 21.7699 42.4265C22.0571 42.1393 22.2184 41.7499 22.2184 41.3438C22.2184 40.9376 22.0571 40.5482 21.7699 40.261C21.4828 39.9738 21.0933 39.8125 20.6872 39.8125H4.59375V15.3125H38.2812V19.7072C38.2812 20.1133 38.4426 20.5028 38.7297 20.7899C39.0169 21.0771 39.4064 21.2384 39.8125 21.2384C40.2186 21.2384 40.6081 21.0771 40.8953 20.7899C41.1824 20.5028 41.3438 20.1133 41.3438 19.7072V7.65625C41.3438 7.25014 41.1824 6.86066 40.8953 6.57349C40.6081 6.28633 40.2186 6.125 39.8125 6.125ZM4.59375 12.25V9.1875H38.2812V12.25H4.59375Z" fill="#FFC231"/>
<path d="M9.95312 19.1406H8.42188C8.01576 19.1406 7.62628 19.302 7.33912 19.5891C7.05195 19.8763 6.89062 20.2658 6.89062 20.6719C6.89062 21.078 7.05195 21.4675 7.33912 21.7546C7.62628 22.0418 8.01576 22.2031 8.42188 22.2031H9.95312C10.3592 22.2031 10.7487 22.0418 11.0359 21.7546C11.323 21.4675 11.4844 21.078 11.4844 20.6719C11.4844 20.2658 11.323 19.8763 11.0359 19.5891C10.7487 19.302 10.3592 19.1406 9.95312 19.1406Z" fill="#FFC231"/>
<path d="M17.6094 19.1406H16.0781C15.672 19.1406 15.2825 19.302 14.9954 19.5891C14.7082 19.8763 14.5469 20.2658 14.5469 20.6719C14.5469 21.078 14.7082 21.4675 14.9954 21.7546C15.2825 22.0418 15.672 22.2031 16.0781 22.2031H17.6094C18.0155 22.2031 18.405 22.0418 18.6921 21.7546C18.9793 21.4675 19.1406 21.078 19.1406 20.6719C19.1406 20.2658 18.9793 19.8763 18.6921 19.5891C18.405 19.302 18.0155 19.1406 17.6094 19.1406Z" fill="#FFC231"/>
<path d="M25.2656 19.1406H23.7344C23.3283 19.1406 22.9388 19.302 22.6516 19.5891C22.3645 19.8763 22.2031 20.2658 22.2031 20.6719C22.2031 21.078 22.3645 21.4675 22.6516 21.7546C22.9388 22.0418 23.3283 22.2031 23.7344 22.2031H25.2656C25.6717 22.2031 26.0612 22.0418 26.3484 21.7546C26.6355 21.4675 26.7969 21.078 26.7969 20.6719C26.7969 20.2658 26.6355 19.8763 26.3484 19.5891C26.0612 19.302 25.6717 19.1406 25.2656 19.1406Z" fill="#FFC231"/>
<path d="M9.95312 26.0312H8.42188C8.01576 26.0312 7.62628 26.1926 7.33912 26.4797C7.05195 26.7669 6.89062 27.1564 6.89062 27.5625C6.89062 27.9686 7.05195 28.3581 7.33912 28.6453C7.62628 28.9324 8.01576 29.0938 8.42188 29.0938H9.95312C10.3592 29.0938 10.7487 28.9324 11.0359 28.6453C11.323 28.3581 11.4844 27.9686 11.4844 27.5625C11.4844 27.1564 11.323 26.7669 11.0359 26.4797C10.7487 26.1926 10.3592 26.0312 9.95312 26.0312Z" fill="#FFC231"/>
<path d="M17.6094 26.0312H16.0781C15.672 26.0312 15.2825 26.1926 14.9954 26.4797C14.7082 26.7669 14.5469 27.1564 14.5469 27.5625C14.5469 27.9686 14.7082 28.3581 14.9954 28.6453C15.2825 28.9324 15.672 29.0938 16.0781 29.0938H17.6094C18.0155 29.0938 18.405 28.9324 18.6921 28.6453C18.9793 28.3581 19.1406 27.9686 19.1406 27.5625C19.1406 27.1564 18.9793 26.7669 18.6921 26.4797C18.405 26.1926 18.0155 26.0312 17.6094 26.0312Z" fill="#FFC231"/>
<path d="M9.95312 32.9219H8.42188C8.01576 32.9219 7.62628 33.0832 7.33912 33.3704C7.05195 33.6575 6.89062 34.047 6.89062 34.4531C6.89062 34.8592 7.05195 35.2487 7.33912 35.5359C7.62628 35.823 8.01576 35.9844 8.42188 35.9844H9.95312C10.3592 35.9844 10.7487 35.823 11.0359 35.5359C11.323 35.2487 11.4844 34.8592 11.4844 34.4531C11.4844 34.047 11.323 33.6575 11.0359 33.3704C10.7487 33.0832 10.3592 32.9219 9.95312 32.9219Z" fill="#FFC231"/>
<path d="M17.6094 32.9219H16.0781C15.672 32.9219 15.2825 33.0832 14.9954 33.3704C14.7082 33.6575 14.5469 34.047 14.5469 34.4531C14.5469 34.8592 14.7082 35.2487 14.9954 35.5359C15.2825 35.823 15.672 35.9844 16.0781 35.9844H17.6094C18.0155 35.9844 18.405 35.823 18.6921 35.5359C18.9793 35.2487 19.1406 34.8592 19.1406 34.4531C19.1406 34.047 18.9793 33.6575 18.6921 33.3704C18.405 33.0832 18.0155 32.9219 17.6094 32.9219Z" fill="#FFC231"/>
<path d="M35.2188 22.9688C32.7959 22.9688 30.4275 23.6872 28.413 25.0332C26.3985 26.3793 24.8284 28.2925 23.9012 30.5309C22.9741 32.7693 22.7315 35.2323 23.2041 37.6086C23.6768 39.9849 24.8435 42.1676 26.5567 43.8808C28.2699 45.594 30.4526 46.7607 32.8289 47.2334C35.2052 47.706 37.6682 47.4634 39.9066 46.5363C42.145 45.6091 44.0582 44.039 45.4043 42.0245C46.7503 40.01 47.4688 37.6416 47.4688 35.2188C47.4688 31.9698 46.1781 28.854 43.8808 26.5567C41.5835 24.2594 38.4677 22.9688 35.2188 22.9688ZM29.5378 40.0422C29.3906 40.0638 29.241 40.0638 29.0938 40.0422C28.7624 40.0422 28.4401 39.9347 28.175 39.7359C27.9848 39.5933 27.8305 39.4084 27.7242 39.1957C27.6179 38.9831 27.5625 38.7487 27.5625 38.5109V35.1269C27.5625 34.7208 27.7238 34.3313 28.011 34.0441C28.2982 33.757 28.6876 33.5956 29.0938 33.5956C29.4999 33.5956 29.8893 33.757 30.1765 34.0441C30.4637 34.3313 30.625 34.7208 30.625 35.1269V36.5203L35.1269 35.2188L33.5956 33.6875C33.4204 33.5135 33.1842 33.4146 32.9372 33.4119H31.5438C31.1376 33.4119 30.7482 33.2505 30.461 32.9634C30.1738 32.6762 30.0125 32.2867 30.0125 31.8806C30.0125 31.4745 30.1738 31.085 30.461 30.7979C30.7482 30.5107 31.1376 30.3494 31.5438 30.3494H32.9831C33.5041 30.3474 34.0202 30.4493 34.5014 30.6491C34.9825 30.8489 35.419 31.1427 35.7853 31.5131L38.4497 34.1775L40.8997 33.4425C41.0955 33.3738 41.3032 33.3456 41.5103 33.3597C41.7173 33.3737 41.9193 33.4297 42.1041 33.5242C42.2888 33.6187 42.4524 33.7498 42.5849 33.9095C42.7175 34.0692 42.8162 34.2541 42.875 34.4531C42.9339 34.6462 42.9541 34.8489 42.9344 35.0498C42.9146 35.2506 42.8554 35.4456 42.76 35.6235C42.6647 35.8014 42.5351 35.9586 42.3788 36.0863C42.2225 36.2139 42.0424 36.3094 41.8491 36.3672L29.5378 40.0422Z" fill="#7738C8"/>
</svg>
