<svg width="54" height="54" viewBox="0 0 54 54" fill="none" xmlns="http://www.w3.org/2000/svg">
<path d="M1.63477 21.9058H4.16602V48.8004H1.63477V21.9058Z" fill="#9597C8"/>
<path d="M37.8 21.9058H40.3313V48.8004H37.8V21.9058Z" fill="#9597C8"/>
<path d="M4.16602 21.9058H16.2V48.8004H4.16602V21.9058Z" fill="#E1E0F0"/>
<path d="M40.3208 21.9058H52.3653V48.8004H40.3208V21.9058Z" fill="#E1E0F0"/>
<path d="M16.2 8.55347H19.0792V48.7898H16.2V8.55347Z" fill="#550082"/>
<path d="M19.0793 8.55347H37.7895V48.7898H19.0793V8.55347Z" fill="#A700F4"/>
<path d="M31.2821 15.8309H28.2657V12.8145H25.7344V15.8309H22.718V18.3727H25.7344V21.3891H28.2657V18.3727H31.2821V15.8309Z" fill="#FFC231"/>
<path d="M9.49215 38.8125C7.6359 39.0867 6.24371 40.6793 6.24371 42.5777V48.7898H5.10465V42.5777C5.08355 40.268 7.21402 38.4328 9.49215 38.8125Z" fill="#550082"/>
<path d="M12.7302 42.5777V48.7898H6.2439V42.5777C6.2439 41.523 6.66577 40.5738 7.36187 39.8777C9.51343 37.5152 12.7408 39.7511 12.7302 42.5777Z" fill="#A700F4"/>
<path d="M16.2029 21.9071H0.0345211V18.8591H16.2029V21.9071Z" fill="#FFC231"/>
<path d="M35.0789 35.6008H18.9105V33.1961H35.0789V35.6008Z" fill="#FFC231"/>
<path d="M33.1912 48.7943H20.8091V35.6001H33.1912V48.7943Z" fill="#E1E0F0"/>
<path d="M26.4199 35.6062H27.5906V48.8003H26.4199V35.6062Z" fill="#A700F4"/>
<path d="M4.52466 25.2492H5.69536V27.0211H4.52466V25.2492Z" fill="#550082"/>
<path d="M8.33203 25.2492H9.50273V27.0211H8.33203V25.2492Z" fill="#550082"/>
<path d="M12.1501 25.2492H13.3209V27.0211H12.1501V25.2492Z" fill="#550082"/>
<path d="M4.52466 29.5629H5.69536V31.3347H4.52466V29.5629Z" fill="#550082"/>
<path d="M8.33203 29.5629H9.50273V31.3347H8.33203V29.5629Z" fill="#550082"/>
<path d="M12.1501 29.5629H13.3209V31.3347H12.1501V29.5629Z" fill="#550082"/>
<path d="M4.52466 33.8765H5.69536V35.6484H4.52466V33.8765Z" fill="#550082"/>
<path d="M8.33203 33.8765H9.50273V35.6484H8.33203V33.8765Z" fill="#550082"/>
<path d="M12.1501 33.8765H13.3209V35.6484H12.1501V33.8765Z" fill="#550082"/>
<path d="M48.8953 42.5777V48.7898H42.4089V42.5777C42.4089 40.6688 43.8222 39.0762 45.6574 38.8125C47.5031 39.0762 48.8953 40.6793 48.8953 42.5777Z" fill="#A700F4"/>
<path d="M45.6469 38.8125C43.8118 39.0867 42.3985 40.6688 42.3985 42.5777V48.7898H41.2594V42.5777C41.2383 40.2785 43.3688 38.4328 45.6469 38.8125Z" fill="#550082"/>
<path d="M37.8 18.8472H53.9684V21.8953H37.8V18.8472Z" fill="#FFC231"/>
<path d="M18.9211 5.19958H21.6317V8.55349H18.9211V5.19958Z" fill="#F09002"/>
<path d="M21.6211 5.19958H35.0789V8.55349H21.6211V5.19958Z" fill="#FFC231"/>
<path d="M48.3049 25.2492H49.4756V27.0211H48.3049V25.2492Z" fill="#550082"/>
<path d="M44.4973 25.2492H45.668V27.0211H44.4973V25.2492Z" fill="#550082"/>
<path d="M40.6794 25.2492H41.8501V27.0211H40.6794V25.2492Z" fill="#550082"/>
<path d="M48.3049 29.5629H49.4756V31.3347H48.3049V29.5629Z" fill="#550082"/>
<path d="M44.4973 29.5629H45.668V31.3347H44.4973V29.5629Z" fill="#550082"/>
<path d="M40.6794 29.5629H41.8501V31.3347H40.6794V29.5629Z" fill="#550082"/>
<path d="M48.3049 33.8765H49.4756V35.6484H48.3049V33.8765Z" fill="#550082"/>
<path d="M44.4973 33.8765H45.668V35.6484H44.4973V33.8765Z" fill="#550082"/>
<path d="M40.6794 33.8765H41.8501V35.6484H40.6794V33.8765Z" fill="#550082"/>
<path d="M18.9211 25.5023H22.3594V28.9406H18.9211V25.5023Z" fill="#FFC231"/>
<path d="M25.281 25.5023H28.7193V28.9406H25.281V25.5023Z" fill="#FFC231"/>
<path d="M31.6511 25.5023H35.0894V28.9406H31.6511V25.5023Z" fill="#FFC231"/>
</svg>
