<svg width="58" height="55" viewBox="0 0 58 55" fill="none" xmlns="http://www.w3.org/2000/svg">
<path d="M38.0625 4.06904e-05C38.5534 4.06904e-05 38.9782 0.179403 39.3369 0.538127L57.4619 18.6631C57.8206 19.0219 58 19.4467 58 19.9375C58 20.4284 57.8206 20.8532 57.4619 21.212L50.5801 28.0938C51.0521 28.5658 51.5146 29.0189 51.9678 29.4532C52.4209 29.8874 52.8174 30.3311 53.1572 30.7842C53.4971 31.2373 53.7803 31.7471 54.0068 32.3135C54.2334 32.8799 54.3467 33.5124 54.3467 34.211C54.3467 34.9662 54.2051 35.6836 53.9219 36.3633C53.6387 37.043 53.2516 37.6377 52.7607 38.1475C52.2699 38.6573 51.694 39.0632 51.0332 39.3653C50.3724 39.6674 49.6644 39.8278 48.9092 39.8467C48.8714 40.6208 48.7109 41.3288 48.4277 41.9707C48.1445 42.6127 47.7669 43.1791 47.2949 43.67C46.8229 44.1609 46.2565 44.5479 45.5957 44.8311C44.9349 45.1143 44.2269 45.2653 43.4717 45.2842C43.4528 46.0394 43.2923 46.7474 42.9902 47.4082C42.6882 48.0691 42.2822 48.6449 41.7725 49.1358C41.2627 49.6267 40.668 50.0232 39.9883 50.3252C39.3086 50.6273 38.5911 50.7689 37.8359 50.75C37.2318 50.75 36.6182 50.6462 35.9951 50.4385C35.7874 51.0238 35.5137 51.5525 35.1738 52.0245C34.834 52.4965 34.4186 52.9118 33.9277 53.2705C33.4368 53.6293 32.9176 53.903 32.3701 54.0918C31.8226 54.2806 31.2279 54.375 30.5859 54.375C30.0951 54.375 29.6608 54.3373 29.2832 54.2618C28.9056 54.1862 28.5563 54.0541 28.2354 53.8653C27.9144 53.6765 27.5934 53.4688 27.2725 53.2422C26.9515 53.0157 26.6211 52.7419 26.2812 52.4209C25.6204 53.0251 24.9785 53.4971 24.3555 53.837C23.7324 54.1768 22.9395 54.3562 21.9766 54.375C21.2214 54.375 20.5039 54.2334 19.8242 53.9502C19.1445 53.667 18.5498 53.28 18.04 52.7891C17.5303 52.2982 17.1243 51.7224 16.8223 51.0616C16.5202 50.4008 16.3597 49.6833 16.3408 48.9092C15.6045 48.8903 14.9059 48.7393 14.2451 48.4561C13.5843 48.1729 13.0085 47.7859 12.5176 47.295C12.0267 46.8041 11.6396 46.2282 11.3564 45.5674C11.0732 44.9066 10.9222 44.208 10.9033 43.4717C10.1481 43.4528 9.44954 43.3018 8.80762 43.0186C8.16569 42.7354 7.59928 42.3484 7.1084 41.8575C6.61751 41.3666 6.23047 40.7907 5.94727 40.1299C5.66406 39.4691 5.50358 38.7705 5.46582 38.0342C4.69173 38.0153 3.97428 37.8549 3.31348 37.5528C2.65267 37.2507 2.07682 36.8448 1.58594 36.335C1.09505 35.8252 0.708008 35.24 0.424805 34.5791C0.141602 33.9183 0 33.2009 0 32.4268C0 31.6527 0.141602 30.9258 0.424805 30.2461C0.708008 29.5664 1.12337 28.9528 1.6709 28.4053L4.67285 25.375L0.538086 21.212C0.179362 20.8532 0 20.4284 0 19.9375C0 19.4467 0.179362 19.0219 0.538086 18.6631L18.6631 0.538127C19.0218 0.179403 19.4466 4.06904e-05 19.9375 4.06904e-05C20.4284 4.06904e-05 20.8532 0.179403 21.2119 0.538127L24.9502 4.27641C25.1956 4.20089 25.6676 4.04041 26.3662 3.79496C27.0648 3.54952 27.8861 3.27576 28.8301 2.97367C29.7741 2.67159 30.7464 2.34119 31.7471 1.98246C32.7477 1.62374 33.7106 1.30278 34.6357 1.01957C35.5609 0.736369 36.3255 0.490926 36.9297 0.283244C37.5339 0.0755615 37.9115 -0.0188395 38.0625 4.06904e-05ZM8.83594 27.1875C8.28841 27.1875 7.81641 27.3858 7.41992 27.7823L4.21973 30.9541C3.82324 31.3506 3.625 31.8321 3.625 32.3985C3.625 32.9649 3.8138 33.4369 4.19141 33.8145C4.56901 34.1921 5.05046 34.3903 5.63574 34.4092C6.22103 34.4092 6.70247 34.2204 7.08008 33.8428L10.2803 30.6709C10.6768 30.2745 10.875 29.793 10.875 29.2266C10.875 28.6602 10.6768 28.1788 10.2803 27.7823C9.88379 27.3858 9.40234 27.1875 8.83594 27.1875ZM14.2734 32.625C14.0091 32.625 13.7542 32.6722 13.5088 32.7666C13.2633 32.861 13.0368 33.0121 12.8291 33.2198L9.65723 36.42C9.26074 36.8164 9.0625 37.2979 9.0625 37.8643C9.0625 38.4118 9.26074 38.8744 9.65723 39.252C10.0537 39.6296 10.5352 39.8278 11.1016 39.8467C11.3659 39.8467 11.6208 39.7995 11.8662 39.7051C12.1117 39.6107 12.3382 39.4691 12.5459 39.2803L15.7178 36.0801C16.1143 35.6836 16.3125 35.2116 16.3125 34.6641C16.3125 34.0977 16.1143 33.6163 15.7178 33.2198C15.3213 32.8233 14.8398 32.625 14.2734 32.625ZM19.7109 38.0625C19.1634 38.0625 18.6914 38.2608 18.2949 38.6573L15.0947 41.8291C14.6982 42.2256 14.5 42.7071 14.5 43.2735C14.5 43.8399 14.6888 44.3119 15.0664 44.6895C15.444 45.0671 15.9255 45.2653 16.5107 45.2842C17.096 45.2842 17.5775 45.0954 17.9551 44.7178L21.1553 41.5459C21.5518 41.1495 21.75 40.668 21.75 40.1016C21.75 39.5352 21.5518 39.0538 21.1553 38.6573C20.7588 38.2608 20.2773 38.0625 19.7109 38.0625ZM19.9375 48.7393C19.9375 49.2868 20.1357 49.7494 20.5322 50.127C20.9287 50.5046 21.4102 50.7028 21.9766 50.7217C22.2409 50.7217 22.4958 50.6745 22.7412 50.5801C22.9867 50.4857 23.2132 50.3441 23.4209 50.1553L26.5928 46.9551C26.9893 46.5586 27.1875 46.0866 27.1875 45.5391C27.1875 44.9727 26.9893 44.4913 26.5928 44.0948C26.1963 43.6983 25.7148 43.5 25.1484 43.5C24.8841 43.5 24.6292 43.5472 24.3838 43.6416C24.1383 43.736 23.9118 43.8871 23.7041 44.0948L20.5322 47.295C20.1357 47.6914 19.9375 48.1729 19.9375 48.7393ZM48.7109 36.25C49.2585 36.25 49.7305 36.0518 50.127 35.6553C50.5234 35.2588 50.7311 34.7868 50.75 34.2393C50.75 33.6729 50.5518 33.1914 50.1553 32.795L32.2568 14.8682C32.2002 14.8116 32.1058 14.7644 31.9736 14.7266C31.8415 14.6888 31.7093 14.6511 31.5771 14.6133C31.445 14.5756 31.3034 14.5472 31.1523 14.5284C31.0013 14.5095 30.888 14.5 30.8125 14.5C30.3216 14.5 29.859 14.5944 29.4248 14.7832C28.9906 14.972 28.6035 15.2269 28.2637 15.5479C27.9238 15.8689 27.6595 16.2559 27.4707 16.709C27.2819 17.1621 27.1875 17.6342 27.1875 18.125C27.1875 19.1257 26.9987 20.0603 26.6211 20.9288C26.2435 21.7972 25.7243 22.5713 25.0635 23.251C24.4027 23.9307 23.638 24.4499 22.7695 24.8086C21.901 25.1674 20.957 25.3562 19.9375 25.375C19.1823 25.375 18.4743 25.2334 17.8135 24.9502C17.1527 24.667 16.5768 24.28 16.0859 23.7891C15.5951 23.2982 15.208 22.7224 14.9248 22.0616C14.6416 21.4008 14.5 20.6927 14.5 19.9375C14.5 19.4844 14.5472 18.9841 14.6416 18.4366C14.736 17.889 14.887 17.3982 15.0947 16.9639L20.3906 6.34379C20.5605 6.04171 20.8154 5.79626 21.1553 5.60746L19.9375 4.38969L4.36133 19.9375L8.18457 23.7325C9.03418 23.6381 9.83659 23.6947 10.5918 23.9024C11.347 24.1101 12.0078 24.4594 12.5742 24.9502C13.1406 25.4411 13.5938 26.0358 13.9336 26.7344C14.2734 27.433 14.4528 28.2165 14.4717 29.085C15.2269 29.1228 15.9349 29.2738 16.5957 29.5381C17.2565 29.8025 17.8229 30.1801 18.2949 30.6709C18.7669 31.1618 19.154 31.7282 19.4561 32.3702C19.7581 33.0121 19.9092 33.7295 19.9092 34.5225C20.6644 34.5603 21.3724 34.7113 22.0332 34.9756C22.694 35.24 23.2604 35.6176 23.7324 36.1084C24.2044 36.5993 24.5915 37.1657 24.8936 37.8077C25.1956 38.4496 25.3467 39.167 25.3467 39.96C26.1208 39.9978 26.8382 40.1582 27.499 40.4414C28.1598 40.7247 28.7357 41.1117 29.2266 41.6026C29.7174 42.0935 30.1045 42.6788 30.3877 43.3584C30.6709 44.0381 30.8125 44.765 30.8125 45.5391C30.8125 46.3887 30.6426 47.1817 30.3027 47.918C29.9629 48.6543 29.472 49.2963 28.8301 49.8438C29.1133 50.1081 29.3682 50.3252 29.5947 50.4952C29.8213 50.6651 30.1517 50.75 30.5859 50.75C31.1335 50.75 31.6055 50.5518 32.002 50.1553C32.3984 49.7588 32.6061 49.2868 32.625 48.7393C32.625 48.1729 32.4268 47.6914 32.0303 47.295L34.5791 44.7178L36.4199 46.5303C36.8542 46.9268 37.3262 47.125 37.8359 47.125C38.3835 47.125 38.8555 46.9268 39.252 46.5303C39.6484 46.1338 39.8561 45.6618 39.875 45.1143C39.875 44.5479 39.6768 44.0664 39.2803 43.67L36.0801 40.4698L38.6572 37.9209L41.8291 41.0928C42.2256 41.4893 42.707 41.6875 43.2734 41.6875C43.8398 41.6875 44.3213 41.4893 44.7178 41.0928C45.1143 40.6963 45.3125 40.2149 45.3125 39.6485C45.3125 39.0821 45.1143 38.6006 44.7178 38.2041L41.5176 35.0323L44.0947 32.4551L47.2949 35.6553C47.6914 36.0518 48.1634 36.25 48.7109 36.25ZM53.6104 19.9375L37.5811 3.87992L23.3076 8.63774L18.3799 18.4932C18.2855 18.6631 18.2194 18.8991 18.1816 19.2012C18.1439 19.5033 18.125 19.7487 18.125 19.9375C18.125 20.4284 18.3044 20.8532 18.6631 21.212C19.0218 21.5707 19.4466 21.75 19.9375 21.75C20.4473 21.75 20.9193 21.6556 21.3535 21.4668C21.7878 21.278 22.1654 21.0232 22.4863 20.7022C22.8073 20.3812 23.0716 19.9942 23.2793 19.5411C23.487 19.0879 23.5814 18.6159 23.5625 18.125C23.5625 17.1244 23.7513 16.1898 24.1289 15.3213C24.5065 14.4528 25.0257 13.6788 25.6865 12.9991C26.3473 12.3194 27.112 11.8002 27.9805 11.4414C28.849 11.0827 29.793 10.8939 30.8125 10.875C31.1146 10.875 31.4355 10.9034 31.7754 10.96C32.1152 11.0166 32.474 11.0922 32.8516 11.1866C33.2292 11.281 33.5596 11.4131 33.8428 11.583C34.126 11.753 34.3997 11.9512 34.6641 12.1778L48.0312 25.545L53.6104 19.9375Z" fill="url(#paint0_linear_319_13014)"/>
<defs>
<linearGradient id="paint0_linear_319_13014" x1="0" y1="27.1864" x2="58" y2="27.1864" gradientUnits="userSpaceOnUse">
<stop offset="0.192308" stop-color="#3853A3"/>
<stop offset="0.668269" stop-color="#55A5D9"/>
<stop offset="0.942308" stop-color="#57DDE6"/>
</linearGradient>
</defs>
</svg>
