<svg width="58" height="58" viewBox="0 0 58 58" fill="none" xmlns="http://www.w3.org/2000/svg">
<path d="M6.04175 19.7852C6.29308 14.7102 7.04466 11.5444 9.297 9.29688C11.5445 7.04454 14.7103 6.29296 19.7853 6.04163M51.9584 19.7852C51.7071 14.7102 50.9555 11.5444 48.7032 9.29688C46.4557 7.04454 43.2898 6.29296 38.2148 6.04163M38.2148 51.9583C43.2898 51.707 46.4557 50.9554 48.7032 48.703C50.9555 46.4555 51.7071 43.2897 51.9584 38.2147M19.7853 51.9583C14.7103 51.707 11.5445 50.9554 9.297 48.703C7.04466 46.4555 6.29308 43.2897 6.04175 38.2147" stroke="url(#paint0_linear_320_13015)" stroke-width="3.625" stroke-linecap="round" stroke-linejoin="round"/>
<path d="M47.4513 27.3518C48.0386 28.0865 48.3334 28.4562 48.3334 29C48.3334 29.5437 48.0386 29.9135 47.4513 30.6481C44.8099 33.9541 38.065 41.0833 29.0001 41.0833C19.9352 41.0833 13.1902 33.9541 10.5488 30.6481C9.96158 29.9135 9.66675 29.5437 9.66675 29C9.66675 28.4562 9.96158 28.0865 10.5488 27.3518C13.1902 24.0458 19.9352 16.9166 29.0001 16.9166C38.065 16.9166 44.8099 24.0458 47.4513 27.3518Z" stroke="url(#paint1_linear_320_13015)" stroke-width="3.625"/>
<path d="M33.8334 29C33.8334 27.7181 33.3242 26.4887 32.4178 25.5823C31.5113 24.6759 30.282 24.1666 29.0001 24.1666C27.7182 24.1666 26.4888 24.6759 25.5824 25.5823C24.676 26.4887 24.1667 27.7181 24.1667 29C24.1667 30.2818 24.676 31.5112 25.5824 32.4176C26.4888 33.3241 27.7182 33.8333 29.0001 33.8333C30.282 33.8333 31.5113 33.3241 32.4178 32.4176C33.3242 31.5112 33.8334 30.2818 33.8334 29Z" stroke="url(#paint2_linear_320_13015)" stroke-width="3.625"/>
<defs>
<linearGradient id="paint0_linear_320_13015" x1="6.04175" y1="29" x2="51.9584" y2="29" gradientUnits="userSpaceOnUse">
<stop offset="0.192308" stop-color="#3853A3"/>
<stop offset="0.668269" stop-color="#55A5D9"/>
<stop offset="0.942308" stop-color="#57DDE6"/>
</linearGradient>
<linearGradient id="paint1_linear_320_13015" x1="9.66675" y1="29" x2="48.3334" y2="29" gradientUnits="userSpaceOnUse">
<stop offset="0.192308" stop-color="#3853A3"/>
<stop offset="0.668269" stop-color="#55A5D9"/>
<stop offset="0.942308" stop-color="#57DDE6"/>
</linearGradient>
<linearGradient id="paint2_linear_320_13015" x1="24.1667" y1="29" x2="33.8334" y2="29" gradientUnits="userSpaceOnUse">
<stop offset="0.192308" stop-color="#3853A3"/>
<stop offset="0.668269" stop-color="#55A5D9"/>
<stop offset="0.942308" stop-color="#57DDE6"/>
</linearGradient>
</defs>
</svg>
