<svg width="50" height="50" viewBox="0 0 50 50" fill="none" xmlns="http://www.w3.org/2000/svg">
<path d="M1.8125 15.5561C2.06383 10.4811 2.81542 7.31525 5.06775 5.06775C7.31525 2.81542 10.4811 2.06383 15.5561 1.8125M47.7292 15.5561C47.4778 10.4811 46.7263 7.31525 44.4739 5.06775C42.2264 2.81542 39.0606 2.06383 33.9856 1.8125M33.9856 47.7292C39.0606 47.4778 42.2264 46.7263 44.4739 44.4739C46.7263 42.2264 47.4778 39.0606 47.7292 33.9856M15.5561 47.7292C10.4811 47.4778 7.31525 46.7263 5.06775 44.4739C2.81542 42.2264 2.06383 39.0606 1.8125 33.9856" stroke="url(#paint0_linear_320_13019)" stroke-width="3.625" stroke-linecap="round" stroke-linejoin="round"/>
<path d="M43.2221 23.1227C43.8093 23.8573 44.1042 24.2271 44.1042 24.7708C44.1042 25.3146 43.8093 25.6843 43.2221 26.419C40.5807 29.725 33.8358 36.8542 24.7708 36.8542C15.7059 36.8542 8.961 29.725 6.31958 26.419C5.73233 25.6843 5.4375 25.3146 5.4375 24.7708C5.4375 24.2271 5.73233 23.8573 6.31958 23.1227C8.961 19.8167 15.7059 12.6875 24.7708 12.6875C33.8358 12.6875 40.5807 19.8167 43.2221 23.1227Z" stroke="url(#paint1_linear_320_13019)" stroke-width="3.625"/>
<path d="M29.6042 24.7708C29.6042 23.489 29.0949 22.2596 28.1885 21.3532C27.2821 20.4467 26.0527 19.9375 24.7708 19.9375C23.489 19.9375 22.2596 20.4467 21.3532 21.3532C20.4467 22.2596 19.9375 23.489 19.9375 24.7708C19.9375 26.0527 20.4467 27.2821 21.3532 28.1885C22.2596 29.0949 23.489 29.6042 24.7708 29.6042C26.0527 29.6042 27.2821 29.0949 28.1885 28.1885C29.0949 27.2821 29.6042 26.0527 29.6042 24.7708Z" stroke="url(#paint2_linear_320_13019)" stroke-width="3.625"/>
<defs>
<linearGradient id="paint0_linear_320_13019" x1="1.8125" y1="24.7708" x2="47.7292" y2="24.7708" gradientUnits="userSpaceOnUse">
<stop offset="0.192308" stop-color="#3853A3"/>
<stop offset="0.668269" stop-color="#55A5D9"/>
<stop offset="0.942308" stop-color="#57DDE6"/>
</linearGradient>
<linearGradient id="paint1_linear_320_13019" x1="5.4375" y1="24.7708" x2="44.1042" y2="24.7708" gradientUnits="userSpaceOnUse">
<stop offset="0.192308" stop-color="#3853A3"/>
<stop offset="0.668269" stop-color="#55A5D9"/>
<stop offset="0.942308" stop-color="#57DDE6"/>
</linearGradient>
<linearGradient id="paint2_linear_320_13019" x1="19.9375" y1="24.7708" x2="29.6042" y2="24.7708" gradientUnits="userSpaceOnUse">
<stop offset="0.192308" stop-color="#3853A3"/>
<stop offset="0.668269" stop-color="#55A5D9"/>
<stop offset="0.942308" stop-color="#57DDE6"/>
</linearGradient>
</defs>
</svg>
