<svg width="56" height="57" viewBox="0 0 56 57" fill="none" xmlns="http://www.w3.org/2000/svg">
<path d="M19.6364 9.5C19.6364 5.72933 19.6364 3.844 20.8097 2.67333C21.9777 1.5 23.8631 1.5 27.6364 1.5C31.4097 1.5 33.2924 1.5 34.4631 2.67333C35.6364 3.84133 35.6364 5.72667 35.6364 9.5C35.6364 13.2733 35.6364 15.156 34.4631 16.3267C33.2951 17.5 31.4097 17.5 27.6364 17.5C23.8631 17.5 21.9804 17.5 20.8097 16.3267C19.6364 15.1587 19.6364 13.2733 19.6364 9.5ZM0.969727 46.8333C0.969727 43.0627 0.969727 41.1773 2.14306 40.0067C3.31106 38.8333 5.19639 38.8333 8.96973 38.8333C12.7431 38.8333 14.6257 38.8333 15.7964 40.0067C16.9697 41.1747 16.9697 43.06 16.9697 46.8333C16.9697 50.6067 16.9697 52.4893 15.7964 53.66C14.6284 54.8333 12.7431 54.8333 8.96973 54.8333C5.19639 54.8333 3.31373 54.8333 2.14306 53.66C0.969727 52.492 0.969727 50.6067 0.969727 46.8333ZM38.3031 46.8333C38.3031 43.0627 38.3031 41.1773 39.4764 40.0067C40.6444 38.8333 42.5297 38.8333 46.3031 38.8333C50.0764 38.8333 51.9591 38.8333 53.1297 40.0067C54.3031 41.1773 54.3031 43.0627 54.3031 46.8333C54.3031 50.604 54.3031 52.4893 53.1297 53.66C51.9591 54.8333 50.0737 54.8333 46.3031 54.8333C42.5324 54.8333 40.6471 54.8333 39.4764 53.66C38.3031 52.492 38.3031 50.6067 38.3031 46.8333Z" stroke="url(#paint0_linear_945_14909)" stroke-width="3"/>
<path d="M27.6364 17.5V20.1667M27.6364 20.1667C27.6364 22.652 27.6364 23.8947 28.1111 24.8733C28.7404 26.18 29.9511 27.22 31.4764 27.7613C32.6231 28.1667 34.0711 28.1667 36.9697 28.1667C39.8684 28.1667 41.3164 28.1667 42.4631 28.572C43.9857 29.1133 45.1991 30.1533 45.8284 31.46C46.3031 32.4387 46.3031 33.6813 46.3031 36.1667V38.8333M27.6364 20.1667C27.6364 22.652 27.6364 23.8947 27.1617 24.8733C26.5324 26.18 25.3217 27.22 23.7964 27.7613C22.6497 28.1667 21.2017 28.1667 18.3031 28.1667C15.4044 28.1667 13.9564 28.1667 12.8097 28.572C11.2871 29.1133 10.0737 30.1533 9.44439 31.46C8.96973 32.4387 8.96973 33.6813 8.96973 36.1667V38.8333" stroke="url(#paint1_linear_945_14909)" stroke-width="3" stroke-linecap="round" stroke-linejoin="round"/>
<defs>
<linearGradient id="paint0_linear_945_14909" x1="0.969727" y1="28.1667" x2="54.3031" y2="28.1667" gradientUnits="userSpaceOnUse">
<stop offset="0.192308" stop-color="#3853A3"/>
<stop offset="0.668269" stop-color="#55A5D9"/>
<stop offset="0.942308" stop-color="#57DDE6"/>
</linearGradient>
<linearGradient id="paint1_linear_945_14909" x1="8.96973" y1="28.1667" x2="46.3031" y2="28.1667" gradientUnits="userSpaceOnUse">
<stop offset="0.192308" stop-color="#3853A3"/>
<stop offset="0.668269" stop-color="#55A5D9"/>
<stop offset="0.942308" stop-color="#57DDE6"/>
</linearGradient>
</defs>
</svg>
