<svg width="64" height="64" viewBox="0 0 64 64" fill="none" xmlns="http://www.w3.org/2000/svg">
<path d="M30 24C43.2548 24 54 19.5228 54 14C54 8.47715 43.2548 4 30 4C16.7452 4 6 8.47715 6 14C6 19.5228 16.7452 24 30 24Z" stroke="url(#paint0_linear_536_9331)" stroke-width="3" stroke-miterlimit="10" stroke-linecap="round"/>
<path d="M54 24.75C54 30.2725 43.25 34.75 30 34.75C16.75 34.75 6 30.2725 6 24.75M54 35.5C54 41.0225 43.25 45.5 30 45.5C16.75 45.5 6 41.0225 6 35.5" stroke="url(#paint1_linear_536_9331)" stroke-width="3" stroke-miterlimit="10" stroke-linecap="round"/>
<path d="M6 13.905V46.095C6 51.565 16.75 56 30 56C43.25 56 54 51.565 54 46.095V13.905" stroke="url(#paint2_linear_536_9331)" stroke-width="3" stroke-miterlimit="10" stroke-linecap="round"/>
<defs>
<linearGradient id="paint0_linear_536_9331" x1="6" y1="14" x2="54" y2="14" gradientUnits="userSpaceOnUse">
<stop offset="0.192308" stop-color="#3853A3"/>
<stop offset="0.668269" stop-color="#55A5D9"/>
<stop offset="0.942308" stop-color="#57DDE6"/>
</linearGradient>
<linearGradient id="paint1_linear_536_9331" x1="6" y1="35.125" x2="54" y2="35.125" gradientUnits="userSpaceOnUse">
<stop offset="0.192308" stop-color="#3853A3"/>
<stop offset="0.668269" stop-color="#55A5D9"/>
<stop offset="0.942308" stop-color="#57DDE6"/>
</linearGradient>
<linearGradient id="paint2_linear_536_9331" x1="6" y1="34.9525" x2="54" y2="34.9525" gradientUnits="userSpaceOnUse">
<stop offset="0.192308" stop-color="#3853A3"/>
<stop offset="0.668269" stop-color="#55A5D9"/>
<stop offset="0.942308" stop-color="#57DDE6"/>
</linearGradient>
</defs>
</svg>
