<svg width="64" height="64" viewBox="0 0 64 64" fill="none" xmlns="http://www.w3.org/2000/svg">
<path d="M24 48.0005C10.766 48.0005 0 37.2345 0 24.0005C0 10.7665 10.766 0.000499994 24 0.000499994C30.702 0.000499994 37.136 2.8245 41.654 7.7485C42.402 8.5605 42.346 9.8265 41.532 10.5745C40.716 11.3185 39.452 11.2645 38.706 10.4505C34.944 6.3525 29.584 4.0005 24 4.0005C12.972 4.0005 4 12.9725 4 24.0005C4 35.0285 12.972 44.0005 24 44.0005C33.176 44.0005 41.146 37.7945 43.38 28.9125C43.65 27.8405 44.732 27.1905 45.808 27.4605C46.88 27.7305 47.528 28.8165 47.26 29.8885C44.576 40.5525 35.012 48.0005 24 48.0005Z" fill="url(#paint0_linear_536_9425)"/>
<path d="M58 64.0005C56.396 64.0005 54.89 63.3745 53.758 62.2425L43.174 51.6565C41.614 50.0985 41.614 47.5585 43.174 46.0005L46 43.1725C47.512 41.6605 50.148 41.6605 51.658 43.1725L62.242 53.7585C63.376 54.8865 64 56.3945 64 58.0005C64 61.3085 61.308 64.0005 58 64.0005ZM48.828 46.0005L46 48.8285L56.586 59.4145C56.964 59.7925 57.466 60.0005 58 60.0005C59.102 60.0005 60 59.1045 60 58.0005C60 57.4645 59.792 56.9625 59.416 56.5885L48.828 46.0005Z" fill="url(#paint1_linear_536_9425)"/>
<path d="M46 48.0005C45.488 48.0005 44.976 47.8045 44.586 47.4145L38.586 41.4145C37.804 40.6325 37.804 39.3685 38.586 38.5865C39.368 37.8045 40.632 37.8045 41.414 38.5865L47.414 44.5865C48.196 45.3685 48.196 46.6325 47.414 47.4145C47.024 47.8045 46.512 48.0005 46 48.0005Z" fill="url(#paint2_linear_536_9425)"/>
<path d="M14 30.0005C13.488 30.0005 12.976 29.8045 12.586 29.4145C11.804 28.6325 11.804 27.3685 12.586 26.5865L26.586 12.5865C27.368 11.8045 28.632 11.8045 29.414 12.5865L38 21.1725L58.586 0.5865C59.368 -0.1955 60.632 -0.1955 61.414 0.5865C62.196 1.3685 62.196 2.6325 61.414 3.4145L39.414 25.4145C38.632 26.1965 37.368 26.1965 36.586 25.4145L28 16.8285L15.414 29.4145C15.024 29.8045 14.512 30.0005 14 30.0005Z" fill="url(#paint3_linear_536_9425)"/>
<path d="M60 12.0005C58.896 12.0005 58 11.1065 58 10.0005V4.0005H52C50.896 4.0005 50 3.1065 50 2.0005C50 0.8945 50.896 0.000499994 52 0.000499994H60C61.104 0.000499994 62 0.8945 62 2.0005V10.0005C62 11.1065 61.104 12.0005 60 12.0005Z" fill="url(#paint4_linear_536_9425)"/>
<defs>
<linearGradient id="paint0_linear_536_9425" x1="0" y1="32.0002" x2="64" y2="32.0002" gradientUnits="userSpaceOnUse">
<stop offset="0.192308" stop-color="#3853A3"/>
<stop offset="0.668269" stop-color="#55A5D9"/>
<stop offset="0.942308" stop-color="#57DDE6"/>
</linearGradient>
<linearGradient id="paint1_linear_536_9425" x1="0" y1="32.0002" x2="64" y2="32.0002" gradientUnits="userSpaceOnUse">
<stop offset="0.192308" stop-color="#3853A3"/>
<stop offset="0.668269" stop-color="#55A5D9"/>
<stop offset="0.942308" stop-color="#57DDE6"/>
</linearGradient>
<linearGradient id="paint2_linear_536_9425" x1="0" y1="32.0002" x2="64" y2="32.0002" gradientUnits="userSpaceOnUse">
<stop offset="0.192308" stop-color="#3853A3"/>
<stop offset="0.668269" stop-color="#55A5D9"/>
<stop offset="0.942308" stop-color="#57DDE6"/>
</linearGradient>
<linearGradient id="paint3_linear_536_9425" x1="0" y1="32.0002" x2="64" y2="32.0002" gradientUnits="userSpaceOnUse">
<stop offset="0.192308" stop-color="#3853A3"/>
<stop offset="0.668269" stop-color="#55A5D9"/>
<stop offset="0.942308" stop-color="#57DDE6"/>
</linearGradient>
<linearGradient id="paint4_linear_536_9425" x1="0" y1="32.0002" x2="64" y2="32.0002" gradientUnits="userSpaceOnUse">
<stop offset="0.192308" stop-color="#3853A3"/>
<stop offset="0.668269" stop-color="#55A5D9"/>
<stop offset="0.942308" stop-color="#57DDE6"/>
</linearGradient>
</defs>
</svg>
