<svg width="64" height="64" viewBox="0 0 64 64" fill="none" xmlns="http://www.w3.org/2000/svg">
<path d="M18.9825 3.46699C17.9225 3.50299 16.9125 3.76099 16 4.28699C14.176 5.33999 13.087 7.27199 12.5975 9.55849C12.1085 11.8455 12.16 14.565 12.6475 17.6085C12.8355 18.782 13.1105 20.016 13.4285 21.2775C12.177 21.6325 10.9705 22.0125 9.8605 22.4365C6.9805 23.5365 4.6005 24.8515 2.8645 26.419C1.1285 27.9865 0 29.894 0 32C0 34.106 1.128 36.015 2.8645 37.582C4.6 39.15 6.98 40.465 9.86 41.565C10.97 41.989 12.1765 42.368 13.428 42.7235C13.11 43.985 12.835 45.219 12.647 46.392C12.1595 49.437 12.109 52.1555 12.598 54.442C13.088 56.7295 14.1755 58.661 15.9995 59.714C17.8235 60.767 20.0395 60.744 22.265 60.024C24.49 59.304 26.82 57.9005 29.2125 55.956C30.1345 55.207 31.066 54.353 32 53.446C32.933 54.353 33.865 55.207 34.787 55.956C37.179 57.901 39.508 59.3045 41.7335 60.0245C43.9585 60.7445 46.176 60.767 48 59.7145C49.824 58.661 50.913 56.7295 51.4025 54.4425C51.8915 52.1555 51.839 49.4365 51.3515 46.3925C51.1635 45.219 50.8895 43.985 50.5715 42.7235C51.823 42.3685 53.0295 41.9885 54.1395 41.565C57.0195 40.4655 59.3995 39.15 61.1355 37.5825C62.8715 36.015 64 34.106 64 32C64 29.894 62.872 27.986 61.1355 26.419C59.3995 24.852 57.0195 23.536 54.1395 22.4365C53.0295 22.013 51.824 21.6325 50.5725 21.2775C50.8905 20.016 51.1645 18.7815 51.3525 17.6085C51.84 14.565 51.8905 11.8455 51.4015 9.55849C50.9125 7.27149 49.8245 5.33999 48 4.28699C46.1755 3.23399 43.96 3.25699 41.7345 3.97699C39.5095 4.69699 37.1795 6.10099 34.787 8.04499C33.865 8.79499 32.932 9.64899 31.9985 10.556C31.065 9.64949 30.1335 8.79449 29.2115 8.04499C26.82 6.10099 24.492 4.69599 22.267 3.97599C21.154 3.61599 20.043 3.43099 18.982 3.46599L18.9825 3.46699ZM19.1105 6.23949C19.7755 6.22049 20.5375 6.34299 21.4105 6.62449C23.1555 7.18949 25.248 8.40949 27.457 10.2045C28.308 10.8955 29.1785 11.6955 30.0555 12.5495C28.2235 14.5295 26.4065 16.781 24.6485 19.2665C21.617 19.5465 18.7585 19.9945 16.127 20.5915C15.827 19.4045 15.569 18.2515 15.3955 17.168C14.9455 14.358 14.9355 11.9355 15.3195 10.1415C15.703 8.34799 16.4205 7.25799 17.3915 6.69749C17.877 6.41749 18.4455 6.25749 19.1105 6.23949ZM44.89 6.23949C45.555 6.25799 46.1235 6.41699 46.609 6.69749C47.58 7.25749 48.2975 8.34749 48.681 10.141C49.0645 11.9345 49.056 14.3575 48.606 17.168C48.4325 18.2505 48.175 19.405 47.8745 20.591C45.2435 19.9945 42.3845 19.546 39.352 19.2665C37.594 16.7815 35.776 14.5295 33.944 12.549C34.821 11.6955 35.6925 10.895 36.5435 10.204C38.7525 8.40799 40.845 7.18999 42.5905 6.62499C43.463 6.34299 44.2255 6.22099 44.8905 6.23999L44.89 6.23949ZM32 14.551C33.3091 15.9797 34.5504 17.469 35.72 19.014C34.498 18.959 33.2615 18.922 32 18.922C30.739 18.922 29.5025 18.9585 28.28 19.014C29.449 17.4685 30.6904 15.9792 32 14.551ZM32 21.705C33.9925 21.705 35.935 21.7835 37.817 21.925C38.9115 23.5278 39.9454 25.1711 40.9165 26.8515C41.8863 28.533 42.7926 30.2504 43.6335 32C42.7926 33.7492 41.8863 35.4663 40.9165 37.1475C39.9453 38.8284 38.9112 40.4722 37.8165 42.0755C35.935 42.217 33.9925 42.296 32.0005 42.296C30.0588 42.2956 28.1177 42.2222 26.1815 42.076C25.0873 40.4725 24.0537 38.8285 23.083 37.1475C22.1132 35.4666 21.2069 33.7499 20.366 32.001C21.2072 30.2514 22.1138 28.534 23.084 26.8525C24.0553 25.1717 25.0893 23.5281 26.184 21.925C28.1194 21.7788 30.0591 21.7055 32 21.705ZM22.6135 22.2865C21.9429 23.33 21.2961 24.3886 20.6735 25.4615C20.0555 26.5369 19.462 27.6262 18.8935 28.7285C18.14 26.9432 17.4706 25.1235 16.8875 23.2755C18.6825 22.8755 20.5935 22.5405 22.6135 22.2865ZM41.387 22.2865C43.3101 22.5265 45.2208 22.8565 47.113 23.2755C46.5299 25.1238 45.8605 26.9438 45.107 28.7295C44.5385 27.6267 43.945 26.5369 43.327 25.461C42.7044 24.3881 42.0576 23.3295 41.387 22.286V22.2865ZM14.1825 23.957C14.9815 26.534 16.023 29.234 17.2975 31.999C16.0225 34.765 14.9825 37.466 14.1825 40.043C13.005 39.7105 11.8775 39.356 10.8525 38.965C8.193 37.95 6.0905 36.746 4.7285 35.516C3.367 34.287 2.782 33.121 2.782 31.9995C2.782 30.8785 3.367 29.7135 4.7285 28.4845C6.0905 27.2545 8.1935 26.051 10.8525 25.036C11.8775 24.6445 13.005 24.2895 14.1825 23.9565V23.957ZM49.8175 23.957C50.9955 24.29 52.1235 24.645 53.1475 25.037C55.8075 26.052 57.91 27.255 59.272 28.4845C60.6335 29.7145 61.2185 30.8795 61.2185 32C61.2185 33.1215 60.6335 34.2875 59.272 35.5165C57.91 36.7465 55.807 37.9495 53.148 38.965C52.123 39.356 50.9945 39.71 49.817 40.043C49.018 37.4665 47.977 34.7665 46.7035 32.001C47.978 29.235 49.018 26.5345 49.8175 23.957ZM32 26.296C30.4873 26.2963 29.0366 26.8973 27.967 27.9669C26.8973 29.0366 26.2963 30.4873 26.296 32C26.2963 33.5128 26.8974 34.9635 27.9671 36.0332C29.0369 37.1029 30.4877 37.7039 32.0005 37.704C33.5132 37.7037 34.9639 37.1027 36.0335 36.033C37.1032 34.9634 37.7042 33.5127 37.7045 32C37.7042 30.4872 37.1031 29.0364 36.0334 27.9668C34.9636 26.8971 33.5128 26.2961 32 26.296ZM45.107 35.2715C45.8602 37.0572 46.5293 38.8772 47.112 40.7255C45.318 41.1255 43.407 41.461 41.388 41.7155C42.0581 40.6715 42.7044 39.6124 43.3265 38.539C43.9445 37.4634 44.5385 36.374 45.107 35.2715ZM18.8935 35.2725C19.4621 36.3746 20.0555 37.4638 20.6735 38.539C21.2963 39.612 21.9432 40.671 22.6135 41.715C20.6903 41.4756 18.7795 41.1454 16.8875 40.7255C17.4706 38.8775 18.14 37.0578 18.8935 35.2725ZM16.126 43.41C18.757 44.006 21.616 44.4535 24.6485 44.733C26.4065 47.2195 28.2245 49.4715 30.0565 51.453C29.1795 52.3055 28.309 53.1055 27.458 53.798C25.249 55.593 23.1545 56.813 21.409 57.378C19.664 57.942 18.3615 57.8645 17.3905 57.304C16.4195 56.743 15.703 55.654 15.3195 53.8605C14.9355 52.0665 14.945 49.644 15.3955 46.8325C15.569 45.75 15.8255 44.596 16.126 43.41ZM47.8735 43.41C48.1735 44.596 48.4315 45.75 48.605 46.8325C49.055 49.644 49.065 52.0665 48.681 53.8605C48.2975 55.6545 47.58 56.744 46.609 57.3055C45.638 57.8655 44.336 57.942 42.5905 57.377C40.845 56.812 38.7525 55.592 36.5435 53.797C35.693 53.1055 34.8215 52.3055 33.945 51.452C35.777 49.472 37.594 47.219 39.352 44.733C42.3835 44.4535 45.242 44.006 47.8735 43.41ZM28.28 44.986C29.5193 45.0451 30.7598 45.0761 32.0005 45.079C33.2414 45.0761 34.482 45.0451 35.7215 44.986C34.5522 46.5321 33.3105 48.0221 32.0005 49.451C30.6908 48.0221 29.4489 46.5321 28.28 44.986Z" fill="url(#paint0_linear_374_4452)"/>
<defs>
<linearGradient id="paint0_linear_374_4452" x1="0" y1="32.0002" x2="64" y2="32.0002" gradientUnits="userSpaceOnUse">
<stop offset="0.192308" stop-color="#3853A3"/>
<stop offset="0.668269" stop-color="#55A5D9"/>
<stop offset="0.942308" stop-color="#57DDE6"/>
</linearGradient>
</defs>
</svg>
