<svg width="36" height="43" viewBox="0 0 36 43" fill="none" xmlns="http://www.w3.org/2000/svg">
<path d="M7.50306 14.3743C7.03871 11.3104 9.20077 8.55356 12.5036 7.54199C13.09 7.36251 13.7228 7.41351 14.2729 7.6846C14.823 7.9557 15.249 8.42645 15.4639 9.00084L16.523 11.8283C16.6933 12.2832 16.7238 12.7785 16.6107 13.2508C16.4976 13.7231 16.2459 14.1508 15.8881 14.4791L12.7376 17.3688C12.5819 17.5113 12.4659 17.6918 12.401 17.8926C12.336 18.0935 12.3244 18.3077 12.3671 18.5144L12.3951 18.6412L12.4731 18.9592C12.5426 19.2274 12.6474 19.6052 12.7949 20.0561C13.0874 20.9519 13.5541 22.156 14.2488 23.3589C14.9435 24.5618 15.7528 25.5685 16.3816 26.2693C16.7095 26.6339 17.0518 26.9852 17.4078 27.3223L17.5053 27.4125C17.6629 27.5521 17.854 27.6484 18.0599 27.6922C18.2658 27.736 18.4795 27.7257 18.6802 27.6623L22.7582 26.379C23.2215 26.2333 23.7177 26.2294 24.1833 26.3678C24.6489 26.5061 25.0625 26.7803 25.3711 27.1553L27.3004 29.4978C28.1048 30.4728 28.0097 31.906 27.0847 32.7677C24.557 35.1235 21.0811 35.6074 18.6631 33.6622C15.7 31.2711 13.2015 28.3558 11.2921 25.0615C9.36874 21.7684 8.08327 18.1436 7.50306 14.3743ZM14.9204 18.6741L17.5358 16.2756C18.2515 15.6189 18.7548 14.7635 18.9811 13.8189C19.2074 12.8743 19.1463 11.8836 18.8057 10.974L17.7454 8.14649C17.3129 6.99128 16.456 6.04451 15.3495 5.4992C14.2431 4.95389 12.9703 4.85109 11.7906 5.21174C7.68952 6.46828 4.39646 10.1452 5.09359 14.7387C5.71937 18.8117 7.10739 22.7301 9.18493 26.2888C11.2444 29.8413 13.9391 32.985 17.1348 35.5635C20.7606 38.4763 25.6039 37.483 28.7471 34.5519C29.647 33.714 30.1931 32.5642 30.2739 31.3372C30.3548 30.1103 29.9643 28.8988 29.1822 27.95L27.2529 25.6075C26.6355 24.8573 25.8081 24.3086 24.8767 24.032C23.9453 23.7553 22.9525 23.7633 22.0257 24.0548L18.6412 25.12C18.4897 24.9643 18.3414 24.8054 18.1964 24.6435C17.5006 23.8742 16.8851 23.0358 16.3597 22.1414C15.8476 21.239 15.429 20.2867 15.1105 19.2993C15.0428 19.0926 14.9795 18.8846 14.9204 18.6753" fill="url(#paint0_linear_428_20662)"/>
<defs>
<linearGradient id="paint0_linear_428_20662" x1="5.44126" y1="20.2503" x2="20.0956" y2="20.3277" gradientUnits="userSpaceOnUse">
<stop stop-color="#7E42FF"/>
<stop offset="0.63" stop-color="#46D4FF"/>
</linearGradient>
</defs>
</svg>
