<svg width="40" height="40" viewBox="0 0 40 40" fill="none" xmlns="http://www.w3.org/2000/svg">
<path d="M22.8732 16.3722L17.9982 21.2472M33.0912 5.04756C33.2454 4.99435 33.4114 4.98559 33.5704 5.02229C33.7293 5.05899 33.8747 5.13966 33.99 5.25509C34.1052 5.37051 34.1857 5.51604 34.2222 5.67503C34.2586 5.83402 34.2496 6.00006 34.1962 6.15418L24.5697 33.6654C24.5121 33.8299 24.4064 33.9732 24.2663 34.0769C24.1262 34.1805 23.9583 34.2397 23.7841 34.2467C23.61 34.2537 23.4378 34.2082 23.2899 34.1162C23.1419 34.0241 23.0251 33.8897 22.9544 33.7304L17.7236 21.9622C17.6363 21.766 17.4794 21.6091 17.2832 21.5218L5.51494 16.2893C5.35617 16.2184 5.2223 16.1016 5.13063 15.9538C5.03896 15.8061 4.99371 15.6342 5.0007 15.4605C5.0077 15.2867 5.06664 15.1191 5.16989 14.9792C5.27315 14.8393 5.41598 14.7336 5.57994 14.6757L33.0912 5.04756Z" stroke="url(#paint0_linear_428_20656)" stroke-width="2.4375" stroke-linecap="round" stroke-linejoin="round"/>
<defs>
<linearGradient id="paint0_linear_428_20656" x1="5.51037" y1="18.8037" x2="22.4594" y2="18.9181" gradientUnits="userSpaceOnUse">
<stop stop-color="#7E42FF"/>
<stop offset="0.63" stop-color="#46D4FF"/>
</linearGradient>
</defs>
</svg>
