<svg width="12" height="8" viewBox="0 0 12 8" fill="none" xmlns="http://www.w3.org/2000/svg">
<path fill-rule="evenodd" clip-rule="evenodd" d="M11.6999 0.190001C12.0099 0.464001 12.0389 0.938001 11.7649 1.25L6.01494 7.75C5.94854 7.82508 5.86776 7.8861 5.77737 7.92943C5.68699 7.97276 5.58884 7.99754 5.48871 8.00229C5.38859 8.00705 5.28853 7.99168 5.19445 7.95711C5.10036 7.92254 5.01416 7.86945 4.94094 7.801L1.19094 4.301C1.04668 4.16505 0.962108 3.97751 0.955713 3.77938C0.949318 3.58125 1.02162 3.38865 1.15682 3.24368C1.29201 3.0987 1.4791 3.01315 1.67719 3.00571C1.87528 2.99828 2.06826 3.06957 2.21394 3.204L5.40394 6.174L10.6439 0.254001C10.7093 0.180095 10.7885 0.119803 10.8772 0.0765768C10.9659 0.0333509 11.0622 0.00804072 11.1607 0.00209576C11.2591 -0.00384919 11.3578 0.00968798 11.451 0.0419317C11.5442 0.0741754 11.6302 0.124492 11.7039 0.190001H11.6999Z" fill="#8F33EC"/>
</svg>
