<svg width="25" height="25" viewBox="0 0 25 25" fill="none" xmlns="http://www.w3.org/2000/svg">
<g clip-path="url(#clip0_179_77)">
<path d="M16.2708 11.6875C16.141 11.5558 15.9641 11.4811 15.7792 11.4798C15.5943 11.4785 15.4164 11.5507 15.2847 11.6806C15.153 11.8104 15.0783 11.9872 15.077 12.1722C15.0757 12.3571 15.1479 12.535 15.2778 12.6667L17.8611 15.2778H5.43749C5.25331 15.2778 5.07667 15.3509 4.94644 15.4812C4.81621 15.6114 4.74304 15.788 4.74304 15.9722C4.74304 16.1564 4.81621 16.333 4.94644 16.4633C5.07667 16.5935 5.25331 16.6667 5.43749 16.6667H17.8611L15.2778 19.2361C15.2135 19.3009 15.1626 19.3776 15.1279 19.4621C15.0933 19.5465 15.0757 19.6369 15.076 19.7282C15.0763 19.8194 15.0946 19.9097 15.1298 19.9939C15.165 20.078 15.2165 20.1545 15.2812 20.2188C15.346 20.283 15.4228 20.334 15.5072 20.3686C15.5916 20.4032 15.682 20.4208 15.7733 20.4205C15.8645 20.4202 15.9548 20.4019 16.039 20.3667C16.1232 20.3315 16.1996 20.28 16.2639 20.2153L20.5069 15.9722L16.2708 11.6875Z" fill="#611BA7"/>
<path d="M9.19442 12.8125C9.33236 12.8133 9.46741 12.773 9.58235 12.6968C9.69729 12.6205 9.78693 12.5118 9.83982 12.3844C9.89271 12.257 9.90647 12.1167 9.87934 11.9815C9.85221 11.8462 9.78542 11.7221 9.68748 11.625L7.11109 9.02778H19.5278C19.7119 9.02778 19.8886 8.95462 20.0188 8.82438C20.149 8.69415 20.2222 8.51752 20.2222 8.33334C20.2222 8.14916 20.149 7.97252 20.0188 7.84229C19.8886 7.71206 19.7119 7.63889 19.5278 7.63889H7.11109L9.68748 5.04861C9.75177 4.98387 9.80268 4.90709 9.8373 4.82266C9.87192 4.73824 9.88958 4.64782 9.88925 4.55658C9.88893 4.46533 9.87064 4.37504 9.83542 4.29086C9.80021 4.20669 9.74876 4.13027 9.68401 4.06598C9.61926 4.00168 9.54248 3.95077 9.45806 3.91615C9.37363 3.88153 9.28322 3.86388 9.19197 3.8642C9.00769 3.86485 8.83121 3.93868 8.70137 4.06945L4.45831 8.33334L8.70137 12.5972C8.7651 12.6641 8.84154 12.7176 8.9262 12.7546C9.01086 12.7915 9.10205 12.8112 9.19442 12.8125Z" fill="#611BA7"/>
</g>
<defs>
<clipPath id="clip0_179_77">
<rect width="25" height="25" fill="white"/>
</clipPath>
</defs>
</svg>
