<svg width="55" height="55" viewBox="0 0 55 55" fill="none" xmlns="http://www.w3.org/2000/svg">
<path d="M43.5417 33.848V17.8063L30.9375 8.99031L18.3333 17.8041V23.9732H16.0417V16.7063L30.9375 6.08447L45.8333 16.7041V33.8457L43.5417 33.848ZM32.3033 19.3463H34.155V17.4947H32.3033V19.3463ZM27.72 19.3463H29.5717V17.4947H27.72V19.3463ZM32.3033 23.9297H34.155V22.078H32.3033V23.9297ZM27.72 23.9297H29.5717V22.078H27.72V23.9297ZM14.6758 42.7488L32.0123 47.8066L45.7371 43.567C45.6912 42.8718 45.4835 42.3707 45.1137 42.0636C44.741 41.7566 44.3201 41.603 43.851 41.603H32.9771C32.0085 41.603 31.13 41.5648 30.3417 41.4884C29.5533 41.412 28.7474 41.2302 27.9239 40.943L22.9052 39.2976L23.6798 37.0334L28.3204 38.7109C29.0568 38.9905 29.894 39.1586 30.8321 39.2151C31.7686 39.2701 33.0519 39.3022 34.6821 39.3113C34.6821 38.5963 34.5507 38.0189 34.2879 37.5789C34.0251 37.1389 33.6485 36.8318 33.1581 36.6576L19.9719 31.8176C19.8848 31.7886 19.8038 31.7672 19.7289 31.7534C19.6541 31.7397 19.5739 31.732 19.4883 31.7305H14.6758V42.7488ZM5.50916 48.1251V29.4388H19.4333C19.6472 29.4388 19.8672 29.4633 20.0933 29.5122C20.3194 29.5611 20.5295 29.6176 20.7235 29.6818L33.9671 34.5332C34.7875 34.8449 35.4933 35.4048 36.0846 36.213C36.6774 37.0212 36.9737 38.054 36.9737 39.3113H43.8487C45.2299 39.3113 46.2871 39.7429 47.0204 40.6061C47.7553 41.4709 48.1227 42.567 48.1227 43.8947V45.3041L32.1269 50.2403L14.6735 45.1528V48.1251H5.50916ZM7.80082 45.8334H12.3842V31.7305H7.80082V45.8334Z" fill="white"/>
</svg>
