<svg width="57" height="57" viewBox="0 0 57 57" fill="none" xmlns="http://www.w3.org/2000/svg">
<g clip-path="url(#clip0_288_8825)">
<path d="M4.25372 34.8568C4.25371 34.7508 4.27459 34.6457 4.31517 34.5477C4.35576 34.4497 4.41525 34.3607 4.49026 34.2857C4.56526 34.2107 4.6543 34.1512 4.7523 34.1106C4.8503 34.07 4.95534 34.0491 5.06141 34.0492H9.32795C9.43401 34.0492 9.53904 34.07 9.63703 34.1106C9.73503 34.1512 9.82407 34.2107 9.89907 34.2857C9.97407 34.3607 10.0336 34.4498 10.0742 34.5477C10.1147 34.6457 10.1356 34.7508 10.1356 34.8568C10.1356 34.9629 10.1147 35.0679 10.0742 35.1659C10.0336 35.2639 9.97407 35.353 9.89907 35.428C9.82407 35.503 9.73503 35.5625 9.63703 35.603C9.53904 35.6436 9.43401 35.6645 9.32795 35.6645H5.06141C4.95534 35.6645 4.8503 35.6437 4.7523 35.6031C4.6543 35.5625 4.56526 35.503 4.49026 35.428C4.41525 35.353 4.35576 35.2639 4.31517 35.1659C4.27459 35.0679 4.25371 34.9629 4.25372 34.8568ZM12.9109 36.7295H5.06141C4.8472 36.7295 4.64176 36.8146 4.49029 36.966C4.33882 37.1175 4.25372 37.323 4.25372 37.5372C4.25372 37.7514 4.33882 37.9568 4.49029 38.1083C4.64176 38.2598 4.8472 38.3449 5.06141 38.3449H12.9109C13.1251 38.3449 13.3306 38.2598 13.482 38.1083C13.6335 37.9568 13.7186 37.7514 13.7186 37.5372C13.7186 37.323 13.6335 37.1175 13.482 36.966C13.3306 36.8146 13.1251 36.7295 12.9109 36.7295ZM46.0867 30.1847V51.2006C46.085 52.7381 45.4735 54.2121 44.3863 55.2994C43.2991 56.3866 41.8251 56.9982 40.2876 57H20.1281C18.5905 56.9983 17.1164 56.3867 16.0292 55.2995C14.942 54.2123 14.3304 52.7382 14.3287 51.2006V41.6941H3.00173C2.46975 41.6935 1.95973 41.4819 1.58355 41.1057C1.20738 40.7296 0.995767 40.2196 0.995148 39.6876V26.4738C0.995737 25.9418 1.20733 25.4318 1.58351 25.0556C1.95969 24.6794 2.46973 24.4678 3.00173 24.4673H14.3289V5.79942C14.3307 4.26189 14.9422 2.78783 16.0294 1.70061C17.1165 0.61339 18.5906 0.0017974 20.1281 0L40.2874 0C41.825 0.00173848 43.2991 0.613305 44.3863 1.70053C45.4735 2.78775 46.0851 4.26185 46.0868 5.79942V8.79414C48.7838 8.99798 51.3043 10.2132 53.1433 12.1965C54.9823 14.1798 56.0042 16.7846 56.0042 19.4893C56.0042 22.194 54.9823 24.7989 53.1433 26.7821C51.3043 28.7654 48.7838 29.9807 46.0868 30.1845L46.0867 30.1847ZM26.2155 1.61537L26.8334 2.67488H33.5825L34.2003 1.61537H26.2155ZM2.61052 26.4738V28.0547H23.7723V26.4738C23.771 26.3705 23.7293 26.2718 23.6563 26.1987C23.5832 26.1257 23.4845 26.084 23.3812 26.0826H3.00173C2.89839 26.084 2.79967 26.1256 2.7266 26.1987C2.65353 26.2718 2.61187 26.3705 2.61052 26.4738ZM23.7723 29.6701H2.61052V31.2763H23.7723V29.6701ZM3.00173 40.0792H23.3812C23.4845 40.0779 23.5832 40.0362 23.6563 39.9632C23.7293 39.8901 23.771 39.7914 23.7723 39.6881V32.8917H2.61052V39.6876C2.6119 39.7909 2.65357 39.8896 2.72664 39.9626C2.79971 40.0357 2.89841 40.0773 3.00173 40.0787V40.0792ZM15.9443 41.6946V49.6991H25.4674V49.2872C25.4681 48.7419 25.6851 48.2192 26.0706 47.8337C26.4561 47.4481 26.9788 47.2312 27.5241 47.2304H32.8918C33.437 47.2312 33.9597 47.4481 34.3453 47.8337C34.7308 48.2192 34.9477 48.7419 34.9484 49.2872V49.6991H44.4717V30.1843C41.7747 29.9804 39.2542 28.7652 37.4152 26.7819C35.5762 24.7986 34.5543 22.1938 34.5543 19.4891C34.5543 16.7844 35.5762 14.1796 37.4152 12.1963C39.2542 10.213 41.7747 8.99776 44.4717 8.79392V5.79919C44.4703 4.68994 44.0291 3.62651 43.2447 2.84217C42.4603 2.05783 41.3969 1.61664 40.2876 1.61537H36.0703L34.7442 3.88947C34.673 4.01142 34.5712 4.1126 34.4488 4.18292C34.3264 4.25325 34.1876 4.29025 34.0465 4.29025H26.3694C26.2282 4.29025 26.0895 4.25325 25.9671 4.18292C25.8447 4.1126 25.7428 4.01142 25.6717 3.88947L24.3456 1.61537H20.1281C19.0188 1.61661 17.9553 2.05782 17.1709 2.84222C16.3865 3.62661 15.9453 4.69012 15.9441 5.79942V24.4674H23.3808C23.9128 24.4678 24.423 24.6794 24.7992 25.0555C25.1755 25.4317 25.3872 25.9418 25.3878 26.4738V39.6876C25.3872 40.2196 25.1756 40.7296 24.7994 41.1057C24.4232 41.4819 23.9132 41.6935 23.3812 41.6941L15.9443 41.6946ZM32.8918 48.8463H27.5241C27.4075 48.8479 27.2961 48.8949 27.2137 48.9773C27.1313 49.0598 27.0843 49.1712 27.0828 49.2877V51.7267C27.0843 51.8433 27.1313 51.9547 27.2137 52.0371C27.2962 52.1195 27.4075 52.1665 27.5241 52.168H32.8918C33.0083 52.1665 33.1197 52.1195 33.2021 52.0371C33.2846 51.9547 33.3315 51.8433 33.3331 51.7267V49.2872C33.3315 49.1706 33.2846 49.0592 33.2021 48.9768C33.1197 48.8943 33.0083 48.8473 32.8918 48.8458V48.8463ZM44.4688 51.3149H34.9484V51.7268C34.9476 52.272 34.7306 52.7945 34.3451 53.1799C33.9595 53.5653 33.4369 53.782 32.8918 53.7826H27.5241C26.9789 53.7819 26.4562 53.5649 26.0706 53.1794C25.6851 52.7938 25.4682 52.2712 25.4674 51.7259V51.314H15.9471C15.9777 52.4031 16.4314 53.4373 17.212 54.1973C17.9926 54.9573 19.0386 55.3832 20.1281 55.3846H40.2874C41.3769 55.3833 42.423 54.9575 43.2036 54.1976C43.9843 53.4376 44.4381 52.4034 44.4688 51.3144V51.3149ZM54.3895 19.4891C54.3895 17.6873 53.8552 15.9259 52.8542 14.4277C51.8531 12.9295 50.4303 11.7618 48.7656 11.0723C47.1009 10.3827 45.2692 10.2023 43.502 10.5538C41.7347 10.9053 40.1115 11.773 38.8374 13.0471C37.5633 14.3212 36.6956 15.9445 36.3441 17.7117C35.9926 19.4789 36.173 21.3107 36.8625 22.9754C37.5521 24.64 38.7198 26.0629 40.218 27.0639C41.7161 28.0649 43.4775 28.5992 45.2794 28.5992C47.6947 28.5965 50.0103 27.6358 51.7181 25.9279C53.426 24.22 54.3867 21.9044 54.3895 19.4891ZM45.2794 15.9934C45.5911 15.9938 45.8899 16.1178 46.1103 16.3382C46.3307 16.5586 46.4546 16.8574 46.455 17.1691C46.455 17.3833 46.5401 17.5888 46.6916 17.7403C46.843 17.8917 47.0485 17.9768 47.2627 17.9768C47.4769 17.9768 47.6823 17.8917 47.8338 17.7403C47.9853 17.5888 48.0704 17.3833 48.0704 17.1691C48.0697 16.5701 47.8765 15.987 47.5195 15.506C47.1624 15.025 46.6603 14.6714 46.087 14.4973V13.6272C46.087 13.413 46.002 13.2076 45.8505 13.0561C45.699 12.9046 45.4936 12.8195 45.2794 12.8195C45.0652 12.8195 44.8597 12.9046 44.7082 13.0561C44.5568 13.2076 44.4717 13.413 44.4717 13.6272V14.4973C43.8984 14.6713 43.3963 15.0249 43.0392 15.506C42.6821 15.987 42.489 16.57 42.4883 17.1691V17.5059C42.4883 19.6481 44.117 20.0403 45.0902 20.2745C46.1964 20.5409 46.455 20.6833 46.455 21.4727V21.8092C46.4565 21.9645 46.4272 22.1187 46.3688 22.2626C46.3104 22.4066 46.224 22.5375 46.1147 22.6479C46.0054 22.7583 45.8753 22.846 45.7319 22.9058C45.5885 22.9656 45.4347 22.9964 45.2793 22.9964C45.1239 22.9964 44.9701 22.9656 44.8267 22.9058C44.6833 22.846 44.5532 22.7583 44.4439 22.6479C44.3346 22.5375 44.2482 22.4066 44.1898 22.2626C44.1314 22.1187 44.1021 21.9645 44.1036 21.8092C44.1036 21.595 44.0185 21.3895 43.8671 21.2381C43.7156 21.0866 43.5102 21.0015 43.2959 21.0015C43.0817 21.0015 42.8763 21.0866 42.7248 21.2381C42.5733 21.3895 42.4883 21.595 42.4883 21.8092C42.489 22.4083 42.6821 22.9913 43.0392 23.4723C43.3963 23.9533 43.8984 24.307 44.4717 24.4811V25.3511C44.4717 25.5653 44.5568 25.7707 44.7082 25.9222C44.8597 26.0737 45.0652 26.1588 45.2794 26.1588C45.4936 26.1588 45.699 26.0737 45.8505 25.9222C46.002 25.7707 46.087 25.5653 46.087 25.3511V24.4811C46.6603 24.307 47.1624 23.9533 47.5195 23.4723C47.8765 22.9913 48.0697 22.4083 48.0704 21.8092V21.4724C48.0704 19.3302 46.4416 18.938 45.4684 18.7038C44.3622 18.4374 44.1036 18.295 44.1036 17.5056V17.1688C44.104 16.8571 44.228 16.5583 44.4484 16.3379C44.6688 16.1175 44.9677 15.9935 45.2794 15.9932V15.9934Z" fill="white"/>
</g>
<defs>
<clipPath id="clip0_288_8825">
<rect width="57" height="57" fill="white"/>
</clipPath>
</defs>
</svg>
