<svg width="55" height="55" viewBox="0 0 55 55" fill="none" xmlns="http://www.w3.org/2000/svg">
<path d="M12.8717 45.4552C13.1043 46.9562 13.346 48.3221 13.5477 49.4014C13.8342 50.9197 14.9135 52.1388 16.4409 52.3692C17.6395 52.5513 19.3044 52.7083 21.4792 52.7083C23.5474 52.7083 25.2467 52.5662 26.5403 52.3967C28.3553 52.1583 29.6272 50.6481 29.8243 48.8285L30.1921 45.4346" stroke="white" stroke-width="3" stroke-linecap="round" stroke-linejoin="round"/>
<path d="M40.5264 2.9837C40.6251 2.80349 40.7705 2.65314 40.9473 2.54841C41.1241 2.44369 41.3258 2.38843 41.5312 2.38843C41.7367 2.38843 41.9384 2.44369 42.1152 2.54841C42.292 2.65314 42.4374 2.80349 42.5361 2.9837L44.8186 7.15682C45.4495 8.31033 46.398 9.25875 47.5515 9.88964L51.7246 12.1721C51.9048 12.2709 52.0551 12.4162 52.1599 12.593C52.2646 12.7698 52.3199 12.9715 52.3199 13.177C52.3199 13.3825 52.2646 13.5842 52.1599 13.761C52.0551 13.9378 51.9048 14.0832 51.7246 14.1819L47.5515 16.4644C46.398 17.0953 45.4495 18.0437 44.8186 19.1972L42.5361 23.3704C42.4374 23.5506 42.292 23.7009 42.1152 23.8057C41.9384 23.9104 41.7367 23.9656 41.5312 23.9656C41.3258 23.9656 41.1241 23.9104 40.9473 23.8057C40.7705 23.7009 40.6251 23.5506 40.5264 23.3704L38.2439 19.1972C37.613 18.0437 36.6645 17.0953 35.511 16.4644L31.3379 14.1819C31.1577 14.0832 31.0074 13.9378 30.9026 13.761C30.7979 13.5842 30.7426 13.3825 30.7426 13.177C30.7426 12.9715 30.7979 12.7698 30.9026 12.593C31.0074 12.4162 31.1577 12.2709 31.3379 12.1721L35.511 9.88964C36.6645 9.25875 37.613 8.31033 38.2439 7.15682L40.5264 2.9837Z" stroke="white" stroke-width="3"/>
<path d="M28.9271 6.05794C26.5652 5.08262 24.0345 4.58154 21.4792 4.58326C10.7209 4.58326 2 13.3042 2 24.0624C2 30.2877 4.92073 35.8313 9.46625 39.3971C9.80121 40.736 10.1722 42.0657 10.5789 43.3846C10.9306 44.5282 11.8805 45.3589 13.071 45.4838C14.6672 45.6499 17.3588 45.8333 21.4792 45.8333C25.5996 45.8333 28.2911 45.6499 29.8873 45.4838C31.0778 45.3589 32.0277 44.5282 32.3783 43.3835C32.7072 42.3144 33.1231 40.8855 33.4921 39.3971C36.3843 37.1305 38.5782 34.0938 39.8217 30.6361" stroke="white" stroke-width="3" stroke-linecap="round" stroke-linejoin="round"/>
</svg>
