<svg width="216" height="36" viewBox="0 0 216 36" fill="none" xmlns="http://www.w3.org/2000/svg">
<g clip-path="url(#clip0_400_133)">
<path d="M53.18 0.340332H56.1658V21.1384H53.18V0.340332Z" fill="black"/>
<path d="M64.7871 21.1947H61.9693V0L75.1951 16.088V0.368799H78.0137V21.1947H75.2795L64.7871 8.0579V21.1947Z" fill="black"/>
<path d="M83.8164 0.340332H95.7307V3.26289H86.8022V6.12823V8.73843V10.3559H94.4199V13.1934H86.8022V16.1446V21.1384H83.8164V0.340332Z" fill="black"/>
<path d="M115.596 9.76055C115.336 10.6118 114.95 11.378 114.438 12.0592C113.927 12.7403 113.299 13.3171 112.555 13.7903C112.518 13.8282 112.471 13.8568 112.416 13.8753C112.36 13.8947 112.313 13.9225 112.277 13.9604L115.876 21.167H112.723L109.57 14.8967C109.347 14.9346 109.124 14.9632 108.9 14.9817C108.677 15.001 108.435 15.0103 108.175 15.0103H104.52V21.167H101.534V0.3125H108.175C109.012 0.3125 109.797 0.421516 110.533 0.638775C111.267 0.856807 111.942 1.15447 112.556 1.53255C114.063 2.49746 115.076 3.84972 115.597 5.59011C115.615 5.68521 115.634 5.77026 115.653 5.84525C115.671 5.92102 115.699 6.00607 115.736 6.1004V6.24188C115.774 6.33698 115.796 6.44059 115.806 6.55424C115.815 6.6679 115.829 6.78155 115.848 6.89443V6.92304C115.866 7.0367 115.876 7.15035 115.876 7.26323C115.876 7.37689 115.876 7.49982 115.876 7.63203V7.66064V7.71708C115.876 7.83073 115.876 7.94439 115.876 8.05727C115.876 8.17015 115.866 8.28458 115.848 8.39746V8.4539C115.829 8.56756 115.815 8.67657 115.806 8.78018C115.796 8.88455 115.774 8.9928 115.736 9.10645V9.22011C115.661 9.42963 115.615 9.60978 115.596 9.76055ZM108.537 12.3429C109.15 12.3429 109.713 12.2107 110.225 11.9447C110.736 11.6795 111.177 11.3277 111.55 10.8917C111.922 10.4556 112.22 9.95693 112.443 9.39716C112.666 8.83739 112.777 8.25443 112.777 7.64672C112.777 7.05912 112.665 6.48002 112.443 5.91097C112.219 5.34192 111.922 4.84401 111.55 4.41722C111.177 3.99043 110.736 3.64406 110.225 3.37809C109.713 3.1129 109.15 2.97991 108.537 2.97991H104.547V12.3429H108.537Z" fill="black"/>
<path d="M121.679 21.1098L130.022 0.3125L138.365 21.1098H135.324L134.71 19.4645H125.362L124.72 21.1098H121.679ZM126.366 16.7971H133.677L130.022 7.26401L126.366 16.7971Z" fill="black"/>
<path d="M158.482 6.92304C158.5 7.0367 158.514 7.15035 158.523 7.26323C158.533 7.37689 158.537 7.49982 158.537 7.63203V7.66064V7.68924C158.537 7.82146 158.533 7.94439 158.523 8.05804C158.514 8.1717 158.5 8.28535 158.482 8.39823V8.42684L158.398 9.108C158.379 9.12733 158.37 9.16444 158.37 9.22165C158.351 9.31675 158.333 9.4018 158.314 9.4768C158.295 9.55257 158.268 9.63761 158.231 9.73194C157.97 10.6025 157.584 11.3772 157.073 12.0584C156.561 12.7395 155.943 13.3163 155.218 13.7895C154.604 14.1683 153.924 14.466 153.181 14.6833C152.436 14.9013 151.646 15.0095 150.809 15.0095H147.154V21.1662H144.169V0.3125H150.809C152.483 0.3125 153.952 0.719183 155.218 1.53255C155.943 2.00573 156.561 2.58251 157.073 3.26366C157.584 3.94482 157.97 4.71102 158.231 5.56227C158.304 5.77026 158.352 5.9504 158.37 6.10117C158.37 6.15761 158.379 6.19627 158.398 6.21482C158.416 6.32848 158.43 6.44213 158.44 6.55501C158.449 6.66867 158.463 6.77305 158.482 6.86737V6.92304ZM151.171 12.3429C151.785 12.3429 152.347 12.2107 152.859 11.9455C153.371 11.6811 153.817 11.3308 154.199 10.8956C154.58 10.461 154.878 9.96389 155.091 9.40567C155.305 8.84822 155.412 8.26602 155.412 7.66064C155.412 7.05525 155.305 6.47383 155.091 5.91561C154.877 5.35816 154.58 4.86102 154.199 4.42572C153.817 3.99121 153.371 3.64096 152.859 3.37577C152.347 3.11135 151.785 2.97836 151.171 2.97836H147.181V12.3414H151.171V12.3429Z" fill="black"/>
<path d="M167.326 18.1872H175.669V21.1662H164.341V0.340332H167.327V18.1872H167.326Z" fill="black"/>
<path d="M192.327 0.340332H195.256V14.2433C195.256 15.2083 195.074 16.1067 194.712 16.9386C194.349 17.7713 193.851 18.495 193.219 19.1089C192.587 19.7235 191.852 20.2106 191.015 20.5701C190.178 20.9297 189.275 21.109 188.308 21.109C187.359 21.109 186.471 20.9297 185.643 20.5701C184.815 20.2114 184.09 19.7235 183.467 19.1089C182.844 18.4942 182.356 17.7713 182.002 16.9386C181.649 16.1067 181.472 15.2075 181.472 14.2433V0.340332H184.402V14.2433C184.402 14.7923 184.504 15.3072 184.709 15.7897C184.913 16.2721 185.193 16.6974 185.546 17.0662C185.899 17.435 186.318 17.7233 186.801 17.9313C187.285 18.1401 187.796 18.2437 188.336 18.2437C188.894 18.2437 189.415 18.1401 189.898 17.9313C190.382 17.7233 190.805 17.435 191.168 17.0662C191.531 16.6974 191.814 16.2713 192.019 15.7897C192.223 15.3072 192.326 14.7923 192.326 14.2433V0.340332H192.327Z" fill="black"/>
<path d="M212.801 5.65562C212.439 3.66086 210.999 2.66348 208.483 2.66348C207.14 2.66348 206.106 2.96192 205.381 3.55803C204.655 4.15491 204.293 4.87009 204.293 5.70511C204.293 6.54012 204.518 7.17411 204.965 7.60786C205.413 8.0416 206.137 8.42123 207.14 8.74595L211.33 10.2096C212.759 10.709 213.894 11.3917 214.736 12.2584C215.579 13.1259 216 14.346 216 15.9178C216 17.4904 215.339 18.8125 214.017 19.8857C212.695 20.9588 210.925 21.4954 208.708 21.4954C206.49 21.4954 204.672 20.9264 203.254 19.7875C201.836 18.6494 201.105 17.0505 201.063 14.99H203.525C203.525 16.3345 203.989 17.3644 204.917 18.0796C205.844 18.7948 207.038 19.1527 208.499 19.1527C209.96 19.1527 211.116 18.8226 211.97 18.1608C212.822 17.4997 213.249 16.7188 213.249 15.8188C213.249 14.9197 212.988 14.2091 212.465 13.6888C211.942 13.1684 211.17 12.7347 210.146 12.3876L206.596 11.0538C204.932 10.4902 203.674 9.81756 202.821 9.03744C201.968 8.25654 201.542 7.11304 201.542 5.60614C201.542 4.09925 202.139 2.84131 203.333 1.83311C204.527 0.824903 206.201 0.320801 208.355 0.320801C210.508 0.320801 212.156 0.803254 213.297 1.76816C214.438 2.73307 215.093 4.02889 215.264 5.65485H212.801V5.65562Z" fill="black"/>
<path d="M73.1134 34.0103C73.0457 34.6497 72.8229 35.1384 72.4458 35.477C72.0687 35.8157 71.5661 35.9858 70.9388 35.9858C70.5009 35.9858 70.1131 35.8729 69.7763 35.6479C69.4395 35.4229 69.1795 35.1044 68.9955 34.6915C68.8115 34.2786 68.7179 33.807 68.7157 33.2766V32.4887C68.7157 31.9499 68.8077 31.472 68.9917 31.0553C69.1757 30.6386 69.4402 30.3169 69.7847 30.0904C70.1299 29.8639 70.5267 29.751 70.9753 29.751C71.6079 29.751 72.1082 29.9257 72.4747 30.276C72.8412 30.6262 73.0541 31.111 73.1134 31.7303H72.61C72.4853 30.6996 71.9402 30.1839 70.9746 30.1839C70.4393 30.1839 70.012 30.3896 69.6942 30.8009C69.3764 31.2123 69.2175 31.7813 69.2175 32.5065V33.2488C69.2175 33.9492 69.3726 34.5082 69.682 34.9258C69.9915 35.3425 70.4104 35.5512 70.9381 35.5512C71.4604 35.5512 71.8535 35.4229 72.1189 35.1654C72.3842 34.9087 72.5477 34.5229 72.61 34.0088H73.1134V34.0103Z" fill="black"/>
<path d="M87.0014 33.1966C87.0014 33.7548 86.9071 34.2457 86.7194 34.6679C86.5316 35.09 86.2631 35.4155 85.9142 35.6428C85.5652 35.8709 85.1622 35.9846 84.7052 35.9846C84.0156 35.9846 83.4583 35.731 83.0333 35.2238C82.6083 34.7166 82.3961 34.0323 82.3961 33.171V32.5456C82.3961 31.9927 82.4912 31.5033 82.682 31.0765C82.8729 30.6498 83.1428 30.3219 83.4918 30.0931C83.8408 29.8642 84.2422 29.749 84.6969 29.749C85.1516 29.749 85.5523 29.8619 85.8997 30.0869C86.2472 30.3119 86.5156 30.6304 86.7049 31.041C86.8942 31.4523 86.9931 31.9286 87.0014 32.4706V33.1966ZM86.5027 32.5386C86.5027 31.808 86.3415 31.2358 86.0198 30.8214C85.6982 30.4078 85.2572 30.2006 84.6969 30.2006C84.1479 30.2006 83.71 30.4085 83.3846 30.8237C83.0584 31.2389 82.8957 31.8188 82.8957 32.5633V33.1966C82.8957 33.9164 83.0576 34.4862 83.3823 34.9076C83.707 35.3289 84.1479 35.5392 84.7052 35.5392C85.2709 35.5392 85.7112 35.3313 86.0282 34.9161C86.3445 34.5009 86.5027 33.9218 86.5027 33.1803V32.5386Z" fill="black"/>
<path d="M100.966 35.9018H100.467L97.0719 30.7092V35.9018H96.5686V29.834H97.0719L100.472 35.0312V29.834H100.967V35.9018H100.966Z" fill="black"/>
<path d="M114.121 34.4098C114.121 34.0734 114.006 33.8075 113.775 33.6119C113.545 33.4163 113.125 33.2299 112.513 33.0536C111.902 32.8774 111.456 32.6848 111.174 32.4761C110.774 32.1815 110.574 31.7957 110.574 31.3179C110.574 30.854 110.76 30.4767 111.132 30.1868C111.504 29.8968 111.979 29.7515 112.558 29.7515C112.95 29.7515 113.301 29.8296 113.611 29.985C113.921 30.1404 114.161 30.3576 114.331 30.6352C114.502 30.9128 114.587 31.2228 114.587 31.5645H114.083C114.083 31.1493 113.946 30.8153 113.67 30.5633C113.394 30.3112 113.023 30.1852 112.558 30.1852C112.107 30.1852 111.747 30.2888 111.479 30.496C111.212 30.7032 111.078 30.9738 111.078 31.3078C111.078 31.6171 111.198 31.8684 111.439 32.0632C111.68 32.2581 112.065 32.4297 112.595 32.5789C113.125 32.7281 113.527 32.882 113.801 33.042C114.073 33.2021 114.28 33.3931 114.417 33.615C114.555 33.8369 114.624 34.0997 114.624 34.4028C114.624 34.8806 114.438 35.2641 114.066 35.5533C113.694 35.8424 113.204 35.987 112.595 35.987C112.179 35.987 111.797 35.9105 111.449 35.7582C111.101 35.6059 110.838 35.3917 110.657 35.1164C110.477 34.8412 110.387 34.5257 110.387 34.1701H110.886C110.886 34.5977 111.041 34.9355 111.353 35.1829C111.664 35.4303 112.078 35.5541 112.595 35.5541C113.055 35.5541 113.423 35.4497 113.702 35.2417C113.981 35.0306 114.121 34.7546 114.121 34.4098Z" fill="black"/>
<path d="M128.078 29.834V33.9766C128.075 34.3848 127.987 34.7405 127.814 35.0436C127.641 35.3466 127.397 35.5794 127.082 35.7417C126.767 35.9041 126.405 35.9853 125.997 35.9853C125.375 35.9853 124.876 35.8113 124.502 35.4626C124.127 35.1139 123.933 34.6315 123.92 34.0145V29.8348H124.415V33.9395C124.415 34.4505 124.557 34.8472 124.84 35.1294C125.125 35.4116 125.51 35.5523 125.997 35.5523C126.483 35.5523 126.868 35.4108 127.151 35.1271C127.434 34.8433 127.575 34.449 127.575 33.9433V29.834H128.078Z" fill="black"/>
<path d="M138.282 35.468H141.199V35.9018H137.779V29.834H138.282V35.468Z" fill="black"/>
<path d="M153.359 30.2672H151.334V35.9021H150.835V30.2672H148.814V29.8335H153.359V30.2672Z" fill="black"/>
<path d="M163.23 35.9018H162.731V29.834H163.23V35.9018Z" fill="black"/>
<path d="M177.541 35.9018H177.042L173.645 30.7092V35.9018H173.142V29.834H173.645L177.046 35.0312V29.834H177.541V35.9018Z" fill="black"/>
<path d="M191.615 35.1807C191.442 35.4335 191.171 35.6307 190.801 35.7722C190.432 35.9137 190.019 35.9848 189.562 35.9848C189.1 35.9848 188.688 35.8711 188.329 35.643C187.969 35.415 187.69 35.0926 187.493 34.6758C187.296 34.2591 187.196 33.7813 187.193 33.2424V32.4754C187.193 31.6334 187.4 30.9685 187.814 30.4814C188.228 29.9943 188.784 29.75 189.481 29.75C190.09 29.75 190.579 29.9093 190.95 30.227C191.321 30.5456 191.541 30.9832 191.612 31.5422H191.113C191.04 31.0961 190.864 30.7582 190.584 30.5286C190.304 30.2989 189.938 30.1837 189.487 30.1837C188.935 30.1837 188.498 30.3855 188.176 30.7884C187.854 31.1912 187.693 31.7602 187.693 32.494V33.2114C187.693 33.673 187.769 34.0813 187.922 34.4354C188.075 34.7902 188.294 35.0647 188.579 35.2588C188.864 35.4536 189.193 35.551 189.563 35.551C189.993 35.551 190.362 35.4815 190.671 35.3423C190.871 35.2503 191.02 35.1436 191.117 35.0214V33.4542H189.53V33.0205H191.616V35.1807H191.615Z" fill="black"/>
<path d="M28.3555 5.78076C28.3555 5.78076 32.2118 6.47274 32.2118 10.6246C32.2118 14.7765 28.3555 14.7765 28.3555 14.7765H19.9623V5.78076C19.9623 5.78076 19.9623 0.244141 13.8371 0.244141V14.7765H4.53684C4.53684 14.7765 0 14.7765 0 21.0051H13.8379V30.6944C13.8379 30.6944 13.6113 35.9998 19.963 35.9998V21.0059H30.3977C30.3977 21.0059 38.337 20.0835 38.337 11.087C38.337 2.09045 30.8508 0.244914 30.3977 0.244914C29.9438 0.244914 23.3655 0.244914 23.3655 0.244914C23.3655 0.244914 23.3655 5.78076 28.3555 5.78076Z" fill="url(#paint0_linear_400_133)"/>
</g>
<defs>
<linearGradient id="paint0_linear_400_133" x1="0" y1="18.1224" x2="38.3371" y2="18.1224" gradientUnits="userSpaceOnUse">
<stop stop-color="#1B2C82"/>
<stop offset="1" stop-color="#26CFCE"/>
</linearGradient>
<clipPath id="clip0_400_133">
<rect width="216" height="36" fill="white"/>
</clipPath>
</defs>
</svg>
