<svg width="223" height="59" viewBox="0 0 223 59" fill="none" xmlns="http://www.w3.org/2000/svg">
<g clip-path="url(#clip0_200_514)">
<path d="M123.05 26.8183H112.493V22.2856H138.753V26.7994H128.196V41.8705H123.069V26.8183H123.05Z" fill="white"/>
<path d="M150.615 36.7523V32.2385H158.013C158.391 32.2385 158.788 32.2008 159.167 32.1441C159.545 32.0875 159.905 31.9552 160.226 31.7853C160.548 31.5964 160.794 31.332 161.002 30.9732C161.21 30.6143 161.305 30.1233 161.305 29.5189V26.8182H149.915C149.518 26.8182 149.14 26.856 148.761 26.9127C148.364 26.9693 148.023 27.1015 147.702 27.2715C147.38 27.4604 147.134 27.7248 146.926 28.0836C146.718 28.4424 146.623 28.9335 146.623 29.5378V41.8893H141.421V29.5378C141.421 28.4047 141.61 27.4037 141.969 26.5161C142.329 25.6284 142.859 24.873 143.559 24.2497C144.259 23.6265 145.091 23.1544 146.075 22.8144C147.059 22.4745 148.156 22.3234 149.386 22.3234H166.526V29.5567C166.526 31.332 166.091 32.8051 165.202 33.9761C164.332 35.147 163.083 35.9591 161.494 36.3935L167.132 41.9082H160.188L155.08 36.7901H150.615V36.7523Z" fill="white"/>
<path d="M186.77 41.8704H169.232V29.5189C169.232 28.3857 169.421 27.3848 169.799 26.4971C170.178 25.6095 170.726 24.8541 171.426 24.2308C172.145 23.6076 172.997 23.1354 173.999 22.7955C175.002 22.4555 176.137 22.3044 177.386 22.3044H194.924V34.6559C194.924 35.7891 194.735 36.79 194.356 37.6777C193.978 38.5653 193.429 39.3397 192.729 39.944C192.01 40.5672 191.159 41.0394 190.156 41.3793C189.154 41.7193 188.037 41.8704 186.77 41.8704ZM186.221 37.3566C186.619 37.3566 187.016 37.3188 187.413 37.2622C187.81 37.2055 188.17 37.0733 188.492 36.9034C188.813 36.7145 189.078 36.4501 189.286 36.0913C189.494 35.7324 189.608 35.2414 189.608 34.637V26.8182H177.954C177.556 26.8182 177.159 26.856 176.762 26.9126C176.364 26.9693 176.005 27.1015 175.683 27.2715C175.362 27.4603 175.097 27.7247 174.889 28.0836C174.681 28.4424 174.567 28.9334 174.567 29.5378V37.3755H186.221V37.3566Z" fill="white"/>
<path d="M217.873 37.0545V22.2856H223V41.8705H217.267C216.208 41.8705 215.243 41.625 214.392 41.1339C213.54 40.6429 212.784 39.9252 212.121 38.9809L204.213 27.9137C203.986 27.5737 203.759 27.3471 203.494 27.2527C203.248 27.1582 203.002 27.1016 202.794 27.1016V41.8705H197.667V22.2856H203.4C204.459 22.2856 205.424 22.5312 206.275 23.0222C207.127 23.5132 207.884 24.2309 208.546 25.1752L216.454 36.2424C216.7 36.5824 216.946 36.809 217.173 36.9034C217.419 36.9979 217.646 37.0545 217.873 37.0545Z" fill="white"/>
<path d="M25.1814 26.8182H8.4001C8.02172 26.8182 7.64334 26.856 7.24603 26.9126C6.86765 26.9693 6.50819 27.1015 6.20548 27.2715C5.88386 27.4603 5.63791 27.7247 5.4298 28.0836C5.22168 28.4424 5.12709 28.9334 5.12709 29.5378V31.2753H23.0814V35.1847H5.12709V41.8704H0V29.5189C0 28.3857 0.189191 27.3848 0.548655 26.4971C0.908119 25.6095 1.43786 24.8541 2.11894 24.2308C2.80003 23.6076 3.63248 23.1354 4.59735 22.7955C5.56223 22.4555 6.64062 22.3044 7.85145 22.3044H25.1814V26.8182Z" fill="#F1EDFF"/>
<path d="M35.7194 41.8705C34.5085 41.8705 33.4302 41.7005 32.4653 41.3794C31.5004 41.0395 30.668 40.5673 29.9869 39.9441C29.3058 39.3209 28.776 38.5654 28.4166 37.6778C28.0571 36.7901 27.8679 35.7703 27.8679 34.656V22.2856H32.995V34.6371C32.995 35.2415 33.0896 35.7136 33.2977 36.0913C33.5058 36.4502 33.7518 36.7335 34.0734 36.9034C34.3761 37.0923 34.7356 37.2056 35.114 37.2623C35.4923 37.3189 35.8707 37.3567 36.268 37.3567H52.6331V41.8705H35.7194Z" fill="#F1EDFF"/>
<path d="M80.7469 26.8182H63.6818C63.3035 26.8182 62.9251 26.856 62.5278 26.9127C62.1494 26.9693 61.7899 27.1015 61.4872 27.2715C61.1656 27.4604 60.9196 27.7248 60.7115 28.0836C60.5034 28.4424 60.4088 28.9335 60.4088 29.5378V30.1422H80.3307V34.0516H60.4278V37.3755H80.9361V41.8893H55.3007V29.5378C55.3007 28.4047 55.4899 27.4037 55.8493 26.5161C56.2088 25.6284 56.7385 24.873 57.4196 24.2497C58.1007 23.6265 58.9331 23.1544 59.898 22.8144C60.8629 22.4745 61.9602 22.3234 63.1521 22.3234H80.7658V26.8182H80.7469Z" fill="#F1EDFF"/>
<path d="M127.326 47.2906L128.404 47.1395C128.139 45.402 127.326 44.571 125.926 44.571C125.018 44.571 124.299 44.9299 123.826 45.6098C123.334 46.3086 123.088 47.3284 123.088 48.6504C123.088 49.878 123.315 50.8601 123.788 51.5967C124.242 52.3143 124.942 52.6732 125.888 52.6732C127.326 52.6732 128.139 51.8422 128.404 50.1613L127.326 50.0102C127.231 50.539 127.099 50.9734 126.891 51.2567C126.683 51.5778 126.342 51.7477 125.907 51.7477C124.847 51.7477 124.299 50.7279 124.299 48.726C124.299 46.573 124.847 45.4965 125.907 45.4965C126.702 45.4776 127.174 46.0819 127.326 47.2906Z" fill="white"/>
<path d="M131.753 44.5334H130.58V52.6733H131.753V44.5334Z" fill="white"/>
<path d="M138.072 48.915C138.885 48.4995 139.283 47.8196 139.283 46.8187C139.283 46.0821 139.075 45.5155 138.658 45.1189C138.242 44.7223 137.599 44.5334 136.729 44.5334H134.326V52.6544H135.556V49.1983H136.956L138.242 52.6544H139.567L138.015 48.9528L138.072 48.915ZM136.672 48.2729H135.556V45.44H136.691C137.637 45.44 138.11 45.8932 138.11 46.7998C138.11 47.2342 137.996 47.593 137.769 47.8574C137.523 48.1407 137.164 48.2729 136.672 48.2729Z" fill="white"/>
<path d="M145.545 47.2906L146.623 47.1395C146.359 45.402 145.545 44.571 144.145 44.571C143.237 44.571 142.518 44.9299 142.045 45.6098C141.553 46.3086 141.307 47.3284 141.307 48.6504C141.307 49.878 141.534 50.8601 142.007 51.5967C142.461 52.3143 143.161 52.6732 144.107 52.6732C145.545 52.6732 146.359 51.8422 146.623 50.1613L145.545 50.0102C145.45 50.539 145.318 50.9734 145.11 51.2567C144.902 51.5778 144.561 51.7477 144.126 51.7477C143.067 51.7477 142.518 50.7279 142.518 48.726C142.518 46.573 143.067 45.4965 144.126 45.4965C144.921 45.4776 145.394 46.0819 145.545 47.2906Z" fill="white"/>
<path d="M152.129 51.5212C151.921 51.6534 151.656 51.7289 151.296 51.7289C150.918 51.7289 150.634 51.6534 150.407 51.4834C150.18 51.3134 150.048 51.0868 149.972 50.8035C149.915 50.5391 149.878 50.1236 149.878 49.557V44.5522H148.742V49.557C148.742 50.5391 148.837 51.219 149.026 51.5967C149.215 51.9745 149.499 52.2389 149.878 52.4088C150.256 52.5788 150.71 52.6544 151.221 52.6544C151.883 52.6544 152.413 52.5222 152.791 52.2578C153.169 51.9933 153.434 51.6534 153.529 51.2568C153.642 50.8413 153.699 50.2369 153.699 49.4815V44.5711H152.678V49.557C152.678 50.2558 152.64 50.7091 152.564 50.9546C152.469 51.2001 152.337 51.389 152.129 51.5212Z" fill="white"/>
<path d="M157.445 44.5522H156.272V52.6544H157.445V44.5522Z" fill="white"/>
<path d="M160.888 52.6544H162.061V45.5532H163.821V44.5522H159.129V45.5532H160.888V52.6544Z" fill="white"/>
<path d="M170.159 44.5522L167.907 52.6544H169.005L169.497 50.5769H171.937L172.448 52.6544H173.621L171.521 44.5522H170.159ZM169.724 49.6704L170.726 45.4777L171.729 49.6704H169.724Z" fill="white"/>
<path d="M179.41 48.5371C179.126 48.3483 178.71 48.1594 178.181 47.9517C177.537 47.7061 177.121 47.4984 176.894 47.3095C176.667 47.1207 176.553 46.8752 176.553 46.5541C176.553 46.2708 176.648 46.0253 176.856 45.7987C177.064 45.572 177.348 45.4587 177.708 45.4587C178.105 45.4587 178.408 45.572 178.635 45.7798C178.843 45.9686 179.013 46.2708 179.145 46.6674L180.129 46.3275C179.77 45.1188 178.994 44.5144 177.745 44.5144C177.045 44.5144 176.459 44.7222 176.043 45.1376C175.626 45.5531 175.399 46.0631 175.399 46.6863C175.399 47.0829 175.494 47.4417 175.683 47.7628C175.872 48.0839 176.099 48.3105 176.383 48.4805C176.667 48.6504 177.121 48.8393 177.745 49.0848C178.37 49.3303 178.748 49.5381 178.899 49.7647C179.07 49.9725 179.145 50.218 179.145 50.4635C179.145 50.8035 179.032 51.1056 178.786 51.3323C178.559 51.5589 178.218 51.6911 177.764 51.6911C176.894 51.6911 176.326 51.2001 176.099 50.218L175.059 50.5013C175.418 51.9177 176.27 52.5976 177.689 52.5976C178.521 52.5976 179.164 52.371 179.618 51.9177C180.072 51.4645 180.299 50.8979 180.299 50.2558C180.299 49.8592 180.205 49.5003 180.035 49.1981C179.921 48.9715 179.694 48.726 179.41 48.5371Z" fill="white"/>
<path d="M186.486 48.5371C186.202 48.3483 185.786 48.1594 185.256 47.9517C184.613 47.7061 184.197 47.4984 183.97 47.3095C183.743 47.1207 183.629 46.8752 183.629 46.5541C183.629 46.2708 183.724 46.0253 183.932 45.7987C184.14 45.572 184.424 45.4587 184.783 45.4587C185.181 45.4587 185.483 45.572 185.71 45.7798C185.918 45.9686 186.089 46.2708 186.221 46.6674L187.205 46.3275C186.846 45.1188 186.07 44.5144 184.821 44.5144C184.121 44.5144 183.535 44.7222 183.118 45.1376C182.702 45.5531 182.475 46.0631 182.475 46.6863C182.475 47.0829 182.57 47.4417 182.759 47.7628C182.948 48.0839 183.175 48.3105 183.459 48.4805C183.743 48.6504 184.197 48.8393 184.821 49.0848C185.446 49.3303 185.824 49.5381 185.975 49.7647C186.127 49.9725 186.221 50.218 186.221 50.4635C186.221 50.8035 186.108 51.1056 185.862 51.3323C185.635 51.5589 185.294 51.6911 184.84 51.6911C183.97 51.6911 183.402 51.2001 183.175 50.218L182.135 50.5013C182.494 51.9177 183.345 52.5976 184.764 52.5976C185.597 52.5976 186.24 52.371 186.694 51.9177C187.148 51.4645 187.375 50.8979 187.375 50.2558C187.375 49.8592 187.281 49.5003 187.11 49.1981C186.997 48.9715 186.751 48.726 186.486 48.5371Z" fill="white"/>
<path d="M190.875 48.9528H193.41V47.9896H190.875V45.4966H194.11V44.5334H189.702V52.6356H194.148V51.6724H190.875V48.9528Z" fill="white"/>
<path d="M197.932 44.5334H196.116V52.6356H197.062V45.0811L199.067 52.6356H199.9L201.924 45.1V52.6356H203.021V44.5334H201.281L199.578 50.7092L197.932 44.5334Z" fill="white"/>
<path d="M209.284 48.4429L209.075 48.3673L209.284 48.2918C210.04 48.0085 210.419 47.4419 210.419 46.5543C210.419 46.0632 210.305 45.6666 210.097 45.3267C209.889 44.9867 209.643 44.779 209.34 44.6845C209.038 44.5901 208.584 44.5334 207.978 44.5334H205.651V52.6167H208.016C209.057 52.6167 209.757 52.39 210.116 51.9557C210.476 51.5213 210.665 50.9925 210.665 50.407C210.665 49.406 210.211 48.745 209.284 48.4429ZM206.805 45.4589H207.846C208.3 45.4589 208.659 45.5533 208.886 45.7422C209.113 45.931 209.227 46.2521 209.227 46.6865C209.227 47.0642 209.132 47.3664 208.924 47.593C208.716 47.8385 208.319 47.9518 207.713 47.9518H206.805V45.4589ZM207.94 51.6913H206.805V48.8772H207.827C208.489 48.8772 208.924 49.0283 209.151 49.3116C209.359 49.5949 209.473 49.916 209.473 50.2937C209.454 51.2191 208.943 51.6913 207.94 51.6913Z" fill="white"/>
<path d="M214.297 44.5522H213.124V52.6355H217.097V51.6345H214.297V44.5522Z" fill="white"/>
<path d="M221.846 44.5522L220.313 48.0839L218.8 44.5522H217.513L219.595 49.236V52.6355H220.768V49.1982L222.924 44.5522H221.846Z" fill="white"/>
<path d="M160.737 17.1297C160.737 17.1297 152.223 -3.6072 121.953 0.54773C121.953 0.54773 105.134 2.83294 97.3391 17.1674H99.1553C99.1553 17.1674 107.007 4.62712 121.083 3.07846C122.18 2.96514 123.296 2.94626 124.393 3.04069C128.972 3.43729 141.383 5.74139 147.456 17.1297H160.737Z" fill="white"/>
<path d="M94.3309 17.1486H102.05L98.3039 21.4357L94.3309 17.1486Z" fill="white"/>
<path d="M98.3039 33.6928L105.626 41.8704H113.193L102.353 29.5001L113.061 17.1675H105.493L98.3039 25.3263L90.9254 17.1108H83.1307L93.9525 29.5001L83.528 41.8704H91.0957L98.3039 33.6928Z" fill="#F1EDFF"/>
<path d="M97.4336 41.8516C96.9985 42.5315 89.2038 54.3919 75.5252 55.9217C74.4279 56.035 73.3117 56.0539 72.2144 55.9594C68.4306 55.6384 59.2548 53.9953 52.7655 46.9697H39.087C43.7978 52.8055 54.3169 61.2475 74.6361 58.4524C74.6361 58.4524 91.4363 56.1672 99.2499 41.8516H97.4336Z" fill="#F1EDFF"/>
<path d="M99.2688 41.8137C99.2688 41.8325 99.2499 41.8325 99.2499 41.8514H102.277L98.3039 37.5454L94.5579 41.8514H97.4525C97.4715 41.8325 97.4715 41.8137 97.4715 41.8137H99.2688Z" fill="#F1EDFF"/>
<path d="M99.2688 41.8137H97.4525C97.4525 41.8137 97.4525 41.8326 97.4336 41.8515H99.2498C99.2687 41.8326 99.2688 41.8326 99.2688 41.8137Z" fill="white"/>
</g>
<defs>
<clipPath id="clip0_200_514">
<rect width="223" height="59" fill="white"/>
</clipPath>
</defs>
</svg>
