<?xml version="1.0" encoding="utf-8"?>
<!-- Generator: Adobe Illustrator 28.2.0, SVG Export Plug-In . SVG Version: 6.00 Build 0)  -->
<svg version="1.1" id="phonepe" xmlns="http://www.w3.org/2000/svg" xmlns:xlink="http://www.w3.org/1999/xlink" x="0px" y="0px"
	 viewBox="0 0 950.3 258.2" style="enable-background:new 0 0 950.3 258.2;" xml:space="preserve">
<style type="text/css">
	.st0{clip-path:url(#SVGID_00000107566304144315796970000004730706504944295320_);}
	.st1{fill:#5F259F;}
</style>
<g>
	<defs>
		<rect id="SVGID_1_" x="-208.1" y="-256" width="1366" height="768"/>
	</defs>
	<clipPath id="SVGID_00000017498687217266757810000002057309484651537538_">
		<use xlink:href="#SVGID_1_"  style="overflow:visible;"/>
	</clipPath>
	<g style="clip-path:url(#SVGID_00000017498687217266757810000002057309484651537538_);">
		<path style="fill:#5F259F;" d="M124.5,258.2c-3.9-0.4-7.8-0.6-11.6-1.2c-25.3-3.4-47.8-13.1-67.2-29.6c-20.3-17.1-34.8-40.1-41.4-65.8
			c-3.7-13.9-5-28.3-3.8-42.5c2-25,10.3-47.6,25.5-67.5c21.2-27.9,49.3-44.9,84-50c37.8-5.6,72,3.9,101.5,28.1
			c25.4,20.8,40.8,47.9,45.4,80.5c5.5,38.3-4.4,72.8-29.4,102.4c-21.1,25-48.2,39.4-80.5,44.3c-4,0.6-8.2,0.9-12.2,1.3H124.5z
			 M100.7,87.2c-10.4,0-20.9,0-31.3,0c-2.8,0-3.8,0.8-4,3.6c-0.3,2.7-0.2,5.3,0.1,8c0.6,4.6,4.5,8.1,9.2,8.1c2.4,0,4.8,0,7.2,0
			c3,0,3,0,3,3c0,11.2,0,22.3,0,33.5c0,4.5,0.6,8.9,1.7,13.2c3.2,12,10.2,20.6,22.4,24.2c10.1,3,20.3,2.3,30.4-1
			c2.4-0.8,2.4-0.8,2.4,1.7c0,6.9,0,13.8,0,20.8c-0.1,6.1,4.8,11.1,10.9,11.2c0.1,0,0.2,0,0.3,0c3.3,0,6.6,0.1,9.9,0
			c2.3,0.1,4.2-1.8,4.3-4.1c0-0.1,0-0.1,0-0.2c0-0.8,0-1.6,0-2.5c0-32.3,0-64.6,0-96.8c0-3.7,0-3.7,3.6-3.7c4.2,0,8.4,0,12.5,0
			c3.1,0,4-1,4-4.1c0-2,0-4.1,0-6.2c-0.1-5.6-3.8-9.3-9.5-9.4c-4.9,0-9.9,0-14.8,0c-1.3,0.1-2.6-0.5-3.4-1.5
			c-1.9-2.2-3.8-4.4-5.7-6.5c-10.8-12.4-21.5-24.8-32.3-37.2c-2.6-3.2-6.5-5.1-10.6-5c-6.7,0.1-12.6,3-18.7,5.1
			c-1.9,0.6-2.1,3-0.8,4.5c0.5,0.5,0.9,1,1.5,1.5c13.3,12.6,26.6,25.2,39.9,37.8c0.5,0.5,1.4,0.9,1.1,1.6c-0.3,0.9-1.3,0.5-2,0.5
			C121.6,87.1,111.1,87.1,100.7,87.2 M950.3,171c-1.4,2.3-3.4,3.1-6.1,3c-13.7-0.1-27.3,0-40.9-0.1c-2,0-2.9,0.5-2.8,2.6
			c0.1,1.6-0.3,3.1-0.4,4.7c-0.1,7.5,4.8,12.6,12.3,13.2s14.8-1.5,21.7-4.7c4.9-2.3,5.9-2,8.9,2.6c2.1,3.3,4,6.6,2.5,10.7
			c-0.8,2.4-2.5,4.5-4.8,5.7c-10.4,5.5-21.6,7.1-33.3,6.1c-5.5-0.4-10.8-1.9-15.8-4.3c-11.6-6-17.4-15.8-17.9-28.5
			c-0.5-10.6-0.2-21.2-0.1-31.9c0.3-18.1,12.6-31.3,31-33.5c6.5-0.9,13.2-0.7,19.6,0.7c14.7,3.4,23.4,12.9,25.6,27.8
			c0.1,0.5,0.2,1.1,0.3,1.6L950.3,171z M913.4,158.6c3.8,0,7.7,0,11.5,0c1.4,0,2-0.5,2-1.9c0-2.2,0-4.4,0-6.6
			c-0.2-7-4.2-11.7-11.2-12.6c-8.8-1.1-15.3,3.4-15.5,12.8c0,2,0.1,4,0,6s0.7,2.4,2.4,2.3c3.6-0.1,7.3,0,10.9,0 M342.8,194.1
			c0,4.8,0,9.6,0,14.4c0,3.3-1.7,5.2-5,5.3c-5.1,0.1-10.3,0.1-15.4,0c-3-0.1-4.6-1.7-5-4.7c-0.1-0.8-0.1-1.6-0.1-2.5
			c0-36.4,0-72.9,0-109.3c0-1,0.1-1.9,0.2-2.9c0.2-2.7,2.1-5,4.7-5.7c11.3-3.8,22.8-6,34.7-5.7c9.3,0.3,18.2,2.5,26,7.9
			c9,6.2,14.4,14.8,15.7,25.5c1.5,10.7,1.4,21.5-0.2,32.1c-2.8,16.4-16.1,29-32.6,30.8c-7.2,0.9-14.2,0.9-21.1-1.6
			c-1.5-0.6-1.8,0.1-1.8,1.4C342.8,184.1,342.8,189.1,342.8,194.1 M343.6,130.7c0,7.1,0.1,14.2,0,21.4c-0.2,1.5,0.8,2.9,2.2,3.4
			c3.8,1.7,7.7,1.8,11.7,1.5c9.3-0.5,16-7.4,16-16.7c0-6.9,0.5-13.9-0.8-20.8c-1-5.6-3.4-9.9-8.7-12.4c-6.2-2.9-12.5-2.5-18.8-0.6
			c-1.4,0.4-1.6,1.4-1.6,2.7C343.7,116.4,343.7,123.6,343.6,130.7 M782.7,151.7V97.2c0-5.7,1.3-7.4,6.7-9.1
			c10.5-3.3,21.3-5.4,32.4-5.1c10.7,0.2,20.6,2.9,29.1,9.8c7.4,5.9,12.2,14.5,13.2,23.9c1.4,10.2,1.4,20.5,0,30.7
			c-2.5,16.6-13.7,27.9-30.3,31.4c-7.7,1.8-15.7,1.4-23.2-1c-1.8-0.6-2.2-0.1-2.2,1.6c0.1,9.4,0,18.8,0,28.2c0,4.4-1.7,6.1-6,6.2
			s-8.8,0-13.2,0s-6.3-1.9-6.4-6.4L782.7,151.7L782.7,151.7z M809.2,130.7c0,7.2,0,14.4,0,21.6c-0.1,1.4,0.7,2.7,2,3.1
			c3.8,1.8,7.7,1.8,11.7,1.6c9.5-0.5,16.1-7.3,16.2-16.8c0-4.6,0-9.2,0-13.8c-0.1-3.6-0.7-7.2-1.8-10.6c-1-3.7-3.6-6.8-7.1-8.4
			c-6.1-3.1-12.4-2.9-18.8-1.2c-1.4,0.2-2.5,1.5-2.3,3c0,0,0,0,0,0C809.2,116.4,809.1,123.5,809.2,130.7 M412.5,148
			c0-19.9,0-39.7,0-59.6c0-4.5,1.6-6.2,6.2-6.2c3.3,0,6.6-0.3,9.9,0.3c4.9,0.7,8.7,4.7,9.3,9.6c0.7,6.6,0.1,13.3,0.3,19.9
			c0,1.8,0.1,3.6,0,5.3c-0.1,1.5,0.3,2.1,2,1.7c4.5-1.2,9.1-1.9,13.8-2.1c17.5-1.3,31.5,8.9,35.3,26c0.9,3.9,1.4,8,1.4,12
			c0,17.6,0,35.2,0,52.8c0,4.1-1.7,5.9-5.8,6c-2.6,0-5.2,0-7.8,0c-6.6,0-12-5.3-12-11.8c0-0.1,0-0.2,0-0.2c0-14.9,0-29.9,0-44.8
			c0.1-3-0.2-5.9-1-8.8c-1.5-4.8-4.8-7.5-9.8-8.3c-4.6-0.6-9.2-0.2-13.7,0.9c-1.9,0.4-2.5,1.4-2.5,3.3c0.1,20.6,0.1,41.1,0,61.7
			c0,0.8,0,1.6,0,2.5c-0.3,3.7-2,5.5-5.8,5.5c-4.7,0.1-9.5,0.1-14.2,0c-3.9,0-5.6-1.9-5.6-5.7C412.5,188.1,412.5,168.1,412.5,148
			 M504,164.9c0.2-4.8-0.4-11,0.3-17.1c1.8-14.9,10-24.5,24.3-28.7c11.5-3.6,23.9-3.2,35.1,1.1c13.1,5.1,20,15.1,21.1,29
			c0.8,10.2,0.4,20.5,0.3,30.8s-3.3,19.7-11.5,26.7c-6.2,5.3-13.5,7.7-21.4,8.7c-8.5,1.2-17.1,0.4-25.2-2.3
			c-14.1-4.9-22.8-16.9-23-31.8C503.9,176.3,504,171.3,504,164.9 M530.9,165.2c0,5.5-0.1,10,0,14.4c0.2,7.9,3.8,12.4,11.4,13.3
			c9,1.1,16.8-2,17.1-12.9c0.2-9.1,0.2-18.2,0-27.3c-0.1-7.4-4-12.2-10.6-13.5c-2-0.3-4-0.4-6-0.2c-6.5,0.3-10.8,4.4-11.7,10.8
			C530.5,155.3,531.1,160.8,530.9,165.2 M741.2,174c-7.1,0-14.1,0.1-21.2,0c-1.8,0-2.5,0.7-2.6,2.3c-0.1,2.3-0.7,4.6-0.4,7
			c0.9,6.4,5.5,10.6,12.1,11.1c7.6,0.6,14.7-1.3,21.5-4.5c5.4-2.6,6.4-2.3,9.6,2.8c2.1,3.4,3.9,6.9,2,11c-0.7,1.9-2,3.5-3.7,4.5
			c-16.5,8.4-33.5,10-50.5,1.9c-10.6-5-16.2-14.3-17.1-25.9c-0.9-12.4-0.9-24.8,0-37.1c0.9-13.9,10.1-25,24-28.9
			c9.5-2.8,19.7-2.8,29.2-0.1c13,3.8,20.4,12.8,22.6,26c1.3,8.2,0.8,16.5,0.7,24.8c-0.1,3.5-2,5-5.6,5.1L741.2,174 M730.4,158.7
			c3.9,0,7.8,0,11.7,0c1.3,0,1.9-0.4,1.9-1.8c-0.1-2.1,0.1-4.2,0-6.4c-0.4-7.3-4.4-12-11.4-12.9c-7.2-1-14.1,1.9-15.4,10.9
			c-0.4,2.7-0.1,5.5-0.2,8.2c-0.1,1.4,0.6,1.9,2,1.9C722.7,158.6,726.5,158.7,730.4,158.7 M599.9,168.2c0-12.8,0-25.6,0-38.4
			c0-4.3,1.4-6.1,5.5-7.5c10.3-3.5,21-5.4,31.9-5.5c10.5,0,20.7,1.8,29,9c6.7,5.7,9.8,13.3,11.1,21.8c0.4,2.8,0.5,5.6,0.5,8.4
			c0,17.2,0,34.4,0,51.6c0,4.4-1.6,6.1-6.1,6.1c-3.3,0-6.7,0.3-10.1-0.2c-5.6-0.9-9.2-5-9.2-10.6c-0.1-14.6,0-29.2,0-43.8
			c0.1-3.3-0.2-6.6-0.8-9.8c-1.3-6.4-5.5-10-12.1-10.3c-3.9-0.1-7.8,0.1-11.7,0.7c-2,0.3-2.5,1.2-2.5,3.1c0,21,0,41.9,0,62.9
			c0,0.8,0,1.6,0,2.5c-0.1,2.7-2.3,4.8-5,4.8c-5.3,0.1-10.6,0.1-15.8,0c-3-0.1-4.8-2.1-4.8-5.3C599.8,194.5,599.8,181.4,599.9,168.2
			"/>
		<path style="fill:#5F259F;" d="M141.9,132.4c0,7.6,0,15.2,0,22.8c0.2,1.5-0.8,3-2.3,3.3c-4.9,1.7-10.1,2.3-15.2,1.8
			c-8.8-0.8-13.6-6-14.4-14.9c-0.7-8.1-0.2-16.3-0.3-24.4c-0.1-4,0-7.9,0-11.9c0-1.6,0.5-2.3,2.3-2.3c9.2,0.1,18.4,0.1,27.6,0
			c2,0,2.4,0.8,2.4,2.6C141.8,117,141.9,124.7,141.9,132.4"/>
	</g>
</g>
</svg>
