<?xml version="1.0" encoding="utf-8"?>
<!-- Generator: Adobe Illustrator 28.2.0, SVG Export Plug-In . SVG Version: 6.00 Build 0)  -->
<svg version="1.1" id="Layer_1" xmlns="http://www.w3.org/2000/svg" xmlns:xlink="http://www.w3.org/1999/xlink" x="0px" y="0px"
	 viewBox="0 0 354.7 139.2" style="enable-background:new 0 0 354.7 139.2;" xml:space="preserve">
<style type="text/css">
	.st0{fill:#3C4043;}
	.st1{fill:#4285F4;}
	.st2{fill:#34A853;}
	.st3{fill:#FABB05;}
	.st4{fill:#E94235;}
</style>
<g transform="matrix(.6782 0 0 .6782 1.226 120.628)">
	<g>
		<g>
			<g>
				<g>
					<path style="fill:#3C4043;" d="M242.3-78.2v60.6h-19.2V-167H274c12.9,0,23.9,4.3,32.9,12.9c9.2,8.6,13.8,19.1,13.8,31.5
						c0,12.7-4.6,23.2-13.8,31.7C298-82.4,287-78.2,274-78.2L242.3-78.2L242.3-78.2z M242.3-148.6v52.1h32.1c7.6,0,14-2.6,19-7.7
						c5.1-5.1,7.7-11.3,7.7-18.3c0-6.9-2.6-13-7.7-18.1c-5-5.3-11.3-7.9-19-7.9h-32.1V-148.6z M370.9-123.2
						c14.2,0,25.4,3.8,33.6,11.4c8.2,7.6,12.3,18,12.3,31.2v63h-18.3v-14.2h-0.8c-7.9,11.7-18.5,17.5-31.7,17.5
						c-11.3,0-20.7-3.3-28.3-10c-7.6-6.7-11.4-15-11.4-25c0-10.6,4-19,12-25.2c8-6.3,18.7-9.4,32-9.4c11.4,0,20.8,2.1,28.1,6.3V-82
						c0-6.7-2.6-12.3-7.9-17c-5.3-4.7-11.5-7-18.6-7c-10.7,0-19.2,4.5-25.4,13.6L329.6-103C338.9-116.5,352.7-123.2,370.9-123.2
						L370.9-123.2z M346.1-49c0,5,2.1,9.2,6.4,12.5c4.2,3.3,9.2,5,14.9,5c8.1,0,15.3-3,21.6-9c6.3-6,9.5-13,9.5-21.1
						c-6-4.7-14.3-7.1-25-7.1c-7.8,0-14.3,1.9-19.5,5.6C348.7-59.2,346.1-54.5,346.1-49L346.1-49z M521.2-119.9l-64,147.2h-19.8
						l23.8-51.5L419-119.9h20.9l30.4,73.4h0.4l29.6-73.4H521.2L521.2-119.9z"/>
				</g>
				<path style="fill:#4285F4;" d="M165.9-90.3c0-6.3-0.6-12.2-1.6-18H83.8v33l46.3,0c-1.9,11-7.9,20.3-17.2,26.6v21.4h27.6
					C156.7-42.2,165.9-64.2,165.9-90.3L165.9-90.3z"/>
				<path style="fill:#34A853;" d="M113-48.7c-7.7,5.2-17.6,8.2-29.1,8.2c-22.4,0-41.3-15.1-48.1-35.4H7.3v22.1c14.1,28,43.1,47.2,76.6,47.2
					c23.1,0,42.6-7.6,56.7-20.7L113-48.7L113-48.7z"/>
				<path style="fill:#FABB05;" d="M33.1-92.2c0-5.7,0.9-11.2,2.7-16.4v-22.1H7.3C1.5-119.1-1.8-106-1.8-92.2s3.3,26.9,9.1,38.5l28.5-22.1
					C34-81.1,33.1-86.6,33.1-92.2z"/>
				<path style="fill:#E94235;" d="M83.9-144c12.6,0,23.9,4.4,32.9,12.9l24.4-24.4c-14.8-13.8-34.2-22.3-57.3-22.3
					c-33.5,0-62.5,19.2-76.6,47.2l28.5,22.1C42.6-128.9,61.5-144,83.9-144L83.9-144z"/>
			</g>
		</g>
	</g>
</g>
</svg>
