<?xml version="1.0" encoding="utf-8"?>
<!-- Generator: Adobe Illustrator 28.2.0, SVG Export Plug-In . SVG Version: 6.00 Build 0)  -->
<svg version="1.1"
	 id="Layer_1" text-rendering="geometricPrecision" image-rendering="optimizeQuality" shape-rendering="geometricPrecision"
	 xmlns="http://www.w3.org/2000/svg" xmlns:xlink="http://www.w3.org/1999/xlink" x="0px" y="0px" viewBox="0 0 5894.1 1536.7"
	 style="enable-background:new 0 0 5894.1 1536.7;" xml:space="preserve">
<style type="text/css">
	.st0{fill-rule:evenodd;clip-rule:evenodd;fill:#382A8D;}
	.st1{fill-rule:evenodd;clip-rule:evenodd;fill:#1D8546;}
	.st2{fill-rule:evenodd;clip-rule:evenodd;fill:#EC6B00;}
</style>
<path style="fill-rule:evenodd;clip-rule:evenodd;fill:#382A8D;" d="M4248.8,323.3h324.4v515.4l280.6-515.4h297.7l-600.2,1041.9c0,0-55.7,87.4-124.8,133.6
	c-56.8,38-126.6,36.3-147.9,37.8c-118.6-1-261.6-1.4-261.6-1.4l69-248.4l111.6-0.2c0,0,51.1-5.2,70.8-30.4
	c18.8-24,28.4-48,28.4-83.2C4296.8,1120.3,4248.8,323.3,4248.8,323.3L4248.8,323.3z M878.3,426.3C833.1,530.8,693.1,519,693.1,519
	l-163-0.8l59.5-221.5c0,0,145.8,0.5,217.3,0.5C883.5,297.2,907.4,358.7,878.3,426.3L878.3,426.3z M1248.7,275.3
	C1276.4,55.5,1083,0,873.9,0H324.4L0,1182.3h349.2l109-401.4l195.9,1.6c0,0,80.8-4.7,82.4,71.2c1.7,81-60,229.7-56,328.6h358.7
	l-0.8-31.5c0,0-29.8-7.9-26.5-49.8c1.4-17.4,20.6-72.6,45.8-146.9c15.2-32.8,38.1-110.6,36-173.9c-2.6-79.1-52.2-115.8-123.8-141.4
	C1192.9,586.4,1248.6,275.3,1248.7,275.3L1248.7,275.3z M1327.9,323.3h318.5l-131.2,504.6c0,0-32.7,112.5,72.5,121.2
	c83.2,6.9,145-92.4,165.3-159.6c26.6-88.3,130.2-466.3,130.2-466.3h328.1l-249.7,858.9h-286.5l35.2-122.7
	c0,0-146.2,178.2-363.3,156.8c-193-18.9-209.7-159-176.2-333.6C1187.3,797,1327.9,323.3,1327.9,323.3z M2963.6,429
	C2918.2,555.7,2793,540.8,2793,540.8l-171,0l67.5-251.2c0,0,108.2,0.6,179.7,0.6C2956.7,290.2,2988.4,359.7,2963.6,429L2963.6,429z
	 M3322.6,311.6C3350.4,91.8,3182.9,0,2973.7,0h-549.5l-324.4,1182.2h349.2l98.2-364.5l278.2,1.7
	C2825.5,819.4,3256.3,837.7,3322.6,311.6L3322.6,311.6z M3616.2,1007.3c-54.6,13.8-120.7,21.4-133.8-28.2
	c-36-135.8,282-175.6,282-175.6C3766.5,927.2,3658.1,996.6,3616.2,1007.3L3616.2,1007.3z M4097.3,758.6
	c42-142.9,95-278.2,52.3-353.2c-65.4-114.8-183.5-124.8-356.4-124.8c-191,0-426.8,36.3-503.6,290.2h317.9c0,0,29-95.6,148.3-89.6
	c105.6,5.3,99.9,78,60.9,118.2c-68.3,70.4-256.8,31.4-465.6,103.8c-182.5,63.3-246.3,303.2-206.7,399
	c38.4,92.8,110,104.7,206.5,114.2c155,15.2,273.8-71.2,329.2-121.9c0,56.3,1.5,87.8,1.5,87.8h334.6l-0.8-31.5
	c0,0-29.8-7.9-26.5-49.8C3991.2,1070.3,4049,922.7,4097.3,758.6L4097.3,758.6z"/>
<path style="fill-rule:evenodd;clip-rule:evenodd;fill:#1D8546;" d="M5567.6,124.9l-374.5,1302.8l701-651.4L5567.6,124.9z"/>
<path style="fill-rule:evenodd;clip-rule:evenodd;fill:#EC6B00;" d="M5327.6,124.9L4953,1427.6l701-651.4L5327.6,124.9z"/>
</svg>
