<svg width="42" height="36" viewBox="0 0 42 36" fill="none" xmlns="http://www.w3.org/2000/svg">
<path d="M5.78833 35.8704H35.149C36.4516 35.869 37.7005 35.3509 38.6217 34.4297C39.5428 33.5086 40.0609 32.2597 40.0623 30.9571V28.1094C40.0628 27.7709 39.9414 27.4434 39.7204 27.187C39.4994 26.9305 39.1935 26.7622 38.8586 26.7126C38.1225 26.597 37.4519 26.2222 36.9676 25.6559C36.4834 25.0897 36.2173 24.369 36.2173 23.6239C36.2173 22.8788 36.4834 22.1582 36.9676 21.5919C37.4519 21.0256 38.1225 20.6509 38.8586 20.5352C39.1935 20.4857 39.4994 20.3173 39.7204 20.0609C39.9414 19.8044 40.0628 19.477 40.0623 19.1384V16.2908C40.0609 14.9881 39.5428 13.7392 38.6217 12.8181C37.7005 11.897 36.4516 11.3789 35.149 11.3774H5.78833C4.48568 11.3789 3.23678 11.897 2.31566 12.8181C1.39454 13.7392 0.87643 14.9881 0.875001 16.2908V19.1384C0.874513 19.477 0.995869 19.8044 1.21689 20.0609C1.43791 20.3173 1.74384 20.4857 2.07876 20.5352C2.81484 20.6509 3.48542 21.0256 3.96968 21.5919C4.45393 22.1582 4.72003 22.8788 4.72003 23.6239C4.72003 24.369 4.45393 25.0897 3.96968 25.6559C3.48542 26.2222 2.81484 26.597 2.07876 26.7126C1.74384 26.7622 1.43791 26.9305 1.21689 27.187C0.995869 27.4434 0.874513 27.7709 0.875001 28.1094V30.9571C0.876428 32.2597 1.39454 33.5086 2.31566 34.4297C3.23678 35.3509 4.48567 35.869 5.78833 35.8704ZM2.29917 28.1333C3.37663 27.9703 4.35944 27.425 5.0679 26.597C5.77636 25.769 6.16314 24.7136 6.15753 23.6239C6.16667 22.5379 5.78229 21.4853 5.07546 20.6607C4.36863 19.8362 3.38716 19.2954 2.3125 19.1384V16.2908C2.31349 15.3692 2.68002 14.4857 3.33165 13.8341C3.98328 13.1825 4.86679 12.8159 5.78833 12.8149H35.149C36.0705 12.8159 36.954 13.1825 37.6057 13.8341C38.2573 14.4857 38.6238 15.3692 38.6248 16.2908L38.6381 19.1145C37.5649 19.2799 36.5862 19.8235 35.8787 20.6472C35.1711 21.4709 34.7813 22.5204 34.7797 23.6063C34.7781 24.6921 35.1648 25.7428 35.8699 26.5686C36.575 27.3944 37.5521 27.9409 38.6248 28.1094V30.9571C38.6238 31.8786 38.2573 32.7621 37.6056 33.4137C36.954 34.0654 36.0705 34.4319 35.149 34.4329H5.78833C4.86679 34.4319 3.98328 34.0654 3.33165 33.4137C2.68002 32.7621 2.31349 31.8786 2.3125 30.9571L2.29917 28.1333Z" fill="black"/>
<path d="M39.2523 3.88774C38.9436 2.62137 38.1453 1.52915 37.0323 0.850687C35.9193 0.172228 34.5827 -0.0370635 33.3156 0.26873L4.78742 7.20323C4.03462 7.38576 3.33565 7.74371 2.74756 8.24787C2.15948 8.75204 1.69894 9.38812 1.40355 10.1042C1.33167 10.2806 1.33274 10.4783 1.40652 10.6539C1.48029 10.8296 1.62075 10.9687 1.79704 11.0409C1.97334 11.113 2.17106 11.1123 2.3468 11.0388C2.52254 10.9653 2.66192 10.8251 2.73436 10.6489C2.9432 10.1429 3.26879 9.69348 3.68453 9.33739C4.10026 8.9813 4.59435 8.72861 5.12641 8.59998L33.6546 1.66553C34.5512 1.44882 35.4971 1.59674 36.2848 2.07681C37.0724 2.55688 37.6373 3.32987 37.8555 4.22607L39.6973 11.8116C39.7286 11.989 39.8253 12.1482 39.9684 12.2578C40.1114 12.3674 40.2904 12.4192 40.4698 12.4032C40.6493 12.3871 40.8162 12.3043 40.9375 12.1711C41.0588 12.0379 41.1257 11.864 41.125 11.6838C41.1249 11.6266 41.1181 11.5696 41.1047 11.5139L39.2523 3.88774Z" fill="black"/>
<path d="M9.85446 27.3949C10.0434 27.4793 10.2527 27.5073 10.4571 27.4755C10.6616 27.4438 10.8525 27.3536 11.007 27.2159L12.4164 25.9578C12.5476 25.8408 12.7172 25.7761 12.893 25.776H16.1323L14.5411 29.0847C14.4283 29.3091 14.3701 29.5569 14.3712 29.8081C14.3716 30.136 14.4708 30.4562 14.6559 30.727C14.841 30.9977 15.1034 31.2063 15.4089 31.3257C15.7144 31.445 16.0487 31.4695 16.3683 31.396C16.6879 31.3225 16.978 31.1544 17.2006 30.9136L21.9744 25.776H24.5516C25.0708 25.7825 25.5757 25.6062 25.9779 25.2778C26.3801 24.9495 26.6539 24.4901 26.7514 23.9801C26.803 23.6716 26.7868 23.3556 26.7038 23.0541C26.6209 22.7525 26.4732 22.4726 26.2712 22.2339C26.0691 21.9952 25.8174 21.8033 25.5337 21.6717C25.2499 21.5401 24.9409 21.4719 24.6282 21.4719H21.9744L17.2027 16.336C16.9853 16.0986 16.702 15.9314 16.389 15.8558C16.0761 15.7802 15.7477 15.7997 15.4458 15.9117C15.1321 16.0262 14.8609 16.234 14.6688 16.5072C14.4767 16.7804 14.3728 17.1058 14.3712 17.4398C14.3697 17.687 14.4259 17.931 14.5355 18.1526L16.1322 21.4719H12.893C12.7175 21.4718 12.5481 21.4073 12.4171 21.2905L11.007 20.0323C10.8526 19.8944 10.6615 19.8041 10.4569 19.7723C10.2523 19.7405 10.0429 19.7686 9.85388 19.8532C9.66489 19.9378 9.50441 20.0752 9.3918 20.249C9.27919 20.4228 9.21926 20.6254 9.21924 20.8324V26.415C9.2194 26.6222 9.27945 26.8249 9.39215 26.9988C9.50484 27.1726 9.66539 27.3102 9.85446 27.3949ZM16.1456 29.9369C16.1202 29.9651 16.0867 29.9849 16.0497 29.9936C16.0127 30.0023 15.9739 29.9996 15.9386 29.9856C15.9016 29.9725 15.8694 29.9486 15.8462 29.9169C15.8231 29.8852 15.81 29.8473 15.8087 29.8081C15.8083 29.7768 15.816 29.7459 15.8312 29.7186L17.7277 25.776H20.0122L16.1456 29.9369ZM15.8256 17.5188C15.8138 17.4942 15.808 17.4671 15.8087 17.4398C15.8104 17.3995 15.8243 17.3607 15.8487 17.3285C15.873 17.2963 15.9066 17.2724 15.9449 17.2598C15.9801 17.2474 16.0183 17.2459 16.0544 17.2553C16.0905 17.2648 16.123 17.2848 16.1477 17.3128L20.0123 21.4719H17.7277L15.8256 17.5188ZM10.6567 21.6463L11.4604 22.3633C11.8546 22.7152 12.3646 22.9096 12.893 22.9094H24.6281C24.7326 22.9094 24.8358 22.9324 24.9305 22.9766C25.0252 23.0208 25.109 23.0852 25.1761 23.1653C25.2432 23.2454 25.292 23.3392 25.3189 23.4401C25.3459 23.5411 25.3504 23.6467 25.3321 23.7496C25.2897 23.9226 25.1888 24.0756 25.0466 24.1829C24.9045 24.2901 24.7296 24.3451 24.5516 24.3385H12.893C12.3643 24.3384 11.8541 24.5329 11.4597 24.8849L10.6567 25.6016V21.6463Z" fill="black"/>
<path d="M30.78 15.4421C30.9183 15.4421 31.0534 15.4011 31.1684 15.3243C31.2834 15.2475 31.373 15.1383 31.4259 15.0105C31.4788 14.8828 31.4926 14.7422 31.4657 14.6066C31.4387 14.471 31.3721 14.3465 31.2743 14.2487C31.1766 14.1509 31.052 14.0844 30.9164 14.0574C30.7808 14.0304 30.6402 14.0442 30.5125 14.0972C30.3848 14.1501 30.2756 14.2397 30.1988 14.3546C30.1219 14.4696 30.0809 14.6047 30.0809 14.743C30.0809 14.8348 30.099 14.9257 30.1341 15.0105C30.1693 15.0954 30.2208 15.1724 30.2857 15.2373C30.3506 15.3023 30.4277 15.3538 30.5125 15.3889C30.5973 15.424 30.6882 15.4421 30.78 15.4421Z" fill="black"/>
<path d="M30.78 19.7594C30.9183 19.7594 31.0534 19.7184 31.1684 19.6416C31.2833 19.5648 31.3729 19.4556 31.4258 19.3279C31.4787 19.2001 31.4926 19.0596 31.4656 18.924C31.4386 18.7884 31.372 18.6638 31.2743 18.5661C31.1765 18.4683 31.052 18.4017 30.9163 18.3748C30.7807 18.3478 30.6402 18.3616 30.5125 18.4145C30.3847 18.4675 30.2756 18.5571 30.1987 18.672C30.1219 18.787 30.0809 18.9221 30.0809 19.0604C30.0809 19.1522 30.099 19.2431 30.1341 19.3279C30.1693 19.4127 30.2208 19.4898 30.2857 19.5547C30.3506 19.6196 30.4277 19.6711 30.5125 19.7062C30.5973 19.7414 30.6882 19.7595 30.78 19.7594Z" fill="black"/>
<path d="M30.78 24.0769C30.9183 24.0769 31.0534 24.0359 31.1684 23.959C31.2834 23.8822 31.373 23.773 31.4259 23.6453C31.4788 23.5176 31.4926 23.377 31.4657 23.2414C31.4387 23.1058 31.3721 22.9812 31.2743 22.8835C31.1766 22.7857 31.052 22.7191 30.9164 22.6921C30.7808 22.6652 30.6402 22.679 30.5125 22.7319C30.3847 22.7848 30.2755 22.8745 30.1987 22.9894C30.1219 23.1044 30.0809 23.2395 30.0809 23.3778C30.0809 23.4696 30.099 23.5605 30.1341 23.6453C30.1693 23.7302 30.2208 23.8072 30.2857 23.8721C30.3506 23.9371 30.4277 23.9885 30.5125 24.0237C30.5973 24.0588 30.6882 24.0769 30.78 24.0769Z" fill="black"/>
<path d="M30.78 28.3943C30.9183 28.3942 31.0534 28.3532 31.1684 28.2764C31.2834 28.1996 31.373 28.0904 31.4259 27.9627C31.4788 27.835 31.4926 27.6944 31.4657 27.5588C31.4387 27.4232 31.3721 27.2986 31.2743 27.2009C31.1766 27.1031 31.052 27.0365 30.9164 27.0095C30.7808 26.9826 30.6402 26.9964 30.5125 27.0493C30.3848 27.1022 30.2756 27.1918 30.1988 27.3068C30.1219 27.4217 30.0809 27.5569 30.0809 27.6952C30.0809 27.787 30.099 27.8779 30.1341 27.9627C30.1693 28.0475 30.2208 28.1246 30.2857 28.1895C30.3506 28.2544 30.4277 28.3059 30.5125 28.341C30.5973 28.3762 30.6882 28.3943 30.78 28.3943Z" fill="black"/>
<path d="M30.78 32.7116C30.9183 32.7116 31.0534 32.6706 31.1684 32.5938C31.2833 32.5169 31.3729 32.4078 31.4258 32.28C31.4787 32.1523 31.4926 32.0117 31.4656 31.8761C31.4386 31.7405 31.372 31.616 31.2743 31.5182C31.1765 31.4204 31.052 31.3539 30.9163 31.3269C30.7807 31.2999 30.6402 31.3138 30.5125 31.3667C30.3847 31.4196 30.2756 31.5092 30.1987 31.6242C30.1219 31.7391 30.0809 31.8743 30.0809 32.0125C30.0809 32.1043 30.099 32.1953 30.1341 32.2801C30.1693 32.3649 30.2208 32.442 30.2857 32.5069C30.3506 32.5718 30.4277 32.6233 30.5125 32.6584C30.5973 32.6935 30.6882 32.7116 30.78 32.7116Z" fill="black"/>
</svg>
