<svg width="38" height="38" viewBox="0 0 38 38" fill="none" xmlns="http://www.w3.org/2000/svg">
<g clip-path="url(#clip0_428_387)">
<path d="M35.3317 16.5674C35.1862 12.4224 33.5077 8.54645 30.5603 5.59907C27.471 2.5092 23.3652 0.808105 19 0.808105C10.1834 0.808105 2.97943 7.82564 2.6689 16.5674C1.32346 17.1653 0.381775 18.5119 0.381775 20.0771V24.3889C0.381775 26.5062 2.10424 28.2293 4.22215 28.2293C5.59253 28.2293 6.70699 27.1148 6.70699 25.7444V18.7209C6.70699 17.4343 5.72018 16.3851 4.46559 16.2604C4.92871 8.64442 11.2688 2.58936 19 2.58936C22.8902 2.58936 26.5483 4.10579 29.3016 6.85901C31.8297 9.3872 33.3094 12.6825 33.532 16.261C32.2786 16.3869 31.2936 17.4355 31.2936 18.7209V25.7438C31.2936 27.0412 32.2958 28.0969 33.5653 28.2067V29.9814C33.5653 31.98 31.939 33.6057 29.9404 33.6057H27.2561C27.1243 33.2292 26.9176 32.8813 26.6279 32.5927C26.1202 32.0827 25.4434 31.8019 24.7226 31.8019H21.9557C21.5585 31.8019 21.1773 31.8862 20.8281 32.0489C19.8758 32.4865 19.2606 33.4471 19.2606 34.4963C19.2606 35.2171 19.5415 35.894 20.0503 36.4004C20.5592 36.9105 21.2361 37.1913 21.9557 37.1913H24.7226C25.8697 37.1913 26.8808 36.4497 27.2579 35.3869H29.9404C32.9216 35.3869 35.3465 32.962 35.3465 29.9814V27.8896C36.6836 27.2882 37.6182 25.9463 37.6182 24.3877V20.0759C37.6182 18.5119 36.6765 17.1653 35.3317 16.5674ZM4.92515 18.7209V25.7438C4.92515 26.1315 4.60987 26.4474 4.22156 26.4474C3.08631 26.4474 2.16243 25.5235 2.16243 24.3883V20.0765C2.16243 18.9406 3.08631 18.0174 4.22156 18.0174C4.60987 18.0174 4.92515 18.3332 4.92515 18.7209ZM25.6161 34.6875C25.5277 35.1067 25.1512 35.4113 24.722 35.4113H21.9551C21.7116 35.4113 21.4831 35.3163 21.3085 35.1417C21.1363 34.9701 21.0413 34.7409 21.0413 34.4975C21.0413 34.1418 21.2497 33.817 21.5763 33.6668C21.6926 33.6122 21.8203 33.5843 21.9551 33.5843H24.722C24.9654 33.5843 25.194 33.6787 25.368 33.8533C25.5401 34.0249 25.6351 34.254 25.6351 34.4975C25.6357 34.5628 25.6286 34.6281 25.6161 34.6875ZM35.837 24.3883C35.837 25.5235 34.9131 26.4474 33.7778 26.4474C33.3901 26.4474 33.0742 26.1321 33.0742 25.7438V18.7209C33.0742 18.3332 33.3895 18.0174 33.7778 18.0174C34.9131 18.0174 35.837 18.9412 35.837 20.0765V24.3883Z" fill="black"/>
<path d="M24.7671 24.6954C26.8482 24.6954 28.541 23.002 28.541 20.9215V13.2319C28.541 12.2261 28.1479 11.2784 27.4342 10.5648C26.7205 9.85107 25.7735 9.45801 24.7671 9.45801H13.2329C11.1518 9.45801 9.45901 11.1508 9.45901 13.2319V20.9215C9.45901 23.0026 11.1518 24.6954 13.2329 24.6954H13.3035V26.688C13.3035 27.448 13.7566 28.1225 14.4572 28.4069C14.6834 28.4978 14.9185 28.5429 15.1513 28.5429C15.6364 28.5429 16.109 28.3505 16.4552 27.9925L19.7701 24.6954H24.7671ZM18.7755 23.173L15.1881 26.7409C15.1721 26.7575 15.1602 26.77 15.1264 26.7551C15.0854 26.7385 15.0854 26.7118 15.0854 26.688V23.8048C15.0854 23.3132 14.687 22.9142 14.1948 22.9142H13.2335C12.1345 22.9142 11.2409 22.02 11.2409 20.9215V13.2319C11.2409 12.1329 12.1345 11.2393 13.2335 11.2393H24.7677C25.2985 11.2393 25.7978 11.4471 26.1755 11.8241C26.5531 12.2017 26.7603 12.7017 26.7603 13.2319V20.9215C26.7603 22.0206 25.8661 22.9142 24.7677 22.9142H19.4037C19.168 22.9142 18.9424 23.0074 18.7755 23.173Z" fill="black"/>
<path d="M14.6733 15.9048C13.949 15.9048 13.3594 16.495 13.3594 17.2188C13.3594 17.9425 13.9496 18.5327 14.6733 18.5327C15.3983 18.5327 15.9885 17.9425 15.9885 17.2188C15.9885 16.495 15.3989 15.9048 14.6733 15.9048Z" fill="black"/>
<path d="M18.9994 15.9048C18.275 15.9048 17.6854 16.495 17.6854 17.2188C17.6854 17.9425 18.2756 18.5327 18.9994 18.5327C19.725 18.5327 20.3146 17.9425 20.3146 17.2188C20.3146 16.495 19.725 15.9048 18.9994 15.9048Z" fill="black"/>
<path d="M23.3255 15.9048C22.6011 15.9048 22.0115 16.495 22.0115 17.2188C22.0115 17.9425 22.6017 18.5327 23.3255 18.5327C24.0504 18.5327 24.6406 17.9425 24.6406 17.2188C24.6406 16.495 24.0504 15.9048 23.3255 15.9048Z" fill="black"/>
</g>
<defs>
<clipPath id="clip0_428_387">
<rect width="38" height="38" fill="white"/>
</clipPath>
</defs>
</svg>
