<svg width="43" height="32" viewBox="0 0 43 32" fill="none" xmlns="http://www.w3.org/2000/svg">
<path d="M5.126 18.9462C4.75582 19.1198 4.5925 19.5571 4.75747 19.9308L6.44833 23.5606C6.5314 23.7413 6.68295 23.882 6.86934 23.9514C6.951 23.9811 7.0376 23.9964 7.12467 23.9964C7.23363 23.9973 7.34118 23.974 7.44025 23.9291L20.2155 17.962L19.0584 30.0607C19.036 30.2988 19.1278 30.533 19.3059 30.6921C19.866 31.1557 20.564 31.4197 21.2903 31.4435C21.4905 31.4432 21.6896 31.4181 21.8838 31.3686C22.9209 31.098 23.725 30.1739 24.2736 28.5955L29.301 13.7088L39.2579 9.06433C42.1887 7.69682 43.699 4.9239 42.6848 2.75955C42.1091 1.62831 41.0066 0.85877 39.7464 0.707923C38.3462 0.496594 36.9151 0.716865 35.6434 1.33955L24.1531 6.72748L11.7991 1.89541C10.2433 1.30943 9.0111 1.32449 8.14696 1.94836C7.4219 2.54328 7.00936 3.43754 7.02701 4.37534C7.03454 4.61326 7.15433 4.83329 7.35012 4.96932L15.6689 10.6879L10.9048 12.9424L2.91623 10.9131C2.58888 10.8326 2.24812 10.9802 2.08221 11.2739L0.0910669 14.8582C-0.012244 15.0481 -0.0284819 15.2736 0.0465891 15.4764C0.121189 15.6795 0.279803 15.8402 0.481953 15.9179L6.39608 18.3604L5.126 18.9462ZM8.56726 3.99975C8.6115 3.68205 8.77223 3.39283 9.01839 3.18809C9.44693 2.8798 10.2285 2.92499 11.2729 3.31564L22.2746 7.60668L17.2545 9.9513L8.56726 3.99975ZM1.80428 14.8509L3.11179 12.5289L10.7994 14.4374C10.9651 14.4793 11.1399 14.4636 11.2957 14.3927L36.2823 2.72213C37.2757 2.23217 38.3944 2.05379 39.4911 2.21099C40.2601 2.28182 40.9452 2.72566 41.3248 3.39824C41.9555 4.75116 40.7157 6.72748 38.6189 7.70435L29.962 11.7626L30.4882 10.2066C30.6212 9.80633 30.404 9.37379 30.0037 9.24107C29.6029 9.10834 29.1706 9.32555 29.0379 9.72585L22.8531 28.1293C22.4848 29.1742 22.0264 29.798 21.5155 29.9329C21.1989 29.9938 20.8714 29.9317 20.5986 29.7604L22.1017 13.979C22.141 13.5641 21.8367 13.1958 21.4213 13.1565C21.0064 13.1167 20.6381 13.4215 20.5986 13.8364L20.3659 16.2486L7.47014 22.2603L6.41115 20.0059L8.52984 19.0142C8.80259 18.8939 8.97838 18.6242 8.97838 18.3265C8.97838 18.0286 8.80259 17.7589 8.52984 17.6389L1.80428 14.8509Z" fill="black"/>
</svg>
