<svg width="397" height="138" viewBox="0 0 397 138" fill="none" xmlns="http://www.w3.org/2000/svg">
<mask id="path-1-inside-1_288_7555" fill="white">
<path d="M136.585 138H136.408C133.309 138 130.665 136.87 128.54 134.66C126.44 132.629 125.301 129.911 125.301 126.851V42.7028C125.301 37.1158 123.315 32.3033 119.419 28.3796C115.459 24.4052 110.791 22.4752 105.149 22.4752C99.6464 22.4752 94.8772 24.4687 90.9683 28.3796C87.0594 32.3033 85.0859 37.1158 85.0859 42.7028V126.839C85.0859 129.937 83.9727 132.603 81.7589 134.737C79.7348 136.844 77.0277 137.987 73.9789 137.987H73.8018C70.7278 137.987 68.0713 136.883 65.8954 134.686C63.7575 132.616 62.6063 129.899 62.6063 126.839V42.7028C62.6063 37.1158 60.6202 32.3033 56.7239 28.3796C52.815 24.456 48.0458 22.4752 42.543 22.4752C37.0401 22.4752 32.2709 24.4687 28.362 28.3796C24.453 32.3033 22.4796 37.1158 22.4796 42.7028V126.839C22.4796 129.95 21.3664 132.603 19.1526 134.737C17.04 136.857 14.3454 137.987 11.3726 137.987H11.107C8.09619 137.987 5.46493 136.883 3.27643 134.686C1.13853 132.629 0 129.911 0 126.839V42.7028C0 30.9573 4.18725 20.799 12.4479 12.4947C20.7212 4.20298 30.8414 0 42.543 0C55.1553 0 65.6803 4.60931 73.8777 13.7264C82.0245 4.60931 92.5369 0 105.149 0C116.851 0 126.971 4.20298 135.244 12.4947C143.505 20.7863 147.692 30.9446 147.692 42.7028V126.839C147.692 129.924 146.617 132.565 144.492 134.699C142.316 136.883 139.659 138 136.585 138ZM105.149 18.6658C111.841 18.6658 117.395 20.9641 122.101 25.6877C126.743 30.3478 129.096 36.0745 129.096 42.7028V126.839C129.096 128.87 129.817 130.597 131.222 131.956C132.676 133.467 134.359 134.178 136.408 134.178H136.585C138.647 134.178 140.355 133.467 141.81 131.994C143.214 130.584 143.897 128.896 143.897 126.839V42.7028C143.897 31.9985 140.077 22.7418 132.55 15.1993C125.036 7.64409 115.813 3.80935 105.149 3.80935C92.967 3.80935 82.9354 8.53294 75.3578 17.8531L73.8904 19.6562L72.423 17.8658C64.7822 8.53294 54.7378 3.80935 42.543 3.80935C31.8788 3.80935 22.6567 7.64409 15.1298 15.1993C7.61548 22.7418 3.79509 31.9985 3.79509 42.7028V126.839C3.79509 128.896 4.49086 130.572 5.94564 131.969C7.43837 133.467 9.10821 134.178 11.107 134.178H11.3726C13.3461 134.178 15.0665 133.454 16.496 132.019C17.9761 130.584 18.6845 128.896 18.6845 126.839V42.7028C18.6845 36.0745 21.0374 30.3478 25.6801 25.6877C30.3228 21.0276 35.9901 18.6658 42.543 18.6658C49.0958 18.6658 54.7631 21.0276 59.4058 25.6877C64.0485 30.3478 66.4014 36.0745 66.4014 42.7028V126.839C66.4014 128.896 67.0972 130.584 68.552 131.969C70.0447 133.467 71.7525 134.178 73.8018 134.178H73.9789C76.003 134.178 77.7108 133.454 79.077 132.032C80.5824 130.572 81.2908 128.896 81.2908 126.826V42.7028C81.2908 36.0745 83.6438 30.3478 88.2864 25.6877C92.9291 21.0276 98.6091 18.6658 105.149 18.6658Z"/>
<path d="M343.488 138H343.222C340.202 138 337.564 136.895 335.369 134.699C333.225 132.629 332.071 129.911 332.071 126.839V88.3007H285.439V126.851C285.439 129.962 284.323 132.616 282.103 134.749C279.984 136.87 277.282 138 274.301 138H274.035C271.015 138 268.377 136.895 266.182 134.699C264.038 132.629 262.884 129.911 262.884 126.851V45.8646C262.884 33.2429 267.413 22.3101 276.331 13.3835C285.299 4.49503 296.184 0 308.73 0C321.339 0 332.249 4.49503 341.167 13.3708C350.097 22.3101 354.626 33.2429 354.626 45.8646V126.851C354.626 129.962 353.497 132.616 351.29 134.749C349.184 136.857 346.469 138 343.488 138ZM281.646 84.4914H335.889V126.851C335.889 128.908 336.587 130.597 338.046 131.981C339.543 133.48 341.23 134.191 343.234 134.191H343.501C345.505 134.191 347.18 133.48 348.638 132.032C350.123 130.597 350.833 128.908 350.833 126.851V45.8646C350.833 34.2968 346.685 24.2656 338.49 16.0755C330.308 7.93614 320.286 3.80935 308.73 3.80935C297.224 3.80935 287.24 7.93614 279.045 16.0755C270.863 24.2656 266.715 34.2841 266.715 45.8646V126.851C266.715 128.908 267.425 130.584 268.872 131.981C270.368 133.48 272.043 134.191 274.06 134.191H274.326C276.305 134.191 278.031 133.467 279.464 132.032C280.948 130.597 281.659 128.908 281.659 126.851V84.4914H281.646ZM335.889 69.6349H281.646V45.8646C281.646 38.4236 284.297 31.9604 289.524 26.6654C294.826 21.3577 301.283 18.6658 308.717 18.6658C316.214 18.6658 322.696 21.3451 327.986 26.6527C333.225 31.9604 335.877 38.4236 335.877 45.8646V69.6349H335.889ZM285.452 65.8255H332.084V45.8646C332.084 39.4649 329.8 33.9032 325.297 29.3447C320.755 24.7989 315.174 22.4879 308.73 22.4879C302.336 22.4879 296.792 24.7989 292.238 29.3574C287.748 33.9032 285.464 39.4649 285.464 45.8646V65.8255H285.452Z"/>
<path d="M386.023 138H385.761C382.786 138 380.185 136.897 378.035 134.703C375.922 132.637 374.784 129.923 374.784 126.855V40.0544C374.784 36.9734 375.872 34.3108 378.035 32.13C380.223 29.9999 382.811 28.9222 385.761 28.9222H386.023C388.974 28.9222 391.562 29.9872 393.712 32.0792L393.737 32.1046C395.9 34.2981 397 36.9734 397 40.0544V126.868C397 129.974 395.9 132.624 393.712 134.754C391.624 136.859 388.961 138 386.023 138ZM385.761 32.7132C383.786 32.7132 382.11 33.4105 380.66 34.8306C379.248 36.276 378.535 37.9877 378.535 40.0417V126.855C378.535 128.909 379.223 130.583 380.66 131.977C382.135 133.474 383.798 134.184 385.761 134.184H386.023C387.999 134.184 389.649 133.474 391.087 132.028C392.549 130.595 393.249 128.909 393.249 126.855V40.0544C393.249 38.0004 392.549 36.276 391.099 34.8052C389.661 33.3979 387.999 32.7259 386.023 32.7259H385.761V32.7132Z"/>
</mask>
<path d="M136.585 138H136.408C133.309 138 130.665 136.87 128.54 134.66C126.44 132.629 125.301 129.911 125.301 126.851V42.7028C125.301 37.1158 123.315 32.3033 119.419 28.3796C115.459 24.4052 110.791 22.4752 105.149 22.4752C99.6464 22.4752 94.8772 24.4687 90.9683 28.3796C87.0594 32.3033 85.0859 37.1158 85.0859 42.7028V126.839C85.0859 129.937 83.9727 132.603 81.7589 134.737C79.7348 136.844 77.0277 137.987 73.9789 137.987H73.8018C70.7278 137.987 68.0713 136.883 65.8954 134.686C63.7575 132.616 62.6063 129.899 62.6063 126.839V42.7028C62.6063 37.1158 60.6202 32.3033 56.7239 28.3796C52.815 24.456 48.0458 22.4752 42.543 22.4752C37.0401 22.4752 32.2709 24.4687 28.362 28.3796C24.453 32.3033 22.4796 37.1158 22.4796 42.7028V126.839C22.4796 129.95 21.3664 132.603 19.1526 134.737C17.04 136.857 14.3454 137.987 11.3726 137.987H11.107C8.09619 137.987 5.46493 136.883 3.27643 134.686C1.13853 132.629 0 129.911 0 126.839V42.7028C0 30.9573 4.18725 20.799 12.4479 12.4947C20.7212 4.20298 30.8414 0 42.543 0C55.1553 0 65.6803 4.60931 73.8777 13.7264C82.0245 4.60931 92.5369 0 105.149 0C116.851 0 126.971 4.20298 135.244 12.4947C143.505 20.7863 147.692 30.9446 147.692 42.7028V126.839C147.692 129.924 146.617 132.565 144.492 134.699C142.316 136.883 139.659 138 136.585 138ZM105.149 18.6658C111.841 18.6658 117.395 20.9641 122.101 25.6877C126.743 30.3478 129.096 36.0745 129.096 42.7028V126.839C129.096 128.87 129.817 130.597 131.222 131.956C132.676 133.467 134.359 134.178 136.408 134.178H136.585C138.647 134.178 140.355 133.467 141.81 131.994C143.214 130.584 143.897 128.896 143.897 126.839V42.7028C143.897 31.9985 140.077 22.7418 132.55 15.1993C125.036 7.64409 115.813 3.80935 105.149 3.80935C92.967 3.80935 82.9354 8.53294 75.3578 17.8531L73.8904 19.6562L72.423 17.8658C64.7822 8.53294 54.7378 3.80935 42.543 3.80935C31.8788 3.80935 22.6567 7.64409 15.1298 15.1993C7.61548 22.7418 3.79509 31.9985 3.79509 42.7028V126.839C3.79509 128.896 4.49086 130.572 5.94564 131.969C7.43837 133.467 9.10821 134.178 11.107 134.178H11.3726C13.3461 134.178 15.0665 133.454 16.496 132.019C17.9761 130.584 18.6845 128.896 18.6845 126.839V42.7028C18.6845 36.0745 21.0374 30.3478 25.6801 25.6877C30.3228 21.0276 35.9901 18.6658 42.543 18.6658C49.0958 18.6658 54.7631 21.0276 59.4058 25.6877C64.0485 30.3478 66.4014 36.0745 66.4014 42.7028V126.839C66.4014 128.896 67.0972 130.584 68.552 131.969C70.0447 133.467 71.7525 134.178 73.8018 134.178H73.9789C76.003 134.178 77.7108 133.454 79.077 132.032C80.5824 130.572 81.2908 128.896 81.2908 126.826V42.7028C81.2908 36.0745 83.6438 30.3478 88.2864 25.6877C92.9291 21.0276 98.6091 18.6658 105.149 18.6658Z" fill="url(#paint0_linear_288_7555)"/>
<path d="M343.488 138H343.222C340.202 138 337.564 136.895 335.369 134.699C333.225 132.629 332.071 129.911 332.071 126.839V88.3007H285.439V126.851C285.439 129.962 284.323 132.616 282.103 134.749C279.984 136.87 277.282 138 274.301 138H274.035C271.015 138 268.377 136.895 266.182 134.699C264.038 132.629 262.884 129.911 262.884 126.851V45.8646C262.884 33.2429 267.413 22.3101 276.331 13.3835C285.299 4.49503 296.184 0 308.73 0C321.339 0 332.249 4.49503 341.167 13.3708C350.097 22.3101 354.626 33.2429 354.626 45.8646V126.851C354.626 129.962 353.497 132.616 351.29 134.749C349.184 136.857 346.469 138 343.488 138ZM281.646 84.4914H335.889V126.851C335.889 128.908 336.587 130.597 338.046 131.981C339.543 133.48 341.23 134.191 343.234 134.191H343.501C345.505 134.191 347.18 133.48 348.638 132.032C350.123 130.597 350.833 128.908 350.833 126.851V45.8646C350.833 34.2968 346.685 24.2656 338.49 16.0755C330.308 7.93614 320.286 3.80935 308.73 3.80935C297.224 3.80935 287.24 7.93614 279.045 16.0755C270.863 24.2656 266.715 34.2841 266.715 45.8646V126.851C266.715 128.908 267.425 130.584 268.872 131.981C270.368 133.48 272.043 134.191 274.06 134.191H274.326C276.305 134.191 278.031 133.467 279.464 132.032C280.948 130.597 281.659 128.908 281.659 126.851V84.4914H281.646ZM335.889 69.6349H281.646V45.8646C281.646 38.4236 284.297 31.9604 289.524 26.6654C294.826 21.3577 301.283 18.6658 308.717 18.6658C316.214 18.6658 322.696 21.3451 327.986 26.6527C333.225 31.9604 335.877 38.4236 335.877 45.8646V69.6349H335.889ZM285.452 65.8255H332.084V45.8646C332.084 39.4649 329.8 33.9032 325.297 29.3447C320.755 24.7989 315.174 22.4879 308.73 22.4879C302.336 22.4879 296.792 24.7989 292.238 29.3574C287.748 33.9032 285.464 39.4649 285.464 45.8646V65.8255H285.452Z" fill="url(#paint1_linear_288_7555)"/>
<path d="M386.023 138H385.761C382.786 138 380.185 136.897 378.035 134.703C375.922 132.637 374.784 129.923 374.784 126.855V40.0544C374.784 36.9734 375.872 34.3108 378.035 32.13C380.223 29.9999 382.811 28.9222 385.761 28.9222H386.023C388.974 28.9222 391.562 29.9872 393.712 32.0792L393.737 32.1046C395.9 34.2981 397 36.9734 397 40.0544V126.868C397 129.974 395.9 132.624 393.712 134.754C391.624 136.859 388.961 138 386.023 138ZM385.761 32.7132C383.786 32.7132 382.11 33.4105 380.66 34.8306C379.248 36.276 378.535 37.9877 378.535 40.0417V126.855C378.535 128.909 379.223 130.583 380.66 131.977C382.135 133.474 383.798 134.184 385.761 134.184H386.023C387.999 134.184 389.649 133.474 391.087 132.028C392.549 130.595 393.249 128.909 393.249 126.855V40.0544C393.249 38.0004 392.549 36.276 391.099 34.8052C389.661 33.3979 387.999 32.7259 386.023 32.7259H385.761V32.7132Z" fill="url(#paint2_linear_288_7555)"/>
<path d="M136.585 138H136.408C133.309 138 130.665 136.87 128.54 134.66C126.44 132.629 125.301 129.911 125.301 126.851V42.7028C125.301 37.1158 123.315 32.3033 119.419 28.3796C115.459 24.4052 110.791 22.4752 105.149 22.4752C99.6464 22.4752 94.8772 24.4687 90.9683 28.3796C87.0594 32.3033 85.0859 37.1158 85.0859 42.7028V126.839C85.0859 129.937 83.9727 132.603 81.7589 134.737C79.7348 136.844 77.0277 137.987 73.9789 137.987H73.8018C70.7278 137.987 68.0713 136.883 65.8954 134.686C63.7575 132.616 62.6063 129.899 62.6063 126.839V42.7028C62.6063 37.1158 60.6202 32.3033 56.7239 28.3796C52.815 24.456 48.0458 22.4752 42.543 22.4752C37.0401 22.4752 32.2709 24.4687 28.362 28.3796C24.453 32.3033 22.4796 37.1158 22.4796 42.7028V126.839C22.4796 129.95 21.3664 132.603 19.1526 134.737C17.04 136.857 14.3454 137.987 11.3726 137.987H11.107C8.09619 137.987 5.46493 136.883 3.27643 134.686C1.13853 132.629 0 129.911 0 126.839V42.7028C0 30.9573 4.18725 20.799 12.4479 12.4947C20.7212 4.20298 30.8414 0 42.543 0C55.1553 0 65.6803 4.60931 73.8777 13.7264C82.0245 4.60931 92.5369 0 105.149 0C116.851 0 126.971 4.20298 135.244 12.4947C143.505 20.7863 147.692 30.9446 147.692 42.7028V126.839C147.692 129.924 146.617 132.565 144.492 134.699C142.316 136.883 139.659 138 136.585 138ZM105.149 18.6658C111.841 18.6658 117.395 20.9641 122.101 25.6877C126.743 30.3478 129.096 36.0745 129.096 42.7028V126.839C129.096 128.87 129.817 130.597 131.222 131.956C132.676 133.467 134.359 134.178 136.408 134.178H136.585C138.647 134.178 140.355 133.467 141.81 131.994C143.214 130.584 143.897 128.896 143.897 126.839V42.7028C143.897 31.9985 140.077 22.7418 132.55 15.1993C125.036 7.64409 115.813 3.80935 105.149 3.80935C92.967 3.80935 82.9354 8.53294 75.3578 17.8531L73.8904 19.6562L72.423 17.8658C64.7822 8.53294 54.7378 3.80935 42.543 3.80935C31.8788 3.80935 22.6567 7.64409 15.1298 15.1993C7.61548 22.7418 3.79509 31.9985 3.79509 42.7028V126.839C3.79509 128.896 4.49086 130.572 5.94564 131.969C7.43837 133.467 9.10821 134.178 11.107 134.178H11.3726C13.3461 134.178 15.0665 133.454 16.496 132.019C17.9761 130.584 18.6845 128.896 18.6845 126.839V42.7028C18.6845 36.0745 21.0374 30.3478 25.6801 25.6877C30.3228 21.0276 35.9901 18.6658 42.543 18.6658C49.0958 18.6658 54.7631 21.0276 59.4058 25.6877C64.0485 30.3478 66.4014 36.0745 66.4014 42.7028V126.839C66.4014 128.896 67.0972 130.584 68.552 131.969C70.0447 133.467 71.7525 134.178 73.8018 134.178H73.9789C76.003 134.178 77.7108 133.454 79.077 132.032C80.5824 130.572 81.2908 128.896 81.2908 126.826V42.7028C81.2908 36.0745 83.6438 30.3478 88.2864 25.6877C92.9291 21.0276 98.6091 18.6658 105.149 18.6658Z" stroke="url(#paint3_linear_288_7555)" stroke-width="2" mask="url(#path-1-inside-1_288_7555)"/>
<path d="M343.488 138H343.222C340.202 138 337.564 136.895 335.369 134.699C333.225 132.629 332.071 129.911 332.071 126.839V88.3007H285.439V126.851C285.439 129.962 284.323 132.616 282.103 134.749C279.984 136.87 277.282 138 274.301 138H274.035C271.015 138 268.377 136.895 266.182 134.699C264.038 132.629 262.884 129.911 262.884 126.851V45.8646C262.884 33.2429 267.413 22.3101 276.331 13.3835C285.299 4.49503 296.184 0 308.73 0C321.339 0 332.249 4.49503 341.167 13.3708C350.097 22.3101 354.626 33.2429 354.626 45.8646V126.851C354.626 129.962 353.497 132.616 351.29 134.749C349.184 136.857 346.469 138 343.488 138ZM281.646 84.4914H335.889V126.851C335.889 128.908 336.587 130.597 338.046 131.981C339.543 133.48 341.23 134.191 343.234 134.191H343.501C345.505 134.191 347.18 133.48 348.638 132.032C350.123 130.597 350.833 128.908 350.833 126.851V45.8646C350.833 34.2968 346.685 24.2656 338.49 16.0755C330.308 7.93614 320.286 3.80935 308.73 3.80935C297.224 3.80935 287.24 7.93614 279.045 16.0755C270.863 24.2656 266.715 34.2841 266.715 45.8646V126.851C266.715 128.908 267.425 130.584 268.872 131.981C270.368 133.48 272.043 134.191 274.06 134.191H274.326C276.305 134.191 278.031 133.467 279.464 132.032C280.948 130.597 281.659 128.908 281.659 126.851V84.4914H281.646ZM335.889 69.6349H281.646V45.8646C281.646 38.4236 284.297 31.9604 289.524 26.6654C294.826 21.3577 301.283 18.6658 308.717 18.6658C316.214 18.6658 322.696 21.3451 327.986 26.6527C333.225 31.9604 335.877 38.4236 335.877 45.8646V69.6349H335.889ZM285.452 65.8255H332.084V45.8646C332.084 39.4649 329.8 33.9032 325.297 29.3447C320.755 24.7989 315.174 22.4879 308.73 22.4879C302.336 22.4879 296.792 24.7989 292.238 29.3574C287.748 33.9032 285.464 39.4649 285.464 45.8646V65.8255H285.452Z" stroke="url(#paint4_linear_288_7555)" stroke-width="2" mask="url(#path-1-inside-1_288_7555)"/>
<path d="M386.023 138H385.761C382.786 138 380.185 136.897 378.035 134.703C375.922 132.637 374.784 129.923 374.784 126.855V40.0544C374.784 36.9734 375.872 34.3108 378.035 32.13C380.223 29.9999 382.811 28.9222 385.761 28.9222H386.023C388.974 28.9222 391.562 29.9872 393.712 32.0792L393.737 32.1046C395.9 34.2981 397 36.9734 397 40.0544V126.868C397 129.974 395.9 132.624 393.712 134.754C391.624 136.859 388.961 138 386.023 138ZM385.761 32.7132C383.786 32.7132 382.11 33.4105 380.66 34.8306C379.248 36.276 378.535 37.9877 378.535 40.0417V126.855C378.535 128.909 379.223 130.583 380.66 131.977C382.135 133.474 383.798 134.184 385.761 134.184H386.023C387.999 134.184 389.649 133.474 391.087 132.028C392.549 130.595 393.249 128.909 393.249 126.855V40.0544C393.249 38.0004 392.549 36.276 391.099 34.8052C389.661 33.3979 387.999 32.7259 386.023 32.7259H385.761V32.7132Z" stroke="url(#paint5_linear_288_7555)" stroke-width="2" mask="url(#path-1-inside-1_288_7555)"/>
<path d="M385.892 1.5C391.166 1.5 395.5 5.88331 395.5 11.3623C395.5 16.8413 391.166 21.2246 385.892 21.2246C380.618 21.2244 376.284 16.8412 376.284 11.3623C376.284 5.88342 380.618 1.50019 385.892 1.5Z" stroke="url(#paint6_linear_288_7555)" stroke-width="3"/>
<path d="M164.292 0.5H191.137C199.579 0.500004 206.936 3.44068 213.037 9.24219L213.624 9.81348C219.785 16.0034 222.905 23.5823 222.905 32.3496C222.905 40.9859 219.993 48.3503 214.236 54.2959L213.882 54.6611L214.254 55.0088C221.075 61.3723 224.536 69.5031 224.536 79.2354C224.536 88.4219 221.251 96.3824 214.759 102.903C208.281 109.411 200.345 112.71 191.15 112.71H164.304C161.837 112.71 159.677 111.8 157.898 110.001L157.891 109.994L157.573 109.67C156.029 108.021 155.199 105.923 155.199 103.561V103.421C155.199 100.888 156.106 98.7039 157.897 96.9053C159.69 95.1047 161.838 94.1963 164.304 94.1963H191.15C195.313 94.1963 198.789 92.7733 201.751 89.8496L201.757 89.8438C204.644 86.9049 206.058 83.414 206.058 79.2354C206.058 75.0562 204.643 71.5523 201.718 68.5879L201.716 68.5859C198.779 65.6357 195.303 64.1856 191.15 64.1855H167.426C165.064 64.1855 163.005 63.385 161.282 61.8125L160.942 61.4883C159.205 59.7434 158.321 57.5863 158.321 55.0498V54.9102C158.321 52.404 159.189 50.2341 160.899 48.4385C162.753 46.6365 164.929 45.7607 167.426 45.7607H167.428L191.139 45.6846L191.138 45.6836C194.649 45.6834 197.512 44.6014 200.038 42.3076L200.539 41.833L200.542 41.8291C203.138 39.2081 204.415 36.0979 204.416 32.3496C204.416 28.599 203.174 25.5893 200.514 22.9307C197.858 20.2244 194.862 18.9502 191.137 18.9502H164.292C161.832 18.9501 159.694 18.0747 157.916 16.3486C156.09 14.5122 155.186 12.3293 155.186 9.80078V9.64844C155.186 7.11832 156.092 4.93616 157.878 3.13867C159.695 1.37401 161.846 0.500062 164.292 0.5ZM164.304 3.30859C162.687 3.30863 161.299 3.83478 160.088 4.91504L159.848 5.13867L159.842 5.14453C158.611 6.38118 157.991 7.87924 157.991 9.64844V9.78809C157.991 11.5599 158.613 13.058 159.88 14.3311L159.886 14.3369C161.117 15.5319 162.581 16.1289 164.304 16.1289H191.15C195.626 16.1289 199.328 17.6977 202.509 20.9424L202.512 20.9453C205.68 24.1272 207.219 27.848 207.219 32.3496C207.219 36.8896 205.679 40.6341 202.514 43.8145C199.335 46.9707 195.632 48.4805 191.15 48.4805H191.148L167.437 48.5566C165.665 48.5571 164.163 49.1665 162.883 50.3975L162.876 50.4043L162.87 50.4121C161.701 51.6271 161.112 53.1245 161.112 54.8975V55.0371C161.112 56.8012 161.704 58.2754 162.914 59.4902C164.169 60.7513 165.661 61.377 167.426 61.377H191.15C196.097 61.377 200.191 63.0757 203.7 66.5996C207.171 70.1364 208.85 74.2505 208.85 79.2227C208.85 84.1971 207.181 88.3106 203.723 91.8213C200.191 95.3183 196.097 96.9922 191.15 96.9922H163.804V97.0244C162.29 97.1355 160.997 97.7574 159.868 98.8916C158.612 100.153 157.991 101.65 157.991 103.421V103.561C157.991 105.326 158.596 106.788 159.842 107.988V107.989C161.118 109.271 162.583 109.9 164.304 109.9H191.15C199.562 109.9 206.855 106.864 212.8 100.905L212.801 100.904C218.733 94.9454 221.756 87.6455 221.756 79.2354C221.756 69.994 218.34 62.2924 211.597 56.3643L210.935 55.7959L209.704 54.7646L210.889 53.6787C217.024 48.0462 220.138 40.8524 220.138 32.3496C220.138 24.372 217.293 17.4519 211.676 11.8096L211.674 11.8086L211.14 11.2881C205.576 5.99178 198.858 3.30861 191.15 3.30859H164.304Z" stroke="url(#paint7_linear_288_7555)"/>
<defs>
<linearGradient id="paint0_linear_288_7555" x1="0" y1="69" x2="397" y2="69" gradientUnits="userSpaceOnUse">
<stop offset="0.192308" stop-color="#3853A3"/>
<stop offset="0.668269" stop-color="#55A5D9"/>
<stop offset="0.942308" stop-color="#57DDE6"/>
</linearGradient>
<linearGradient id="paint1_linear_288_7555" x1="0" y1="69" x2="397" y2="69" gradientUnits="userSpaceOnUse">
<stop offset="0.192308" stop-color="#3853A3"/>
<stop offset="0.668269" stop-color="#55A5D9"/>
<stop offset="0.942308" stop-color="#57DDE6"/>
</linearGradient>
<linearGradient id="paint2_linear_288_7555" x1="0" y1="69" x2="397" y2="69" gradientUnits="userSpaceOnUse">
<stop offset="0.192308" stop-color="#3853A3"/>
<stop offset="0.668269" stop-color="#55A5D9"/>
<stop offset="0.942308" stop-color="#57DDE6"/>
</linearGradient>
<linearGradient id="paint3_linear_288_7555" x1="0" y1="69" x2="397" y2="69" gradientUnits="userSpaceOnUse">
<stop offset="0.192308" stop-color="#3853A3"/>
<stop offset="0.668269" stop-color="#55A5D9"/>
<stop offset="0.942308" stop-color="#57DDE6"/>
</linearGradient>
<linearGradient id="paint4_linear_288_7555" x1="0" y1="69" x2="397" y2="69" gradientUnits="userSpaceOnUse">
<stop offset="0.192308" stop-color="#3853A3"/>
<stop offset="0.668269" stop-color="#55A5D9"/>
<stop offset="0.942308" stop-color="#57DDE6"/>
</linearGradient>
<linearGradient id="paint5_linear_288_7555" x1="0" y1="69" x2="397" y2="69" gradientUnits="userSpaceOnUse">
<stop offset="0.192308" stop-color="#3853A3"/>
<stop offset="0.668269" stop-color="#55A5D9"/>
<stop offset="0.942308" stop-color="#57DDE6"/>
</linearGradient>
<linearGradient id="paint6_linear_288_7555" x1="374.784" y1="11.3623" x2="397" y2="11.3623" gradientUnits="userSpaceOnUse">
<stop offset="0.192308" stop-color="#3853A3"/>
<stop offset="0.668269" stop-color="#55A5D9"/>
<stop offset="0.942308" stop-color="#57DDE6"/>
</linearGradient>
<linearGradient id="paint7_linear_288_7555" x1="154.686" y1="56.6048" x2="225.035" y2="56.6048" gradientUnits="userSpaceOnUse">
<stop offset="0.192308" stop-color="#3853A3"/>
<stop offset="0.668269" stop-color="#55A5D9"/>
<stop offset="0.942308" stop-color="#57DDE6"/>
</linearGradient>
</defs>
</svg>
