<svg width="66" height="66" viewBox="0 0 66 66" fill="none" xmlns="http://www.w3.org/2000/svg">
<path d="M33 50.875L26.125 42.625V34.375H39.875V42.625L33 50.875Z" fill="#FF9800"/>
<path d="M45.375 28.875C46.8938 28.875 48.125 27.6438 48.125 26.125C48.125 24.6062 46.8938 23.375 45.375 23.375C43.8562 23.375 42.625 24.6062 42.625 26.125C42.625 27.6438 43.8562 28.875 45.375 28.875Z" fill="#FFA726"/>
<path d="M20.625 28.875C22.1438 28.875 23.375 27.6438 23.375 26.125C23.375 24.6062 22.1438 23.375 20.625 23.375C19.1062 23.375 17.875 24.6062 17.875 26.125C17.875 27.6438 19.1062 28.875 20.625 28.875Z" fill="#FFA726"/>
<path d="M45.375 17.8749C45.375 7.42493 20.625 10.9999 20.625 17.8749V27.4999C20.625 34.3749 26.125 39.8749 33 39.8749C39.875 39.8749 45.375 34.3749 45.375 27.4999V17.8749Z" fill="#FFB74D"/>
<path d="M33 5.5C24.6125 5.5 19.25 12.2375 19.25 20.625V23.7875L22 26.125V19.25L38.5 13.75L44 19.25V26.125L46.75 23.7875V20.625C46.75 15.125 45.375 9.625 38.5 8.25L37.125 5.5H33Z" fill="#FF5722"/>
<path d="M38.5 27.5C39.2594 27.5 39.875 26.8844 39.875 26.125C39.875 25.3656 39.2594 24.75 38.5 24.75C37.7406 24.75 37.125 25.3656 37.125 26.125C37.125 26.8844 37.7406 27.5 38.5 27.5Z" fill="#784719"/>
<path d="M27.5 27.5C28.2594 27.5 28.875 26.8844 28.875 26.125C28.875 25.3656 28.2594 24.75 27.5 24.75C26.7406 24.75 26.125 25.3656 26.125 26.125C26.125 26.8844 26.7406 27.5 27.5 27.5Z" fill="#784719"/>
<path d="M39.875 42.625L33 44L26.125 42.625C26.125 42.625 11 45.375 11 60.5H55C55 45.375 39.875 42.625 39.875 42.625Z" fill="#CFD8DC"/>
<path d="M31.625 48.125L30.25 60.5H35.75L34.375 48.125L35.75 46.75L33 44L30.25 46.75L31.625 48.125Z" fill="#3F51B5"/>
</svg>
