<svg width="56" height="56" viewBox="0 0 56 56" fill="none" xmlns="http://www.w3.org/2000/svg">
<g clip-path="url(#clip0_179_548)">
<path fill-rule="evenodd" clip-rule="evenodd" d="M16.7584 12.3365C16.0672 18.8695 16.3056 27.3176 12.5672 35.8959L28 36.247L43.4339 35.897C39.7381 27.4171 39.9273 19.0686 39.2667 12.5695C37.5769 -4.04239 18.5095 -4.26004 16.7584 12.3365Z" fill="#231915"/>
<path fill-rule="evenodd" clip-rule="evenodd" d="M23.4762 20.9399H32.5226V24.4651C32.5226 26.1987 33.4655 27.6807 35.0372 28.4113C39.2755 30.3867 45.2342 30.8515 45.2342 36.3421V49.1434H10.7647V36.3432C10.7647 30.8526 16.7234 30.3878 20.9617 28.4124C22.5301 27.6807 23.4762 26.1987 23.4762 24.4662V20.9399Z" fill="#E2E7F0"/>
<path fill-rule="evenodd" clip-rule="evenodd" d="M23.4763 20.9399H32.5227V24.4651C32.5227 25.5468 32.8891 26.5268 33.5453 27.2924V29.5773H22.4099V27.3417C23.0924 26.5695 23.4763 25.5687 23.4763 24.464V20.9399Z" fill="#FBBD80"/>
<path fill-rule="evenodd" clip-rule="evenodd" d="M23.4763 20.9399H32.5227V24.4651C32.5227 24.5209 32.5227 24.5734 32.5259 24.6259C31.2178 25.4571 29.7106 25.9438 28.0952 25.9438C26.3966 25.9438 24.827 25.4101 23.4752 24.5023V24.4651V20.9399H23.4763Z" fill="#E2AA73"/>
<path fill-rule="evenodd" clip-rule="evenodd" d="M20.2114 28.7373C20.4684 28.6345 20.7167 28.5229 20.9617 28.4114C21.7951 28.0209 22.4525 27.4226 22.8867 26.6843L28 29.5784L24.7417 33.5837L20.2114 28.7373Z" fill="#FF4646"/>
<path fill-rule="evenodd" clip-rule="evenodd" d="M33.1122 26.6855C33.5464 27.4238 34.2037 28.0221 35.0372 28.4126C35.2822 28.5241 35.5305 28.6357 35.7875 28.7385L31.2583 33.5849L28 29.5785L33.1122 26.6855Z" fill="#FF4646"/>
<path fill-rule="evenodd" clip-rule="evenodd" d="M36.3125 14.5252C36.2075 20.1055 32.5675 24.5888 28.0962 24.5888C23.5539 24.5888 19.8745 19.9688 19.8745 14.2737C19.8745 13.9423 19.8898 13.613 19.9117 13.2882C22.5192 12.7949 25.0829 10.929 26.1679 8.11694C27.7954 11.8904 31.5503 14.5318 35.922 14.5318C36.0522 14.5318 36.1823 14.5285 36.3125 14.5252Z" fill="#FBBD80"/>
<path fill-rule="evenodd" clip-rule="evenodd" d="M36.3027 39.6506C35.8039 39.6506 35.397 40.0542 35.397 40.553V48.7692H37.205V40.553C37.205 40.0542 36.7992 39.6506 36.3027 39.6506Z" fill="#B7BBC2"/>
<path fill-rule="evenodd" clip-rule="evenodd" d="M46.4756 22.0808C46.9962 21.1106 47.7969 20.31 48.7703 19.7894C48.9037 19.715 48.9814 19.5848 48.9814 19.4328C48.9814 19.2808 48.9037 19.1539 48.7703 19.0795C47.7969 18.5589 46.9973 17.7583 46.4756 16.7881C46.4045 16.6514 46.2744 16.5737 46.1223 16.5737C45.9703 16.5737 45.8402 16.6514 45.7691 16.7881C45.2452 17.7583 44.4456 18.5589 43.4744 19.0795C43.3409 19.1539 43.2633 19.2808 43.2633 19.4328C43.2633 19.5848 43.3409 19.715 43.4744 19.7894C44.4445 20.31 45.2452 21.1106 45.7691 22.0808C45.8402 22.2142 45.9703 22.2951 46.1223 22.2951C46.2733 22.2951 46.4034 22.2142 46.4756 22.0808Z" fill="#0593FC"/>
<path fill-rule="evenodd" clip-rule="evenodd" d="M51.1787 35.5405C51.6994 34.5703 52.5 33.7697 53.4734 33.2458C53.6069 33.1747 53.6845 33.0445 53.6845 32.8925C53.6845 32.7405 53.6069 32.6103 53.4734 32.5392C52.5 32.0186 51.7005 31.218 51.1787 30.2445C51.1077 30.1111 50.9775 30.0334 50.8255 30.0334C50.6734 30.0334 50.5433 30.1111 50.4722 30.2445C49.9483 31.218 49.1487 32.0175 48.1775 32.5392C48.0441 32.6103 47.9664 32.7405 47.9664 32.8925C47.9664 33.0445 48.0441 33.1747 48.1775 33.2458C49.1477 33.7697 49.9483 34.5692 50.4722 35.5405C50.5433 35.6739 50.6734 35.7516 50.8255 35.7516C50.9775 35.7505 51.1077 35.6739 51.1787 35.5405Z" fill="#0593FC"/>
<path fill-rule="evenodd" clip-rule="evenodd" d="M9.52437 22.0808C9.00374 21.1106 8.20312 20.31 7.22968 19.7894C7.09624 19.715 7.01859 19.5848 7.01859 19.4328C7.01859 19.2808 7.09624 19.1539 7.22968 19.0795C8.20312 18.5589 9.00265 17.7583 9.52437 16.7881C9.59546 16.6514 9.72562 16.5737 9.87765 16.5737C10.0297 16.5737 10.1598 16.6514 10.2309 16.7881C10.7548 17.7583 11.5544 18.5589 12.5256 19.0795C12.6591 19.1539 12.7367 19.2808 12.7367 19.4328C12.7367 19.5848 12.6591 19.715 12.5256 19.7894C11.5555 20.31 10.7548 21.1106 10.2309 22.0808C10.1598 22.2142 10.0297 22.2951 9.87765 22.2951C9.72671 22.2951 9.59655 22.2142 9.52437 22.0808Z" fill="#0593FC"/>
<path fill-rule="evenodd" clip-rule="evenodd" d="M4.82124 35.5405C4.30062 34.5703 3.4978 33.7697 2.52655 33.2458C2.39312 33.1747 2.31546 33.0445 2.31546 32.8925C2.31546 32.7405 2.39312 32.6103 2.52655 32.5392C3.49671 32.0186 4.29952 31.218 4.82124 30.2445C4.89234 30.1111 5.02249 30.0334 5.17452 30.0334C5.32655 30.0334 5.45671 30.1111 5.5278 30.2445C6.04843 31.218 6.85124 32.0175 7.82249 32.5392C7.95593 32.6103 8.03359 32.7405 8.03359 32.8925C8.03359 33.0445 7.95593 33.1747 7.82249 33.2458C6.85233 33.7697 6.04952 34.5692 5.5278 35.5405C5.45671 35.6739 5.32655 35.7516 5.17452 35.7516C5.02249 35.7505 4.89234 35.6739 4.82124 35.5405Z" fill="#0593FC"/>
<path d="M27.0977 36.0238C27.0977 35.5251 27.5012 35.1182 28 35.1182C28.4987 35.1182 28.9023 35.524 28.9023 36.0238C28.9023 36.5226 28.4987 36.9262 28 36.9262C27.5012 36.9262 27.0977 36.5226 27.0977 36.0238ZM27.0977 33.6482C27.0977 33.1494 27.5012 32.7458 28 32.7458C28.4987 32.7458 28.9023 33.1494 28.9023 33.6482C28.9023 34.1469 28.4987 34.5538 28 34.5538C27.5012 34.5538 27.0977 34.148 27.0977 33.6482Z" fill="#FF4646"/>
<path d="M17.232 36.9786C16.7333 36.9786 16.3297 36.5728 16.3297 36.0763C16.3297 35.5775 16.7333 35.1707 17.232 35.1707H20.7451C21.2439 35.1707 21.6508 35.5764 21.6508 36.0763C21.6508 36.5728 21.245 36.9786 20.7451 36.9786H17.232Z" fill="#2F5274"/>
<path fill-rule="evenodd" clip-rule="evenodd" d="M19.6973 39.6506C19.2008 39.6506 18.795 40.0542 18.795 40.553V48.7692H20.603V40.553C20.603 40.0542 20.1961 39.6506 19.6973 39.6506Z" fill="#B7BBC2"/>
<path fill-rule="evenodd" clip-rule="evenodd" d="M25.6408 39.7471C25.3148 42.3513 25.2251 45.0113 23.7212 46.4813L18.795 47.8025V45.2541H10.7647V52.1742C10.7647 53.5141 11.3936 54.6636 12.5223 55.3866C13.6478 56.1085 14.9559 56.1992 16.1711 55.6381L25.7819 51.2074C27.1644 50.5686 27.9989 49.266 27.9989 47.7446V38.8524C28 38.1666 25.9536 37.2664 25.6408 39.7471Z" fill="#FBBD80"/>
<path fill-rule="evenodd" clip-rule="evenodd" d="M30.3592 39.7471C30.6852 42.3513 30.7748 45.0113 32.2788 46.4813L37.205 47.8025V45.2541H45.2353V52.1742C45.2353 53.5141 44.6064 54.6636 43.4777 55.3866C42.3522 56.1085 41.0441 56.1992 39.8289 55.6381L30.2181 51.2074C28.8356 50.5686 28.0011 49.266 28.0011 47.7446V38.8524C28 38.1666 30.0464 37.2664 30.3592 39.7471Z" fill="#FBBD80"/>
</g>
<defs>
<clipPath id="clip0_179_548">
<rect width="56" height="56" fill="white"/>
</clipPath>
</defs>
</svg>
