<svg width="52" height="52" viewBox="0 0 52 52" fill="none" xmlns="http://www.w3.org/2000/svg">
<path d="M19.9546 39.6977L8.73813 43.7816L8.37474 42.8178C7.85342 41.3961 6.96089 40.1243 5.79181 39.1369L4.63856 38.1495C2.76656 36.5539 1.64481 34.2869 1.51846 31.862L1.72382 14.0894C1.64481 12.6359 2.87706 11.4195 4.37785 11.4669C5.04928 11.4907 5.6417 11.7592 6.07618 12.1936C6.50274 12.6202 6.77128 13.2047 6.7792 13.8524L7.60074 25.1716C7.79817 24.6423 8.22474 24.1921 8.80923 23.9789C9.04617 23.892 9.29104 23.8525 9.52809 23.8525C10.3416 23.8525 11.1079 24.3343 11.4001 25.1242L12.8772 29.1132C13.4933 30.7562 14.5676 32.1938 15.9894 33.2601C17.4112 34.3264 18.4933 35.764 19.1016 37.4149L19.9546 39.6977Z" fill="#F9FAFB"/>
<path d="M22.002 46.1928C23.1303 45.8192 23.7154 44.5767 23.2845 43.4691L22.2899 40.9122C21.9175 39.9092 20.8258 39.3837 19.8515 39.7385L8.93049 43.7152C7.95621 44.07 7.4682 45.1707 7.84063 46.1738L8.69974 48.4877C9.08873 49.5355 10.2375 50.0873 11.2986 49.7361L22.002 46.1928Z" fill="#FFD7B3"/>
<path d="M22.8614 45.6377C22.6323 45.8826 22.3401 46.08 22.0004 46.1906L11.2974 49.7372C10.2389 50.0847 9.08568 49.5318 8.69862 48.4892L8.2879 47.3834L7.83768 46.1748C7.46637 45.1716 7.9561 44.0736 8.92775 43.7182L19.8519 39.7371C20.8236 39.3818 21.9215 39.9109 22.2927 40.9141L23.288 43.4655C23.5881 44.2395 23.3907 45.0768 22.8614 45.6377Z" fill="#3773A6"/>
<path opacity="0.4" d="M22.8614 45.6379C22.6323 45.8827 22.3401 46.0802 22.0004 46.1908L11.2974 49.7373C10.2389 50.0849 9.08568 49.532 8.69863 48.4893L8.28791 47.3835C8.46961 47.2018 8.68289 47.0676 8.92775 46.9806L19.8519 42.9996C20.8236 42.6442 21.9215 43.1734 22.2927 44.1766L22.8614 45.6379Z" fill="white"/>
<path d="M30.0002 46.1928C28.872 45.8192 28.2869 44.5767 28.7177 43.4691L29.7123 40.9122C30.0847 39.9092 31.1764 39.3837 32.1507 39.7385L43.0717 43.7152C44.046 44.07 44.534 45.1707 44.1616 46.1738L43.3025 48.4877C42.9135 49.5355 41.7647 50.0873 40.7036 49.7361L30.0002 46.1928Z" fill="#FFD7B3"/>
<path d="M44.1649 46.1748L43.3038 48.4892C42.9168 49.5318 41.7635 50.0848 40.705 49.7372L40.1047 49.5397L30.0021 46.1906C28.8725 45.8193 28.288 44.5792 28.7146 43.4655L29.7099 40.9141C29.7335 40.8589 29.7494 40.8035 29.781 40.7561C30.1996 39.8557 31.2344 39.3975 32.1506 39.7371L43.0749 43.7182C44.0463 44.0737 44.5361 45.1716 44.1649 46.1748Z" fill="#3773A6"/>
<path opacity="0.4" d="M41.0922 46.941L40.2312 49.2554C40.1917 49.358 40.1522 49.4528 40.1048 49.5397L30.0021 46.1906C28.8725 45.8193 28.288 44.5792 28.7146 43.4655L29.7099 40.9141C29.7335 40.8589 29.7494 40.8035 29.781 40.7561L40.0022 44.4764C40.9737 44.8319 41.4634 45.9378 41.0922 46.941Z" fill="white"/>
<path d="M50.484 31.862C50.3576 34.287 49.236 36.554 47.3639 38.1495L46.2106 39.1369C45.0415 40.1243 44.149 41.396 43.6277 42.8178L43.2643 43.7816L32.0478 39.6977L32.901 37.4149C33.5092 35.764 34.5835 34.3265 36.0131 33.2601C37.4349 32.1937 38.5093 30.7561 39.1253 29.1132L40.6025 25.1242C40.8948 24.3344 41.653 23.8525 42.4745 23.8525C42.7114 23.8525 42.9563 23.892 43.1933 23.9789C43.7778 24.1922 44.2044 24.6424 44.4018 25.1716L45.2233 13.8524C45.2312 13.2047 45.4998 12.6202 45.9264 12.1936C46.3608 11.7592 46.9611 11.4906 47.6247 11.4669C49.1255 11.4195 50.3577 12.6359 50.2787 14.0894L50.484 31.862Z" fill="#F9FAFB"/>
<path d="M40.2043 16.3517C40.2043 19.6043 39.1171 22.6073 37.2725 24.9955C36.9517 25.4054 36.6131 25.8064 36.2567 26.1896C35.9715 26.4748 35.6775 26.76 35.3656 27.0273C32.8705 29.2194 29.5912 30.5739 26 30.5739C22.4088 30.5739 19.1474 29.2195 16.6344 27.0273C16.3315 26.76 16.0374 26.4837 15.7522 26.1896C15.3868 25.8153 15.0483 25.4144 14.7275 24.9955C12.8917 22.6073 11.7958 19.6043 11.7958 16.3517C11.7958 13.117 12.8918 10.1229 14.7275 7.72573C15.0483 7.30689 15.3869 6.90582 15.7522 6.53166C16.0285 6.23754 16.3315 5.96129 16.6344 5.69398C19.1474 3.48408 22.4089 2.15625 26 2.15625C29.5912 2.15625 32.8705 3.48398 35.3656 5.69398C35.6685 5.95235 35.9626 6.23754 36.2478 6.53166C36.6131 6.90592 36.9606 7.30689 37.2725 7.72573C39.1172 10.1228 40.2043 13.117 40.2043 16.3517Z" fill="#FFD7B3"/>
<path d="M40.2075 16.3485C40.2075 19.6029 39.1174 22.6045 37.2691 24.9979C36.9531 25.4086 36.6135 25.8036 36.258 26.1906C35.9736 26.475 35.6814 26.7594 35.3654 27.0279C34.8282 27.5018 34.2516 27.9363 33.6355 28.3234C31.4317 29.7372 28.8171 30.5745 25.9973 30.5745C22.4112 30.5745 19.1489 29.2159 16.6371 27.0279C16.329 26.7593 16.0367 26.4829 15.7523 26.1906C15.389 25.8115 15.0493 25.4165 14.7254 24.9979C12.8929 22.6045 11.795 19.6029 11.795 16.3485C11.795 13.5602 12.6085 10.9535 14.0067 8.74972C14.2357 8.39426 14.4727 8.05463 14.7254 7.72283C15.0493 7.30419 15.389 6.90921 15.7523 6.53008C16.0288 6.23778 16.3289 5.96133 16.6371 5.69279C19.1489 3.48107 22.4112 2.15405 25.9973 2.15405C29.5913 2.15405 32.8694 3.48107 35.3654 5.69279C35.6655 5.95351 35.9657 6.23778 36.2501 6.53008C36.6135 6.90921 36.961 7.30419 37.2691 7.72283C39.1174 10.1242 40.2075 13.1179 40.2075 16.3485Z" fill="#0AADFA"/>
<path opacity="0.4" d="M35.8551 20.7008C35.8551 23.505 35.0416 26.1274 33.6356 28.3233C31.4318 29.7371 28.8172 30.5744 25.9974 30.5744C22.4113 30.5744 19.149 29.2158 16.6372 27.0279C16.3291 26.7592 16.0368 26.4829 15.7524 26.1906C15.3891 25.8115 15.0494 25.4165 14.7256 24.9978C12.893 22.6044 11.7951 19.6028 11.7951 16.3485C11.7951 13.5602 12.6086 10.9535 14.0068 8.74966C16.2185 7.31997 18.833 6.50635 21.6529 6.50635C25.239 6.50635 28.5171 7.83336 31.0131 10.0451C31.3212 10.3058 31.6135 10.5901 31.8978 10.8824C32.2612 11.2536 32.6088 11.6565 32.9247 12.0751C34.7651 14.4765 35.8551 17.4701 35.8551 20.7008Z" fill="white"/>
<path d="M8.26404 23.3705L7.56752 13.8431C7.5467 12.1253 6.1551 10.736 4.39867 10.6805C2.46624 10.5912 0.832205 12.2409 0.93133 14.08L0.726173 31.9011C0.863486 34.5308 2.10153 37.027 4.12415 38.7495L5.28277 39.7354C7.16442 41.3367 7.71205 43.3464 7.78995 43.5007C7.01848 44.2074 6.69571 45.3585 7.10013 46.4495L7.95945 48.762C8.49723 50.2108 10.068 50.9741 11.5471 50.4861L22.2508 46.9423C23.7937 46.4318 24.6217 44.7272 24.0203 43.1826L23.0306 40.6379C22.6204 39.5321 21.5772 38.8507 20.4804 38.8486L19.8456 37.1381C19.1807 35.3485 18.0113 33.7896 16.4654 32.6302C15.1633 31.6552 14.179 30.343 13.619 28.8373L12.1379 24.8469C11.6004 23.3994 9.86842 22.5881 8.26404 23.3705ZM20.1217 40.4804C20.694 40.2733 21.3305 40.5971 21.5541 41.1986L22.5484 43.7549C22.815 44.4431 22.4529 45.2113 21.7539 45.4427L11.051 48.9865C10.3884 49.2048 9.68185 48.8654 9.44034 48.2121L8.58102 45.8995C8.35463 45.2885 8.65455 44.6567 9.20045 44.457L20.1217 40.4804ZM10.6569 25.3969L12.1379 29.3873C12.8037 31.1784 13.9723 32.7374 15.5181 33.8944C16.821 34.8709 17.8053 36.1831 18.3645 37.6881L18.9372 39.231L9.20542 42.7744C9.12753 42.6234 8.5477 40.4408 6.30703 38.532L5.14841 37.5461C3.45526 36.1044 2.41851 34.017 2.30506 31.8694L2.51022 14.0483C2.46035 13.1141 3.21496 12.2747 4.3484 12.2586C5.25708 12.288 5.97756 12.9922 5.98985 13.9102L6.80489 25.0756C6.6364 25.6361 6.64331 26.2287 6.84917 26.7829L9.53824 34.0261C9.69018 34.4349 10.1446 34.6456 10.5534 34.492C10.963 34.3401 11.1713 33.8857 11.0192 33.4769L8.33016 26.2328C8.11464 25.6549 8.41862 24.9633 9.08304 24.7217C9.72349 24.4875 10.4316 24.7906 10.6569 25.3969Z" fill="#252A50"/>
<path d="M50.4536 28.4102C50.0138 28.4102 49.6588 28.7694 49.6639 29.2091L49.6941 31.8225C49.5835 34.0184 48.5488 36.1037 46.8505 37.5492L45.6972 38.5287C43.4934 40.4086 42.8694 42.6362 42.7983 42.7704L33.0668 39.2317L33.6356 37.6914C34.1964 36.1827 35.1838 34.8715 36.4871 33.892C39.8204 31.3959 40.1522 28.0389 41.345 25.4007C41.574 24.7924 42.277 24.4923 42.9169 24.7215C43.5883 24.9663 43.8885 25.6535 43.6751 26.2302L40.9816 33.4735C40.8316 33.8842 41.0368 34.3424 41.4477 34.4925C41.8585 34.6426 42.3087 34.4372 42.4666 34.0264L45.1523 26.7831C45.3576 26.2302 45.3655 25.6378 45.1997 25.0769L46.0133 13.8605C46.0211 12.9916 46.7479 12.2886 47.6563 12.257C48.7306 12.2728 49.5441 13.039 49.4889 14.0974L49.5906 23.1112C49.5955 23.5438 49.9476 23.8921 50.3804 23.8921C50.82 23.8921 51.1752 23.533 51.1702 23.0933L51.0687 14.129C51.1714 12.2016 49.5126 10.5903 47.601 10.6772C45.8474 10.7324 44.4573 12.1227 44.4336 13.7973L43.7385 23.3708C42.135 22.5887 40.4051 23.3944 39.8681 24.8479C38.5963 27.7073 38.462 30.4403 35.5395 32.6283C33.9912 33.7895 32.8223 35.3455 32.1587 37.1386L31.5188 38.8527C30.4287 38.8527 29.3861 39.532 28.9754 40.6299L27.9801 43.1813C27.3797 44.7294 28.2091 46.4277 29.7494 46.9412L40.4523 50.4878C41.9137 50.9696 43.5014 50.227 44.0463 48.7658L44.8995 46.4514C45.3102 45.3535 44.9785 44.2002 44.2123 43.4972C44.3703 43.1892 44.6941 41.4594 46.7162 39.7373L47.8774 38.7499C49.8995 37.0279 51.1397 34.5319 51.2739 31.8541L51.2434 29.1909C51.2384 28.7584 50.8863 28.4102 50.4536 28.4102ZM43.4223 45.8985L42.5613 48.2129C42.3164 48.8684 41.6134 49.2003 40.9499 48.987L30.2468 45.4403C29.5517 45.2113 29.1884 44.445 29.457 43.7578L30.4523 41.1906C30.6734 40.5903 31.3132 40.2743 31.882 40.4797L42.7983 44.4607C43.3512 44.6584 43.6435 45.2903 43.4223 45.8985Z" fill="#252A50"/>
<path d="M26.0035 1.36631C26.0029 1.36631 26.0024 1.36621 26.0019 1.36621C26.0017 1.36621 26.0016 1.36621 26.0014 1.36621C26.0011 1.36621 26.0007 1.36621 26.0004 1.36621C17.8511 1.36621 11.0055 7.97336 11.0055 16.3519C11.0055 24.8486 17.9762 31.3637 26.0004 31.3637C34.0233 31.3637 40.9798 24.8788 40.9935 16.3768C40.9936 16.3711 40.9968 16.3663 40.9968 16.3604C40.9968 16.356 40.9944 16.3525 40.9944 16.3481C40.9924 7.97681 34.182 1.36804 26.0035 1.36631ZM21.5824 3.70834C20.5947 4.86291 19.7595 6.39701 19.1306 8.21254C18.3097 7.72148 17.5732 7.16543 16.8851 6.53198C16.9769 6.4482 19.7564 4.34829 21.5824 3.70834ZM15.7958 7.66075C16.6122 8.41577 17.4024 9.04403 18.6674 9.75619C18.2073 11.5189 17.93 13.4801 17.8733 15.5703H12.6169C12.7838 12.6663 13.8658 9.93453 15.7958 7.66075ZM15.7865 25.0489C13.807 22.7131 12.7815 19.9808 12.6174 17.1501H17.8733C17.9299 19.2393 18.2069 21.1996 18.6667 22.9618C17.502 23.6159 16.5965 24.2952 15.7865 25.0489ZM16.8874 26.1782C17.5628 25.5574 18.2968 25.0018 19.1297 24.5051C19.7586 26.3219 20.5942 27.8573 21.5824 29.0126C19.8453 28.3986 18.3129 27.4889 16.8874 26.1782ZM25.2121 29.6629C23.3015 29.1702 21.6143 26.9337 20.564 23.7745C22.0297 23.122 23.6013 22.7356 25.2121 22.6397V29.6629ZM25.2121 21.0599C23.4545 21.1533 21.7381 21.5563 20.1304 22.2432C19.7448 20.681 19.5071 18.9589 19.4525 17.1501H25.2121V21.0599ZM25.2121 15.5703H19.4525C19.5071 13.7612 19.7451 12.0387 20.1308 10.4762C21.7371 11.1634 23.4533 11.567 25.2121 11.6606V15.5703ZM25.2121 10.0807C23.6002 9.98481 22.0288 9.59775 20.5645 8.9447C21.6149 5.78662 23.3019 3.55092 25.2121 3.05824V10.0807ZM35.1157 6.53188C34.4369 7.15304 33.7452 7.69386 32.8737 8.21609C32.2442 6.39701 31.4074 4.86027 30.4177 3.70448C32.2003 4.32747 33.7355 5.26113 35.1157 6.53188ZM26.7918 3.05834C28.7023 3.55133 30.3895 5.78865 31.4398 8.94866C29.979 9.59938 28.4077 9.98511 26.7918 10.0808V3.05834ZM26.7918 11.6606C28.5548 11.5673 30.2709 11.1652 31.8733 10.4803C32.2584 12.0417 32.496 13.7628 32.5506 15.5703H26.7917L26.7918 11.6606ZM26.7918 17.1501H32.5507C32.4961 18.9572 32.2587 20.6778 31.8738 22.2389C30.2703 21.5548 28.5539 21.1531 26.7918 21.0599V17.1501ZM26.7918 29.6628V22.6396C28.4064 22.7352 29.9777 23.1203 31.4403 23.7709C30.39 26.9318 28.7026 29.1699 26.7918 29.6628ZM30.417 29.0173C31.4074 27.8608 32.2448 26.323 32.8746 24.5022C33.6913 24.9906 34.4519 25.5645 35.1157 26.1783C33.7541 27.4309 32.2546 28.3704 30.417 29.0173ZM36.2131 25.0448C35.3764 24.2706 34.4791 23.6001 33.3375 22.9579C33.7965 21.1968 34.073 19.2379 34.1297 17.1501H39.3826C39.2164 20.0351 38.1871 22.7031 36.2131 25.0448ZM34.1298 15.5703C34.0731 13.4817 33.7963 11.5219 33.3369 9.76015C34.6082 9.04362 35.3863 8.41861 36.2077 7.65841C38.0933 9.86892 39.214 12.6071 39.3832 15.5703H34.1298Z" fill="#252A50"/>
</svg>
