<svg width="15" height="16" viewBox="0 0 15 16" fill="none" xmlns="http://www.w3.org/2000/svg">
<path fill-rule="evenodd" clip-rule="evenodd" d="M5.28973 2.11847L10.722 7.56047C10.7709 7.60719 10.8097 7.66344 10.836 7.72575C10.8623 7.78805 10.8756 7.85509 10.875 7.92272C10.8753 7.99186 10.8619 8.06039 10.8357 8.12436C10.8094 8.18832 10.7708 8.24647 10.722 8.29547C8.75698 10.2125 6.86323 12.0627 5.04073 13.8462C4.94698 13.934 4.57198 14.1522 4.28248 13.8282C3.99298 13.5035 4.16848 13.2207 4.28248 13.1037L9.58348 7.92272L4.52323 2.85347C4.33873 2.59897 4.35373 2.36422 4.56823 2.14922C4.78323 1.93422 5.02373 1.92347 5.28973 2.11847Z" fill="#611BA7"/>
</svg>
