<svg width="31" height="31" viewBox="0 0 31 31" fill="none" xmlns="http://www.w3.org/2000/svg">
<path d="M6.78125 3.875H18.1641C18.8325 3.875 19.375 4.4175 19.375 5.08594V13.5625C19.375 13.8194 19.4771 14.0658 19.6587 14.2475C19.8404 14.4292 20.0868 14.5312 20.3438 14.5312H23.9766C24.645 14.5312 25.1875 15.0737 25.1875 15.7422V27.125H22.2812V23.7344C22.2812 23.349 22.1282 22.9794 21.8556 22.7069C21.5831 22.4343 21.2135 22.2812 20.8281 22.2812H10.1719C9.78648 22.2812 9.41687 22.4343 9.14436 22.7069C8.87185 22.9794 8.71875 23.349 8.71875 23.7344V27.125H5.8125V4.84375C5.8125 4.58682 5.91456 4.34042 6.09624 4.15874C6.27792 3.97706 6.52432 3.875 6.78125 3.875ZM20.3438 27.125H16.4688V24.2188H20.3438V27.125ZM14.5312 27.125H10.6562V24.2188H14.5312V27.125ZM26.1562 29.0625C26.4132 29.0625 26.6596 28.9604 26.8413 28.7788C27.0229 28.5971 27.125 28.3507 27.125 28.0938V15.7422C27.125 15.3287 27.0436 14.9193 26.8853 14.5373C26.7271 14.1553 26.4952 13.8083 26.2028 13.5159C25.9105 13.2235 25.5634 12.9916 25.1814 12.8334C24.7994 12.6752 24.39 12.5938 23.9766 12.5938H21.3125V5.08594C21.3125 4.67248 21.2311 4.26307 21.0728 3.88108C20.9146 3.4991 20.6827 3.15202 20.3903 2.85966C20.098 2.5673 19.7509 2.33538 19.3689 2.17716C18.9869 2.01894 18.5775 1.9375 18.1641 1.9375H6.78125C6.01046 1.9375 5.27125 2.24369 4.72622 2.78872C4.18119 3.33375 3.875 4.07296 3.875 4.84375V28.0938C3.875 28.3507 3.97706 28.5971 4.15874 28.7788C4.34042 28.9604 4.58682 29.0625 4.84375 29.0625H26.1562ZM10.1719 9.6875C10.5573 9.6875 10.9269 9.5344 11.1994 9.26189C11.4719 8.98938 11.625 8.61977 11.625 8.23438C11.625 7.84898 11.4719 7.47937 11.1994 7.20686C10.9269 6.93435 10.5573 6.78125 10.1719 6.78125C9.78648 6.78125 9.41687 6.93435 9.14436 7.20686C8.87185 7.47937 8.71875 7.84898 8.71875 8.23438C8.71875 8.61977 8.87185 8.98938 9.14436 9.26189C9.41687 9.5344 9.78648 9.6875 10.1719 9.6875ZM10.1719 14.5312C10.5573 14.5312 10.9269 14.3782 11.1994 14.1056C11.4719 13.8331 11.625 13.4635 11.625 13.0781C11.625 12.6927 11.4719 12.3231 11.1994 12.0506C10.9269 11.7781 10.5573 11.625 10.1719 11.625C9.78648 11.625 9.41687 11.7781 9.14436 12.0506C8.87185 12.3231 8.71875 12.6927 8.71875 13.0781C8.71875 13.4635 8.87185 13.8331 9.14436 14.1056C9.41687 14.3782 9.78648 14.5312 10.1719 14.5312ZM11.625 17.9219C11.625 18.3073 11.4719 18.6769 11.1994 18.9494C10.9269 19.2219 10.5573 19.375 10.1719 19.375C9.78648 19.375 9.41687 19.2219 9.14436 18.9494C8.87185 18.6769 8.71875 18.3073 8.71875 17.9219C8.71875 17.5365 8.87185 17.1669 9.14436 16.8944C9.41687 16.6218 9.78648 16.4688 10.1719 16.4688C10.5573 16.4688 10.9269 16.6218 11.1994 16.8944C11.4719 17.1669 11.625 17.5365 11.625 17.9219ZM15.0156 9.6875C15.401 9.6875 15.7706 9.5344 16.0431 9.26189C16.3157 8.98938 16.4688 8.61977 16.4688 8.23438C16.4688 7.84898 16.3157 7.47937 16.0431 7.20686C15.7706 6.93435 15.401 6.78125 15.0156 6.78125C14.6302 6.78125 14.2606 6.93435 13.9881 7.20686C13.7156 7.47937 13.5625 7.84898 13.5625 8.23438C13.5625 8.61977 13.7156 8.98938 13.9881 9.26189C14.2606 9.5344 14.6302 9.6875 15.0156 9.6875ZM16.4688 13.0781C16.4688 13.4635 16.3157 13.8331 16.0431 14.1056C15.7706 14.3782 15.401 14.5312 15.0156 14.5312C14.6302 14.5312 14.2606 14.3782 13.9881 14.1056C13.7156 13.8331 13.5625 13.4635 13.5625 13.0781C13.5625 12.6927 13.7156 12.3231 13.9881 12.0506C14.2606 11.7781 14.6302 11.625 15.0156 11.625C15.401 11.625 15.7706 11.7781 16.0431 12.0506C16.3157 12.3231 16.4688 12.6927 16.4688 13.0781ZM15.0156 19.375C15.401 19.375 15.7706 19.2219 16.0431 18.9494C16.3157 18.6769 16.4688 18.3073 16.4688 17.9219C16.4688 17.5365 16.3157 17.1669 16.0431 16.8944C15.7706 16.6218 15.401 16.4688 15.0156 16.4688C14.6302 16.4688 14.2606 16.6218 13.9881 16.8944C13.7156 17.1669 13.5625 17.5365 13.5625 17.9219C13.5625 18.3073 13.7156 18.6769 13.9881 18.9494C14.2606 19.2219 14.6302 19.375 15.0156 19.375ZM21.3125 17.9219C21.3125 18.3073 21.1594 18.6769 20.8869 18.9494C20.6144 19.2219 20.2448 19.375 19.8594 19.375C19.474 19.375 19.1044 19.2219 18.8319 18.9494C18.5593 18.6769 18.4062 18.3073 18.4062 17.9219C18.4062 17.5365 18.5593 17.1669 18.8319 16.8944C19.1044 16.6218 19.474 16.4688 19.8594 16.4688C20.2448 16.4688 20.6144 16.6218 20.8869 16.8944C21.1594 17.1669 21.3125 17.5365 21.3125 17.9219Z" fill="black"/>
</svg>
