<svg width="45" height="45" viewBox="0 0 45 45" fill="none" xmlns="http://www.w3.org/2000/svg">
<path d="M26.7188 33.75V31.6407C26.7188 29.0918 29.4909 26.681 31.2891 24.961C33.8239 22.5378 35.1563 19.2824 35.1563 15.4688C35.1563 8.43755 29.555 2.81255 22.5 2.81255C20.8367 2.80791 19.1888 3.13211 17.6512 3.7665C16.1136 4.40089 14.7165 5.33297 13.5404 6.50913C12.3642 7.6853 11.4321 9.08236 10.7977 10.62C10.1634 12.1576 9.83916 13.8055 9.8438 15.4688C9.8438 19.1461 11.2333 22.6222 13.711 24.961C15.4996 26.6494 18.2813 29.0655 18.2813 31.6407V33.75M19.6875 42.1875H25.3125M18.2813 37.9688H26.7188M22.5 33.75V22.5" stroke="url(#paint0_linear_173_15421)" stroke-width="2.8125" stroke-linecap="round" stroke-linejoin="round"/>
<path d="M25.8398 21.0938C25.8398 21.0938 23.9493 22.5 22.5 22.5C21.0507 22.5 19.1602 21.0938 19.1602 21.0938" stroke="url(#paint1_linear_173_15421)" stroke-width="2.8125" stroke-linecap="round" stroke-linejoin="round"/>
<defs>
<linearGradient id="paint0_linear_173_15421" x1="35.1563" y1="22.5" x2="9.84375" y2="22.5" gradientUnits="userSpaceOnUse">
<stop stop-color="#26CFCE"/>
<stop offset="1" stop-color="#1B2C82"/>
</linearGradient>
<linearGradient id="paint1_linear_173_15421" x1="25.8398" y1="21.7969" x2="19.1602" y2="21.7969" gradientUnits="userSpaceOnUse">
<stop stop-color="#26CFCE"/>
<stop offset="1" stop-color="#1B2C82"/>
</linearGradient>
</defs>
</svg>
