<svg width="21" height="26" viewBox="0 0 21 26" fill="none" xmlns="http://www.w3.org/2000/svg">
<path d="M2.31486 7.41191C1.9466 4.98641 3.65679 2.80771 6.2693 2.00949C6.73293 1.86871 7.23274 1.9095 7.6674 2.12361C8.10205 2.33771 8.43902 2.7091 8.60996 3.16247L9.44867 5.39902C9.58368 5.75882 9.6081 6.15076 9.51878 6.52453C9.42946 6.89831 9.23048 7.23686 8.94737 7.49674L6.45247 9.78149C6.32934 9.89423 6.23759 10.037 6.18622 10.1959C6.13484 10.3547 6.12561 10.5242 6.1594 10.6877L6.18254 10.7879L6.24231 11.0386C6.55336 12.2562 7.02608 13.4266 7.64786 14.5187C8.32678 15.6783 9.16824 16.7347 10.1466 17.6557L10.2237 17.7251C10.3483 17.8356 10.4994 17.912 10.6622 17.9468C10.8251 17.9817 10.9942 17.9737 11.1531 17.9237L14.3787 16.9076C14.7453 16.7925 15.1379 16.7896 15.5062 16.8991C15.8744 17.0087 16.2016 17.2258 16.4456 17.5226L17.9726 19.3755C18.6089 20.1467 18.5317 21.2804 17.801 21.961C15.8016 23.8255 13.0522 24.2072 11.1396 22.6706C8.79413 20.7804 6.81756 18.4738 5.30913 15.8664C3.78595 13.2625 2.77125 10.3939 2.31486 7.41191ZM8.18001 10.8149L10.2469 8.91772C10.8134 8.39818 11.2117 7.72117 11.3907 6.97361C11.5697 6.22605 11.5212 5.44206 11.2514 4.72227L10.4146 2.48572C10.0713 1.57331 9.39361 0.825785 8.51911 0.394981C7.64461 -0.0358227 6.63892 -0.117596 5.70631 0.166271C2.46139 1.15922 -0.143414 4.06866 0.40801 7.70305C0.793622 10.2404 1.68246 13.4679 3.64329 16.8382C5.27079 19.6495 7.4029 22.1366 9.93261 24.1744C12.8016 26.4785 16.6307 25.6918 19.1179 23.3743C19.8295 22.7117 20.2615 21.8024 20.3257 20.8321C20.3898 19.8619 20.0813 18.9037 19.463 18.1531L17.936 16.2983C17.4475 15.7054 16.793 15.2719 16.0565 15.0534C15.32 14.835 14.535 14.8415 13.8022 15.0721L11.1242 15.9146C10.4326 15.2018 9.82696 14.4104 9.31949 13.5566C8.82979 12.6933 8.44776 11.7732 8.18194 10.8169" fill="#752776"/>
</svg>
