<svg width="22" height="23" viewBox="0 0 22 23" fill="none" xmlns="http://www.w3.org/2000/svg">
<path d="M20.4383 10.662L11.2483 19.852C10.1225 20.9778 8.59552 21.6103 7.00334 21.6103C5.41115 21.6103 3.88418 20.9778 2.75834 19.852C1.63249 18.7261 1 17.1992 1 15.607C1 14.0148 1.63249 12.4878 2.75834 11.362L11.9483 2.17198C12.6989 1.42142 13.7169 0.999756 14.7783 0.999756C15.8398 0.999756 16.8578 1.42142 17.6083 2.17198C18.3589 2.92254 18.7806 3.94052 18.7806 5.00198C18.7806 6.06344 18.3589 7.08142 17.6083 7.83198L8.40834 17.022C8.22252 17.2078 8.00192 17.3552 7.75913 17.4558C7.51634 17.5563 7.25613 17.6081 6.99334 17.6081C6.73055 17.6081 6.47033 17.5563 6.22754 17.4558C5.98476 17.3552 5.76416 17.2078 5.57834 17.022C5.39252 16.8362 5.24512 16.6156 5.14455 16.3728C5.04398 16.13 4.99222 15.8698 4.99222 15.607C4.99222 15.3442 5.04398 15.084 5.14455 14.8412C5.24512 14.5984 5.39252 14.3778 5.57834 14.192L14.0683 5.71198" stroke="#9A9A9A" stroke-width="1.5" stroke-linecap="round" stroke-linejoin="round"/>
</svg>
