<svg width="31" height="31" viewBox="0 0 31 31" fill="none" xmlns="http://www.w3.org/2000/svg">
<path d="M4.25727 26.611L12.4774 18.3908M22.8288 14.7354L20.3682 22.1173C20.329 22.2356 20.2617 22.3427 20.1722 22.4295C20.0827 22.5163 19.9736 22.5803 19.8541 22.6159L4.77006 27.0993C4.63416 27.1396 4.4898 27.1419 4.35268 27.1059C4.21556 27.07 4.09094 26.9971 3.99238 26.8952C3.89382 26.7933 3.82509 26.6663 3.79368 26.5281C3.76227 26.3898 3.76937 26.2456 3.81422 26.1111L8.71222 11.4197C8.74733 11.3142 8.80472 11.2175 8.88049 11.1362C8.95627 11.0548 9.04866 10.9907 9.15139 10.9483L16.1096 8.08335C16.2511 8.02492 16.4067 8.00969 16.5568 8.03957C16.7069 8.06946 16.8448 8.14312 16.9531 8.25126L22.6416 13.9423C22.7433 14.0441 22.8148 14.1722 22.8479 14.3123C22.8809 14.4524 22.8744 14.5989 22.8288 14.7354Z" stroke="black" stroke-width="1.9375" stroke-linecap="round" stroke-linejoin="round"/>
<path d="M22.9809 14.2807L26.6337 10.6266C27.118 10.1421 27.3901 9.48518 27.3901 8.80017C27.3901 8.11517 27.118 7.4582 26.6337 6.97376L23.8954 4.23284C23.6555 3.99285 23.3706 3.80246 23.0571 3.67257C22.7436 3.54268 22.4076 3.47583 22.0683 3.47583C21.729 3.47583 21.393 3.54268 21.0795 3.67257C20.766 3.80246 20.4811 3.99285 20.2412 4.23284L16.5884 7.88697M15.2167 15.6499C15.0367 15.47 14.823 15.3273 14.5879 15.23C14.3528 15.1327 14.1008 15.0826 13.8464 15.0827C13.5919 15.0827 13.34 15.1329 13.1049 15.2303C12.8698 15.3278 12.6563 15.4706 12.4764 15.6505C12.2965 15.8305 12.1538 16.0441 12.0565 16.2792C11.9592 16.5144 11.9091 16.7663 11.9092 17.0208C11.9092 17.2753 11.9594 17.5272 12.0569 17.7623C12.1543 17.9973 12.2971 18.2109 12.477 18.3908C12.8405 18.7541 13.3334 18.9581 13.8473 18.958C14.3612 18.9579 14.854 18.7536 15.2173 18.3902C15.5806 18.0267 15.7846 17.5338 15.7845 17.0199C15.7844 16.506 15.5801 16.0132 15.2167 15.6499Z" stroke="black" stroke-width="1.9375" stroke-linecap="round" stroke-linejoin="round"/>
</svg>
