<svg width="31" height="31" viewBox="0 0 31 31" fill="none" xmlns="http://www.w3.org/2000/svg">
<path d="M16.1458 7.75L12.2708 13.5625H14.8541V17.4375L18.7291 11.625H16.1458V7.75Z" fill="black"/>
<path fill-rule="evenodd" clip-rule="evenodd" d="M24.4835 12.4472C24.2874 14.1104 23.6188 15.6826 22.557 16.9777C21.9357 17.7372 20.3566 19.9046 20.0208 21.3125H10.9791C10.6433 19.9033 9.06228 17.7353 8.44099 16.9758C7.3796 15.6801 6.71171 14.1074 6.5164 12.444C6.32392 10.784 6.61361 9.10375 7.35082 7.60409C8.09455 6.0927 9.25137 4.82302 10.6872 3.94221C12.135 3.05194 13.8016 2.58149 15.5012 2.58338C17.2049 2.58338 18.8738 3.05484 20.3153 3.94415C21.7507 4.82532 22.9071 6.09522 23.6504 7.60667C24.3873 9.10666 24.6765 10.7872 24.4835 12.4472ZM19.1056 20.0209H11.8936C11.6185 19.386 11.251 18.7499 10.9087 18.2093C10.4581 17.499 9.96827 16.8145 9.44138 16.1588C8.53612 15.0541 7.9664 13.7132 7.79967 12.2948C7.63565 10.8812 7.88229 9.45021 8.51009 8.17307C9.14653 6.88055 10.1363 5.79492 11.3647 5.04207C12.6087 4.27723 14.0409 3.87319 15.5012 3.87505C16.9673 3.87505 18.401 4.28128 19.6378 5.044C20.8657 5.79705 21.855 6.88266 22.4911 8.175C23.1186 9.45247 23.3648 10.8837 23.2002 12.2974C23.0329 13.7155 22.4627 15.0559 21.5572 16.1601C21.0295 16.8149 20.5398 17.4996 20.0905 18.2106C19.7482 18.7512 19.3808 19.386 19.1056 20.0209Z" fill="black"/>
<path d="M10.979 23.2501C10.979 23.0788 11.047 22.9145 11.1682 22.7934C11.2893 22.6723 11.4536 22.6042 11.6248 22.6042H19.3748C19.5461 22.6042 19.7104 22.6723 19.8315 22.7934C19.9526 22.9145 20.0207 23.0788 20.0207 23.2501C20.0207 23.4214 19.9526 23.5856 19.8315 23.7068C19.7104 23.8279 19.5461 23.8959 19.3748 23.8959H11.6248C11.4536 23.8959 11.2893 23.8279 11.1682 23.7068C11.047 23.5856 10.979 23.4214 10.979 23.2501Z" fill="black"/>
<path fill-rule="evenodd" clip-rule="evenodd" d="M10.979 25.1875H20.0207V27.125C20.0207 27.4676 19.8846 27.7961 19.6423 28.0383C19.4001 28.2806 19.0716 28.4167 18.729 28.4167H12.2707C11.9281 28.4167 11.5996 28.2806 11.3573 28.0383C11.1151 27.7961 10.979 27.4676 10.979 27.125V25.1875ZM12.2707 26.4792H18.729V27.125H12.2707V26.4792Z" fill="black"/>
</svg>
