<svg width="45" height="45" viewBox="0 0 45 45" fill="none" xmlns="http://www.w3.org/2000/svg">
<path d="M31.5001 6.1875C31.5001 5.73995 31.6779 5.31072 31.9944 4.99426C32.3108 4.67779 32.74 4.5 33.1876 4.5H38.8126C39.2602 4.5 39.6894 4.67779 40.0058 4.99426C40.3223 5.31072 40.5001 5.73995 40.5001 6.1875V11.8125C40.5001 12.2601 40.3223 12.6893 40.0058 13.0057C39.6894 13.3222 39.2602 13.5 38.8126 13.5C38.365 13.5 37.9358 13.3222 37.6194 13.0057C37.3029 12.6893 37.1251 12.2601 37.1251 11.8125V10.26L27.0676 20.3175C26.7512 20.6335 26.3223 20.811 25.8751 20.811C25.4279 20.811 24.999 20.6335 24.6826 20.3175L19.1251 14.76L9.6301 24.255C9.47561 24.4208 9.28931 24.5538 9.08231 24.646C8.87531 24.7382 8.65186 24.7878 8.42528 24.7918C8.1987 24.7958 7.97363 24.7541 7.76351 24.6693C7.55338 24.5844 7.36251 24.4581 7.20227 24.2978C7.04202 24.1376 6.9157 23.9467 6.83083 23.7366C6.74595 23.5265 6.70427 23.3014 6.70827 23.0748C6.71227 22.8482 6.76186 22.6248 6.85409 22.4178C6.94633 22.2108 7.07931 22.0245 7.2451 21.87L17.9326 11.1825C18.249 10.8665 18.6779 10.689 19.1251 10.689C19.5723 10.689 20.0012 10.8665 20.3176 11.1825L25.8751 16.74L34.7401 7.875H33.1876C32.74 7.875 32.3108 7.69721 31.9944 7.38074C31.6779 7.06428 31.5001 6.63505 31.5001 6.1875ZM8.4376 31.5C8.88515 31.5 9.31438 31.6778 9.63084 31.9943C9.94731 32.3107 10.1251 32.7399 10.1251 33.1875V38.8125C10.1251 39.2601 9.94731 39.6893 9.63084 40.0057C9.31438 40.3222 8.88515 40.5 8.4376 40.5C7.99005 40.5 7.56083 40.3222 7.24436 40.0057C6.92789 39.6893 6.7501 39.2601 6.7501 38.8125V33.1875C6.7501 32.7399 6.92789 32.3107 7.24436 31.9943C7.56083 31.6778 7.99005 31.5 8.4376 31.5ZM19.1251 26.4375C19.1251 25.9899 18.9473 25.5607 18.6308 25.2443C18.3144 24.9278 17.8852 24.75 17.4376 24.75C16.99 24.75 16.5608 24.9278 16.2444 25.2443C15.9279 25.5607 15.7501 25.9899 15.7501 26.4375V38.8125C15.7501 39.2601 15.9279 39.6893 16.2444 40.0057C16.5608 40.3222 16.99 40.5 17.4376 40.5C17.8852 40.5 18.3144 40.3222 18.6308 40.0057C18.9473 39.6893 19.1251 39.2601 19.1251 38.8125V26.4375ZM26.4376 29.25C26.8852 29.25 27.3144 29.4278 27.6308 29.7443C27.9473 30.0607 28.1251 30.4899 28.1251 30.9375V38.8125C28.1251 39.2601 27.9473 39.6893 27.6308 40.0057C27.3144 40.3222 26.8852 40.5 26.4376 40.5C25.99 40.5 25.5608 40.3222 25.2444 40.0057C24.9279 39.6893 24.7501 39.2601 24.7501 38.8125V30.9375C24.7501 30.4899 24.9279 30.0607 25.2444 29.7443C25.5608 29.4278 25.99 29.25 26.4376 29.25ZM37.1251 21.9375C37.1251 21.4899 36.9473 21.0607 36.6308 20.7443C36.3144 20.4278 35.8852 20.25 35.4376 20.25C34.99 20.25 34.5608 20.4278 34.2444 20.7443C33.9279 21.0607 33.7501 21.4899 33.7501 21.9375V38.8125C33.7501 39.2601 33.9279 39.6893 34.2444 40.0057C34.5608 40.3222 34.99 40.5 35.4376 40.5C35.8852 40.5 36.3144 40.3222 36.6308 40.0057C36.9473 39.6893 37.1251 39.2601 37.1251 38.8125V21.9375Z" fill="url(#paint0_linear_173_15439)"/>
<defs>
<linearGradient id="paint0_linear_173_15439" x1="40.5001" y1="22.5" x2="6.70801" y2="22.5" gradientUnits="userSpaceOnUse">
<stop stop-color="#26CFCE"/>
<stop offset="1" stop-color="#1B2C82"/>
</linearGradient>
</defs>
</svg>
