<svg width="35" height="35" viewBox="0 0 35 35" fill="none" xmlns="http://www.w3.org/2000/svg">
<path fill-rule="evenodd" clip-rule="evenodd" d="M6.38011 4.35752C5.95682 4.16726 5.4753 4.15293 5.04144 4.31768C4.60758 4.48243 4.25693 4.81276 4.06661 5.23602L0.281363 13.6413C0.0908848 14.0641 0.0760487 14.5453 0.240114 14.9791C0.404179 15.4129 0.733727 15.7638 1.15636 15.9548L3.76386 17.129C3.97334 17.2236 4.19939 17.276 4.42911 17.2832C4.65884 17.2904 4.88773 17.2523 5.10273 17.1711C5.31772 17.0898 5.51461 16.967 5.68214 16.8097C5.84967 16.6523 5.98456 16.4635 6.07911 16.254L9.86436 7.84702C10.0548 7.42416 10.0697 6.94299 9.90561 6.5092C9.74155 6.07541 9.412 5.72448 8.98936 5.53352L6.38011 4.35752ZM3.27736 14.7315C3.42008 14.7959 3.57407 14.8315 3.73054 14.8363C3.88702 14.8411 4.04291 14.8151 4.18933 14.7597C4.33574 14.7043 4.46981 14.6206 4.58387 14.5134C4.69794 14.4061 4.78977 14.2775 4.85411 14.1348C4.91846 13.9921 4.95407 13.8381 4.9589 13.6816C4.96374 13.5251 4.93771 13.3692 4.88229 13.2228C4.82688 13.0764 4.74317 12.9423 4.63595 12.8283C4.52872 12.7142 4.40008 12.6224 4.25736 12.558C3.96914 12.4281 3.64109 12.4179 3.3454 12.5298C3.0497 12.6417 2.81057 12.8665 2.68061 13.1548C2.55066 13.443 2.54052 13.771 2.65243 14.0667C2.76434 14.3624 2.98914 14.6016 3.27736 14.7315ZM33.2759 16.184C33.4908 16.1025 33.6875 15.9794 33.8548 15.8218C34.0221 15.6642 34.1567 15.4752 34.251 15.2655C34.3452 15.0559 34.3973 14.8297 34.4041 14.6C34.411 14.3702 34.3725 14.1414 34.2909 13.9265L31.0271 5.30952C30.9457 5.09447 30.8228 4.89757 30.6652 4.73007C30.5077 4.56256 30.3187 4.42775 30.1091 4.33332C29.8994 4.2389 29.6732 4.18672 29.4434 4.17976C29.2135 4.1728 28.9846 4.2112 28.7696 4.29277L26.0974 5.30602C25.8825 5.38758 25.6857 5.51067 25.5184 5.66827C25.3511 5.82587 25.2165 6.01488 25.1222 6.22452C25.028 6.43415 24.9759 6.6603 24.9691 6.89005C24.9623 7.1198 25.0007 7.34864 25.0824 7.56352L28.3479 16.1823C28.5123 16.6162 28.8422 16.967 29.2652 17.1577C29.6882 17.3483 30.1696 17.3632 30.6036 17.199L33.2759 16.184ZM28.1361 6.65527C27.9897 6.71077 27.8557 6.79456 27.7417 6.90185C27.6277 7.00915 27.5359 7.13785 27.4716 7.28061C27.4074 7.42337 27.3719 7.57739 27.3671 7.73388C27.3624 7.89036 27.3885 8.04625 27.444 8.19264C27.4995 8.33903 27.5833 8.47306 27.6906 8.58707C27.7979 8.70108 27.9266 8.79284 28.0693 8.85711C28.2121 8.92138 28.3661 8.9569 28.5226 8.96164C28.6791 8.96639 28.835 8.94027 28.9814 8.88477C29.277 8.77268 29.516 8.54774 29.6458 8.25942C29.7756 7.97111 29.7856 7.64304 29.6735 7.34739C29.5614 7.05174 29.3365 6.81273 29.0481 6.68293C28.7598 6.55313 28.4318 6.54318 28.1361 6.65527Z" fill="black"/>
<path fill-rule="evenodd" clip-rule="evenodd" d="M26.0482 7.18727H26.0622C26.1768 7.17728 26.2883 7.14481 26.3903 7.09174C26.4923 7.03866 26.5829 6.96601 26.6568 6.87793C26.7307 6.78986 26.7866 6.68808 26.8212 6.57841C26.8558 6.46875 26.8685 6.35334 26.8585 6.23877C26.8485 6.12421 26.816 6.01274 26.763 5.91073C26.7099 5.80871 26.6372 5.71815 26.5492 5.64421C26.4611 5.57027 26.3593 5.5144 26.2496 5.4798C26.14 5.44519 26.0246 5.43253 25.91 5.44252H25.896L25.8505 5.44777L25.6807 5.46527L25.063 5.52477C24.5432 5.57727 23.824 5.65952 23.0295 5.76452C21.4632 5.97102 19.5225 6.28602 18.252 6.70952C17.636 6.91427 16.985 7.31152 16.362 7.76652C15.7302 8.22852 15.0757 8.79027 14.4492 9.37302C13.3373 10.4218 12.2751 11.522 11.266 12.67C10.5327 13.4995 10.363 14.8225 11.224 15.7605C11.784 16.366 12.659 17.1325 13.793 17.4755C14.9777 17.8308 16.3427 17.6925 17.7375 16.6565L19.4857 15.5278L19.5172 15.5085C19.7675 15.6608 20.1157 15.9233 20.5322 16.2715C20.9872 16.653 21.4807 17.1028 21.941 17.535C22.4634 18.0274 22.9768 18.5291 23.481 19.04L23.5772 19.1398L23.6017 19.1643L23.6105 19.173L23.7137 19.278L23.845 19.3463C24.5502 19.6963 25.3255 19.5703 25.9275 19.3673C26.554 19.1573 27.177 18.8003 27.7072 18.4485C28.3712 18.0018 29.0001 17.5051 29.5885 16.9628L29.62 16.9348L29.6287 16.926L29.6305 16.9243C29.6305 16.9243 29.4765 16.3818 28.8745 15.7483L28.4002 16.3433L27.9995 17.5L23.6105 19.173L24.4995 18.375L24.0305 17.1203C23.7371 16.8314 23.4408 16.5455 23.1415 16.2628C22.669 15.8183 22.1475 15.344 21.654 14.9328C21.1762 14.5303 20.6792 14.1488 20.2645 13.9213C19.575 13.5433 18.8995 13.8233 18.5355 14.0595L16.7365 15.2215L16.712 15.239C15.7407 15.967 14.9427 15.995 14.297 15.8008C13.597 15.5908 12.9757 15.0798 12.512 14.5758C12.3667 14.4183 12.3247 14.1155 12.5767 13.8303C13.5481 12.7244 14.5707 11.6645 15.641 10.654C16.2377 10.0993 16.8362 9.58652 17.3945 9.17877C17.965 8.76227 18.4445 8.49102 18.8067 8.37027C19.8987 8.00627 21.6855 7.70702 23.2587 7.49877C24.1191 7.38573 24.9814 7.28829 25.8452 7.20652L26.008 7.19077L26.0482 7.18727Z" fill="black"/>
<path d="M24.7216 17.8098C24.493 17.5781 24.2626 17.3483 24.0304 17.1203L24.4994 18.375L23.6104 19.1748L27.9994 17.5L28.4001 16.345L28.8744 15.75L28.4281 15.6555L28.4229 15.659L28.3984 15.6818L28.3039 15.7693C27.8114 16.2136 27.288 16.6224 26.7376 16.9925C26.2651 17.3075 25.7874 17.57 25.3674 17.71C25.0419 17.8203 24.8389 17.829 24.7216 17.8098Z" fill="black"/>
<path fill-rule="evenodd" clip-rule="evenodd" d="M8.83149 8.86896L8.48674 8.06396L8.14199 7.25896L8.21199 7.23096L8.40974 7.14697C9.37997 6.73501 10.3542 6.33249 11.3322 5.93946C12.1266 5.61895 12.9271 5.31381 13.7332 5.02421C14.0885 4.89821 14.4192 4.78971 14.6957 4.71096C14.9337 4.64096 15.2382 4.56396 15.4867 4.56396C15.7142 4.56396 15.954 4.61646 16.1517 4.66896C16.3652 4.72671 16.5997 4.80371 16.8377 4.89121C17.3172 5.06621 17.858 5.29371 18.3585 5.51421C18.9422 5.77509 19.521 6.04697 20.0945 6.32972L20.21 6.38571L20.2415 6.40146L20.252 6.40671C20.4597 6.51045 20.6177 6.69244 20.6912 6.91265C20.7647 7.13287 20.7477 7.37327 20.644 7.58096C20.5403 7.78866 20.3583 7.94665 20.138 8.02016C19.9178 8.09367 19.6774 8.0767 19.4697 7.97297L19.461 7.96771L19.433 7.95371L19.3245 7.90121C18.7699 7.62852 18.2104 7.36597 17.6462 7.11371C17.1844 6.90562 16.7157 6.71302 16.241 6.53621C16.0632 6.47058 15.8828 6.4122 15.7002 6.36121C15.6318 6.34183 15.5623 6.32664 15.492 6.31571L15.4762 6.31921C15.4412 6.32446 15.3485 6.34371 15.1752 6.39271C14.8856 6.47836 14.5985 6.57231 14.3142 6.67446C13.6352 6.91421 12.8005 7.23796 11.9832 7.56521C11.0161 7.95257 10.053 8.34984 9.09399 8.75697L8.89974 8.83921L8.83149 8.86896ZM7.68174 8.40871C7.59066 8.19543 7.58797 7.95472 7.67427 7.73946C7.76057 7.5242 7.9288 7.35201 8.14199 7.26072L8.48674 8.06572L8.83149 8.86896C8.72579 8.91433 8.61218 8.93842 8.49716 8.93984C8.38214 8.94126 8.26797 8.91998 8.16118 8.87724C8.05439 8.83449 7.95708 8.7711 7.87481 8.69071C7.79254 8.61032 7.72693 8.51449 7.68174 8.40871ZM4.35149 15.3387C4.43041 15.2552 4.52503 15.188 4.62993 15.141C4.73483 15.094 4.84796 15.0681 4.96286 15.0649C5.07776 15.0616 5.19217 15.0811 5.29956 15.122C5.40695 15.163 5.50521 15.2247 5.58874 15.3037L4.98674 15.939L4.38649 16.576C4.30292 16.497 4.23573 16.4024 4.18875 16.2975C4.14176 16.1926 4.1159 16.0795 4.11265 15.9646C4.1094 15.8497 4.12882 15.7353 4.1698 15.6279C4.21078 15.5205 4.27252 15.4222 4.35149 15.3387ZM12.349 21.266L17.1842 23.079C17.6561 23.2558 18.1689 23.293 18.6614 23.1863C19.1538 23.0795 19.6052 22.8333 19.9615 22.477L23.619 18.8195C23.7833 18.6554 24.006 18.5633 24.2382 18.5635C24.4704 18.5636 24.693 18.656 24.8571 18.8203C25.0212 18.9846 25.1133 19.2074 25.1131 19.4396C25.1129 19.6718 25.0205 19.8944 24.8562 20.0585L21.1987 23.716C20.6046 24.3094 19.8523 24.7194 19.0315 24.8969C18.2107 25.0744 17.3562 25.0119 16.57 24.717L11.635 22.8672L11.5947 22.848C11.3272 22.7001 11.073 22.5291 10.8352 22.337C10.5517 22.1182 10.2192 21.847 9.86049 21.5407C9.05726 20.8539 8.26499 20.1544 7.48399 19.4425C6.5297 18.5757 5.58292 17.7006 4.64374 16.8175L4.45299 16.639L4.38649 16.576L4.98674 15.939L5.58874 15.3037L5.65349 15.365L5.84074 15.5417C6.77268 16.4175 7.71188 17.2855 8.65824 18.1457C9.46324 18.8755 10.2945 19.6157 10.991 20.2072C11.341 20.503 11.6507 20.755 11.901 20.9492C12.132 21.126 12.2772 21.224 12.349 21.2642M6.42174 25.004C6.5705 24.8266 6.7835 24.7154 7.01409 24.6947C7.24468 24.674 7.47406 24.7456 7.65199 24.8937L9.33024 26.2937C9.70633 26.6077 10.1628 26.8102 10.648 26.8782L12.811 27.1827C12.9274 27.1955 13.04 27.2315 13.1422 27.2885C13.2444 27.3456 13.3341 27.4226 13.406 27.515C13.4779 27.6073 13.5306 27.7132 13.5608 27.8263C13.5911 27.9394 13.5984 28.0574 13.5822 28.1733C13.5661 28.2892 13.5268 28.4008 13.4668 28.5013C13.4067 28.6017 13.3271 28.6892 13.2327 28.7584C13.1383 28.8275 13.0309 28.8771 12.917 28.904C12.8031 28.931 12.6849 28.9348 12.5695 28.9152L10.4047 28.6125C9.59603 28.4989 8.83525 28.1612 8.20849 27.6377L6.53024 26.2377C6.44189 26.164 6.36895 26.0736 6.31558 25.9717C6.26222 25.8698 6.22948 25.7583 6.21924 25.6437C6.20899 25.5291 6.22146 25.4136 6.2559 25.3038C6.29035 25.1941 6.34611 25.0922 6.41999 25.004" fill="black"/>
</svg>
