<svg width="31" height="31" viewBox="0 0 31 31" fill="none" xmlns="http://www.w3.org/2000/svg">
<path d="M30.0312 25.6719H27.6094V11.1406H28.0938C28.2222 11.1406 28.3454 11.0896 28.4363 10.9988C28.5271 10.9079 28.5781 10.7847 28.5781 10.6562C28.5781 10.5278 28.5271 10.4046 28.4363 10.3137C28.3454 10.2229 28.2222 10.1719 28.0938 10.1719H21.7969V5.32812H22.2812C22.4097 5.32812 22.5329 5.27709 22.6238 5.18625C22.7146 5.09542 22.7656 4.97221 22.7656 4.84375C22.7656 4.71529 22.7146 4.59208 22.6238 4.50125C22.5329 4.41041 22.4097 4.35938 22.2812 4.35938H4.84375C4.71529 4.35938 4.59208 4.41041 4.50125 4.50125C4.41041 4.59208 4.35938 4.71529 4.35938 4.84375C4.35938 4.97221 4.41041 5.09542 4.50125 5.18625C4.59208 5.27709 4.71529 5.32812 4.84375 5.32812H5.32812V25.6719H2.90625C2.77779 25.6719 2.65458 25.7229 2.56375 25.8137C2.47291 25.9046 2.42188 26.0278 2.42188 26.1562C2.42188 26.2847 2.47291 26.4079 2.56375 26.4988C2.65458 26.5896 2.77779 26.6406 2.90625 26.6406H30.0312C30.1597 26.6406 30.2829 26.5896 30.3738 26.4988C30.4646 26.4079 30.5156 26.2847 30.5156 26.1562C30.5156 26.0278 30.4646 25.9046 30.3738 25.8137C30.2829 25.7229 30.1597 25.6719 30.0312 25.6719ZM26.6406 11.1406V25.6719H21.7969V11.1406H26.6406ZM6.29688 5.32812H20.8281V25.6719H16.9531V19.375C16.9531 19.2465 16.9021 19.1233 16.8113 19.0325C16.7204 18.9417 16.5972 18.8906 16.4688 18.8906H10.6562C10.5278 18.8906 10.4046 18.9417 10.3137 19.0325C10.2229 19.1233 10.1719 19.2465 10.1719 19.375V25.6719H6.29688V5.32812ZM15.9844 25.6719H11.1406V19.8594H15.9844V25.6719ZM9.20312 9.6875C9.20312 9.55904 9.25416 9.43583 9.34499 9.34499C9.43583 9.25416 9.55904 9.20312 9.6875 9.20312H11.625C11.7535 9.20312 11.8767 9.25416 11.9675 9.34499C12.0583 9.43583 12.1094 9.55904 12.1094 9.6875C12.1094 9.81596 12.0583 9.93917 11.9675 10.03C11.8767 10.1208 11.7535 10.1719 11.625 10.1719H9.6875C9.55904 10.1719 9.43583 10.1208 9.34499 10.03C9.25416 9.93917 9.20312 9.81596 9.20312 9.6875ZM15.0156 9.6875C15.0156 9.55904 15.0667 9.43583 15.1575 9.34499C15.2483 9.25416 15.3715 9.20312 15.5 9.20312H17.4375C17.566 9.20312 17.6892 9.25416 17.78 9.34499C17.8708 9.43583 17.9219 9.55904 17.9219 9.6875C17.9219 9.81596 17.8708 9.93917 17.78 10.03C17.6892 10.1208 17.566 10.1719 17.4375 10.1719H15.5C15.3715 10.1719 15.2483 10.1208 15.1575 10.03C15.0667 9.93917 15.0156 9.81596 15.0156 9.6875ZM9.6875 15.0156C9.55904 15.0156 9.43583 14.9646 9.34499 14.8738C9.25416 14.7829 9.20312 14.6597 9.20312 14.5312C9.20312 14.4028 9.25416 14.2796 9.34499 14.1887C9.43583 14.0979 9.55904 14.0469 9.6875 14.0469H11.625C11.7535 14.0469 11.8767 14.0979 11.9675 14.1887C12.0583 14.2796 12.1094 14.4028 12.1094 14.5312C12.1094 14.6597 12.0583 14.7829 11.9675 14.8738C11.8767 14.9646 11.7535 15.0156 11.625 15.0156H9.6875ZM15.0156 14.5312C15.0156 14.4028 15.0667 14.2796 15.1575 14.1887C15.2483 14.0979 15.3715 14.0469 15.5 14.0469H17.4375C17.566 14.0469 17.6892 14.0979 17.78 14.1887C17.8708 14.2796 17.9219 14.4028 17.9219 14.5312C17.9219 14.6597 17.8708 14.7829 17.78 14.8738C17.6892 14.9646 17.566 15.0156 17.4375 15.0156H15.5C15.3715 15.0156 15.2483 14.9646 15.1575 14.8738C15.0667 14.7829 15.0156 14.6597 15.0156 14.5312Z" fill="black"/>
</svg>
