<svg width="17" height="15" viewBox="0 0 17 15" fill="none" xmlns="http://www.w3.org/2000/svg">
<path d="M14.7504 8.52565L9.77113 13.5058C9.441 13.8358 8.99332 14.0212 8.52653 14.0212C8.05974 14.0212 7.61206 13.8358 7.28194 13.5058L2.30267 8.52653C1.89107 8.11851 1.56411 7.63322 1.34056 7.0985C1.11701 6.56378 1.00128 5.99018 1.00001 5.41061C0.998741 4.83105 1.11196 4.25694 1.33316 3.72125C1.55437 3.18555 1.8792 2.69883 2.28902 2.28902C2.69883 1.8792 3.18556 1.55437 3.72125 1.33316C4.25694 1.11196 4.83105 0.998741 5.41061 1.00001C5.99018 1.00128 6.56378 1.11701 7.0985 1.34056C7.63322 1.56411 8.11852 1.89107 8.52653 2.30267C9.35529 1.49454 10.4691 1.04546 11.6266 1.05271C12.7841 1.05997 13.8922 1.52297 14.7108 2.34142C15.5293 3.15988 15.9925 4.26788 15.9999 5.4254C16.0073 6.58293 15.5584 7.69677 14.7504 8.52565Z" stroke="#752776" stroke-linecap="round" stroke-linejoin="round"/>
</svg>
