<svg width="23" height="23" viewBox="0 0 23 23" fill="none" xmlns="http://www.w3.org/2000/svg">
<g clip-path="url(#clip0_154_4132)">
<path d="M20.8438 0.539146H2.15625C1.73224 0.53483 1.32384 0.698896 1.02066 0.995341C0.717476 1.29179 0.544275 1.6964 0.539062 2.1204V20.8834C0.545218 21.3067 0.718833 21.7104 1.02191 22.0061C1.32499 22.3018 1.73286 22.4653 2.15625 22.461H20.8438C21.2678 22.4644 21.6759 22.2998 21.9789 22.0031C22.282 21.7065 22.4553 21.302 22.4609 20.878V2.115C22.4534 1.69225 22.2793 1.28957 21.9764 0.994484C21.6736 0.699399 21.2666 0.535764 20.8438 0.539146Z" fill="#0076B2"/>
<path d="M3.78414 8.7561H7.03828V19.2265H3.78414V8.7561ZM5.41211 3.54517C5.78534 3.54517 6.15019 3.65587 6.4605 3.86326C6.77081 4.07066 7.01263 4.36543 7.15538 4.71028C7.29813 5.05514 7.33539 5.43459 7.26244 5.80063C7.1895 6.16666 7.00963 6.50284 6.74558 6.76663C6.48154 7.03042 6.14519 7.20997 5.77909 7.28257C5.41298 7.35517 5.03357 7.31755 4.68885 7.17447C4.34413 7.03139 4.04959 6.78929 3.84249 6.47878C3.63539 6.16828 3.52504 5.80332 3.52539 5.43009C3.52587 4.93001 3.72486 4.45058 4.07863 4.09714C4.43241 3.7437 4.91203 3.54517 5.41211 3.54517ZM9.07953 8.7561H12.1989V10.1936H12.242C12.6769 9.37063 13.737 8.50274 15.3201 8.50274C18.6155 8.49556 19.2265 10.6644 19.2265 13.4765V19.2265H15.9723V14.1324C15.9723 12.9195 15.9508 11.358 14.2815 11.358C12.6122 11.358 12.3283 12.6805 12.3283 14.0533V19.2265H9.07953V8.7561Z" fill="white"/>
</g>
<defs>
<clipPath id="clip0_154_4132">
<rect width="23" height="23" fill="white"/>
</clipPath>
</defs>
</svg>
