<svg width="25" height="23" viewBox="0 0 25 23" fill="none" xmlns="http://www.w3.org/2000/svg">
<path d="M18.4909 3.56145C18.4909 3.56145 21.0057 4.00657 21.0057 6.67729C21.0057 9.34801 18.4909 9.34801 18.4909 9.34801H13.0176V3.56145C13.0176 3.56145 13.0176 0 9.02334 0V9.34801H2.95853C2.95853 9.34801 0 9.34801 0 13.3546H9.02384V19.5873C9.02384 19.5873 8.87609 23 13.0181 23V13.3551H19.8227C19.8227 13.3551 25 12.7618 25 6.9747C25 1.18765 20.1182 0.00049734 19.8227 0.00049734C19.5267 0.00049734 15.2369 0.00049734 15.2369 0.00049734C15.2369 0.00049734 15.2369 3.56145 18.4909 3.56145Z" fill="url(#paint0_linear_121_8571)"/>
<defs>
<linearGradient id="paint0_linear_121_8571" x1="0" y1="11.5002" x2="25.0001" y2="11.5002" gradientUnits="userSpaceOnUse">
<stop stop-color="#1B2C82"/>
<stop offset="1" stop-color="#26CFCE"/>
</linearGradient>
</defs>
</svg>
