<svg width="31" height="31" viewBox="0 0 31 31" fill="none" xmlns="http://www.w3.org/2000/svg">
<path d="M26.9746 8.89575L26.9371 22.1037L15.5188 28.7396L15.5563 15.5317L26.9746 8.89575Z" stroke="black" stroke-width="0.645833" stroke-linecap="round" stroke-linejoin="round"/>
<path d="M7.99531 24.3995L15.5193 28.7395L15.5451 20.7247L15.558 15.5322L10.7207 12.7422L4.06219 8.89307L4.02344 22.1068L5.98677 23.2435" stroke="black" stroke-width="0.645833" stroke-linecap="round" stroke-linejoin="round"/>
<path d="M26.9746 8.89567L15.5562 15.5316L4.06299 8.89631L15.4813 2.26038L26.9746 8.89567Z" stroke="black" stroke-width="0.645833" stroke-linecap="round" stroke-linejoin="round"/>
<path d="M15.5188 20.7274C18.5196 20.7274 20.9522 18.2948 20.9522 15.294C20.9522 12.2932 18.5196 9.8606 15.5188 9.8606C12.5181 9.8606 10.0854 12.2932 10.0854 15.294C10.0854 18.2948 12.5181 20.7274 15.5188 20.7274Z" stroke="black" stroke-width="0.645833" stroke-linecap="round" stroke-linejoin="round"/>
<path d="M11.0444 19.7683L11.6767 19.136M11.0444 19.7683V21.3499L7.01247 25.3818L5.43018 23.8002L9.46211 19.7683H11.0444Z" stroke="black" stroke-width="0.645833" stroke-linecap="round" stroke-linejoin="round"/>
</svg>
