<svg width="31" height="31" viewBox="0 0 31 31" fill="none" xmlns="http://www.w3.org/2000/svg">
<path d="M7.75008 24.5417L5.16675 27.125M23.2501 24.5417L25.8334 27.125M11.6251 19.375H11.6367M19.3635 19.375H19.3751M6.45841 11.625C11.6251 16.7917 20.0209 16.7917 24.5417 11.625" stroke="black" stroke-width="1.9375" stroke-linecap="round" stroke-linejoin="round"/>
<path d="M6.81116 10.1964C7.87162 4.79983 9.33895 3.875 14.7962 3.875H16.2042C21.6615 3.875 23.1275 4.79983 24.1892 10.1964L24.9035 13.8337C25.8787 18.7937 26.3657 21.2738 24.9449 22.9077C23.524 24.5417 20.8503 24.5417 15.5002 24.5417C10.1514 24.5417 7.47637 24.5417 6.05553 22.9077C4.6347 21.2738 5.12166 18.7937 6.09687 13.8337L6.81116 10.1964Z" stroke="black" stroke-width="1.9375" stroke-linecap="round" stroke-linejoin="round"/>
</svg>
