<svg width="17" height="17" viewBox="0 0 17 17" fill="none" xmlns="http://www.w3.org/2000/svg">
<path d="M0.18311 0.182783C0.0772623 0.288607 0.0129055 0.428902 0.00174178 0.578159C-0.00942195 0.727417 0.0333488 0.875725 0.122277 0.996117L0.18311 1.06612L3.54478 4.42862C1.90639 5.57822 0.736483 7.2791 0.248944 9.22028C0.211426 9.38012 0.238309 9.5483 0.323781 9.68848C0.409254 9.82866 0.546452 9.92957 0.705724 9.96942C0.864996 10.0093 1.03355 9.98484 1.17496 9.90142C1.31637 9.818 1.41928 9.68229 1.46144 9.52362C1.89462 7.80063 2.95944 6.30334 4.44478 5.32862L5.95311 6.83695C5.35061 7.46653 5.0186 8.30702 5.02821 9.17839C5.03782 10.0498 5.38829 10.8827 6.00453 11.4989C6.62077 12.115 7.4538 12.4653 8.32517 12.4748C9.19654 12.4842 10.037 12.1521 10.6664 11.5494L15.5989 16.4828C15.7105 16.5946 15.8602 16.6601 16.018 16.666C16.1758 16.6719 16.33 16.6179 16.4496 16.5148C16.5693 16.4116 16.6454 16.267 16.6627 16.1101C16.6801 15.9531 16.6373 15.7954 16.5431 15.6686L16.4823 15.5986L11.3881 10.5036L11.3889 10.5019L10.3889 9.50362L7.99728 7.11195H7.99894L5.59894 4.71445L5.59978 4.71278L4.65561 3.77112L1.06644 0.182783C0.949256 0.0657414 0.790403 0 0.624777 0C0.459151 0 0.300298 0.0657414 0.18311 0.182783ZM6.83644 7.72028L9.78228 10.6669C9.38936 11.0464 8.8631 11.2564 8.31686 11.2517C7.77061 11.2469 7.24809 11.0278 6.86182 10.6416C6.47555 10.2553 6.25645 9.73278 6.25171 9.18654C6.24696 8.64029 6.45695 8.1132 6.83644 7.72028ZM8.33311 2.91612C7.49978 2.91612 6.69144 3.03945 5.92561 3.27028L6.95644 4.30028C8.7394 3.94725 10.5898 4.29285 12.1252 5.26564C13.6605 6.23843 14.7633 7.76401 15.2056 9.52695C15.2488 9.68439 15.3518 9.81869 15.4928 9.90113C15.6337 9.98356 15.8012 10.0076 15.9596 9.96807C16.118 9.92855 16.2547 9.82863 16.3404 9.68966C16.426 9.5507 16.454 9.38372 16.4181 9.22445C15.9666 7.42212 14.9257 5.82237 13.4609 4.6794C11.996 3.53643 10.1911 2.91579 8.33311 2.91612ZM8.49561 5.84112L11.6631 9.00778C11.6221 8.18103 11.2752 7.39904 10.6898 6.8138C10.1045 6.22856 9.32237 5.88187 8.49561 5.84112Z" fill="#666666"/>
</svg>
