<svg width="17" height="13" viewBox="0 0 17 13" fill="none" xmlns="http://www.w3.org/2000/svg">
<path d="M4.32688 10.2102C5.81346 11.3958 7.0629 11.7754 8.50019 11.7754C9.75048 11.7754 11.3824 11.2441 12.9523 10.1123C14.0844 9.29587 15.0202 8.10593 15.7571 6.53293C14.9582 5.11911 14.0337 3.9598 12.9837 3.055C11.5303 1.80007 9.93917 1.2246 8.46874 1.2246C6.94731 1.2246 5.19639 1.9162 3.70216 3.36873C2.62668 4.41451 1.81072 5.46549 1.25428 6.52167C2.15977 8.07127 3.18454 9.30078 4.32688 10.2102ZM8.50019 13C6.82236 13 5.32559 12.545 3.62057 11.1852C2.28046 10.1163 1.10072 8.67187 0.0813337 6.85187C0.0312406 6.76296 0.00340658 6.66283 0.000293382 6.56034C-0.00281981 6.45786 0.0188838 6.35617 0.0634846 6.26427C0.687922 4.9712 1.63591 3.70673 2.90745 2.47087C4.62267 0.804267 6.65832 0 8.46874 0C10.2052 0 12.0581 0.671667 13.7249 2.10947C14.9562 3.17258 16.0223 4.53671 16.9233 6.20187C17.0168 6.37347 17.0253 6.58233 16.9462 6.76087C16.1065 8.66753 14.9956 10.1253 13.6135 11.1219C11.849 12.3933 9.98676 13 8.49933 13M8.69823 9.88C8.28524 9.88 7.87629 9.79706 7.49474 9.63591C7.11319 9.47476 6.76651 9.23855 6.47448 8.94079C6.18245 8.64302 5.95081 8.28952 5.79276 7.90047C5.63472 7.51142 5.55337 7.09444 5.55337 6.67333C5.55337 6.25223 5.63472 5.83525 5.79276 5.4462C5.95081 5.05714 6.18245 4.70364 6.47448 4.40588C6.76651 4.10811 7.11319 3.87191 7.49474 3.71076C7.87629 3.54961 8.28524 3.46667 8.69823 3.46667C9.53229 3.46667 10.3322 3.80451 10.922 4.40588C11.5117 5.00724 11.8431 5.82287 11.8431 6.67333C11.8431 7.52379 11.5117 8.33942 10.922 8.94079C10.3322 9.54216 9.53229 9.88 8.69823 9.88ZM8.69823 8.66667C8.95495 8.66667 9.20916 8.61511 9.44634 8.51493C9.68352 8.41476 9.89902 8.26793 10.0806 8.08283C10.2621 7.89773 10.4061 7.67799 10.5043 7.43615C10.6026 7.19431 10.6531 6.9351 10.6531 6.67333C10.6531 6.41156 10.6026 6.15236 10.5043 5.91052C10.4061 5.66868 10.2621 5.44893 10.0806 5.26383C9.89902 5.07874 9.68352 4.93191 9.44634 4.83173C9.20916 4.73156 8.95495 4.68 8.69823 4.68C8.17975 4.68 7.68251 4.89001 7.3159 5.26383C6.94928 5.63766 6.74332 6.14467 6.74332 6.67333C6.74332 7.202 6.94928 7.70901 7.3159 8.08283C7.68251 8.45666 8.17975 8.66667 8.69823 8.66667Z" fill="#666666"/>
</svg>
