<svg width="31" height="31" viewBox="0 0 31 31" fill="none" xmlns="http://www.w3.org/2000/svg">
<g clip-path="url(#clip0_178_19864)">
<path d="M7.75 14.9919V23.25H16.0081L14.2858 21.5278H9.47222V16.7142L7.75 14.9919Z" fill="black"/>
<path d="M30.0274 27.8053L27.556 25.2994V27.5555H3.44489V23.9819H5.16711V22.6041H3.44489V16.8778H5.16711V15.5H3.44489V9.98886H5.16711V8.61109H3.44489V3.79748L17.171 17.4461V15.0178L3.19517 1.11081C3.07473 0.989368 2.92085 0.906545 2.75315 0.872902C2.58545 0.839259 2.41153 0.856319 2.25356 0.921907C2.0956 0.987495 1.96074 1.09864 1.86619 1.24117C1.77164 1.3837 1.72168 1.55116 1.72267 1.7222V28.4166C1.72267 28.645 1.81339 28.8641 1.97488 29.0255C2.13637 29.187 2.3554 29.2778 2.58378 29.2778H29.416C29.587 29.2787 29.7545 29.2288 29.897 29.1342C30.0396 29.0397 30.1507 28.9048 30.2163 28.7469C30.2819 28.5889 30.2989 28.415 30.2653 28.2473C30.2317 28.0796 30.1488 27.9257 30.0274 27.8053Z" fill="black"/>
<path d="M20.6666 25.8334H24.111C24.5678 25.8334 25.0058 25.6519 25.3288 25.3289C25.6518 25.006 25.8332 24.5679 25.8332 24.1111V7.49169L23.8527 3.84919C23.6995 3.58382 23.4783 3.36411 23.2119 3.21274C22.9455 3.06137 22.6435 2.98382 22.3371 2.98808C22.0238 2.99057 21.7171 3.07848 21.45 3.24236C21.183 3.40624 20.9657 3.63987 20.8216 3.91808L18.9443 7.50892V24.1111C18.9443 24.5679 19.1258 25.006 19.4488 25.3289C19.7717 25.6519 20.2098 25.8334 20.6666 25.8334ZM20.6666 7.92225L22.3371 4.67586L24.111 7.93086V20.6667H20.6666V7.92225ZM20.6666 22.0703H24.111V24.1714H20.6666V22.0703Z" fill="black"/>
</g>
<defs>
<clipPath id="clip0_178_19864">
<rect width="31" height="31" fill="white"/>
</clipPath>
</defs>
</svg>
