<svg width="31" height="31" viewBox="0 0 31 31" fill="none" xmlns="http://www.w3.org/2000/svg">
<path d="M15.5 4.84375C14.9861 4.84375 14.4933 5.04788 14.13 5.41123C13.7666 5.77458 13.5625 6.26739 13.5625 6.78125C13.5625 7.29511 13.7666 7.78792 14.13 8.15127C14.4933 8.51462 14.9861 8.71875 15.5 8.71875C16.0139 8.71875 16.5067 8.51462 16.87 8.15127C17.2334 7.78792 17.4375 7.29511 17.4375 6.78125C17.4375 6.26739 17.2334 5.77458 16.87 5.41123C16.5067 5.04788 16.0139 4.84375 15.5 4.84375ZM11.625 6.78125C11.625 5.75354 12.0333 4.76791 12.76 4.04121C13.4867 3.31451 14.4723 2.90625 15.5 2.90625C16.5277 2.90625 17.5133 3.31451 18.24 4.04121C18.9667 4.76791 19.375 5.75354 19.375 6.78125C19.375 7.80896 18.9667 8.79459 18.24 9.52129C17.5133 10.248 16.5277 10.6562 15.5 10.6562C14.4723 10.6562 13.4867 10.248 12.76 9.52129C12.0333 8.79459 11.625 7.80896 11.625 6.78125ZM24.7031 5.8125C24.3177 5.8125 23.9481 5.9656 23.6756 6.23811C23.4031 6.51062 23.25 6.88023 23.25 7.26562C23.25 7.65102 23.4031 8.02063 23.6756 8.29314C23.9481 8.56565 24.3177 8.71875 24.7031 8.71875C25.0885 8.71875 25.4581 8.56565 25.7306 8.29314C26.0032 8.02063 26.1562 7.65102 26.1562 7.26562C26.1562 6.88023 26.0032 6.51062 25.7306 6.23811C25.4581 5.9656 25.0885 5.8125 24.7031 5.8125ZM21.3125 7.26562C21.3125 6.82036 21.4002 6.37946 21.5706 5.96809C21.741 5.55672 21.9907 5.18294 22.3056 4.86809C22.6204 4.55324 22.9942 4.30349 23.4056 4.1331C23.817 3.9627 24.2579 3.875 24.7031 3.875C25.1484 3.875 25.5893 3.9627 26.0007 4.1331C26.412 4.30349 26.7858 4.55324 27.1007 4.86809C27.4155 5.18294 27.6653 5.55672 27.8357 5.96809C28.006 6.37946 28.0938 6.82036 28.0938 7.26562C28.0938 8.16487 27.7365 9.02729 27.1007 9.66316C26.4648 10.299 25.6024 10.6562 24.7031 10.6562C23.8039 10.6562 22.9415 10.299 22.3056 9.66316C21.6697 9.02729 21.3125 8.16487 21.3125 7.26562ZM4.84375 7.26562C4.84375 6.88023 4.99685 6.51062 5.26936 6.23811C5.54187 5.9656 5.91148 5.8125 6.29688 5.8125C6.68227 5.8125 7.05188 5.9656 7.32439 6.23811C7.5969 6.51062 7.75 6.88023 7.75 7.26562C7.75 7.65102 7.5969 8.02063 7.32439 8.29314C7.05188 8.56565 6.68227 8.71875 6.29688 8.71875C5.91148 8.71875 5.54187 8.56565 5.26936 8.29314C4.99685 8.02063 4.84375 7.65102 4.84375 7.26562ZM6.29688 3.875C5.39763 3.875 4.53521 4.23223 3.89934 4.86809C3.26348 5.50396 2.90625 6.36638 2.90625 7.26562C2.90625 8.16487 3.26348 9.02729 3.89934 9.66316C4.53521 10.299 5.39763 10.6562 6.29688 10.6562C7.19612 10.6562 8.05854 10.299 8.69441 9.66316C9.33027 9.02729 9.6875 8.16487 9.6875 7.26562C9.6875 6.36638 9.33027 5.50396 8.69441 4.86809C8.05854 4.23223 7.19612 3.875 6.29688 3.875ZM8.38066 23.7392C7.94252 24.028 7.43436 24.1928 6.91013 24.2161C6.38589 24.2393 5.86514 24.1202 5.40314 23.8714C4.94113 23.6226 4.55512 23.2533 4.28607 22.8027C4.01702 22.3522 3.87497 21.8373 3.875 21.3125V15.0156C3.875 14.8872 3.92603 14.764 4.01687 14.6731C4.10771 14.5823 4.23091 14.5312 4.35938 14.5312H8.26441C8.3537 13.8222 8.63734 13.1517 9.08397 12.5938H4.35938C3.71705 12.5938 3.10104 12.8489 2.64685 13.3031C2.19266 13.7573 1.9375 14.3733 1.9375 15.0156V21.3125C1.93725 22.1467 2.15243 22.9667 2.56219 23.6933C2.97195 24.4199 3.5624 25.0283 4.27636 25.4597C4.99032 25.8911 5.80358 26.1308 6.63737 26.1556C7.47116 26.1803 8.29722 25.9894 9.03553 25.6012C8.73356 25.0132 8.51324 24.3868 8.38066 23.7392ZM21.9645 25.6012C22.7028 25.9894 23.5288 26.1803 24.3626 26.1556C25.1964 26.1308 26.0097 25.8911 26.7236 25.4597C27.4376 25.0283 28.0281 24.4199 28.4378 23.6933C28.8476 22.9667 29.0627 22.1467 29.0625 21.3125V15.0156C29.0625 14.3733 28.8073 13.7573 28.3531 13.3031C27.899 12.8489 27.2829 12.5938 26.6406 12.5938H21.916C22.3627 13.1517 22.6463 13.8222 22.7356 14.5312H26.6406C26.7691 14.5312 26.8923 14.5823 26.9831 14.6731C27.074 14.764 27.125 14.8872 27.125 15.0156V21.3125C27.125 21.8373 26.983 22.3522 26.7139 22.8027C26.4449 23.2533 26.0589 23.6226 25.5969 23.8714C25.1349 24.1202 24.6141 24.2393 24.0899 24.2161C23.5656 24.1928 23.0575 24.028 22.6193 23.7392C22.4868 24.3868 22.2664 25.0132 21.9645 25.6012ZM12.1094 12.5938C11.4671 12.5938 10.851 12.8489 10.3969 13.3031C9.94266 13.7573 9.6875 14.3733 9.6875 15.0156V22.2812C9.6875 23.8228 10.2999 25.3013 11.3899 26.3913C12.48 27.4814 13.9584 28.0938 15.5 28.0938C17.0416 28.0938 18.52 27.4814 19.6101 26.3913C20.7001 25.3013 21.3125 23.8228 21.3125 22.2812V15.0156C21.3125 14.3733 21.0573 13.7573 20.6031 13.3031C20.149 12.8489 19.5329 12.5938 18.8906 12.5938H12.1094ZM11.625 15.0156C11.625 14.8872 11.676 14.764 11.7669 14.6731C11.8577 14.5823 11.9809 14.5312 12.1094 14.5312H18.8906C19.0191 14.5312 19.1423 14.5823 19.2331 14.6731C19.324 14.764 19.375 14.8872 19.375 15.0156V22.2812C19.375 23.309 18.9667 24.2946 18.24 25.0213C17.5133 25.748 16.5277 26.1562 15.5 26.1562C14.4723 26.1562 13.4867 25.748 12.76 25.0213C12.0333 24.2946 11.625 23.309 11.625 22.2812V15.0156Z" fill="black"/>
</svg>
