<svg width="25" height="25" viewBox="0 0 25 25" fill="none" xmlns="http://www.w3.org/2000/svg">
<g clip-path="url(#clip0_567_1546)">
<path d="M30.9561 7.97872C29.4663 6.47385 27.6917 5.28068 25.736 4.46881C23.7802 3.65693 21.6824 3.2426 19.5648 3.24997C10.6923 3.24997 3.46105 10.4812 3.46105 19.3537C3.46105 22.1975 4.20855 24.96 5.60605 27.3975L3.33105 35.75L11.8623 33.5075C14.2186 34.7912 16.8673 35.4737 19.5648 35.4737C28.4373 35.4737 35.6686 28.2425 35.6686 19.37C35.6686 15.0637 33.9948 11.0175 30.9561 7.97872ZM19.5648 32.7437C17.1598 32.7437 14.8036 32.0937 12.7398 30.875L12.2523 30.5825L7.1823 31.915L8.53105 26.975L8.20606 26.4712C6.86989 24.3375 6.16041 21.8712 6.15855 19.3537C6.15855 11.9762 12.1711 5.96372 19.5486 5.96372C23.1236 5.96372 26.4873 7.36123 29.0061 9.89622C30.2532 11.1377 31.2416 12.6143 31.9138 14.2405C32.5861 15.8668 32.9289 17.6103 32.9223 19.37C32.9548 26.7475 26.9423 32.7437 19.5648 32.7437ZM26.9098 22.7337C26.5036 22.5387 24.5211 21.5637 24.1636 21.4175C23.7898 21.2875 23.5298 21.2225 23.2536 21.6125C22.9773 22.0187 22.2136 22.9287 21.9861 23.1887C21.7586 23.465 21.5148 23.4975 21.1086 23.2862C20.7023 23.0912 19.4023 22.6525 17.8748 21.2875C16.6723 20.215 15.8761 18.8987 15.6323 18.4925C15.4048 18.0862 15.5998 17.875 15.8111 17.6637C15.9898 17.485 16.2173 17.1925 16.4123 16.965C16.6073 16.7375 16.6886 16.5587 16.8186 16.2987C16.9486 16.0225 16.8836 15.795 16.7861 15.6C16.6886 15.405 15.8761 13.4225 15.5511 12.61C15.2261 11.83 14.8848 11.9275 14.6411 11.9112H13.8611C13.5848 11.9112 13.1623 12.0087 12.7886 12.415C12.4311 12.8212 11.3911 13.7962 11.3911 15.7787C11.3911 17.7612 12.8373 19.6787 13.0323 19.9387C13.2273 20.215 15.8761 24.2775 19.9061 26.0162C20.8648 26.4387 21.6123 26.6825 22.1973 26.8612C23.1561 27.17 24.0336 27.1212 24.7323 27.0237C25.5123 26.91 27.1211 26.0487 27.4461 25.1062C27.7873 24.1637 27.7873 23.3675 27.6736 23.1887C27.5598 23.01 27.3161 22.9287 26.9098 22.7337Z" fill="white"/>
<path d="M16.0717 7.7345L20.8336 12.4988L16.0717 17.2619M5.35742 12.5H20.8336" stroke="url(#paint0_linear_567_1546)" stroke-width="1.85714" stroke-linecap="round" stroke-linejoin="round"/>
</g>
<defs>
<linearGradient id="paint0_linear_567_1546" x1="20.8336" y1="12.4982" x2="5.35742" y2="12.4982" gradientUnits="userSpaceOnUse">
<stop stop-color="#26CFCE"/>
<stop offset="1" stop-color="#1B2C82"/>
</linearGradient>
<clipPath id="clip0_567_1546">
<rect width="25" height="25" fill="white"/>
</clipPath>
</defs>
</svg>
