<svg width="45" height="45" viewBox="0 0 45 45" fill="none" xmlns="http://www.w3.org/2000/svg">
<path fill-rule="evenodd" clip-rule="evenodd" d="M23.3214 5.20871C23.0504 5.12304 22.757 5.14313 22.5001 5.26496C22.3733 5.32435 22.2608 5.41035 22.1702 5.51712C22.0796 5.62389 22.0131 5.74892 21.9751 5.88371L21.0826 9.32246C20.7705 10.5241 20.3173 11.6847 19.7326 12.78C18.8233 14.4806 17.4489 15.7875 16.1739 16.8862L13.4776 19.2112C13.2716 19.3893 13.1107 19.6137 13.0081 19.8659C12.9054 20.1181 12.8639 20.3911 12.887 20.6625L14.4095 38.2743C14.4465 38.7021 14.6425 39.1005 14.9586 39.3909C15.2748 39.6814 15.6883 39.843 16.1176 39.8437H24.8345C30.7145 39.8437 35.6701 35.7525 36.6208 30.2568L37.9426 22.6068C37.9855 22.3603 37.974 22.1074 37.909 21.8658C37.8439 21.6241 37.7268 21.3996 37.5659 21.208C37.4049 21.0164 37.2041 20.8622 36.9774 20.7563C36.7506 20.6504 36.5035 20.5954 36.2533 20.595H26.5389C24.707 20.595 23.3139 18.9525 23.6101 17.145L24.8533 9.56246C25.0252 8.52398 24.9767 7.46094 24.7108 6.44246C24.6354 6.17316 24.4936 5.92712 24.2983 5.72694C24.1031 5.52676 23.8606 5.37886 23.5933 5.29683L23.3214 5.20871ZM21.2776 2.73183C22.1846 2.29637 23.2238 2.22458 24.182 2.53121L24.4539 2.61933C25.9108 3.08808 27.047 4.25058 27.4333 5.73558C27.7951 7.13433 27.8626 8.59308 27.6283 10.0181L26.3851 17.6006C26.3813 17.6229 26.3824 17.6459 26.3884 17.6678C26.3944 17.6897 26.405 17.71 26.4197 17.7273C26.4343 17.7446 26.4526 17.7585 26.4732 17.7681C26.4938 17.7776 26.5162 17.7825 26.5389 17.7825H36.2514C39.0639 17.7825 41.1939 20.3175 40.7139 23.0868L39.392 30.7368C38.1958 37.6518 32.0083 42.6562 24.8345 42.6562H16.1176C14.9844 42.6553 13.8926 42.2296 13.0578 41.4632C12.223 40.6967 11.7058 39.6453 11.6083 38.5162L10.0839 20.9043C10.0222 20.1891 10.1311 19.4695 10.4017 18.8045C10.6722 18.1396 11.0967 17.5483 11.6401 17.0793L14.3401 14.7543C15.5683 13.6968 16.6014 12.6712 17.2501 11.4543C17.7323 10.5559 18.105 9.60282 18.3601 8.61558L19.2526 5.17871C19.3918 4.64805 19.645 4.15416 19.9948 3.73153C20.3446 3.3089 20.7824 2.96773 21.2776 2.73183ZM5.56515 17.7843C5.92751 17.7685 6.28198 17.8933 6.55451 18.1326C6.82704 18.372 6.99656 18.7073 7.02765 19.0687L8.8464 40.1362C8.8772 40.4499 8.84374 40.7667 8.74804 41.067C8.65234 41.3674 8.49641 41.6451 8.28979 41.8831C8.08316 42.1212 7.83018 42.3147 7.54628 42.4517C7.26238 42.5887 6.95353 42.6664 6.63859 42.6801C6.32365 42.6937 6.00923 42.6431 5.71454 42.5311C5.41984 42.4192 5.15106 42.2483 4.92461 42.029C4.69815 41.8097 4.51878 41.5466 4.39744 41.2556C4.27611 40.9647 4.21536 40.6521 4.2189 40.3368V19.1887C4.21857 18.8259 4.35846 18.477 4.60934 18.215C4.86023 17.9529 5.20268 17.7998 5.56515 17.7843Z" fill="url(#paint0_linear_173_15431)"/>
<defs>
<linearGradient id="paint0_linear_173_15431" x1="40.7817" y1="22.5131" x2="4.21875" y2="22.5131" gradientUnits="userSpaceOnUse">
<stop stop-color="#26CFCE"/>
<stop offset="1" stop-color="#1B2C82"/>
</linearGradient>
</defs>
</svg>
