<svg width="16" height="16" viewBox="0 0 16 16" fill="none" xmlns="http://www.w3.org/2000/svg">
<path d="M11.9999 4H5.5249C5.39229 4 5.26512 3.94732 5.17135 3.85355C5.07758 3.75979 5.0249 3.63261 5.0249 3.5C5.0249 3.36739 5.07758 3.24021 5.17135 3.14645C5.26512 3.05268 5.39229 3 5.5249 3H12.4999C12.6325 3 12.7597 3.05268 12.8535 3.14645C12.9472 3.24021 12.9999 3.36739 12.9999 3.5V10.5C12.9999 10.6326 12.9472 10.7598 12.8535 10.8536C12.7597 10.9473 12.6325 11 12.4999 11C12.3673 11 12.2401 10.9473 12.1463 10.8536C12.0526 10.7598 11.9999 10.6326 11.9999 10.5V4Z" fill="url(#paint0_linear_692_2956)"/>
<path d="M12.1459 3.1459C12.2398 3.05201 12.3671 2.99927 12.4999 2.99927C12.6327 2.99927 12.76 3.05201 12.8539 3.1459C12.9478 3.23979 13.0005 3.36712 13.0005 3.4999C13.0005 3.63267 12.9478 3.76001 12.8539 3.8539L4.3539 12.3539C4.30741 12.4004 4.25222 12.4373 4.19148 12.4624C4.13074 12.4876 4.06564 12.5005 3.9999 12.5005C3.93416 12.5005 3.86906 12.4876 3.80832 12.4624C3.74758 12.4373 3.69239 12.4004 3.6459 12.3539C3.59941 12.3074 3.56254 12.2522 3.53738 12.1915C3.51222 12.1307 3.49927 12.0656 3.49927 11.9999C3.49927 11.9342 3.51222 11.8691 3.53738 11.8083C3.56254 11.7476 3.59941 11.6924 3.6459 11.6459L12.1459 3.1459Z" fill="url(#paint1_linear_692_2956)"/>
<defs>
<linearGradient id="paint0_linear_692_2956" x1="5.0249" y1="7" x2="12.9999" y2="7" gradientUnits="userSpaceOnUse">
<stop stop-color="#3853A3"/>
<stop offset="1" stop-color="#55A5D9"/>
</linearGradient>
<linearGradient id="paint1_linear_692_2956" x1="3.49927" y1="7.7499" x2="13.0005" y2="7.7499" gradientUnits="userSpaceOnUse">
<stop stop-color="#3853A3"/>
<stop offset="1" stop-color="#55A5D9"/>
</linearGradient>
</defs>
</svg>
