<svg width="45" height="45" viewBox="0 0 45 45" fill="none" xmlns="http://www.w3.org/2000/svg">
<path d="M25.6641 20.7861C26.2207 21.0059 26.7627 21.2476 27.29 21.5112C27.8174 21.7749 28.3301 22.0752 28.8281 22.4121C28.5059 22.7637 28.2129 23.1299 27.9492 23.5107C27.6855 23.8916 27.4438 24.3018 27.2241 24.7412C26.0962 24.0088 24.895 23.4521 23.6206 23.0713C22.3462 22.6904 21.0352 22.5 19.6875 22.5C18.3984 22.5 17.1533 22.6685 15.9521 23.0054C14.751 23.3423 13.6304 23.811 12.5903 24.4116C11.5503 25.0122 10.6055 25.7446 9.75586 26.6089C8.90625 27.4731 8.17383 28.4253 7.55859 29.4653C6.94336 30.5054 6.46729 31.626 6.13037 32.8271C5.79346 34.0283 5.625 35.2734 5.625 36.5625H2.8125C2.8125 34.8047 3.06885 33.1128 3.58154 31.4868C4.09424 29.8608 4.83398 28.3594 5.80078 26.9824C6.76758 25.6055 7.91016 24.3823 9.22852 23.313C10.5469 22.2437 12.041 21.4014 13.7109 20.7861C12.0557 19.7021 10.7666 18.3398 9.84375 16.6992C8.9209 15.0586 8.45215 13.2422 8.4375 11.25C8.4375 9.69727 8.73047 8.23975 9.31641 6.87744C9.90234 5.51514 10.7007 4.32129 11.7114 3.2959C12.7222 2.27051 13.916 1.46484 15.293 0.878906C16.6699 0.292969 18.1348 0 19.6875 0C21.2402 0 22.6978 0.292969 24.0601 0.878906C25.4224 1.46484 26.6162 2.26318 27.6416 3.27393C28.667 4.28467 29.4727 5.47852 30.0586 6.85547C30.6445 8.23242 30.9375 9.69727 30.9375 11.25C30.9375 12.2168 30.8203 13.1616 30.5859 14.0845C30.3516 15.0073 30 15.8789 29.5312 16.6992C29.0625 17.5195 28.5132 18.2739 27.8833 18.9624C27.2534 19.6509 26.5137 20.2588 25.6641 20.7861ZM11.25 11.25C11.25 12.4219 11.4697 13.5132 11.9092 14.5239C12.3486 15.5347 12.9492 16.4282 13.7109 17.2046C14.4727 17.981 15.3662 18.5889 16.3916 19.0283C17.417 19.4678 18.5156 19.6875 19.6875 19.6875C20.8447 19.6875 21.936 19.4678 22.9614 19.0283C23.9868 18.5889 24.8804 17.9883 25.6421 17.2266C26.4038 16.4648 27.0117 15.5713 27.4658 14.5459C27.9199 13.5205 28.1396 12.4219 28.125 11.25C28.125 10.0928 27.9053 9.00146 27.4658 7.97607C27.0264 6.95068 26.4258 6.05713 25.6641 5.29541C24.9023 4.53369 24.0015 3.92578 22.9614 3.47168C21.9214 3.01758 20.8301 2.79785 19.6875 2.8125C18.5156 2.8125 17.4243 3.03223 16.4136 3.47168C15.4028 3.91113 14.5093 4.51172 13.7329 5.27344C12.9565 6.03516 12.3486 6.93604 11.9092 7.97607C11.4697 9.01611 11.25 10.1074 11.25 11.25ZM43.5938 29.5312C43.5938 30.293 43.4766 31.0327 43.2422 31.7505C43.0078 32.4683 42.6562 33.1348 42.1875 33.75V45L36.5625 42.1875L30.9375 45V33.75C30.4834 33.1348 30.1392 32.4683 29.9048 31.7505C29.6704 31.0327 29.5459 30.293 29.5312 29.5312C29.5312 28.5645 29.7144 27.6562 30.0806 26.8066C30.4468 25.957 30.9448 25.2173 31.5747 24.5874C32.2046 23.9575 32.9517 23.4521 33.8159 23.0713C34.6802 22.6904 35.5957 22.5 36.5625 22.5C37.5293 22.5 38.4375 22.6831 39.2871 23.0493C40.1367 23.4155 40.8765 23.9209 41.5063 24.5654C42.1362 25.21 42.6416 25.957 43.0225 26.8066C43.4033 27.6562 43.5938 28.5645 43.5938 29.5312ZM36.5625 25.3125C35.9766 25.3125 35.4272 25.4224 34.9146 25.6421C34.4019 25.8618 33.9551 26.1621 33.5742 26.543C33.1934 26.9238 32.8931 27.3706 32.6733 27.8833C32.4536 28.396 32.3438 28.9453 32.3438 29.5312C32.3438 30.1172 32.4536 30.6665 32.6733 31.1792C32.8931 31.6919 33.1934 32.1387 33.5742 32.5195C33.9551 32.9004 34.4019 33.2007 34.9146 33.4204C35.4272 33.6401 35.9766 33.75 36.5625 33.75C37.1484 33.75 37.6978 33.6401 38.2104 33.4204C38.7231 33.2007 39.1699 32.9004 39.5508 32.5195C39.9316 32.1387 40.2319 31.6919 40.4517 31.1792C40.6714 30.6665 40.7812 30.1172 40.7812 29.5312C40.7812 28.9453 40.6714 28.396 40.4517 27.8833C40.2319 27.3706 39.9316 26.9238 39.5508 26.543C39.1699 26.1621 38.7231 25.8618 38.2104 25.6421C37.6978 25.4224 37.1484 25.3125 36.5625 25.3125ZM39.375 40.4517V35.9692C38.4961 36.3647 37.5586 36.5625 36.5625 36.5625C35.5664 36.5625 34.6289 36.3647 33.75 35.9692V40.4517C34.2188 40.2173 34.6875 39.9902 35.1562 39.7705C35.625 39.5508 36.0938 39.3091 36.5625 39.0454C37.0312 39.2944 37.5 39.5288 37.9688 39.7485C38.4375 39.9683 38.9062 40.2026 39.375 40.4517Z" fill="url(#paint0_linear_173_15447)"/>
<defs>
<linearGradient id="paint0_linear_173_15447" x1="43.5938" y1="22.5" x2="2.8125" y2="22.5" gradientUnits="userSpaceOnUse">
<stop stop-color="#26CFCE"/>
<stop offset="1" stop-color="#1B2C82"/>
</linearGradient>
</defs>
</svg>
