<svg width="31" height="31" viewBox="0 0 31 31" fill="none" xmlns="http://www.w3.org/2000/svg">
<path d="M24.2188 19.375C24.2188 24.7256 20.8505 28.0938 15.5 28.0938C10.1495 28.0938 6.78125 24.7256 6.78125 19.375C6.78125 13.6334 13.0315 5.88216 14.9484 3.64011C15.0166 3.56045 15.1013 3.4965 15.1965 3.45266C15.2918 3.40881 15.3954 3.38611 15.5003 3.38611C15.6052 3.38611 15.7088 3.40881 15.8041 3.45266C15.8993 3.4965 15.984 3.56045 16.0522 3.64011C17.9685 5.88216 24.2188 13.6334 24.2188 19.375Z" stroke="black" stroke-width="1.9375" stroke-miterlimit="10"/>
<path d="M20.8281 19.8594C20.8281 21.0156 20.3688 22.1244 19.5513 22.9419C18.7338 23.7595 17.6249 24.2188 16.4688 24.2188" stroke="black" stroke-width="1.9375" stroke-linecap="round" stroke-linejoin="round"/>
</svg>
