<svg width="25" height="25" viewBox="0 0 25 25" fill="none" xmlns="http://www.w3.org/2000/svg">
<g clip-path="url(#clip0_184_1783)">
<path d="M16.2708 11.6875C16.141 11.5558 15.9641 11.4811 15.7792 11.4798C15.5943 11.4785 15.4164 11.5507 15.2847 11.6806C15.153 11.8104 15.0783 11.9872 15.077 12.1722C15.0757 12.3571 15.1479 12.535 15.2778 12.6667L17.8611 15.2778H5.43749C5.25331 15.2778 5.07667 15.3509 4.94644 15.4812C4.81621 15.6114 4.74304 15.788 4.74304 15.9722C4.74304 16.1564 4.81621 16.333 4.94644 16.4633C5.07667 16.5935 5.25331 16.6667 5.43749 16.6667H17.8611L15.2778 19.2361C15.2135 19.3009 15.1626 19.3776 15.1279 19.4621C15.0933 19.5465 15.0757 19.6369 15.076 19.7281C15.0763 19.8194 15.0946 19.9097 15.1298 19.9939C15.165 20.078 15.2165 20.1545 15.2812 20.2188C15.346 20.283 15.4228 20.334 15.5072 20.3686C15.5916 20.4032 15.682 20.4208 15.7733 20.4205C15.8645 20.4202 15.9548 20.4019 16.039 20.3667C16.1232 20.3315 16.1996 20.28 16.2639 20.2153L20.5069 15.9722L16.2708 11.6875Z" fill="white"/>
<path d="M9.19445 12.8125C9.33239 12.8133 9.46744 12.773 9.58238 12.6968C9.69732 12.6205 9.78696 12.5118 9.83985 12.3844C9.89274 12.257 9.9065 12.1167 9.87937 11.9815C9.85224 11.8462 9.78545 11.7221 9.68751 11.625L7.11112 9.02778H19.5278C19.712 9.02778 19.8886 8.95461 20.0188 8.82438C20.1491 8.69415 20.2222 8.51751 20.2222 8.33333C20.2222 8.14916 20.1491 7.97252 20.0188 7.84229C19.8886 7.71205 19.712 7.63889 19.5278 7.63889H7.11112L9.68751 5.04861C9.7518 4.98386 9.80271 4.90708 9.83733 4.82266C9.87195 4.73824 9.88961 4.64782 9.88928 4.55657C9.88896 4.46533 9.87067 4.37504 9.83545 4.29086C9.80024 4.20668 9.74879 4.13027 9.68404 4.06597C9.61929 4.00168 9.54251 3.95077 9.45809 3.91615C9.37366 3.88153 9.28325 3.86387 9.192 3.8642C9.00772 3.86485 8.83124 3.93868 8.7014 4.06944L4.45834 8.33333L8.7014 12.5972C8.76513 12.6641 8.84157 12.7176 8.92623 12.7545C9.01089 12.7915 9.10208 12.8112 9.19445 12.8125Z" fill="white"/>
</g>
<defs>
<clipPath id="clip0_184_1783">
<rect width="25" height="25" fill="white"/>
</clipPath>
</defs>
</svg>
