<svg width="21" height="20" viewBox="0 0 21 20" fill="none" xmlns="http://www.w3.org/2000/svg">
<g clip-path="url(#clip0_344_218)">
<path d="M5.34382 8.6231C5.42845 8.6231 5.52285 8.63612 5.62702 8.66216C5.73119 8.6882 5.83535 8.72401 5.93952 8.76958C6.04369 8.81515 6.14785 8.85747 6.25202 8.89653C6.35619 8.9356 6.45059 8.97466 6.53522 9.01372L6.37897 9.03325C6.32689 9.03976 6.27155 9.04302 6.21296 9.04302C6.10228 9.04302 6.00137 9.02674 5.91022 8.99419C5.81908 8.96164 5.73444 8.91932 5.65632 8.86724C5.57819 8.81515 5.50007 8.77609 5.42194 8.75005C5.34382 8.72401 5.2722 8.70448 5.2071 8.69146C5.14199 8.69146 5.0834 8.70448 5.03132 8.73052C4.97923 8.75656 4.92715 8.78586 4.87507 8.81841C4.87507 8.79237 4.85228 8.77935 4.80671 8.77935C4.85228 8.73377 4.93692 8.69797 5.06061 8.67192C5.18431 8.64588 5.27871 8.62961 5.34382 8.6231ZM6.66218 9.06255C6.9291 9.06255 7.17324 9.10812 7.3946 9.19927C7.30345 9.23182 7.21231 9.25786 7.12116 9.27739C7.03001 9.29692 6.93561 9.30995 6.83796 9.31646C6.70775 9.31646 6.59056 9.30344 6.4864 9.27739C6.51895 9.22531 6.5515 9.19276 6.58405 9.17974C6.6166 9.16672 6.64265 9.12765 6.66218 9.06255ZM10.5001 5.0129e-05C11.418 5.0129e-05 12.3002 0.120493 13.1466 0.361378C13.9929 0.602264 14.7872 0.93755 15.5294 1.36724C16.2716 1.79693 16.9486 2.32101 17.5606 2.9395C18.1726 3.55799 18.6934 4.23182 19.1231 4.96099C19.5528 5.69015 19.8913 6.48443 20.1387 7.3438C20.3861 8.20317 20.5066 9.08859 20.5001 10C20.5001 10.918 20.3796 11.8002 20.1387 12.6465C19.8979 13.4929 19.5626 14.2872 19.1329 15.0293C18.7032 15.7715 18.1791 16.4486 17.5606 17.0606C16.9421 17.6726 16.2683 18.1934 15.5391 18.6231C14.81 19.0528 14.0157 19.3913 13.1563 19.6387C12.2969 19.8861 11.4115 20.0066 10.5001 20C9.5821 20 8.69994 19.8796 7.85358 19.6387C7.00723 19.3978 6.21296 19.0625 5.47077 18.6329C4.72858 18.2032 4.0515 17.6791 3.43952 17.0606C2.82754 16.4421 2.30671 15.7683 1.87702 15.0391C1.44733 14.3099 1.10879 13.5157 0.861395 12.6563C0.614 11.7969 0.493557 10.9115 0.500067 10C0.500067 9.08208 0.62051 8.19992 0.861395 7.35357C1.10228 6.50721 1.43757 5.71294 1.86725 4.97075C2.29694 4.22857 2.82103 3.55148 3.43952 2.9395C4.05801 2.32752 4.73184 1.80669 5.461 1.377C6.19017 0.947316 6.98444 0.608774 7.84382 0.361378C8.70319 0.113982 9.58861 -0.00646029 10.5001 5.0129e-05ZM17.9415 5.41997C17.8503 5.27674 17.7592 5.14002 17.668 5.00982C17.5769 4.87961 17.4825 4.74614 17.3848 4.60943C17.3718 4.66802 17.3555 4.71034 17.336 4.73638C17.3165 4.76242 17.3035 4.82101 17.2969 4.91216C17.2969 4.97075 17.3197 5.02609 17.3653 5.07818C17.4109 5.13026 17.4695 5.18234 17.5411 5.23443C17.6127 5.28651 17.6843 5.32557 17.7559 5.35161C17.8275 5.37765 17.8894 5.40044 17.9415 5.41997ZM17.2676 4.46294C17.2676 4.51502 17.2579 4.55083 17.2383 4.57036H17.2969C17.323 4.57036 17.3425 4.57362 17.3555 4.58013L17.2676 4.46294ZM10.5001 18.75C11.2423 18.75 11.9682 18.6556 12.6778 18.4668C13.3874 18.278 14.058 18.0111 14.6895 17.6661C15.321 17.321 15.907 16.8978 16.4473 16.3965C16.9877 15.8952 17.4597 15.3353 17.8633 14.7168C17.7787 14.5215 17.6973 14.323 17.6192 14.1211C17.5411 13.9193 17.502 13.711 17.502 13.4961C17.502 13.2618 17.5118 13.073 17.5313 12.9297C17.5508 12.7865 17.5736 12.6596 17.5997 12.5489C17.6257 12.4382 17.6387 12.3438 17.6387 12.2657C17.6387 12.1875 17.629 12.0866 17.6094 11.9629C17.5899 11.8392 17.5346 11.7058 17.4434 11.5625C17.3523 11.4193 17.2318 11.2175 17.0821 10.9571C17.0886 10.9115 17.0984 10.8497 17.1114 10.7715C17.1244 10.6934 17.1374 10.612 17.1505 10.5274C17.1635 10.4428 17.1667 10.3646 17.1602 10.293C17.1537 10.2214 17.1374 10.1596 17.1114 10.1075C16.9421 10.0879 16.7663 10.0521 16.5841 10C16.4018 9.94797 16.239 9.86984 16.0958 9.76567L16.1544 9.71685C16.0697 9.73638 15.9851 9.76242 15.9005 9.79497C15.8158 9.82752 15.7344 9.86333 15.6563 9.90239C15.5782 9.94146 15.4936 9.9675 15.4024 9.98052C15.3113 9.99354 15.2234 10.0066 15.1387 10.0196L14.9825 10L15.0118 9.93169C14.9206 9.95773 14.823 9.99028 14.7188 10.0293C14.6147 10.0684 14.5137 10.0879 14.4161 10.0879C14.351 10.0879 14.2566 10.0652 14.1329 10.0196C14.0092 9.97401 13.8855 9.91867 13.7618 9.85357C13.6381 9.78846 13.5274 9.71685 13.4298 9.63872C13.3321 9.5606 13.2833 9.48573 13.2833 9.41411L13.3028 9.38482C13.2702 9.34575 13.2279 9.30995 13.1758 9.27739C13.1238 9.24484 13.0749 9.21229 13.0294 9.17974C12.9838 9.14719 12.9415 9.11138 12.9024 9.07232C12.8633 9.03325 12.8471 8.98768 12.8536 8.9356L12.961 8.84771L12.7364 8.81841L12.6583 8.52544C12.6713 8.55799 12.7006 8.57101 12.7462 8.5645C12.7917 8.55799 12.8275 8.54497 12.8536 8.52544L12.502 8.33989L12.7462 7.71489C12.655 7.37635 12.6322 7.11594 12.6778 6.93364C12.7234 6.75135 12.8113 6.60161 12.9415 6.48443C13.0717 6.36724 13.2149 6.25005 13.3712 6.13286C13.5274 6.01568 13.6869 5.85617 13.8497 5.65435L13.8204 5.53716L14.4649 4.75591L14.6114 4.73638C14.7937 4.73638 14.9988 4.72987 15.2266 4.71685C15.4545 4.70383 15.6856 4.68104 15.92 4.64849C16.1544 4.61594 16.3855 4.58338 16.6133 4.55083C16.8412 4.51828 17.0495 4.47596 17.2383 4.42388C17.03 4.17648 16.8119 3.94211 16.5841 3.72075C16.3562 3.4994 16.112 3.28781 15.8516 3.08599C15.78 3.11203 15.6921 3.14784 15.588 3.19341C15.4838 3.23898 15.3796 3.29758 15.2755 3.36919C15.1713 3.44081 15.0899 3.51893 15.0313 3.60357C14.9727 3.6882 14.9369 3.77609 14.9239 3.86724L14.9825 4.05278C14.8653 4.24159 14.7351 4.35877 14.5919 4.40435C14.4486 4.44992 14.3022 4.47596 14.1524 4.48247C14.0027 4.48898 13.8464 4.48898 13.6837 4.48247C13.5209 4.47596 13.3647 4.50526 13.2149 4.57036L13.0587 4.23833L13.2051 3.67193L13.0391 3.42778L14.7286 2.90044C14.657 2.71815 14.5398 2.58143 14.377 2.49028C14.2143 2.39914 14.0352 2.35357 13.8399 2.35357V2.25591L14.3868 2.16802C13.7813 1.86854 13.1531 1.64068 12.502 1.48443C11.851 1.32818 11.1837 1.25005 10.5001 1.25005C9.93366 1.25005 9.37376 1.30539 8.82038 1.41607C8.26699 1.52674 7.73314 1.68625 7.21882 1.89458C6.70449 2.10291 6.20645 2.36333 5.72468 2.67583C5.24291 2.98833 4.80345 3.33989 4.40632 3.73052C4.57559 3.73052 4.7058 3.77284 4.79694 3.85747C4.88809 3.94211 4.97272 4.03651 5.05085 4.14068C5.12897 4.24484 5.21035 4.33924 5.29499 4.42388C5.37962 4.50851 5.49356 4.55409 5.63679 4.5606L5.79304 4.44341L5.7735 4.22857L6.09577 3.76958L5.84186 3.04693C5.87442 3.02739 5.92324 2.99484 5.98835 2.94927C6.05345 2.9037 6.10879 2.88091 6.15436 2.88091C6.34968 2.88091 6.49942 2.89068 6.60358 2.91021C6.70775 2.92974 6.7989 2.96554 6.87702 3.01763C6.95515 3.06971 7.0235 3.14458 7.0821 3.24224C7.14069 3.33989 7.23184 3.46359 7.35554 3.61333L7.7071 3.33989C7.7722 3.36594 7.87637 3.40825 8.0196 3.46685C8.16283 3.52544 8.30931 3.59706 8.45905 3.68169C8.60879 3.76633 8.73574 3.85422 8.83991 3.94536C8.94408 4.03651 8.99942 4.12114 9.00593 4.19927C9.00593 4.29693 8.97012 4.37505 8.8985 4.43364C8.82689 4.49224 8.73249 4.54107 8.6153 4.58013C8.49811 4.61919 8.37767 4.64849 8.25397 4.66802C8.13028 4.68755 8.00658 4.71359 7.88288 4.74614C7.75918 4.7787 7.66478 4.81125 7.59968 4.8438C7.53457 4.87635 7.49551 4.93169 7.48249 5.00982L8.0489 5.19536C7.91869 5.30604 7.77871 5.40695 7.62897 5.4981C7.47923 5.58924 7.32298 5.67388 7.16022 5.752L7.19929 5.91802L6.30085 6.26958V6.54302L6.23249 6.57232L6.28132 6.23052L6.24225 6.22075C6.19668 6.22075 6.17064 6.23052 6.16413 6.25005C6.15762 6.26958 6.15436 6.29237 6.15436 6.31841C6.15436 6.34445 6.16087 6.37049 6.1739 6.39653C6.18692 6.42258 6.19017 6.44211 6.18366 6.45513L6.05671 6.38677L6.07624 6.42583C6.07624 6.44536 6.086 6.47466 6.10554 6.51372C6.12507 6.55278 6.15111 6.58859 6.18366 6.62114C6.21621 6.6537 6.24225 6.68625 6.26179 6.7188C6.28132 6.75135 6.29434 6.76763 6.30085 6.76763C6.30085 6.78716 6.28783 6.80669 6.26179 6.82622C6.23574 6.84575 6.20319 6.85877 6.16413 6.86528C6.12507 6.87179 6.09903 6.88156 6.086 6.89458C6.07298 6.9076 6.07298 6.91086 6.086 6.90435C6.17715 6.90435 6.19668 6.91086 6.1446 6.92388C6.09251 6.9369 6.01114 6.96945 5.90046 7.02153C5.78978 7.07362 5.68887 7.14849 5.59772 7.24614C5.50658 7.3438 5.45449 7.48703 5.44147 7.67583C5.44147 7.78651 5.44473 7.89393 5.45124 7.9981C5.45775 8.10226 5.45449 8.20969 5.44147 8.32036C5.35033 8.07297 5.21361 7.88416 5.03132 7.75396C4.84903 7.62375 4.62767 7.55864 4.36725 7.55864L3.94733 7.59771L4.15241 7.73443C4.04173 7.7214 3.9278 7.70838 3.81061 7.69536C3.69343 7.68234 3.57298 7.67909 3.44929 7.6856C3.32559 7.69211 3.21491 7.71815 3.11725 7.76372C3.0196 7.80929 2.92194 7.87765 2.82429 7.9688L2.76569 8.40825C2.76569 8.61659 2.81127 8.78586 2.90241 8.91607C2.99356 9.04627 3.15306 9.11463 3.38093 9.12114C3.57624 9.12114 3.7683 9.09185 3.9571 9.03325C4.1459 8.97466 4.33145 8.9063 4.51374 8.82817C4.45515 8.9714 4.39004 9.10812 4.31843 9.23833C4.24681 9.36854 4.19473 9.51177 4.16218 9.66802L4.28913 9.72661C4.44538 9.62245 4.58861 9.60617 4.71882 9.67778C4.84903 9.7494 4.97598 9.85357 5.09968 9.99028C5.22337 10.127 5.35033 10.267 5.48054 10.4102C5.61074 10.5534 5.75072 10.6576 5.90046 10.7227L5.56843 10.8985L4.78718 10.459C4.79369 10.4721 4.8002 10.5014 4.80671 10.5469C4.81322 10.5925 4.80996 10.6023 4.79694 10.5762L4.44538 9.98052C4.23705 9.97401 4.01569 9.94146 3.78132 9.88286C3.54694 9.82427 3.30931 9.74614 3.06843 9.64849C2.82754 9.55083 2.60293 9.44341 2.3946 9.32622C2.18627 9.20903 1.99421 9.08534 1.81843 8.95513L1.75007 10C1.75007 10.7943 1.85749 11.5691 2.07233 12.3243C2.28718 13.0795 2.58991 13.7891 2.98054 14.4532C3.37116 15.1172 3.84968 15.7227 4.41608 16.2696C4.98249 16.8165 5.61074 17.282 6.30085 17.6661C6.2683 17.5293 6.26504 17.3926 6.29108 17.2559C6.31712 17.1192 6.34968 16.9825 6.38874 16.8458C6.4278 16.709 6.47012 16.5723 6.51569 16.4356C6.56126 16.2989 6.58405 16.1589 6.58405 16.0157C6.58405 15.8073 6.5515 15.5892 6.4864 15.3614C6.42129 15.1335 6.34317 14.9024 6.25202 14.668C6.16087 14.4336 6.05996 14.2025 5.94929 13.9747C5.83861 13.7468 5.75072 13.532 5.68561 13.3301C5.62051 13.1283 5.56843 12.9395 5.52936 12.7637C5.4903 12.5879 5.50983 12.4349 5.58796 12.3047L5.44147 12.2364C5.48054 12.1452 5.53262 12.0573 5.59772 11.9727C5.66283 11.8881 5.73119 11.8034 5.8028 11.7188C5.87442 11.6342 5.92975 11.543 5.96882 11.4454C6.00788 11.3477 6.03067 11.25 6.03718 11.1524C6.03718 11.0873 6.02416 11.0189 5.99811 10.9473C5.97207 10.8757 5.94929 10.8073 5.92975 10.7422L6.13483 10.7911C6.24551 10.5372 6.39525 10.3646 6.58405 10.2735C6.77285 10.1823 7.01048 10.1335 7.29694 10.127C7.32949 10.127 7.39785 10.14 7.50202 10.1661C7.60619 10.1921 7.71686 10.2279 7.83405 10.2735C7.95124 10.3191 8.06192 10.3549 8.16608 10.3809C8.27025 10.407 8.34837 10.433 8.40046 10.459C8.40046 10.5046 8.4265 10.5339 8.47858 10.5469C8.53067 10.5599 8.55996 10.5827 8.56647 10.6153L8.54694 10.6934C8.56647 10.6999 8.61205 10.7227 8.68366 10.7618C8.75528 10.8008 8.8334 10.8497 8.91804 10.9083C9.00267 10.9668 9.07754 11.0189 9.14264 11.0645C9.20775 11.1101 9.25332 11.1459 9.27936 11.1719C9.39655 11.1719 9.55606 11.211 9.75788 11.2891C9.9597 11.3672 10.1811 11.4649 10.4219 11.5821C10.6628 11.6993 10.9005 11.8392 11.1348 12.002C11.3692 12.1648 11.5906 12.3275 11.7989 12.4903C12.0072 12.653 12.1667 12.8158 12.2774 12.9786C12.3881 13.1413 12.4532 13.2846 12.4727 13.4083L12.1407 13.7598C12.1667 14.0918 12.1439 14.3458 12.0723 14.5215C12.0007 14.6973 11.89 14.8438 11.7403 14.961C11.5906 15.0782 11.418 15.1758 11.2227 15.254C11.0274 15.3321 10.8158 15.4428 10.588 15.586C10.588 15.7162 10.5554 15.8562 10.4903 16.0059C10.4252 16.1556 10.3438 16.2989 10.2462 16.4356C10.1485 16.5723 10.0313 16.6862 9.8946 16.7774C9.75788 16.8685 9.62116 16.9141 9.48444 16.9141L9.07429 16.6016C9.08731 16.6146 9.08731 16.6374 9.07429 16.67C9.06126 16.7025 9.04499 16.709 9.02546 16.6895C9.09056 16.8132 9.10684 16.9564 9.07429 17.1192C9.04173 17.282 8.98639 17.448 8.90827 17.6172C8.83014 17.7865 8.74225 17.946 8.6446 18.0958C8.54694 18.2455 8.45905 18.3724 8.38093 18.4766C8.73249 18.5678 9.08405 18.6361 9.43561 18.6817C9.78718 18.7273 10.142 18.75 10.5001 18.75Z" fill="white"/>
</g>
<defs>
<clipPath id="clip0_344_218">
<rect width="20" height="20" fill="white" transform="translate(0.5)"/>
</clipPath>
</defs>
</svg>
