<svg width="35" height="35" viewBox="0 0 35 35" fill="none" xmlns="http://www.w3.org/2000/svg">
<g clip-path="url(#clip0_154_3990)">
<path d="M8.477 15.0905C8.62511 15.0905 8.79031 15.1133 8.97261 15.1589C9.1549 15.2045 9.33719 15.2671 9.51948 15.3469C9.70177 15.4266 9.88406 15.5007 10.0664 15.569C10.2486 15.6374 10.4138 15.7058 10.562 15.7741L10.2885 15.8083C10.1974 15.8197 10.1005 15.8254 9.998 15.8254C9.80431 15.8254 9.62772 15.7969 9.46821 15.7399C9.30871 15.683 9.16059 15.6089 9.02388 15.5178C8.88716 15.4266 8.75044 15.3583 8.61372 15.3127C8.477 15.2671 8.35168 15.2329 8.23774 15.2102C8.12381 15.2102 8.02127 15.2329 7.93013 15.2785C7.83898 15.3241 7.74783 15.3754 7.65669 15.4323C7.65669 15.3868 7.61681 15.364 7.53706 15.364C7.61681 15.2842 7.76492 15.2215 7.9814 15.176C8.19787 15.1304 8.36307 15.1019 8.477 15.0905ZM10.7841 15.8596C11.2513 15.8596 11.6785 15.9393 12.0659 16.0988C11.9064 16.1558 11.7469 16.2014 11.5874 16.2355C11.4278 16.2697 11.2626 16.2925 11.0917 16.3039C10.8639 16.3039 10.6588 16.2811 10.4765 16.2355C10.5335 16.1444 10.5904 16.0874 10.6474 16.0646C10.7044 16.0419 10.7499 15.9735 10.7841 15.8596ZM17.5004 0.000194061C19.1069 0.000194061 20.6507 0.210969 22.1318 0.632518C23.6129 1.05407 25.0029 1.64082 26.3017 2.39277C27.6005 3.14473 28.7854 4.06188 29.8564 5.14424C30.9274 6.22659 31.8388 7.40579 32.5908 8.68183C33.3427 9.95788 33.9352 11.3478 34.3681 12.8518C34.8011 14.3557 35.0118 15.9051 35.0004 17.5002C35.0004 19.1066 34.7897 20.6504 34.3681 22.1315C33.9466 23.6127 33.3598 25.0026 32.6079 26.3015C31.8559 27.6003 30.9388 28.7852 29.8564 29.8562C28.774 30.9271 27.5948 31.8386 26.3188 32.5905C25.0428 33.3425 23.6528 33.9349 22.1489 34.3679C20.645 34.8008 19.0955 35.0116 17.5004 35.0002C15.894 35.0002 14.3502 34.7894 12.8691 34.3679C11.388 33.9463 9.998 33.3596 8.69917 32.6076C7.40034 31.8557 6.21544 30.9385 5.14448 29.8562C4.07352 28.7738 3.16206 27.5946 2.41011 26.3186C1.65815 25.0425 1.06571 23.6525 0.632762 22.1486C0.19982 20.6447 -0.010955 19.0952 0.000438201 17.5002C0.000438201 15.8937 0.211213 14.35 0.632762 12.8688C1.05431 11.3877 1.64106 9.99775 2.39302 8.69892C3.14497 7.4001 4.06212 6.2152 5.14448 5.14424C6.22684 4.07327 7.40604 3.16182 8.68208 2.40986C9.95812 1.65791 11.3481 1.06546 12.852 0.632518C14.3559 0.199576 15.9054 -0.0111992 17.5004 0.000194061ZM30.5229 9.48506C30.3634 9.23441 30.2039 8.99515 30.0444 8.76728C29.8849 8.53942 29.7197 8.30586 29.5488 8.0666C29.526 8.16914 29.4975 8.2432 29.4633 8.28877C29.4291 8.33434 29.4064 8.43688 29.395 8.59639C29.395 8.69892 29.4348 8.79577 29.5146 8.88691C29.5944 8.97806 29.6969 9.0692 29.8222 9.16035C29.9475 9.2515 30.0729 9.31986 30.1982 9.36543C30.3235 9.411 30.4318 9.45088 30.5229 9.48506ZM29.3437 7.81025C29.3437 7.9014 29.3266 7.96406 29.2924 7.99824H29.395C29.4405 7.99824 29.4747 8.00394 29.4975 8.01533L29.3437 7.81025ZM17.5004 32.8127C18.7993 32.8127 20.0696 32.6475 21.3115 32.3171C22.5533 31.9867 23.7268 31.5196 24.832 30.9157C25.9371 30.3119 26.9625 29.5713 27.9082 28.694C28.8538 27.8168 29.6798 26.8369 30.3862 25.7546C30.2381 25.4128 30.0957 25.0653 29.9589 24.7121C29.8222 24.3589 29.7539 23.9943 29.7539 23.6184C29.7539 23.2082 29.7709 22.8778 29.8051 22.6271C29.8393 22.3765 29.8792 22.1543 29.9248 21.9606C29.9703 21.767 29.9931 21.6018 29.9931 21.465C29.9931 21.3283 29.976 21.1517 29.9418 20.9353C29.9077 20.7188 29.8108 20.4852 29.6513 20.2346C29.4918 19.9839 29.281 19.6307 29.019 19.175C29.0304 19.0952 29.0475 18.987 29.0703 18.8503C29.093 18.7136 29.1158 18.5712 29.1386 18.423C29.1614 18.2749 29.1671 18.1382 29.1557 18.0129C29.1443 17.8876 29.1158 17.7793 29.0703 17.6882C28.774 17.654 28.4664 17.5913 28.1474 17.5002C27.8284 17.409 27.5436 17.2723 27.2929 17.09L27.3955 17.0046C27.2473 17.0388 27.0992 17.0843 26.9511 17.1413C26.803 17.1983 26.6606 17.2609 26.5239 17.3293C26.3872 17.3977 26.239 17.4432 26.0795 17.466C25.92 17.4888 25.7662 17.5116 25.6181 17.5344L25.3447 17.5002L25.3959 17.3806C25.2364 17.4261 25.0655 17.4831 24.8833 17.5515C24.701 17.6198 24.5244 17.654 24.3535 17.654C24.2395 17.654 24.0743 17.6141 23.8579 17.5344C23.6414 17.4546 23.4249 17.3578 23.2084 17.2438C22.992 17.1299 22.7983 17.0046 22.6274 16.8679C22.4565 16.7312 22.371 16.6001 22.371 16.4748L22.4052 16.4235C22.3483 16.3552 22.2742 16.2925 22.1831 16.2355C22.0919 16.1786 22.0065 16.1216 21.9267 16.0646C21.847 16.0077 21.7729 15.945 21.7045 15.8767C21.6362 15.8083 21.6077 15.7285 21.6191 15.6374L21.8071 15.4836L21.414 15.4323L21.2773 14.9196C21.3001 14.9766 21.3513 14.9994 21.4311 14.988C21.5109 14.9766 21.5735 14.9538 21.6191 14.9196L21.0039 14.5949L21.4311 13.5012C21.2716 12.9087 21.2317 12.453 21.3115 12.134C21.3912 11.815 21.545 11.5529 21.7729 11.3478C22.0008 11.1428 22.2514 10.9377 22.5249 10.7326C22.7983 10.5275 23.0774 10.2484 23.3623 9.89521L23.311 9.69014L24.4389 8.32295L24.6953 8.28877C25.0143 8.28877 25.3732 8.27738 25.7719 8.25459C26.1707 8.2318 26.5751 8.19193 26.9853 8.13496C27.3955 8.07799 27.7999 8.02103 28.1987 7.96406C28.5974 7.90709 28.962 7.83304 29.2924 7.74189C28.9278 7.30895 28.5462 6.89879 28.1474 6.51142C27.7486 6.12405 27.3214 5.75377 26.8657 5.40058C26.7403 5.44616 26.5865 5.50882 26.4042 5.58857C26.222 5.66833 26.0397 5.77086 25.8574 5.89619C25.6751 6.02152 25.5327 6.15823 25.4301 6.30635C25.3276 6.45446 25.2649 6.60827 25.2421 6.76777L25.3447 7.09248C25.1396 7.42288 24.9117 7.62796 24.6611 7.70771C24.4104 7.78747 24.1541 7.83304 23.892 7.84443C23.63 7.85583 23.3566 7.85583 23.0717 7.84443C22.7869 7.83304 22.5135 7.88431 22.2514 7.99824L21.978 7.41719L22.2343 6.42598L21.9438 5.99873L24.9003 5.07588C24.775 4.75687 24.5699 4.51761 24.2851 4.3581C24.0003 4.1986 23.687 4.11885 23.3452 4.11885V3.94795L24.3022 3.79414C23.2426 3.27005 22.1432 2.87129 21.0039 2.59785C19.8645 2.32441 18.6967 2.18769 17.5004 2.18769C16.5092 2.18769 15.5294 2.28454 14.561 2.47822C13.5926 2.67191 12.6583 2.95104 11.7583 3.31562C10.8582 3.68021 9.9866 4.13594 9.1435 4.68281C8.30041 5.22969 7.53136 5.84492 6.83638 6.52851C7.1326 6.52851 7.36046 6.60257 7.51997 6.75068C7.67947 6.89879 7.82759 7.064 7.96431 7.24629C8.10102 7.42858 8.24344 7.59378 8.39155 7.74189C8.53966 7.89001 8.73905 7.96976 8.9897 7.98115L9.26313 7.77607L9.22895 7.4001L9.79292 6.59687L9.34858 5.33223C9.40555 5.29805 9.491 5.24108 9.60493 5.16133C9.71886 5.08157 9.81571 5.0417 9.89546 5.0417C10.2373 5.0417 10.4993 5.05879 10.6816 5.09297C10.8639 5.12715 11.0234 5.18981 11.1601 5.28096C11.2968 5.3721 11.4165 5.50312 11.519 5.67402C11.6215 5.84492 11.781 6.06139 11.9975 6.32344L12.6127 5.84492C12.7267 5.89049 12.909 5.96455 13.1596 6.06709C13.4103 6.16963 13.6666 6.29495 13.9287 6.44307C14.1907 6.59118 14.4129 6.74499 14.5952 6.90449C14.7775 7.064 14.8743 7.21211 14.8857 7.34883C14.8857 7.51973 14.823 7.65644 14.6977 7.75898C14.5724 7.86152 14.4072 7.94697 14.2021 8.01533C13.997 8.08369 13.7862 8.13496 13.5698 8.16914C13.3533 8.20332 13.1368 8.24889 12.9204 8.30586C12.7039 8.36282 12.5387 8.41979 12.4248 8.47676C12.3108 8.53372 12.2425 8.63056 12.2197 8.76728L13.2109 9.09199C12.983 9.28568 12.7381 9.46227 12.476 9.62178C12.214 9.78128 11.9405 9.92939 11.6557 10.0661L11.7241 10.3566L10.1518 10.9719V11.4504L10.0322 11.5017L10.1176 10.9035L10.0493 10.8864C9.96951 10.8864 9.92394 10.9035 9.91255 10.9377C9.90115 10.9719 9.89546 11.0118 9.89546 11.0573C9.89546 11.1029 9.90685 11.1485 9.92964 11.194C9.95242 11.2396 9.95812 11.2738 9.94673 11.2966L9.72456 11.177L9.75874 11.2453C9.75874 11.2795 9.77583 11.3308 9.81001 11.3991C9.84419 11.4675 9.88976 11.5301 9.94673 11.5871C10.0037 11.6441 10.0493 11.701 10.0834 11.758C10.1176 11.815 10.1404 11.8435 10.1518 11.8435C10.1518 11.8776 10.129 11.9118 10.0834 11.946C10.0379 11.9802 9.98091 12.003 9.91255 12.0144C9.84419 12.0257 9.79862 12.0428 9.77583 12.0656C9.75304 12.0884 9.75304 12.0941 9.77583 12.0827C9.93533 12.0827 9.96951 12.0941 9.87837 12.1169C9.78722 12.1397 9.64481 12.1966 9.45112 12.2878C9.25744 12.3789 9.08084 12.51 8.92134 12.6809C8.76183 12.8518 8.67069 13.1024 8.6479 13.4328C8.6479 13.6265 8.6536 13.8145 8.66499 13.9968C8.67638 14.1791 8.67069 14.3671 8.6479 14.5607C8.48839 14.1278 8.24914 13.7974 7.93013 13.5695C7.61111 13.3417 7.22375 13.2277 6.76802 13.2277L6.03315 13.2961L6.39204 13.5353C6.19835 13.5126 5.99897 13.4898 5.7939 13.467C5.58882 13.4442 5.37804 13.4385 5.16157 13.4499C4.9451 13.4613 4.75141 13.5069 4.58052 13.5866C4.40962 13.6664 4.23872 13.786 4.06782 13.9455L3.96528 14.7145C3.96528 15.0791 4.04503 15.3754 4.20454 15.6032C4.36404 15.8311 4.64318 15.9507 5.04194 15.9621C5.38374 15.9621 5.71984 15.9108 6.05024 15.8083C6.38065 15.7058 6.70535 15.5861 7.02436 15.4494C6.92182 15.7001 6.80789 15.9393 6.68257 16.1672C6.55724 16.3951 6.4661 16.6457 6.40913 16.9191L6.6313 17.0217C6.90474 16.8394 7.15539 16.8109 7.38325 16.9362C7.61111 17.0616 7.83328 17.2438 8.04975 17.4831C8.26623 17.7224 8.48839 17.9673 8.71626 18.218C8.94412 18.4686 9.18908 18.6509 9.45112 18.7648L8.87007 19.0725L7.50288 18.3034C7.51427 18.3262 7.52567 18.3775 7.53706 18.4572C7.54845 18.537 7.54276 18.5541 7.51997 18.5085L6.90474 17.466C6.54015 17.4546 6.15278 17.3977 5.74263 17.2951C5.33247 17.1926 4.91662 17.0559 4.49507 16.885C4.07352 16.7141 3.68045 16.5261 3.31587 16.321C2.95128 16.1159 2.61518 15.8994 2.30757 15.6716L2.18794 17.5002C2.18794 18.8902 2.37593 20.246 2.7519 21.5676C3.12788 22.8892 3.65766 24.1311 4.34126 25.2932C5.02485 26.4553 5.86225 27.5148 6.85347 28.4719C7.84468 29.4289 8.94412 30.2435 10.1518 30.9157C10.0948 30.6765 10.0891 30.4372 10.1347 30.1979C10.1803 29.9587 10.2373 29.7194 10.3056 29.4802C10.374 29.2409 10.448 29.0017 10.5278 28.7624C10.6075 28.5231 10.6474 28.2782 10.6474 28.0275C10.6474 27.663 10.5904 27.2813 10.4765 26.8825C10.3626 26.4838 10.2259 26.0793 10.0664 25.6691C9.90685 25.259 9.73026 24.8545 9.53657 24.4558C9.34289 24.057 9.18908 23.681 9.07514 23.3278C8.96121 22.9746 8.87007 22.6442 8.80171 22.3366C8.73335 22.029 8.76753 21.7613 8.90425 21.5334L8.6479 21.4138C8.71626 21.2543 8.8074 21.1005 8.92134 20.9523C9.03527 20.8042 9.1549 20.6561 9.28022 20.508C9.40555 20.3599 9.50239 20.2004 9.57075 20.0295C9.63911 19.8586 9.67899 19.6877 9.69038 19.5168C9.69038 19.4029 9.66759 19.2832 9.62202 19.1579C9.57645 19.0326 9.53657 18.913 9.50239 18.799L9.86128 18.8845C10.055 18.4401 10.317 18.1382 10.6474 17.9787C10.9778 17.8192 11.3937 17.7338 11.895 17.7224C11.9519 17.7224 12.0716 17.7451 12.2539 17.7907C12.4361 17.8363 12.6298 17.899 12.8349 17.9787C13.04 18.0585 13.2337 18.1211 13.416 18.1667C13.5983 18.2123 13.735 18.2578 13.8261 18.3034C13.8261 18.3832 13.8717 18.4344 13.9628 18.4572C14.054 18.48 14.1053 18.5199 14.1166 18.5769L14.0825 18.7136C14.1166 18.725 14.1964 18.7648 14.3217 18.8332C14.4471 18.9016 14.5838 18.987 14.7319 19.0896C14.88 19.1921 15.011 19.2832 15.1249 19.363C15.2389 19.4427 15.3186 19.5054 15.3642 19.551C15.5693 19.551 15.8484 19.6193 16.2016 19.7561C16.5548 19.8928 16.9422 20.0637 17.3637 20.2687C17.7853 20.4738 18.2011 20.7188 18.6113 21.0036C19.0214 21.2884 19.4088 21.5733 19.7734 21.8581C20.138 22.1429 20.4171 22.4278 20.6108 22.7126C20.8045 22.9974 20.9184 23.2481 20.9526 23.4646L20.3715 24.0798C20.4171 24.6608 20.3772 25.1052 20.2519 25.4128C20.1266 25.7204 19.9329 25.9768 19.6708 26.1818C19.4088 26.3869 19.1069 26.5578 18.7651 26.6945C18.4233 26.8312 18.053 27.0249 17.6542 27.2756C17.6542 27.5034 17.5973 27.7484 17.4833 28.0104C17.3694 28.2725 17.227 28.5231 17.0561 28.7624C16.8852 29.0017 16.6801 29.201 16.4409 29.3605C16.2016 29.5201 15.9624 29.5998 15.7231 29.5998L15.0053 29.0529C15.0281 29.0757 15.0281 29.1156 15.0053 29.1726C14.9825 29.2295 14.9541 29.2409 14.9199 29.2067C15.0338 29.4232 15.0623 29.6739 15.0053 29.9587C14.9484 30.2435 14.8515 30.534 14.7148 30.8303C14.5781 31.1265 14.4243 31.4056 14.2534 31.6677C14.0825 31.9297 13.9287 32.1519 13.7919 32.3342C14.4072 32.4937 15.0224 32.6133 15.6376 32.6931C16.2529 32.7728 16.8738 32.8127 17.5004 32.8127Z" fill="black"/>
</g>
<defs>
<clipPath id="clip0_154_3990">
<rect width="35" height="35" fill="white"/>
</clipPath>
</defs>
</svg>
