<svg width="45" height="45" viewBox="0 0 45 45" fill="none" xmlns="http://www.w3.org/2000/svg">
<g clip-path="url(#clip0_348_739)">
<path d="M22.5 12.2876C22.1685 12.2876 21.8505 12.4193 21.6161 12.6537C21.3817 12.8881 21.25 13.2061 21.25 13.5376V24.4376L28.625 29.4376C28.9018 29.6134 29.2366 29.6734 29.5573 29.6047C29.8779 29.5359 30.1587 29.3439 30.3391 29.07C30.5195 28.7962 30.585 28.4624 30.5216 28.1407C30.4582 27.8189 30.2708 27.535 30 27.3501L23.75 23.1126V13.5376C23.75 13.2061 23.6183 12.8881 23.3839 12.6537C23.1495 12.4193 22.8315 12.2876 22.5 12.2876Z" fill="white"/>
<path d="M22.5 2.5C18.9291 2.5125 15.4258 3.47552 12.3503 5.2901C9.27473 7.10468 6.73774 9.70538 5 12.825V6.5C5 6.16848 4.8683 5.85054 4.63388 5.61612C4.39946 5.3817 4.08152 5.25 3.75 5.25C3.41848 5.25 3.10054 5.3817 2.86612 5.61612C2.6317 5.85054 2.5 6.16848 2.5 6.5V17.5H13.5C13.8315 17.5 14.1495 17.3683 14.3839 17.1339C14.6183 16.8995 14.75 16.5815 14.75 16.25C14.75 15.9185 14.6183 15.6005 14.3839 15.3661C14.1495 15.1317 13.8315 15 13.5 15H6.6875C8.26404 11.6727 10.8498 8.92749 14.0769 7.15491C17.304 5.38233 21.008 4.67274 24.6617 5.12711C28.3154 5.58149 31.7327 7.17668 34.4274 9.68568C37.122 12.1947 38.9567 15.4897 39.6702 19.1017C40.3838 22.7138 39.94 26.4589 38.4018 29.8041C36.8637 33.1493 34.3097 35.9241 31.1032 37.7337C27.8968 39.5434 24.2013 40.2956 20.5425 39.8833C16.8838 39.471 13.4484 37.9153 10.725 35.4375C10.6035 35.3267 10.4614 35.2409 10.3068 35.185C10.1522 35.1291 9.98804 35.1043 9.8238 35.1118C9.65955 35.1194 9.4984 35.1592 9.34955 35.229C9.2007 35.2988 9.06705 35.3973 8.95625 35.5188C8.84545 35.6402 8.75966 35.7823 8.70377 35.937C8.64789 36.0916 8.62301 36.2557 8.63055 36.42C8.6381 36.5842 8.67792 36.7453 8.74774 36.8942C8.81757 37.0431 8.91603 37.1767 9.0375 37.2875C11.4402 39.4755 14.3398 41.045 17.4855 41.8603C20.6312 42.6756 23.9282 42.7121 27.0911 41.9667C30.2541 41.2213 33.1878 39.7164 35.6384 37.5822C38.089 35.448 39.9826 32.7488 41.1554 29.7182C42.3282 26.6876 42.7449 23.4168 42.3694 20.189C41.9939 16.9611 40.8375 13.8734 39.0004 11.1929C37.1632 8.51249 34.7005 6.32008 31.8255 4.80541C28.9504 3.29075 25.7496 2.49945 22.5 2.5Z" fill="white"/>
</g>
<defs>
<clipPath id="clip0_348_739">
<rect width="45" height="45" fill="white"/>
</clipPath>
</defs>
</svg>
