<svg width="45" height="45" viewBox="0 0 45 45" fill="none" xmlns="http://www.w3.org/2000/svg">
<path d="M22.5 42.1875C18.6062 42.1875 14.7998 41.0329 11.5622 38.8696C8.32463 36.7063 5.80123 33.6315 4.31113 30.0341C2.82103 26.4367 2.43115 22.4782 3.1908 18.6592C3.95045 14.8402 5.8255 11.3322 8.57884 8.57884C11.3322 5.8255 14.8402 3.95045 18.6592 3.1908C22.4782 2.43115 26.4367 2.82103 30.0341 4.31113C33.6315 5.80123 36.7063 8.32463 38.8696 11.5622C41.0329 14.7998 42.1875 18.6062 42.1875 22.5C42.1875 27.7215 40.1133 32.729 36.4212 36.4212C32.729 40.1133 27.7215 42.1875 22.5 42.1875ZM22.5 5.62501C19.1624 5.62501 15.8998 6.61471 13.1248 8.46896C10.3497 10.3232 8.18677 12.9587 6.90954 16.0422C5.63231 19.1257 5.29813 22.5187 5.94926 25.7922C6.60038 29.0656 8.20757 32.0724 10.5676 34.4324C12.9276 36.7924 15.9344 38.3996 19.2079 39.0508C22.4813 39.7019 25.8743 39.3677 28.9578 38.0905C32.0413 36.8132 34.6768 34.6503 36.5311 31.8753C38.3853 29.1002 39.375 25.8376 39.375 22.5C39.375 18.0245 37.5971 13.7323 34.4324 10.5676C31.2678 7.40291 26.9755 5.62501 22.5 5.62501Z" fill="white"/>
<path d="M28.9547 30.9375L21.0938 23.0766V9.84375H23.9062V21.9094L30.9375 28.9547L28.9547 30.9375Z" fill="white"/>
</svg>
