<svg width="45" height="45" viewBox="0 0 45 45" fill="none" xmlns="http://www.w3.org/2000/svg">
<path d="M19.6875 28.125C19.6875 29.3262 19.4458 30.4688 18.9624 31.5527C18.479 32.6367 17.7832 33.5889 16.875 34.4092V44.4727L11.25 41.6602L5.625 44.4727V34.4092C4.73145 33.6035 4.04297 32.6587 3.55957 31.5747C3.07617 30.4907 2.82715 29.3408 2.8125 28.125C2.8125 26.9678 3.03223 25.8765 3.47168 24.8511C3.91113 23.8257 4.51172 22.9321 5.27344 22.1704C6.03516 21.4087 6.92871 20.8008 7.9541 20.3467C8.97949 19.8926 10.0781 19.6729 11.25 19.6875C12.4072 19.6875 13.4985 19.9072 14.5239 20.3467C15.5493 20.7861 16.4429 21.394 17.2046 22.1704C17.9663 22.9468 18.5669 23.8403 19.0063 24.8511C19.4458 25.8618 19.6729 26.9531 19.6875 28.125ZM11.25 33.75C12.0264 33.75 12.7515 33.6035 13.4253 33.3105C14.0991 33.0176 14.6997 32.6147 15.2271 32.1021C15.7544 31.5894 16.1572 30.9961 16.4355 30.3223C16.7139 29.6484 16.8604 28.916 16.875 28.125C16.875 27.3486 16.7285 26.6235 16.4355 25.9497C16.1426 25.2759 15.7397 24.6753 15.2271 24.1479C14.7144 23.6206 14.1211 23.2178 13.4473 22.9395C12.7734 22.6611 12.041 22.5146 11.25 22.5C10.4736 22.5 9.74854 22.6465 9.07471 22.9395C8.40088 23.2324 7.80029 23.6353 7.27295 24.1479C6.74561 24.6606 6.34277 25.2539 6.06445 25.9277C5.78613 26.6016 5.63965 27.334 5.625 28.125C5.625 28.9014 5.77148 29.6265 6.06445 30.3003C6.35742 30.9741 6.76025 31.5747 7.27295 32.1021C7.78564 32.6294 8.37891 33.0322 9.05273 33.3105C9.72656 33.5889 10.459 33.7354 11.25 33.75ZM14.0625 36.0791C13.1689 36.4014 12.2681 36.5625 11.3599 36.5625C10.3345 36.5625 9.36035 36.4014 8.4375 36.0791V39.9023L11.25 38.4961L14.0625 39.9023V36.0791ZM42.1875 12.063V45H19.6875V42.1875H39.375V14.0625H28.125V2.8125H8.4375V16.5234C7.9541 16.6406 7.47803 16.7871 7.00928 16.9629C6.54053 17.1387 6.0791 17.3438 5.625 17.5781V0H30.1245L42.1875 12.063ZM37.3755 11.25L30.9375 4.81201V11.25H37.3755Z" fill="white"/>
</svg>
