<svg width="71" height="71" viewBox="0 0 71 71" fill="none" xmlns="http://www.w3.org/2000/svg">
<g clip-path="url(#clip0_207_2072)">
<path d="M30.0476 32.3559L28.787 30.9591L16.24 20.6789L20.9599 18.7524L40.1118 26.3576L41.3872 27.6448L30.0476 32.3559Z" fill="white"/>
<path d="M41.3872 27.6448L39.1441 28.5681L37.8687 27.2808L18.7168 19.6757L20.9599 18.7524L40.1118 26.3576L41.3872 27.6448Z" fill="#E5E3E5"/>
<path d="M41.8607 28.2663C41.7985 28.3136 41.7364 28.361 41.6742 28.4083L30.2873 33.0572C29.9913 33.1845 29.6155 33.0779 29.4261 32.8294L28.2129 31.4948L15.7606 21.3388C15.5564 21.1997 15.4291 20.9038 15.5209 20.6375C15.6126 20.3711 15.7517 20.167 16.0476 20.0397L20.7675 18.1133C20.8445 17.9564 21.0635 17.986 21.2824 18.0156L40.4343 25.6208C40.5438 25.6355 40.6385 25.7598 40.6859 25.822L41.8045 27.0323L41.9465 27.2187C42.2927 27.5442 42.1714 28.0295 41.8607 28.2663ZM30.2281 31.4326L40.026 27.4051L39.6324 27.0175L20.951 19.6432L17.758 20.9955C31.3111 32.0807 28.9201 29.9737 30.2281 31.4326Z" fill="#5C3290"/>
<path d="M49.1818 19.0543L19.4922 31.2639L6.72915 27.5324L2.77271 29.1718L9.43385 35.9809L8.30048 36.9426C6.96589 38.1559 7.92171 40.5706 9.82743 40.4937L19.0601 40.2362C20.5131 40.2096 21.9483 39.9018 23.1941 39.3455L52.5257 27.3105C54.7687 26.3872 55.9051 23.7535 54.9818 21.5104C54.0585 19.2674 51.4248 18.131 49.1818 19.0543Z" fill="#FDEF4C"/>
<path d="M17.2491 32.1871L4.48608 28.4556L6.72915 27.5323L19.4922 31.2639L17.2491 32.1871Z" fill="#F7B718"/>
<path d="M52.5257 27.3105L23.1942 39.3455C21.8388 39.8871 20.4658 40.1475 19.0602 40.2362L9.82747 40.4937C9.71798 40.4789 9.60849 40.4641 9.499 40.4493C8.51359 40.3161 7.77379 39.603 7.68797 38.588C7.9543 38.6797 8.17328 38.7093 8.4544 38.6915L17.6871 38.4341C19.1401 38.4075 20.5753 38.0997 21.8211 37.5434L51.1526 25.5083C53.3957 24.5851 54.532 21.9514 53.6088 19.7083C54.1592 20.1729 54.6326 20.7943 54.9818 21.5105C55.9051 23.7535 54.8309 26.3399 52.5257 27.3105Z" fill="#F7B718"/>
<path d="M49.093 23.8364L54.9345 21.4483C53.9491 19.2526 49.9453 18.7673 47.7022 19.6905L45.755 20.4865L46.7257 22.7918C47.0926 23.789 48.2053 24.2181 49.093 23.8364Z" fill="#F17BAD"/>
<path d="M54.9345 21.4482L49.093 23.8363C48.1431 24.2654 47.0453 23.7268 46.6635 22.839L45.6929 20.5338L46.3469 20.232L46.8085 21.3535C47.2376 22.3034 48.2881 22.7799 49.238 22.3508L54.0201 20.377C54.4285 20.6551 54.7747 20.9807 54.9345 21.4482Z" fill="#F0598D"/>
<path d="M55.1712 21.7589L55.109 21.8063L49.2676 24.1943C48.146 24.656 46.767 24.1352 46.2581 22.9515L45.2875 20.6463C45.2076 20.4125 45.2845 20.2557 45.4709 20.1136L47.4181 19.3176C49.7233 18.347 54.0703 18.7672 55.183 21.2588C55.2303 21.321 55.2156 21.4305 55.2008 21.5399C55.2955 21.6642 55.2333 21.7116 55.1712 21.7589ZM46.2255 20.7173L47.0215 22.6644C47.3086 23.4279 48.2023 23.8274 48.9184 23.4782L54.2923 21.2499C53.1234 19.5869 49.6523 19.285 47.7051 20.0811L46.2255 20.7173Z" fill="#5C3290"/>
<path d="M44.9234 24.1648L43.2722 24.8336C43.0384 24.9135 42.8816 24.8365 42.7396 24.6501C42.6597 24.4163 42.7366 24.2595 42.923 24.1174L44.5743 23.4487C44.808 23.3688 44.9649 23.4457 45.1069 23.6321C45.1868 23.8659 45.0951 24.1322 44.9234 24.1648Z" fill="#5C3290"/>
<path d="M40.4995 25.964L38.8483 26.6328C38.6145 26.7127 38.4577 26.6357 38.3156 26.4493C38.2357 26.2155 38.3126 26.0587 38.4991 25.9166L40.1503 25.2479C40.3841 25.168 40.5409 25.2449 40.683 25.4313C40.8102 25.7272 40.6711 25.9314 40.4995 25.964Z" fill="#5C3290"/>
<path d="M36.1229 27.8253L31.403 29.7518C31.1692 29.8317 31.0123 29.7547 30.8703 29.5683C30.7904 29.3345 30.8673 29.1777 31.0538 29.0357L35.7737 27.1092C36.0075 27.0293 36.1643 27.1063 36.3063 27.2927C36.3862 27.5265 36.2472 27.7307 36.1229 27.8253Z" fill="#5C3290"/>
<path d="M29.2841 30.5803L21.1374 33.939C20.9037 34.0189 20.7468 33.942 20.6048 33.7556C20.5249 33.5218 20.6018 33.365 20.7883 33.2229L28.9349 29.8642C29.1687 29.7843 29.3255 29.8613 29.4676 30.0477C29.657 30.2963 29.5179 30.5005 29.2841 30.5803Z" fill="#5C3290"/>
<path d="M54.026 27.3459C53.6531 27.63 53.2329 27.852 52.8748 28.0266L23.4812 40.1089C22.0637 40.6978 20.5664 41.0529 19.066 41.0174L9.83335 41.2749C8.59937 41.3311 7.57844 40.6357 7.11681 39.5141C6.65517 38.3926 6.98956 37.1557 7.82702 36.3212L8.27681 35.8803L2.19863 29.7074C2.05659 29.5209 1.92934 29.225 1.95893 29.006C2.05067 28.7397 2.25189 28.4882 2.48567 28.4083L6.37997 26.8162C6.5516 26.7837 6.72324 26.7511 6.88007 26.8281L19.3768 30.4679L48.8799 18.4003C50.1731 17.9061 51.6261 17.8795 52.8956 18.3855C54.1651 18.8915 55.1416 19.9154 55.7453 21.2234C56.6212 23.4043 55.8903 25.9255 54.026 27.3459ZM4.18129 29.4736L10.0079 35.4453C10.15 35.6317 10.2447 35.756 10.2624 36.0371C10.2328 36.2561 10.1559 36.4129 10.0168 36.6171L8.88345 37.5788C8.43365 38.0198 8.40702 38.6293 8.58161 38.9874C8.7562 39.3455 9.13498 39.8426 9.80672 39.8219L19.0394 39.5645C20.3829 39.523 21.6465 39.2478 22.9396 38.7536L52.2712 26.7186C52.5671 26.5913 52.863 26.4641 53.1116 26.2747C54.4166 25.2804 54.9344 23.5108 54.2509 21.9691C53.8691 21.0813 53.1915 20.3208 52.2357 19.9687C51.342 19.5692 50.3418 19.5455 49.454 19.9272L19.7319 31.9652C19.5602 31.9978 19.3886 32.0303 19.2318 31.9534L6.78242 28.3757L4.18129 29.4736Z" fill="#5C3290"/>
<path d="M30.6691 33.9449L30.6986 35.7885L29.0711 51.9576L33.791 50.0311L42.0856 31.1396L42.056 29.296L30.6691 33.9449Z" fill="white"/>
<path d="M42.0856 31.1396L33.7436 49.969L31.6722 50.8597L39.952 32.0777L39.9224 30.2341L42.056 29.296L42.0856 31.1396Z" fill="#E5E3E5"/>
<path d="M34.2645 50.6526C34.2023 50.6999 34.1402 50.7473 34.0781 50.7946L29.3581 52.7211C29.1244 52.801 28.7959 52.7566 28.5917 52.6175C28.3875 52.4784 28.2603 52.1825 28.2425 51.9014L29.9174 35.7945L29.8257 33.9982C29.8079 33.7171 30.024 33.3561 30.3199 33.2289L41.7069 28.58C41.9406 28.5001 42.2218 28.4823 42.4259 28.6214C42.6301 28.7605 42.8195 29.009 42.7899 29.228L42.8669 31.1337C42.8521 31.2432 42.8373 31.3527 42.8225 31.4622L34.4805 50.2916C34.4657 50.4011 34.3888 50.5579 34.2645 50.6526ZM29.9677 50.6851L33.1607 49.3328L41.2719 30.974L41.2837 30.4738L31.4858 34.5013L31.4799 35.7826L31.4651 35.8921L29.9677 50.6851Z" fill="#5C3290"/>
<path d="M26.1592 42.9793L21.6967 43.8257C21.3534 43.8908 21.1019 43.6895 21.0368 43.3463C20.9717 43.003 21.1729 42.7515 21.5162 42.6864L25.9787 41.8401C26.3219 41.7749 26.5735 41.9762 26.6386 42.3194C26.7658 42.6154 26.5024 42.9142 26.1592 42.9793Z" fill="#5C3290"/>
<path d="M25.6976 48.0455L21.2352 48.8918C20.8919 48.9569 20.6404 48.7557 20.5753 48.4124C20.5102 48.0692 20.7114 47.8176 21.0547 47.7525L25.5171 46.9062C25.8604 46.8411 26.1119 47.0423 26.177 47.3856C26.1948 47.6667 26.0409 47.9804 25.6976 48.0455Z" fill="#5C3290"/>
<path d="M25.9284 45.5124L19.6874 46.7316C19.3442 46.7967 19.0926 46.5954 19.0275 46.2522C18.9624 45.9089 19.1637 45.6574 19.5069 45.5923L25.7479 44.3731C26.0911 44.308 26.3427 44.5092 26.4078 44.8525C26.4729 45.1957 26.2716 45.4473 25.9284 45.5124Z" fill="#5C3290"/>
<path d="M50.537 32.9506C50.4749 32.998 50.3506 33.0927 50.2411 33.0779C49.96 33.0956 49.6611 32.8323 49.6434 32.5511L49.4717 28.4586C49.454 28.1774 49.7173 27.8786 49.9985 27.8608C50.2796 27.8431 50.5785 28.1064 50.5962 28.3875L50.7678 32.4801C50.7383 32.6991 50.6613 32.8559 50.537 32.9506Z" fill="#5C3290"/>
<path d="M51.5343 34.6462C52.3924 33.9924 52.558 32.7669 51.9042 31.9089C51.2505 31.0509 50.025 30.8853 49.167 31.539C48.309 32.1927 48.1434 33.4183 48.7971 34.2763C49.4508 35.1343 50.6763 35.2999 51.5343 34.6462Z" fill="#B4D562"/>
<path d="M51.8657 35.0812C50.7471 35.9335 49.2143 35.7263 48.362 34.6078C47.5098 33.4892 47.7169 31.9563 48.8355 31.1041C49.9541 30.2518 51.4869 30.459 52.3392 31.5775C53.2536 32.6488 52.9843 34.229 51.8657 35.0812ZM49.5457 32.0362C48.9243 32.5097 48.8681 33.3383 49.2942 33.8976C49.7676 34.519 50.5962 34.5752 51.1555 34.1491C51.7769 33.6756 51.8332 32.847 51.407 32.2877C50.9957 31.619 50.1671 31.5627 49.5457 32.0362Z" fill="#5C3290"/>
</g>
<defs>
<clipPath id="clip0_207_2072">
<rect width="50" height="50" fill="white" transform="translate(0 30.3022) rotate(-37.3039)"/>
</clipPath>
</defs>
</svg>
