<svg width="48" height="48" viewBox="0 0 48 48" fill="none" xmlns="http://www.w3.org/2000/svg">
<path d="M34.3125 48H13.6875C10.8443 48 8.53125 45.6869 8.53125 42.8438V5.15625C8.53125 2.31309 10.8443 0 13.6875 0H34.3125C37.1557 0 39.4688 2.31309 39.4688 5.15625V42.8438C39.4688 45.6869 37.1557 48 34.3125 48ZM13.6875 2.8125C12.3952 2.8125 11.3438 3.86391 11.3438 5.15625V42.8438C11.3438 44.1361 12.3952 45.1875 13.6875 45.1875H34.3125C35.6048 45.1875 36.6562 44.1361 36.6562 42.8438V5.15625C36.6562 3.86391 35.6048 2.8125 34.3125 2.8125H13.6875ZM32.4375 40.7812H29.625C28.8484 40.7812 28.2188 40.1516 28.2188 39.375C28.2188 38.5984 28.8484 37.9688 29.625 37.9688H32.4375C33.2141 37.9688 33.8438 38.5984 33.8438 39.375C33.8438 40.1516 33.2141 40.7812 32.4375 40.7812ZM24 40.7812H15.5625C14.7859 40.7812 14.1562 40.1516 14.1562 39.375C14.1562 38.5984 14.7859 37.9688 15.5625 37.9688H24C24.7766 37.9688 25.4062 38.5984 25.4062 39.375C25.4062 40.1516 24.7766 40.7812 24 40.7812ZM32.4375 35.1562H29.625C28.8484 35.1562 28.2188 34.5266 28.2188 33.75C28.2188 32.9734 28.8484 32.3438 29.625 32.3438H32.4375C33.2141 32.3438 33.8438 32.9734 33.8438 33.75C33.8438 34.5266 33.2141 35.1562 32.4375 35.1562ZM24 35.1562H15.5625C14.7859 35.1562 14.1562 34.5266 14.1562 33.75C14.1562 32.9734 14.7859 32.3438 15.5625 32.3438H24C24.7766 32.3438 25.4062 32.9734 25.4062 33.75C25.4062 34.5266 24.7766 35.1562 24 35.1562ZM21.4037 26.7385C20.7471 26.7385 20.1599 26.2762 20.0262 25.6077L19.5472 23.2125L17.152 22.7335C16.3904 22.5812 15.8965 21.8404 16.0488 21.0788C16.2011 20.3173 16.9419 19.8238 17.7035 19.9756L20.2801 20.4908L23.4423 17.3288L19.6347 16.0596C18.8979 15.8139 18.4997 15.0176 18.7453 14.2808C18.9909 13.5439 19.7872 13.146 20.5241 13.3913L25.6658 15.1052L27.7029 13.0681C28.252 12.519 29.1425 12.519 29.6917 13.0681C30.2408 13.6172 30.2408 14.5076 29.6917 15.0568L27.6546 17.0939L29.3684 22.2356C29.614 22.9723 29.2159 23.7688 28.4791 24.0144C27.7421 24.26 26.9459 23.8617 26.7003 23.125L25.431 19.3175L22.2688 22.4796L22.7841 25.0562C22.9364 25.8177 22.4424 26.5585 21.6809 26.7109C21.5879 26.7295 21.4951 26.7385 21.4037 26.7385ZM28.6875 8.4375H19.3125C18.5359 8.4375 17.9062 7.80788 17.9062 7.03125C17.9062 6.25462 18.5359 5.625 19.3125 5.625H28.6875C29.4641 5.625 30.0938 6.25462 30.0938 7.03125C30.0938 7.80788 29.4641 8.4375 28.6875 8.4375Z" fill="url(#paint0_linear_207_2129)"/>
<defs>
<linearGradient id="paint0_linear_207_2129" x1="24" y1="48" x2="24" y2="0" gradientUnits="userSpaceOnUse">
<stop stop-color="#A93AFF"/>
<stop offset="1" stop-color="#FF81FF"/>
</linearGradient>
</defs>
</svg>
