<svg width="56" height="56" viewBox="0 0 56 56" fill="none" xmlns="http://www.w3.org/2000/svg">
<g clip-path="url(#clip0_207_2133)">
<path d="M55.3791 15.2111L40.7803 0.609254C39.9682 -0.203141 38.6514 -0.203028 37.8393 0.609254L29.5776 8.87258C28.7655 9.68486 28.7655 11.0019 29.5776 11.8143L44.1764 26.4161L55.3791 15.2111Z" fill="#6B46CF"/>
<path d="M40.7802 0.609254C39.968 -0.203141 38.6513 -0.203028 37.8391 0.609254L37.0562 1.39235L50.8719 15.2111L41.9227 24.1622L44.1763 26.4161L55.379 15.2111L40.7802 0.609254Z" fill="#5F36CF"/>
<path d="M29.5776 11.8143C28.7654 11.0019 27.4487 11.002 26.6365 11.8143L0.609127 37.8472C-0.203042 38.6596 -0.203042 39.9766 0.609127 40.789L15.2079 55.3908C16.0201 56.2032 17.3368 56.2032 18.149 55.3908L44.1763 29.3579C44.9885 28.5456 44.9885 27.2285 44.1763 26.4161L29.5776 11.8143Z" fill="#E1F3FF"/>
<path d="M44.1762 26.4161L29.5775 11.8143C28.7653 11.0019 27.4486 11.002 26.6364 11.8143L25.8534 12.5974L39.6692 26.4161C40.4814 27.2285 40.4814 28.5455 39.6692 29.3579L14.4248 54.6077L15.2078 55.3908C16.02 56.2032 17.3367 56.2032 18.1489 55.3908L44.1762 29.3579C44.9884 28.5456 44.9884 27.2285 44.1762 26.4161Z" fill="#CCEBFF"/>
<path d="M29.5776 11.8143L44.1764 26.4161L29.5776 11.8143Z" fill="#E1F3FF"/>
<path d="M38.8972 21.1359L50.0999 9.93079L55.3992 15.2312C56.2002 16.0324 56.2002 17.3313 55.3992 18.1325L47.0972 26.4362C46.2962 27.2375 44.9975 27.2375 44.1965 26.4362L38.8972 21.1359Z" fill="#E1F3FF"/>
<path d="M55.3992 15.2312L50.0999 9.93079L47.8464 12.1848L50.8921 15.2312C51.6931 16.0323 51.6931 17.3313 50.8921 18.1325L43.3933 25.6329L44.1965 26.4362C44.9975 27.2375 46.2962 27.2375 47.0972 26.4362L55.3992 18.1325C56.2002 17.3313 56.2002 16.0324 55.3992 15.2312Z" fill="#CCEBFF"/>
<path d="M2.74072 42.9264L31.7079 13.9592L38.8901 21.1415L9.92296 50.1086L2.74072 42.9264Z" fill="#FE75A7"/>
<path d="M29.4998 16.1694L31.7105 13.9587L38.8925 21.1408L36.6818 23.3515L29.4998 16.1694Z" fill="#FE5995"/>
<path d="M20.3929 45.4402L16.4501 49.3839C15.6776 50.1566 16.8727 51.3517 17.6452 50.5788L21.5881 46.6351C22.3607 45.8625 21.1656 44.6677 20.3929 45.4402Z" fill="#6B46CF"/>
<path d="M37.6357 28.194L23.5851 42.2474C22.8126 43.0201 24.0077 44.2152 24.7802 43.4423L38.8308 29.3888C39.6033 28.6162 38.4081 27.4213 37.6357 28.194Z" fill="#6B46CF"/>
<path d="M44.2734 20.4416C43.5007 19.6691 42.3058 20.8638 43.0783 21.6365L45.0607 23.6194C45.8333 24.392 47.0283 23.1972 46.2558 22.4244L44.2734 20.4416Z" fill="#6B46CF"/>
<path d="M46.4084 18.3061C45.6357 17.5336 44.4408 18.7283 45.2133 19.501L47.1958 21.484C47.9684 22.2566 49.1635 21.0618 48.391 20.2891L46.4084 18.3061Z" fill="#6B46CF"/>
<path d="M48.5434 16.1707C47.7708 15.3981 46.5758 16.5929 47.3483 17.3657L49.3307 19.3485C50.1033 20.1212 51.2984 18.9264 50.5258 18.1536L48.5434 16.1707Z" fill="#6B46CF"/>
<path d="M52.6606 16.0182L50.6781 14.0352C49.9059 13.2624 48.7105 14.4574 49.483 15.2301L51.4654 17.2131C52.2378 17.9861 53.4331 16.7909 52.6606 16.0182Z" fill="#6B46CF"/>
<path d="M43.3314 11.1613C43.6084 10.7856 43.5284 10.2566 43.1527 9.97954L40.1724 7.78201V5.44849C40.1724 4.35587 38.4822 4.35587 38.4822 5.44849V7.78213L35.5018 9.97954C34.6224 10.6282 35.6253 11.9882 36.5049 11.34L38.4822 9.88207V12.5519L37.5041 13.2731C36.6085 13.9333 37.653 15.2633 38.5069 14.6335L39.3272 14.0288L40.1472 14.6334C41.0267 15.2818 42.0297 13.9215 41.1503 13.2732L40.1721 12.552V9.88207L42.1495 11.34C42.5682 11.6086 42.9621 11.5491 43.3314 11.1613Z" fill="white"/>
</g>
<defs>
<clipPath id="clip0_207_2133">
<rect width="56" height="56" fill="white"/>
</clipPath>
</defs>
</svg>
