<svg width="16" height="16" viewBox="0 0 16 16" fill="none" xmlns="http://www.w3.org/2000/svg">
<g clip-path="url(#clip0_212_2537)">
<path d="M13.0153 14.6599H2.99194C1.98994 14.6599 1.21661 13.9039 1.34794 12.9106L1.42394 12.3313C1.56194 11.5313 2.29394 11.0279 3.08861 10.8553L7.95194 9.99992H8.04794L12.9113 10.8553C13.7193 11.0419 14.4379 11.5173 14.5759 12.3313L14.6519 12.9179C14.7833 13.9113 14.0099 14.6666 13.0079 14.6666L13.0153 14.6599ZM11.3333 4.66659C11.3333 5.55064 10.9821 6.39849 10.357 7.02361C9.73184 7.64873 8.884 7.99992 7.99994 7.99992C7.11589 7.99992 6.26804 7.64873 5.64292 7.02361C5.0178 6.39849 4.66661 5.55064 4.66661 4.66659C4.66661 3.78253 5.0178 2.93468 5.64292 2.30956C6.26804 1.68444 7.11589 1.33325 7.99994 1.33325C8.884 1.33325 9.73184 1.68444 10.357 2.30956C10.9821 2.93468 11.3333 3.78253 11.3333 4.66659Z" stroke="#611BA7" stroke-width="1.25" stroke-linecap="round" stroke-linejoin="round"/>
</g>
<defs>
<clipPath id="clip0_212_2537">
<rect width="16" height="16" fill="white"/>
</clipPath>
</defs>
</svg>
