<svg width="20" height="20" viewBox="0 0 20 20" fill="none" xmlns="http://www.w3.org/2000/svg">
<path d="M2.05337 7.78663C1.8467 7.78663 1.65754 7.61829 1.6667 7.39913C1.72254 6.11413 1.8792 5.27746 2.3167 4.61579C2.56625 4.23873 2.87921 3.90773 3.2417 3.63746C4.21254 2.91663 5.58337 2.91663 8.3267 2.91663H11.6717C14.415 2.91663 15.7859 2.91663 16.7584 3.63746C17.1175 3.90413 17.4309 4.23496 17.6825 4.61579C18.12 5.27746 18.2767 6.11413 18.3325 7.39913C18.3417 7.61829 18.1525 7.78663 17.945 7.78663C16.79 7.78663 15.8542 8.77746 15.8542 9.99996C15.8542 11.2225 16.79 12.2133 17.9459 12.2133C18.1525 12.2133 18.3417 12.3816 18.3325 12.6016C18.2767 13.8858 18.12 14.7225 17.6825 15.385C17.4329 15.7617 17.12 16.0924 16.7575 16.3625C15.7859 17.0833 14.415 17.0833 11.6717 17.0833H8.32753C5.5842 17.0833 4.21337 17.0833 3.24087 16.3625C2.87867 16.0921 2.566 15.7611 2.3167 15.3841C1.8792 14.7225 1.72254 13.8858 1.6667 12.6008C1.65754 12.3816 1.8467 12.2133 2.05337 12.2133C3.20837 12.2133 4.14504 11.2225 4.14504 9.99996C4.14504 8.77746 3.20837 7.78663 2.05337 7.78663Z" stroke="#611BA7" stroke-width="1.25" stroke-linejoin="round"/>
<path d="M7.91675 12.0833L12.0834 7.91663" stroke="#611BA7" stroke-width="1.25" stroke-linecap="round" stroke-linejoin="round"/>
<path d="M7.91675 7.91663H7.92591M12.0742 12.0833H12.0834" stroke="#611BA7" stroke-width="1.66667" stroke-linecap="round" stroke-linejoin="round"/>
</svg>
