<svg width="20" height="20" viewBox="0 0 20 20" fill="none" xmlns="http://www.w3.org/2000/svg">
<path d="M9.99996 10.2083C9.38189 10.2083 8.77771 10.025 8.2638 9.6816C7.7499 9.33822 7.34936 8.85016 7.11284 8.27914C6.87631 7.70812 6.81443 7.07979 6.935 6.4736C7.05558 5.86741 7.35321 5.31058 7.79025 4.87354C8.22729 4.43651 8.78411 4.13888 9.3903 4.0183C9.99649 3.89772 10.6248 3.95961 11.1958 4.19613C11.7669 4.43265 12.2549 4.83319 12.5983 5.3471C12.9417 5.861 13.125 6.46519 13.125 7.08325C13.125 7.91205 12.7957 8.70691 12.2097 9.29296C11.6236 9.87901 10.8288 10.2083 9.99996 10.2083ZM9.99996 5.20825C9.62912 5.20825 9.26661 5.31822 8.95826 5.52425C8.64992 5.73028 8.4096 6.02311 8.26769 6.36572C8.12577 6.70833 8.08864 7.08533 8.16099 7.44905C8.23333 7.81276 8.41191 8.14685 8.67413 8.40908C8.93636 8.6713 9.27045 8.84988 9.63416 8.92223C9.99788 8.99457 10.3749 8.95744 10.7175 8.81553C11.0601 8.67361 11.3529 8.43329 11.559 8.12495C11.765 7.81661 11.875 7.45409 11.875 7.08325C11.875 6.58597 11.6774 6.10906 11.3258 5.75743C10.9742 5.4058 10.4972 5.20825 9.99996 5.20825ZM15.8333 16.0416C15.6682 16.0394 15.5105 15.9729 15.3937 15.8561C15.277 15.7394 15.2105 15.5817 15.2083 15.4166C15.2083 13.7916 14.325 12.7083 9.99996 12.7083C5.67496 12.7083 4.79163 13.7916 4.79163 15.4166C4.79163 15.5823 4.72578 15.7413 4.60857 15.8585C4.49136 15.9757 4.33239 16.0416 4.16663 16.0416C4.00087 16.0416 3.84189 15.9757 3.72468 15.8585C3.60747 15.7413 3.54163 15.5823 3.54163 15.4166C3.54163 11.4583 8.06663 11.4583 9.99996 11.4583C11.9333 11.4583 16.4583 11.4583 16.4583 15.4166C16.4561 15.5817 16.3896 15.7394 16.2728 15.8561C16.1561 15.9729 15.9984 16.0394 15.8333 16.0416Z" fill="#611BA7"/>
</svg>
