<svg width="20" height="20" viewBox="0 0 20 20" fill="none" xmlns="http://www.w3.org/2000/svg">
<path fill-rule="evenodd" clip-rule="evenodd" d="M6.9167 2.70831H13.0834C13.8325 2.70831 14.4567 2.70831 14.9525 2.77498C15.475 2.84498 15.9475 2.99998 16.3275 3.37915C16.7067 3.75915 16.8609 4.23165 16.9317 4.75415C16.9984 5.24998 16.9984 5.87498 16.9984 6.62331V12.6933L18.2592 13.9941L18.2617 13.9975L18.2684 14.0033L18.2742 14.01L18.2792 14.015L18.2875 14.0233L18.2959 14.0325L18.3 14.0366L18.3067 14.0441L18.3142 14.0525L18.3209 14.0608L18.3309 14.0733C18.6409 14.4316 18.9167 14.9683 18.9542 15.5041V15.5075L18.9567 15.5266V15.5375L18.9584 15.5491V15.645C18.9584 15.7533 18.9584 15.9108 18.9542 15.9783C18.9188 16.5347 18.6818 17.0591 18.2876 17.4534C17.8934 17.8476 17.3689 18.0846 16.8125 18.12C16.7392 18.125 16.6584 18.125 16.5534 18.125H3.44754C3.34254 18.125 3.2617 18.125 3.1892 18.12C2.6325 18.085 2.10767 17.8482 1.71309 17.4539C1.31851 17.0596 1.08128 16.535 1.04587 15.9783C1.04232 15.8678 1.0412 15.7572 1.04254 15.6466V15.5491L1.04337 15.5375V15.5275L1.04587 15.5075V15.5041C1.0842 14.9683 1.36004 14.4325 1.67004 14.0733L1.68004 14.0608L1.6867 14.0525L1.69504 14.0441L1.70087 14.0366L1.7042 14.0325L1.71337 14.0241L1.7217 14.015L1.72587 14.01L1.73254 14.0033L1.73837 13.9975L1.7417 13.9941L3.00254 12.6933V6.62331C3.00254 5.87498 3.00254 5.24998 3.0692 4.75498C3.1392 4.23165 3.2942 3.75915 3.67337 3.37998C4.05337 2.99998 4.52587 2.84498 5.04837 2.77498C5.5442 2.70831 6.16754 2.70831 6.9167 2.70831ZM3.8917 13.5716L2.63004 14.8741C2.44087 15.085 2.3017 15.3958 2.29254 15.605V15.7908L2.29337 15.8991C2.30952 16.1523 2.41748 16.3908 2.59698 16.57C2.77649 16.7492 3.01521 16.8568 3.26837 16.8725C3.29587 16.875 3.33337 16.875 3.46754 16.875H16.5325C16.6659 16.875 16.7042 16.875 16.7325 16.8725C16.9854 16.8564 17.2237 16.7487 17.4029 16.5695C17.582 16.3903 17.6898 16.152 17.7059 15.8991L17.7067 15.87L17.7075 15.6558V15.6058C17.6984 15.3958 17.5592 15.085 17.3692 14.8741L16.1075 13.5716H3.8917ZM15.7475 12.3216V6.66665C15.7475 5.86331 15.7459 5.32331 15.6917 4.92081C15.64 4.53665 15.5509 4.37165 15.4417 4.26331C15.3325 4.15498 15.1692 4.06581 14.785 4.01331C14.3825 3.95998 13.8425 3.95831 13.0392 3.95831H6.96087C6.15754 3.95831 5.61754 3.95998 5.21504 4.01415C4.83087 4.06581 4.66587 4.15498 4.55754 4.26415C4.4492 4.37331 4.3592 4.53665 4.30754 4.92081C4.25337 5.32331 4.25254 5.86331 4.25254 6.66665V12.3216H15.7475ZM1.94254 15.02L1.9167 15.01L1.9242 15.0141L1.94254 15.02ZM7.2917 15.4166C7.2917 15.2509 7.35755 15.0919 7.47476 14.9747C7.59197 14.8575 7.75094 14.7916 7.9167 14.7916H12.0834C12.2491 14.7916 12.4081 14.8575 12.5253 14.9747C12.6425 15.0919 12.7084 15.2509 12.7084 15.4166C12.7084 15.5824 12.6425 15.7414 12.5253 15.8586C12.4081 15.9758 12.2491 16.0416 12.0834 16.0416H7.9167C7.75094 16.0416 7.59197 15.9758 7.47476 15.8586C7.35755 15.7414 7.2917 15.5824 7.2917 15.4166Z" fill="#611BA7"/>
<path d="M10.625 5.625C10.625 5.79076 10.5592 5.94973 10.4419 6.06694C10.3247 6.18415 10.1658 6.25 10 6.25C9.83424 6.25 9.67527 6.18415 9.55806 6.06694C9.44085 5.94973 9.375 5.79076 9.375 5.625C9.375 5.45924 9.44085 5.30027 9.55806 5.18306C9.67527 5.06585 9.83424 5 10 5C10.1658 5 10.3247 5.06585 10.4419 5.18306C10.5592 5.30027 10.625 5.45924 10.625 5.625Z" fill="#611BA7"/>
</svg>
