<svg width="25" height="25" viewBox="0 0 25 25" fill="none" xmlns="http://www.w3.org/2000/svg">
<path d="M8.73375 2.5825L7.8375 2.8525C7.03947 3.09316 6.3268 3.55678 5.78337 4.1888C5.23993 4.82081 4.88835 5.59492 4.77 6.42C4.39875 9.005 5.22875 12.0275 7.23 15.4938C9.22625 18.9513 11.4238 21.1788 13.8425 22.1538C14.6197 22.467 15.4704 22.5504 16.2936 22.3942C17.1168 22.238 17.8779 21.8487 18.4863 21.2725L19.1638 20.63C19.6037 20.2136 19.8775 19.6517 19.9343 19.0486C19.9911 18.4456 19.827 17.8424 19.4725 17.3513L17.7775 15.0013C17.5483 14.684 17.2256 14.4464 16.8547 14.3218C16.4837 14.1971 16.083 14.1917 15.7088 14.3063L13.145 15.09L13.0788 15.1025C12.7963 15.1438 12.1438 14.5325 11.3313 13.125C10.4813 11.6525 10.3063 10.7913 10.54 10.5688L11.8438 9.3525C12.32 8.90776 12.6454 8.32525 12.7743 7.68648C12.9031 7.0477 12.8291 6.38462 12.5625 5.79L11.735 3.95125C11.4862 3.39793 11.0446 2.95397 10.4927 2.70214C9.9407 2.45031 9.31475 2.40779 8.73375 2.5825ZM10.5975 4.46375L11.4225 6.3025C11.5826 6.65915 11.6272 7.05692 11.5501 7.44018C11.473 7.82343 11.2781 8.17301 10.9925 8.44L9.685 9.6575C8.8475 10.45 9.125 11.8025 10.25 13.75C11.3075 15.5825 12.2725 16.4875 13.31 16.33L13.465 16.2975L16.075 15.5013C16.1998 15.4629 16.3334 15.4646 16.4571 15.5061C16.5809 15.5476 16.6885 15.6267 16.765 15.7325L18.46 18.0825C18.6375 18.3281 18.7197 18.6297 18.6915 18.9314C18.6632 19.2331 18.5263 19.5142 18.3063 19.7225L17.6275 20.365C17.1929 20.7763 16.6494 21.0542 16.0616 21.1656C15.4737 21.2771 14.8662 21.2174 14.3113 20.9938C12.1888 20.1388 10.1825 18.105 8.31375 14.8688C6.44 11.625 5.68125 8.86625 6.0075 6.5975C6.09195 6.00804 6.34307 5.45498 6.73128 5.00343C7.11948 4.55189 7.62862 4.22066 8.19875 4.04875L9.095 3.77875C9.38557 3.69144 9.69798 3.71279 9.97398 3.83882C10.25 3.96486 10.4707 4.18698 10.595 4.46375" fill="#611BA7"/>
</svg>
