<svg width="25" height="25" viewBox="0 0 25 25" fill="none" xmlns="http://www.w3.org/2000/svg">
<path d="M22.5 21.5H2.5V19.5H3.5V4.5C3.5 4.23478 3.60536 3.98043 3.79289 3.79289C3.98043 3.60536 4.23478 3.5 4.5 3.5H18.5C18.7652 3.5 19.0196 3.60536 19.2071 3.79289C19.3946 3.98043 19.5 4.23478 19.5 4.5V9.5H21.5V19.5H22.5V21.5ZM17.5 19.5H19.5V11.5H13.5V19.5H15.5V13.5H17.5V19.5ZM17.5 9.5V5.5H5.5V19.5H11.5V9.5H17.5ZM7.5 11.5H9.5V13.5H7.5V11.5ZM7.5 15.5H9.5V17.5H7.5V15.5ZM7.5 7.5H9.5V9.5H7.5V7.5Z" fill="#666666"/>
</svg>
